<svg xmlns="http://www.w3.org/2000/svg" width="780" height="293.48" viewBox="0 0 780 293.48">
  <g id="组_13843" data-name="组 13843" transform="translate(19892 22711.48)">
    <path id="路径_19557" data-name="路径 19557" d="M5.469-7.158h.947v4.136a4.895,4.895,0,0,1-.244,1.714A2.091,2.091,0,0,1,5.291-.276a3.121,3.121,0,0,1-1.672.4A3.437,3.437,0,0,1,1.973-.225a1.979,1.979,0,0,1-.913-1A4.781,4.781,0,0,1,.786-3.022V-7.158h.947v4.131a4.027,4.027,0,0,0,.173,1.375,1.316,1.316,0,0,0,.6.681,2.066,2.066,0,0,0,1.033.239,1.974,1.974,0,0,0,1.489-.474,2.729,2.729,0,0,0,.444-1.821ZM7.881,0V-5.186h.791v.737a1.864,1.864,0,0,1,1.65-.854,2.165,2.165,0,0,1,.862.168,1.356,1.356,0,0,1,.588.442,1.7,1.7,0,0,1,.273.649,5.033,5.033,0,0,1,.049.854V0h-.879V-3.154a2.368,2.368,0,0,0-.1-.8.845.845,0,0,0-.364-.425,1.157,1.157,0,0,0-.613-.159,1.424,1.424,0,0,0-.969.356A1.758,1.758,0,0,0,8.76-2.832V0Zm5.566-6.147V-7.158h.879v1.011Zm0,6.147V-5.186h.879V0Zm4.136-.786.127.776a3.26,3.26,0,0,1-.664.078A1.5,1.5,0,0,1,16.3-.083a.848.848,0,0,1-.371-.4,3.147,3.147,0,0,1-.107-1.038V-4.5h-.645v-.684h.645V-6.47L16.7-7v1.812h.884V-4.5H16.7V-1.47a1.532,1.532,0,0,0,.046.483.366.366,0,0,0,.151.171.585.585,0,0,0,.3.063A2.859,2.859,0,0,0,17.583-.786Zm1.1-3.4v-1h1v1Zm0,4.185V-1h1V0ZM29.219-2.51l.947.239a3.189,3.189,0,0,1-1.072,1.78A2.953,2.953,0,0,1,27.2.122,3.4,3.4,0,0,1,25.32-.349a2.942,2.942,0,0,1-1.1-1.365,4.869,4.869,0,0,1-.378-1.919,4.218,4.218,0,0,1,.427-1.951,2.927,2.927,0,0,1,1.216-1.265,3.552,3.552,0,0,1,1.736-.432,2.935,2.935,0,0,1,1.807.547A2.84,2.84,0,0,1,30.044-5.2l-.933.22a2.212,2.212,0,0,0-.723-1.138A1.926,1.926,0,0,0,27.2-6.47a2.314,2.314,0,0,0-1.379.4,2.089,2.089,0,0,0-.779,1.062,4.276,4.276,0,0,0-.225,1.375,4.368,4.368,0,0,0,.266,1.594,1.982,1.982,0,0,0,.828,1.018,2.321,2.321,0,0,0,1.216.337,2.037,2.037,0,0,0,1.348-.459A2.349,2.349,0,0,0,29.219-2.51ZM31.323,0V-7.158h.972l3.76,5.62v-5.62h.908V0h-.972l-3.76-5.625V0Zm9.248,0V-3.032L37.813-7.158h1.152L40.376-5q.391.605.728,1.211.322-.562.781-1.265l1.387-2.1h1.1L41.519-3.032V0Zm3.882.122,2.075-7.4h.7l-2.07,7.4ZM48,0V-7.158h2.7a6.52,6.52,0,0,1,1.089.068,2.157,2.157,0,0,1,.884.334,1.755,1.755,0,0,1,.574.691,2.193,2.193,0,0,1,.217.977,2.2,2.2,0,0,1-.581,1.545,2.787,2.787,0,0,1-2.1.632H48.95V0Zm.947-3.755H50.8A1.963,1.963,0,0,0,52.1-4.1a1.218,1.218,0,0,0,.386-.962,1.294,1.294,0,0,0-.227-.769,1.061,1.061,0,0,0-.6-.422,4.047,4.047,0,0,0-.884-.063H48.95ZM59.78-2.51l.947.239a3.189,3.189,0,0,1-1.072,1.78,2.953,2.953,0,0,1-1.892.613,3.4,3.4,0,0,1-1.882-.471,2.942,2.942,0,0,1-1.1-1.365A4.869,4.869,0,0,1,54.4-3.633a4.218,4.218,0,0,1,.427-1.951,2.927,2.927,0,0,1,1.216-1.265,3.552,3.552,0,0,1,1.736-.432,2.935,2.935,0,0,1,1.807.547A2.84,2.84,0,0,1,60.605-5.2l-.933.22a2.212,2.212,0,0,0-.723-1.138,1.926,1.926,0,0,0-1.191-.356,2.314,2.314,0,0,0-1.379.4A2.089,2.089,0,0,0,55.6-5.012a4.276,4.276,0,0,0-.225,1.375,4.368,4.368,0,0,0,.266,1.594,1.982,1.982,0,0,0,.828,1.018,2.321,2.321,0,0,0,1.216.337,2.037,2.037,0,0,0,1.348-.459A2.349,2.349,0,0,0,59.78-2.51Z" transform="translate(-19892 -22676)" fill="#acb8cf"/>
    <path id="路径_19556" data-name="路径 19556" d="M5.418-5.81c-.532.28-1.064.532-1.61.77V-7.9H5.376v-.966H3.808V-11.4H2.814v2.534H.784V-7.9h2.03v3.248a23.012,23.012,0,0,1-2.24.658L.826-3c.672-.21,1.344-.434,1.988-.672V-.14a.526.526,0,0,1-.574.6A11.494,11.494,0,0,1,1.064.392l.224.966h1.3A1.1,1.1,0,0,0,3.808.1V-4.074c.546-.224,1.078-.476,1.61-.742Zm1.722.882h.812A7.709,7.709,0,0,0,9.73-1.19,7.372,7.372,0,0,1,7.462.532l.49.882A7.938,7.938,0,0,0,10.4-.462a13.853,13.853,0,0,0,2.366,1.834L13.44.6a11.985,11.985,0,0,1-2.478-1.778,9.784,9.784,0,0,0,1.5-3.808v-.868H7.14V-9.94h4.228a6.91,6.91,0,0,1-.182,1.708.7.7,0,0,1-.378.322,4.833,4.833,0,0,1-.77.056c-.336,0-.6-.014-.826-.014l.28.882H10.5c.9,0,1.428-.266,1.6-.77a13.13,13.13,0,0,0,.238-3.108H6.188V1.4H7.14Zm1.722,0h2.632a8.943,8.943,0,0,1-1.218,3.01A6.418,6.418,0,0,1,8.862-4.928ZM25.606-3.766H16.478V1.386H17.5V.644h7.084v.742h1.022ZM17.5-.308V-2.8h7.084V-.308ZM17.318-8.5h3.346V-6.23H14.672v.994H27.328V-6.23H21.686V-8.5h4.578v-.966H21.686v-1.988H20.664v1.988H17.92a9.109,9.109,0,0,0,.686-1.652L17.6-11.228A7.517,7.517,0,0,1,15.022-7.5l.6.8A10.191,10.191,0,0,0,17.318-8.5ZM32.97.532h6.258v.826H40.25V-4.55H34.412a11.08,11.08,0,0,0,5.446-4.7v-.9H34.4a9.506,9.506,0,0,0,.756-1.19l-1.106-.126A9.644,9.644,0,0,1,29.2-7.7l.672.868A14.229,14.229,0,0,0,33.516-9.2H38.7a8.484,8.484,0,0,1-3.122,3,20.44,20.44,0,0,0-2.506-1.764L32.2-7.42a16.968,16.968,0,0,1,2.52,1.68,24.742,24.742,0,0,1-6.048,1.96l.532.966c.98-.238,1.89-.49,2.758-.77V1.358H32.97Zm6.258-.98H32.97V-3.612h6.258ZM42.812-7.6v.966h1.932A11.079,11.079,0,0,1,42.476-2.38l.434,1.12A14.361,14.361,0,0,0,44.856-5V1.358h.966V-4.97c.42.49.938,1.148,1.526,1.988l.56-.84a28.433,28.433,0,0,0-2.086-2.044v-.77h1.722V-7.6H45.822V-9.758c.714-.14,1.386-.308,2-.476l-.35-.952a21.965,21.965,0,0,1-4.606.854l.2.952c.616-.056,1.2-.14,1.792-.224v2ZM50.764,1.33c.8,0,1.2-.42,1.2-1.26V-7.336H50.932V-.182c0,.406-.182.616-.518.616-.378,0-.784-.028-1.2-.07l.21.966ZM49-5.32A15.9,15.9,0,0,1,47.348-.854l.868.546a18.085,18.085,0,0,0,1.722-4.83Zm4.788-.1-.91.294A40.419,40.419,0,0,1,54.5-.168l.924-.406A38.52,38.52,0,0,0,53.788-5.418ZM49.952-8.526h4a14.147,14.147,0,0,1-.63,2.2l.98.294a24.139,24.139,0,0,0,.658-2.814v-.658H50.33a14.868,14.868,0,0,0,.49-1.848l-.994-.126A10.45,10.45,0,0,1,47.88-6.944l.616.8A10.414,10.414,0,0,0,49.952-8.526Z" transform="translate(-19892 -22700)" fill="#727272"/>
    <g id="组_13818" data-name="组 13818">
      <rect id="Shape" width="780" height="1" transform="translate(-19892 -22419)" fill="#eef2fb"/>
      <rect id="Shape-2" data-name="Shape" width="780" height="1" transform="translate(-19892 -22644)" fill="#eef2fb"/>
      <rect id="Shape-3" data-name="Shape" width="780" height="1" transform="translate(-19892 -22589)" fill="#eef2fb"/>
      <rect id="Shape-4" data-name="Shape" width="780" height="1" transform="translate(-19892 -22531)" fill="#eef2fb"/>
      <rect id="Shape-5" data-name="Shape" width="780" height="1" transform="translate(-19892 -22475)" fill="#eef2fb"/>
    </g>
    <text id="_1k" data-name="$1k" transform="translate(-19270 -22642)" fill="#fff" font-size="12" font-family="ArialMT, Arial"><tspan x="-13.348" y="0">00</tspan></text>
    <path id="矩形_9303" data-name="矩形 9303" d="M5,0H45a5,5,0,0,1,5,5V206a0,0,0,0,1,0,0H0a0,0,0,0,1,0,0V5A5,5,0,0,1,5,0Z" transform="translate(-19847 -22625)" fill="#0040be"/>
    <path id="矩形_9304" data-name="矩形 9304" d="M5,0H45a5,5,0,0,1,5,5V166a0,0,0,0,1,0,0H0a0,0,0,0,1,0,0V5A5,5,0,0,1,5,0Z" transform="translate(-19847 -22585)" fill="#1763f7"/>
    <path id="矩形_9305" data-name="矩形 9305" d="M5,0H45a5,5,0,0,1,5,5V139a0,0,0,0,1,0,0H0a0,0,0,0,1,0,0V5A5,5,0,0,1,5,0Z" transform="translate(-19847 -22558)" fill="#5993ff"/>
    <path id="矩形_9306" data-name="矩形 9306" d="M5,0H45a5,5,0,0,1,5,5V115a0,0,0,0,1,0,0H0a0,0,0,0,1,0,0V5A5,5,0,0,1,5,0Z" transform="translate(-19847 -22534)" fill="#72aeff"/>
    <path id="矩形_9307" data-name="矩形 9307" d="M5,0H45a5,5,0,0,1,5,5V83a0,0,0,0,1,0,0H0a0,0,0,0,1,0,0V5A5,5,0,0,1,5,0Z" transform="translate(-19847 -22502)" fill="#9bbeff"/>
    <path id="_1k-2" data-name="$1k" d="M-12.85-4.236a7.86,7.86,0,0,1,.313-2.452A3.05,3.05,0,0,1-11.6-8.121a2.382,2.382,0,0,1,1.556-.5,2.538,2.538,0,0,1,1.213.278,2.319,2.319,0,0,1,.861.8,4.306,4.306,0,0,1,.533,1.277,8.487,8.487,0,0,1,.193,2.03A7.882,7.882,0,0,1-7.559-1.8,3.051,3.051,0,0,1-8.487-.36a2.382,2.382,0,0,1-1.562.507A2.357,2.357,0,0,1-12-.744,5.661,5.661,0,0,1-12.85-4.236Zm1.084,0a5.386,5.386,0,0,0,.5,2.815,1.459,1.459,0,0,0,1.222.7,1.458,1.458,0,0,0,1.222-.7,5.388,5.388,0,0,0,.5-2.812,5.384,5.384,0,0,0-.5-2.818,1.47,1.47,0,0,0-1.233-.7,1.351,1.351,0,0,0-1.16.615A5.448,5.448,0,0,0-11.766-4.236Zm5.59,0a7.86,7.86,0,0,1,.313-2.452,3.05,3.05,0,0,1,.932-1.433,2.382,2.382,0,0,1,1.556-.5,2.538,2.538,0,0,1,1.213.278,2.319,2.319,0,0,1,.861.8A4.306,4.306,0,0,1-.768-6.267a8.487,8.487,0,0,1,.193,2.03A7.882,7.882,0,0,1-.885-1.8,3.051,3.051,0,0,1-1.813-.36,2.382,2.382,0,0,1-3.375.146,2.357,2.357,0,0,1-5.326-.744,5.661,5.661,0,0,1-6.176-4.236Zm1.084,0a5.386,5.386,0,0,0,.5,2.815,1.459,1.459,0,0,0,1.222.7,1.458,1.458,0,0,0,1.222-.7,5.388,5.388,0,0,0,.5-2.812,5.384,5.384,0,0,0-.5-2.818,1.47,1.47,0,0,0-1.233-.7,1.351,1.351,0,0,0-1.16.615A5.448,5.448,0,0,0-5.092-4.236Z" transform="translate(-19815 -22633)" fill="#7e84a3"/>
    <path id="_1k-3" data-name="$1k" d="M-12.85-4.236a7.86,7.86,0,0,1,.313-2.452A3.05,3.05,0,0,1-11.6-8.121a2.382,2.382,0,0,1,1.556-.5,2.538,2.538,0,0,1,1.213.278,2.319,2.319,0,0,1,.861.8,4.306,4.306,0,0,1,.533,1.277,8.487,8.487,0,0,1,.193,2.03A7.882,7.882,0,0,1-7.559-1.8,3.051,3.051,0,0,1-8.487-.36a2.382,2.382,0,0,1-1.562.507A2.357,2.357,0,0,1-12-.744,5.661,5.661,0,0,1-12.85-4.236Zm1.084,0a5.386,5.386,0,0,0,.5,2.815,1.459,1.459,0,0,0,1.222.7,1.458,1.458,0,0,0,1.222-.7,5.388,5.388,0,0,0,.5-2.812,5.384,5.384,0,0,0-.5-2.818,1.47,1.47,0,0,0-1.233-.7,1.351,1.351,0,0,0-1.16.615A5.448,5.448,0,0,0-11.766-4.236Zm5.59,0a7.86,7.86,0,0,1,.313-2.452,3.05,3.05,0,0,1,.932-1.433,2.382,2.382,0,0,1,1.556-.5,2.538,2.538,0,0,1,1.213.278,2.319,2.319,0,0,1,.861.8A4.306,4.306,0,0,1-.768-6.267a8.487,8.487,0,0,1,.193,2.03A7.882,7.882,0,0,1-.885-1.8,3.051,3.051,0,0,1-1.813-.36,2.382,2.382,0,0,1-3.375.146,2.357,2.357,0,0,1-5.326-.744,5.661,5.661,0,0,1-6.176-4.236Zm1.084,0a5.386,5.386,0,0,0,.5,2.815,1.459,1.459,0,0,0,1.222.7,1.458,1.458,0,0,0,1.222-.7,5.388,5.388,0,0,0,.5-2.812,5.384,5.384,0,0,0-.5-2.818,1.47,1.47,0,0,0-1.233-.7,1.351,1.351,0,0,0-1.16.615A5.448,5.448,0,0,0-5.092-4.236Z" transform="translate(-19815 -22565)" fill="#fff"/>
    <path id="_1k-4" data-name="$1k" d="M-12.85-4.236a7.86,7.86,0,0,1,.313-2.452A3.05,3.05,0,0,1-11.6-8.121a2.382,2.382,0,0,1,1.556-.5,2.538,2.538,0,0,1,1.213.278,2.319,2.319,0,0,1,.861.8,4.306,4.306,0,0,1,.533,1.277,8.487,8.487,0,0,1,.193,2.03A7.882,7.882,0,0,1-7.559-1.8,3.051,3.051,0,0,1-8.487-.36a2.382,2.382,0,0,1-1.562.507A2.357,2.357,0,0,1-12-.744,5.661,5.661,0,0,1-12.85-4.236Zm1.084,0a5.386,5.386,0,0,0,.5,2.815,1.459,1.459,0,0,0,1.222.7,1.458,1.458,0,0,0,1.222-.7,5.388,5.388,0,0,0,.5-2.812,5.384,5.384,0,0,0-.5-2.818,1.47,1.47,0,0,0-1.233-.7,1.351,1.351,0,0,0-1.16.615A5.448,5.448,0,0,0-11.766-4.236Zm5.59,0a7.86,7.86,0,0,1,.313-2.452,3.05,3.05,0,0,1,.932-1.433,2.382,2.382,0,0,1,1.556-.5,2.538,2.538,0,0,1,1.213.278,2.319,2.319,0,0,1,.861.8A4.306,4.306,0,0,1-.768-6.267a8.487,8.487,0,0,1,.193,2.03A7.882,7.882,0,0,1-.885-1.8,3.051,3.051,0,0,1-1.813-.36,2.382,2.382,0,0,1-3.375.146,2.357,2.357,0,0,1-5.326-.744,5.661,5.661,0,0,1-6.176-4.236Zm1.084,0a5.386,5.386,0,0,0,.5,2.815,1.459,1.459,0,0,0,1.222.7,1.458,1.458,0,0,0,1.222-.7,5.388,5.388,0,0,0,.5-2.812,5.384,5.384,0,0,0-.5-2.818,1.47,1.47,0,0,0-1.233-.7,1.351,1.351,0,0,0-1.16.615A5.448,5.448,0,0,0-5.092-4.236Z" transform="translate(-19815 -22599)" fill="#fff"/>
    <path id="_1k-5" data-name="$1k" d="M-12.85-4.236a7.86,7.86,0,0,1,.313-2.452A3.05,3.05,0,0,1-11.6-8.121a2.382,2.382,0,0,1,1.556-.5,2.538,2.538,0,0,1,1.213.278,2.319,2.319,0,0,1,.861.8,4.306,4.306,0,0,1,.533,1.277,8.487,8.487,0,0,1,.193,2.03A7.882,7.882,0,0,1-7.559-1.8,3.051,3.051,0,0,1-8.487-.36a2.382,2.382,0,0,1-1.562.507A2.357,2.357,0,0,1-12-.744,5.661,5.661,0,0,1-12.85-4.236Zm1.084,0a5.386,5.386,0,0,0,.5,2.815,1.459,1.459,0,0,0,1.222.7,1.458,1.458,0,0,0,1.222-.7,5.388,5.388,0,0,0,.5-2.812,5.384,5.384,0,0,0-.5-2.818,1.47,1.47,0,0,0-1.233-.7,1.351,1.351,0,0,0-1.16.615A5.448,5.448,0,0,0-11.766-4.236Zm5.59,0a7.86,7.86,0,0,1,.313-2.452,3.05,3.05,0,0,1,.932-1.433,2.382,2.382,0,0,1,1.556-.5,2.538,2.538,0,0,1,1.213.278,2.319,2.319,0,0,1,.861.8A4.306,4.306,0,0,1-.768-6.267a8.487,8.487,0,0,1,.193,2.03A7.882,7.882,0,0,1-.885-1.8,3.051,3.051,0,0,1-1.813-.36,2.382,2.382,0,0,1-3.375.146,2.357,2.357,0,0,1-5.326-.744,5.661,5.661,0,0,1-6.176-4.236Zm1.084,0a5.386,5.386,0,0,0,.5,2.815,1.459,1.459,0,0,0,1.222.7,1.458,1.458,0,0,0,1.222-.7,5.388,5.388,0,0,0,.5-2.812,5.384,5.384,0,0,0-.5-2.818,1.47,1.47,0,0,0-1.233-.7,1.351,1.351,0,0,0-1.16.615A5.448,5.448,0,0,0-5.092-4.236Z" transform="translate(-19815 -22541)" fill="#fff"/>
    <path id="_1k-6" data-name="$1k" d="M-12.85-4.236a7.86,7.86,0,0,1,.313-2.452A3.05,3.05,0,0,1-11.6-8.121a2.382,2.382,0,0,1,1.556-.5,2.538,2.538,0,0,1,1.213.278,2.319,2.319,0,0,1,.861.8,4.306,4.306,0,0,1,.533,1.277,8.487,8.487,0,0,1,.193,2.03A7.882,7.882,0,0,1-7.559-1.8,3.051,3.051,0,0,1-8.487-.36a2.382,2.382,0,0,1-1.562.507A2.357,2.357,0,0,1-12-.744,5.661,5.661,0,0,1-12.85-4.236Zm1.084,0a5.386,5.386,0,0,0,.5,2.815,1.459,1.459,0,0,0,1.222.7,1.458,1.458,0,0,0,1.222-.7,5.388,5.388,0,0,0,.5-2.812,5.384,5.384,0,0,0-.5-2.818,1.47,1.47,0,0,0-1.233-.7,1.351,1.351,0,0,0-1.16.615A5.448,5.448,0,0,0-11.766-4.236Zm5.59,0a7.86,7.86,0,0,1,.313-2.452,3.05,3.05,0,0,1,.932-1.433,2.382,2.382,0,0,1,1.556-.5,2.538,2.538,0,0,1,1.213.278,2.319,2.319,0,0,1,.861.8A4.306,4.306,0,0,1-.768-6.267a8.487,8.487,0,0,1,.193,2.03A7.882,7.882,0,0,1-.885-1.8,3.051,3.051,0,0,1-1.813-.36,2.382,2.382,0,0,1-3.375.146,2.357,2.357,0,0,1-5.326-.744,5.661,5.661,0,0,1-6.176-4.236Zm1.084,0a5.386,5.386,0,0,0,.5,2.815,1.459,1.459,0,0,0,1.222.7,1.458,1.458,0,0,0,1.222-.7,5.388,5.388,0,0,0,.5-2.812,5.384,5.384,0,0,0-.5-2.818,1.47,1.47,0,0,0-1.233-.7,1.351,1.351,0,0,0-1.16.615A5.448,5.448,0,0,0-5.092-4.236Z" transform="translate(-19815 -22512)" fill="#fff"/>
    <path id="_1k-7" data-name="$1k" d="M-12.85-4.236a7.86,7.86,0,0,1,.313-2.452A3.05,3.05,0,0,1-11.6-8.121a2.382,2.382,0,0,1,1.556-.5,2.538,2.538,0,0,1,1.213.278,2.319,2.319,0,0,1,.861.8,4.306,4.306,0,0,1,.533,1.277,8.487,8.487,0,0,1,.193,2.03A7.882,7.882,0,0,1-7.559-1.8,3.051,3.051,0,0,1-8.487-.36a2.382,2.382,0,0,1-1.562.507A2.357,2.357,0,0,1-12-.744,5.661,5.661,0,0,1-12.85-4.236Zm1.084,0a5.386,5.386,0,0,0,.5,2.815,1.459,1.459,0,0,0,1.222.7,1.458,1.458,0,0,0,1.222-.7,5.388,5.388,0,0,0,.5-2.812,5.384,5.384,0,0,0-.5-2.818,1.47,1.47,0,0,0-1.233-.7,1.351,1.351,0,0,0-1.16.615A5.448,5.448,0,0,0-11.766-4.236Zm5.59,0a7.86,7.86,0,0,1,.313-2.452,3.05,3.05,0,0,1,.932-1.433,2.382,2.382,0,0,1,1.556-.5,2.538,2.538,0,0,1,1.213.278,2.319,2.319,0,0,1,.861.8A4.306,4.306,0,0,1-.768-6.267a8.487,8.487,0,0,1,.193,2.03A7.882,7.882,0,0,1-.885-1.8,3.051,3.051,0,0,1-1.813-.36,2.382,2.382,0,0,1-3.375.146,2.357,2.357,0,0,1-5.326-.744,5.661,5.661,0,0,1-6.176-4.236Zm1.084,0a5.386,5.386,0,0,0,.5,2.815,1.459,1.459,0,0,0,1.222.7,1.458,1.458,0,0,0,1.222-.7,5.388,5.388,0,0,0,.5-2.812,5.384,5.384,0,0,0-.5-2.818,1.47,1.47,0,0,0-1.233-.7,1.351,1.351,0,0,0-1.16.615A5.448,5.448,0,0,0-5.092-4.236Z" transform="translate(-19815 -22479)" fill="#fff"/>
    <path id="矩形_9308" data-name="矩形 9308" d="M5,0H45a5,5,0,0,1,5,5V49a0,0,0,0,1,0,0H0a0,0,0,0,1,0,0V5A5,5,0,0,1,5,0Z" transform="translate(-19847 -22468)" fill="#c6deff"/>
    <path id="_1k-8" data-name="$1k" d="M-12.85-4.236a7.86,7.86,0,0,1,.313-2.452A3.05,3.05,0,0,1-11.6-8.121a2.382,2.382,0,0,1,1.556-.5,2.538,2.538,0,0,1,1.213.278,2.319,2.319,0,0,1,.861.8,4.306,4.306,0,0,1,.533,1.277,8.487,8.487,0,0,1,.193,2.03A7.882,7.882,0,0,1-7.559-1.8,3.051,3.051,0,0,1-8.487-.36a2.382,2.382,0,0,1-1.562.507A2.357,2.357,0,0,1-12-.744,5.661,5.661,0,0,1-12.85-4.236Zm1.084,0a5.386,5.386,0,0,0,.5,2.815,1.459,1.459,0,0,0,1.222.7,1.458,1.458,0,0,0,1.222-.7,5.388,5.388,0,0,0,.5-2.812,5.384,5.384,0,0,0-.5-2.818,1.47,1.47,0,0,0-1.233-.7,1.351,1.351,0,0,0-1.16.615A5.448,5.448,0,0,0-11.766-4.236Zm5.59,0a7.86,7.86,0,0,1,.313-2.452,3.05,3.05,0,0,1,.932-1.433,2.382,2.382,0,0,1,1.556-.5,2.538,2.538,0,0,1,1.213.278,2.319,2.319,0,0,1,.861.8A4.306,4.306,0,0,1-.768-6.267a8.487,8.487,0,0,1,.193,2.03A7.882,7.882,0,0,1-.885-1.8,3.051,3.051,0,0,1-1.813-.36,2.382,2.382,0,0,1-3.375.146,2.357,2.357,0,0,1-5.326-.744,5.661,5.661,0,0,1-6.176-4.236Zm1.084,0a5.386,5.386,0,0,0,.5,2.815,1.459,1.459,0,0,0,1.222.7,1.458,1.458,0,0,0,1.222-.7,5.388,5.388,0,0,0,.5-2.812,5.384,5.384,0,0,0-.5-2.818,1.47,1.47,0,0,0-1.233-.7,1.351,1.351,0,0,0-1.16.615A5.448,5.448,0,0,0-5.092-4.236Z" transform="translate(-19815 -22437)" fill="#fff"/>
    <path id="矩形_9347" data-name="矩形 9347" d="M5,0H45a5,5,0,0,1,5,5V190a0,0,0,0,1,0,0H0a0,0,0,0,1,0,0V5A5,5,0,0,1,5,0Z" transform="translate(-19742 -22609)" fill="#0040be"/>
    <path id="矩形_9348" data-name="矩形 9348" d="M5,0H45a5,5,0,0,1,5,5V152a0,0,0,0,1,0,0H0a0,0,0,0,1,0,0V5A5,5,0,0,1,5,0Z" transform="translate(-19742 -22571)" fill="#1763f7"/>
    <path id="矩形_9349" data-name="矩形 9349" d="M5,0H45a5,5,0,0,1,5,5V127a0,0,0,0,1,0,0H0a0,0,0,0,1,0,0V5A5,5,0,0,1,5,0Z" transform="translate(-19742 -22546)" fill="#5993ff"/>
    <path id="矩形_9350" data-name="矩形 9350" d="M5,0H45a5,5,0,0,1,5,5V105a0,0,0,0,1,0,0H0a0,0,0,0,1,0,0V5A5,5,0,0,1,5,0Z" transform="translate(-19742 -22524)" fill="#72aeff"/>
    <path id="矩形_9351" data-name="矩形 9351" d="M5,0H45a5,5,0,0,1,5,5V77a0,0,0,0,1,0,0H0a0,0,0,0,1,0,0V5A5,5,0,0,1,5,0Z" transform="translate(-19742 -22496)" fill="#9bbeff"/>
    <path id="_1k-9" data-name="$1k" d="M-12.85-4.236a7.86,7.86,0,0,1,.313-2.452A3.05,3.05,0,0,1-11.6-8.121a2.382,2.382,0,0,1,1.556-.5,2.538,2.538,0,0,1,1.213.278,2.319,2.319,0,0,1,.861.8,4.306,4.306,0,0,1,.533,1.277,8.487,8.487,0,0,1,.193,2.03A7.882,7.882,0,0,1-7.559-1.8,3.051,3.051,0,0,1-8.487-.36a2.382,2.382,0,0,1-1.562.507A2.357,2.357,0,0,1-12-.744,5.661,5.661,0,0,1-12.85-4.236Zm1.084,0a5.386,5.386,0,0,0,.5,2.815,1.459,1.459,0,0,0,1.222.7,1.458,1.458,0,0,0,1.222-.7,5.388,5.388,0,0,0,.5-2.812,5.384,5.384,0,0,0-.5-2.818,1.47,1.47,0,0,0-1.233-.7,1.351,1.351,0,0,0-1.16.615A5.448,5.448,0,0,0-11.766-4.236Zm5.59,0a7.86,7.86,0,0,1,.313-2.452,3.05,3.05,0,0,1,.932-1.433,2.382,2.382,0,0,1,1.556-.5,2.538,2.538,0,0,1,1.213.278,2.319,2.319,0,0,1,.861.8A4.306,4.306,0,0,1-.768-6.267a8.487,8.487,0,0,1,.193,2.03A7.882,7.882,0,0,1-.885-1.8,3.051,3.051,0,0,1-1.813-.36,2.382,2.382,0,0,1-3.375.146,2.357,2.357,0,0,1-5.326-.744,5.661,5.661,0,0,1-6.176-4.236Zm1.084,0a5.386,5.386,0,0,0,.5,2.815,1.459,1.459,0,0,0,1.222.7,1.458,1.458,0,0,0,1.222-.7,5.388,5.388,0,0,0,.5-2.812,5.384,5.384,0,0,0-.5-2.818,1.47,1.47,0,0,0-1.233-.7,1.351,1.351,0,0,0-1.16.615A5.448,5.448,0,0,0-5.092-4.236Z" transform="translate(-19710 -22619)" fill="#7e84a3"/>
    <path id="_1k-10" data-name="$1k" d="M-12.85-4.236a7.86,7.86,0,0,1,.313-2.452A3.05,3.05,0,0,1-11.6-8.121a2.382,2.382,0,0,1,1.556-.5,2.538,2.538,0,0,1,1.213.278,2.319,2.319,0,0,1,.861.8,4.306,4.306,0,0,1,.533,1.277,8.487,8.487,0,0,1,.193,2.03A7.882,7.882,0,0,1-7.559-1.8,3.051,3.051,0,0,1-8.487-.36a2.382,2.382,0,0,1-1.562.507A2.357,2.357,0,0,1-12-.744,5.661,5.661,0,0,1-12.85-4.236Zm1.084,0a5.386,5.386,0,0,0,.5,2.815,1.459,1.459,0,0,0,1.222.7,1.458,1.458,0,0,0,1.222-.7,5.388,5.388,0,0,0,.5-2.812,5.384,5.384,0,0,0-.5-2.818,1.47,1.47,0,0,0-1.233-.7,1.351,1.351,0,0,0-1.16.615A5.448,5.448,0,0,0-11.766-4.236Zm5.59,0a7.86,7.86,0,0,1,.313-2.452,3.05,3.05,0,0,1,.932-1.433,2.382,2.382,0,0,1,1.556-.5,2.538,2.538,0,0,1,1.213.278,2.319,2.319,0,0,1,.861.8A4.306,4.306,0,0,1-.768-6.267a8.487,8.487,0,0,1,.193,2.03A7.882,7.882,0,0,1-.885-1.8,3.051,3.051,0,0,1-1.813-.36,2.382,2.382,0,0,1-3.375.146,2.357,2.357,0,0,1-5.326-.744,5.661,5.661,0,0,1-6.176-4.236Zm1.084,0a5.386,5.386,0,0,0,.5,2.815,1.459,1.459,0,0,0,1.222.7,1.458,1.458,0,0,0,1.222-.7,5.388,5.388,0,0,0,.5-2.812,5.384,5.384,0,0,0-.5-2.818,1.47,1.47,0,0,0-1.233-.7,1.351,1.351,0,0,0-1.16.615A5.448,5.448,0,0,0-5.092-4.236Z" transform="translate(-19710 -22552)" fill="#fff"/>
    <path id="_1k-11" data-name="$1k" d="M-12.85-4.236a7.86,7.86,0,0,1,.313-2.452A3.05,3.05,0,0,1-11.6-8.121a2.382,2.382,0,0,1,1.556-.5,2.538,2.538,0,0,1,1.213.278,2.319,2.319,0,0,1,.861.8,4.306,4.306,0,0,1,.533,1.277,8.487,8.487,0,0,1,.193,2.03A7.882,7.882,0,0,1-7.559-1.8,3.051,3.051,0,0,1-8.487-.36a2.382,2.382,0,0,1-1.562.507A2.357,2.357,0,0,1-12-.744,5.661,5.661,0,0,1-12.85-4.236Zm1.084,0a5.386,5.386,0,0,0,.5,2.815,1.459,1.459,0,0,0,1.222.7,1.458,1.458,0,0,0,1.222-.7,5.388,5.388,0,0,0,.5-2.812,5.384,5.384,0,0,0-.5-2.818,1.47,1.47,0,0,0-1.233-.7,1.351,1.351,0,0,0-1.16.615A5.448,5.448,0,0,0-11.766-4.236Zm5.59,0a7.86,7.86,0,0,1,.313-2.452,3.05,3.05,0,0,1,.932-1.433,2.382,2.382,0,0,1,1.556-.5,2.538,2.538,0,0,1,1.213.278,2.319,2.319,0,0,1,.861.8A4.306,4.306,0,0,1-.768-6.267a8.487,8.487,0,0,1,.193,2.03A7.882,7.882,0,0,1-.885-1.8,3.051,3.051,0,0,1-1.813-.36,2.382,2.382,0,0,1-3.375.146,2.357,2.357,0,0,1-5.326-.744,5.661,5.661,0,0,1-6.176-4.236Zm1.084,0a5.386,5.386,0,0,0,.5,2.815,1.459,1.459,0,0,0,1.222.7,1.458,1.458,0,0,0,1.222-.7,5.388,5.388,0,0,0,.5-2.812,5.384,5.384,0,0,0-.5-2.818,1.47,1.47,0,0,0-1.233-.7,1.351,1.351,0,0,0-1.16.615A5.448,5.448,0,0,0-5.092-4.236Z" transform="translate(-19710 -22583)" fill="#fff"/>
    <path id="_1k-12" data-name="$1k" d="M-12.85-4.236a7.86,7.86,0,0,1,.313-2.452A3.05,3.05,0,0,1-11.6-8.121a2.382,2.382,0,0,1,1.556-.5,2.538,2.538,0,0,1,1.213.278,2.319,2.319,0,0,1,.861.8,4.306,4.306,0,0,1,.533,1.277,8.487,8.487,0,0,1,.193,2.03A7.882,7.882,0,0,1-7.559-1.8,3.051,3.051,0,0,1-8.487-.36a2.382,2.382,0,0,1-1.562.507A2.357,2.357,0,0,1-12-.744,5.661,5.661,0,0,1-12.85-4.236Zm1.084,0a5.386,5.386,0,0,0,.5,2.815,1.459,1.459,0,0,0,1.222.7,1.458,1.458,0,0,0,1.222-.7,5.388,5.388,0,0,0,.5-2.812,5.384,5.384,0,0,0-.5-2.818,1.47,1.47,0,0,0-1.233-.7,1.351,1.351,0,0,0-1.16.615A5.448,5.448,0,0,0-11.766-4.236Zm5.59,0a7.86,7.86,0,0,1,.313-2.452,3.05,3.05,0,0,1,.932-1.433,2.382,2.382,0,0,1,1.556-.5,2.538,2.538,0,0,1,1.213.278,2.319,2.319,0,0,1,.861.8A4.306,4.306,0,0,1-.768-6.267a8.487,8.487,0,0,1,.193,2.03A7.882,7.882,0,0,1-.885-1.8,3.051,3.051,0,0,1-1.813-.36,2.382,2.382,0,0,1-3.375.146,2.357,2.357,0,0,1-5.326-.744,5.661,5.661,0,0,1-6.176-4.236Zm1.084,0a5.386,5.386,0,0,0,.5,2.815,1.459,1.459,0,0,0,1.222.7,1.458,1.458,0,0,0,1.222-.7,5.388,5.388,0,0,0,.5-2.812,5.384,5.384,0,0,0-.5-2.818,1.47,1.47,0,0,0-1.233-.7,1.351,1.351,0,0,0-1.16.615A5.448,5.448,0,0,0-5.092-4.236Z" transform="translate(-19710 -22530)" fill="#fff"/>
    <path id="_1k-13" data-name="$1k" d="M-12.85-4.236a7.86,7.86,0,0,1,.313-2.452A3.05,3.05,0,0,1-11.6-8.121a2.382,2.382,0,0,1,1.556-.5,2.538,2.538,0,0,1,1.213.278,2.319,2.319,0,0,1,.861.8,4.306,4.306,0,0,1,.533,1.277,8.487,8.487,0,0,1,.193,2.03A7.882,7.882,0,0,1-7.559-1.8,3.051,3.051,0,0,1-8.487-.36a2.382,2.382,0,0,1-1.562.507A2.357,2.357,0,0,1-12-.744,5.661,5.661,0,0,1-12.85-4.236Zm1.084,0a5.386,5.386,0,0,0,.5,2.815,1.459,1.459,0,0,0,1.222.7,1.458,1.458,0,0,0,1.222-.7,5.388,5.388,0,0,0,.5-2.812,5.384,5.384,0,0,0-.5-2.818,1.47,1.47,0,0,0-1.233-.7,1.351,1.351,0,0,0-1.16.615A5.448,5.448,0,0,0-11.766-4.236Zm5.59,0a7.86,7.86,0,0,1,.313-2.452,3.05,3.05,0,0,1,.932-1.433,2.382,2.382,0,0,1,1.556-.5,2.538,2.538,0,0,1,1.213.278,2.319,2.319,0,0,1,.861.8A4.306,4.306,0,0,1-.768-6.267a8.487,8.487,0,0,1,.193,2.03A7.882,7.882,0,0,1-.885-1.8,3.051,3.051,0,0,1-1.813-.36,2.382,2.382,0,0,1-3.375.146,2.357,2.357,0,0,1-5.326-.744,5.661,5.661,0,0,1-6.176-4.236Zm1.084,0a5.386,5.386,0,0,0,.5,2.815,1.459,1.459,0,0,0,1.222.7,1.458,1.458,0,0,0,1.222-.7,5.388,5.388,0,0,0,.5-2.812,5.384,5.384,0,0,0-.5-2.818,1.47,1.47,0,0,0-1.233-.7,1.351,1.351,0,0,0-1.16.615A5.448,5.448,0,0,0-5.092-4.236Z" transform="translate(-19710 -22504)" fill="#fff"/>
    <path id="_1k-14" data-name="$1k" d="M-12.85-4.236a7.86,7.86,0,0,1,.313-2.452A3.05,3.05,0,0,1-11.6-8.121a2.382,2.382,0,0,1,1.556-.5,2.538,2.538,0,0,1,1.213.278,2.319,2.319,0,0,1,.861.8,4.306,4.306,0,0,1,.533,1.277,8.487,8.487,0,0,1,.193,2.03A7.882,7.882,0,0,1-7.559-1.8,3.051,3.051,0,0,1-8.487-.36a2.382,2.382,0,0,1-1.562.507A2.357,2.357,0,0,1-12-.744,5.661,5.661,0,0,1-12.85-4.236Zm1.084,0a5.386,5.386,0,0,0,.5,2.815,1.459,1.459,0,0,0,1.222.7,1.458,1.458,0,0,0,1.222-.7,5.388,5.388,0,0,0,.5-2.812,5.384,5.384,0,0,0-.5-2.818,1.47,1.47,0,0,0-1.233-.7,1.351,1.351,0,0,0-1.16.615A5.448,5.448,0,0,0-11.766-4.236Zm5.59,0a7.86,7.86,0,0,1,.313-2.452,3.05,3.05,0,0,1,.932-1.433,2.382,2.382,0,0,1,1.556-.5,2.538,2.538,0,0,1,1.213.278,2.319,2.319,0,0,1,.861.8A4.306,4.306,0,0,1-.768-6.267a8.487,8.487,0,0,1,.193,2.03A7.882,7.882,0,0,1-.885-1.8,3.051,3.051,0,0,1-1.813-.36,2.382,2.382,0,0,1-3.375.146,2.357,2.357,0,0,1-5.326-.744,5.661,5.661,0,0,1-6.176-4.236Zm1.084,0a5.386,5.386,0,0,0,.5,2.815,1.459,1.459,0,0,0,1.222.7,1.458,1.458,0,0,0,1.222-.7,5.388,5.388,0,0,0,.5-2.812,5.384,5.384,0,0,0-.5-2.818,1.47,1.47,0,0,0-1.233-.7,1.351,1.351,0,0,0-1.16.615A5.448,5.448,0,0,0-5.092-4.236Z" transform="translate(-19710 -22474)" fill="#fff"/>
    <path id="矩形_9352" data-name="矩形 9352" d="M5,0H45a5,5,0,0,1,5,5V45a0,0,0,0,1,0,0H0a0,0,0,0,1,0,0V5A5,5,0,0,1,5,0Z" transform="translate(-19742 -22464)" fill="#c6deff"/>
    <path id="_1k-15" data-name="$1k" d="M-12.85-4.236a7.86,7.86,0,0,1,.313-2.452A3.05,3.05,0,0,1-11.6-8.121a2.382,2.382,0,0,1,1.556-.5,2.538,2.538,0,0,1,1.213.278,2.319,2.319,0,0,1,.861.8,4.306,4.306,0,0,1,.533,1.277,8.487,8.487,0,0,1,.193,2.03A7.882,7.882,0,0,1-7.559-1.8,3.051,3.051,0,0,1-8.487-.36a2.382,2.382,0,0,1-1.562.507A2.357,2.357,0,0,1-12-.744,5.661,5.661,0,0,1-12.85-4.236Zm1.084,0a5.386,5.386,0,0,0,.5,2.815,1.459,1.459,0,0,0,1.222.7,1.458,1.458,0,0,0,1.222-.7,5.388,5.388,0,0,0,.5-2.812,5.384,5.384,0,0,0-.5-2.818,1.47,1.47,0,0,0-1.233-.7,1.351,1.351,0,0,0-1.16.615A5.448,5.448,0,0,0-11.766-4.236Zm5.59,0a7.86,7.86,0,0,1,.313-2.452,3.05,3.05,0,0,1,.932-1.433,2.382,2.382,0,0,1,1.556-.5,2.538,2.538,0,0,1,1.213.278,2.319,2.319,0,0,1,.861.8A4.306,4.306,0,0,1-.768-6.267a8.487,8.487,0,0,1,.193,2.03A7.882,7.882,0,0,1-.885-1.8,3.051,3.051,0,0,1-1.813-.36,2.382,2.382,0,0,1-3.375.146,2.357,2.357,0,0,1-5.326-.744,5.661,5.661,0,0,1-6.176-4.236Zm1.084,0a5.386,5.386,0,0,0,.5,2.815,1.459,1.459,0,0,0,1.222.7,1.458,1.458,0,0,0,1.222-.7,5.388,5.388,0,0,0,.5-2.812,5.384,5.384,0,0,0-.5-2.818,1.47,1.47,0,0,0-1.233-.7,1.351,1.351,0,0,0-1.16.615A5.448,5.448,0,0,0-5.092-4.236Z" transform="translate(-19710 -22437)" fill="#fff"/>
    <path id="矩形_9353" data-name="矩形 9353" d="M5,0H45a5,5,0,0,1,5,5V158a0,0,0,0,1,0,0H0a0,0,0,0,1,0,0V5A5,5,0,0,1,5,0Z" transform="translate(-19637 -22577)" fill="#0040be"/>
    <path id="矩形_9354" data-name="矩形 9354" d="M5,0H45a5,5,0,0,1,5,5V127a0,0,0,0,1,0,0H0a0,0,0,0,1,0,0V5A5,5,0,0,1,5,0Z" transform="translate(-19637 -22546)" fill="#1763f7"/>
    <path id="矩形_9355" data-name="矩形 9355" d="M5,0H45a5,5,0,0,1,5,5V107a0,0,0,0,1,0,0H0a0,0,0,0,1,0,0V5A5,5,0,0,1,5,0Z" transform="translate(-19637 -22526)" fill="#5993ff"/>
    <path id="矩形_9356" data-name="矩形 9356" d="M5,0H45a5,5,0,0,1,5,5V88a0,0,0,0,1,0,0H0a0,0,0,0,1,0,0V5A5,5,0,0,1,5,0Z" transform="translate(-19637 -22507)" fill="#72aeff"/>
    <path id="矩形_9357" data-name="矩形 9357" d="M5,0H45a5,5,0,0,1,5,5V64a0,0,0,0,1,0,0H0a0,0,0,0,1,0,0V5A5,5,0,0,1,5,0Z" transform="translate(-19637 -22483)" fill="#9bbeff"/>
    <path id="_1k-16" data-name="$1k" d="M-12.85-4.236a7.86,7.86,0,0,1,.313-2.452A3.05,3.05,0,0,1-11.6-8.121a2.382,2.382,0,0,1,1.556-.5,2.538,2.538,0,0,1,1.213.278,2.319,2.319,0,0,1,.861.8,4.306,4.306,0,0,1,.533,1.277,8.487,8.487,0,0,1,.193,2.03A7.882,7.882,0,0,1-7.559-1.8,3.051,3.051,0,0,1-8.487-.36a2.382,2.382,0,0,1-1.562.507A2.357,2.357,0,0,1-12-.744,5.661,5.661,0,0,1-12.85-4.236Zm1.084,0a5.386,5.386,0,0,0,.5,2.815,1.459,1.459,0,0,0,1.222.7,1.458,1.458,0,0,0,1.222-.7,5.388,5.388,0,0,0,.5-2.812,5.384,5.384,0,0,0-.5-2.818,1.47,1.47,0,0,0-1.233-.7,1.351,1.351,0,0,0-1.16.615A5.448,5.448,0,0,0-11.766-4.236Zm5.59,0a7.86,7.86,0,0,1,.313-2.452,3.05,3.05,0,0,1,.932-1.433,2.382,2.382,0,0,1,1.556-.5,2.538,2.538,0,0,1,1.213.278,2.319,2.319,0,0,1,.861.8A4.306,4.306,0,0,1-.768-6.267a8.487,8.487,0,0,1,.193,2.03A7.882,7.882,0,0,1-.885-1.8,3.051,3.051,0,0,1-1.813-.36,2.382,2.382,0,0,1-3.375.146,2.357,2.357,0,0,1-5.326-.744,5.661,5.661,0,0,1-6.176-4.236Zm1.084,0a5.386,5.386,0,0,0,.5,2.815,1.459,1.459,0,0,0,1.222.7,1.458,1.458,0,0,0,1.222-.7,5.388,5.388,0,0,0,.5-2.812,5.384,5.384,0,0,0-.5-2.818,1.47,1.47,0,0,0-1.233-.7,1.351,1.351,0,0,0-1.16.615A5.448,5.448,0,0,0-5.092-4.236Z" transform="translate(-19605 -22587)" fill="#7e84a3"/>
    <path id="_1k-17" data-name="$1k" d="M-12.85-4.236a7.86,7.86,0,0,1,.313-2.452A3.05,3.05,0,0,1-11.6-8.121a2.382,2.382,0,0,1,1.556-.5,2.538,2.538,0,0,1,1.213.278,2.319,2.319,0,0,1,.861.8,4.306,4.306,0,0,1,.533,1.277,8.487,8.487,0,0,1,.193,2.03A7.882,7.882,0,0,1-7.559-1.8,3.051,3.051,0,0,1-8.487-.36a2.382,2.382,0,0,1-1.562.507A2.357,2.357,0,0,1-12-.744,5.661,5.661,0,0,1-12.85-4.236Zm1.084,0a5.386,5.386,0,0,0,.5,2.815,1.459,1.459,0,0,0,1.222.7,1.458,1.458,0,0,0,1.222-.7,5.388,5.388,0,0,0,.5-2.812,5.384,5.384,0,0,0-.5-2.818,1.47,1.47,0,0,0-1.233-.7,1.351,1.351,0,0,0-1.16.615A5.448,5.448,0,0,0-11.766-4.236Zm5.59,0a7.86,7.86,0,0,1,.313-2.452,3.05,3.05,0,0,1,.932-1.433,2.382,2.382,0,0,1,1.556-.5,2.538,2.538,0,0,1,1.213.278,2.319,2.319,0,0,1,.861.8A4.306,4.306,0,0,1-.768-6.267a8.487,8.487,0,0,1,.193,2.03A7.882,7.882,0,0,1-.885-1.8,3.051,3.051,0,0,1-1.813-.36,2.382,2.382,0,0,1-3.375.146,2.357,2.357,0,0,1-5.326-.744,5.661,5.661,0,0,1-6.176-4.236Zm1.084,0a5.386,5.386,0,0,0,.5,2.815,1.459,1.459,0,0,0,1.222.7,1.458,1.458,0,0,0,1.222-.7,5.388,5.388,0,0,0,.5-2.812,5.384,5.384,0,0,0-.5-2.818,1.47,1.47,0,0,0-1.233-.7,1.351,1.351,0,0,0-1.16.615A5.448,5.448,0,0,0-5.092-4.236Z" transform="translate(-19605 -22530)" fill="#fff"/>
    <path id="_1k-18" data-name="$1k" d="M-12.85-4.236a7.86,7.86,0,0,1,.313-2.452A3.05,3.05,0,0,1-11.6-8.121a2.382,2.382,0,0,1,1.556-.5,2.538,2.538,0,0,1,1.213.278,2.319,2.319,0,0,1,.861.8,4.306,4.306,0,0,1,.533,1.277,8.487,8.487,0,0,1,.193,2.03A7.882,7.882,0,0,1-7.559-1.8,3.051,3.051,0,0,1-8.487-.36a2.382,2.382,0,0,1-1.562.507A2.357,2.357,0,0,1-12-.744,5.661,5.661,0,0,1-12.85-4.236Zm1.084,0a5.386,5.386,0,0,0,.5,2.815,1.459,1.459,0,0,0,1.222.7,1.458,1.458,0,0,0,1.222-.7,5.388,5.388,0,0,0,.5-2.812,5.384,5.384,0,0,0-.5-2.818,1.47,1.47,0,0,0-1.233-.7,1.351,1.351,0,0,0-1.16.615A5.448,5.448,0,0,0-11.766-4.236Zm5.59,0a7.86,7.86,0,0,1,.313-2.452,3.05,3.05,0,0,1,.932-1.433,2.382,2.382,0,0,1,1.556-.5,2.538,2.538,0,0,1,1.213.278,2.319,2.319,0,0,1,.861.8A4.306,4.306,0,0,1-.768-6.267a8.487,8.487,0,0,1,.193,2.03A7.882,7.882,0,0,1-.885-1.8,3.051,3.051,0,0,1-1.813-.36,2.382,2.382,0,0,1-3.375.146,2.357,2.357,0,0,1-5.326-.744,5.661,5.661,0,0,1-6.176-4.236Zm1.084,0a5.386,5.386,0,0,0,.5,2.815,1.459,1.459,0,0,0,1.222.7,1.458,1.458,0,0,0,1.222-.7,5.388,5.388,0,0,0,.5-2.812,5.384,5.384,0,0,0-.5-2.818,1.47,1.47,0,0,0-1.233-.7,1.351,1.351,0,0,0-1.16.615A5.448,5.448,0,0,0-5.092-4.236Z" transform="translate(-19605 -22555)" fill="#fff"/>
    <path id="_1k-19" data-name="$1k" d="M-12.85-4.236a7.86,7.86,0,0,1,.313-2.452A3.05,3.05,0,0,1-11.6-8.121a2.382,2.382,0,0,1,1.556-.5,2.538,2.538,0,0,1,1.213.278,2.319,2.319,0,0,1,.861.8,4.306,4.306,0,0,1,.533,1.277,8.487,8.487,0,0,1,.193,2.03A7.882,7.882,0,0,1-7.559-1.8,3.051,3.051,0,0,1-8.487-.36a2.382,2.382,0,0,1-1.562.507A2.357,2.357,0,0,1-12-.744,5.661,5.661,0,0,1-12.85-4.236Zm1.084,0a5.386,5.386,0,0,0,.5,2.815,1.459,1.459,0,0,0,1.222.7,1.458,1.458,0,0,0,1.222-.7,5.388,5.388,0,0,0,.5-2.812,5.384,5.384,0,0,0-.5-2.818,1.47,1.47,0,0,0-1.233-.7,1.351,1.351,0,0,0-1.16.615A5.448,5.448,0,0,0-11.766-4.236Zm5.59,0a7.86,7.86,0,0,1,.313-2.452,3.05,3.05,0,0,1,.932-1.433,2.382,2.382,0,0,1,1.556-.5,2.538,2.538,0,0,1,1.213.278,2.319,2.319,0,0,1,.861.8A4.306,4.306,0,0,1-.768-6.267a8.487,8.487,0,0,1,.193,2.03A7.882,7.882,0,0,1-.885-1.8,3.051,3.051,0,0,1-1.813-.36,2.382,2.382,0,0,1-3.375.146,2.357,2.357,0,0,1-5.326-.744,5.661,5.661,0,0,1-6.176-4.236Zm1.084,0a5.386,5.386,0,0,0,.5,2.815,1.459,1.459,0,0,0,1.222.7,1.458,1.458,0,0,0,1.222-.7,5.388,5.388,0,0,0,.5-2.812,5.384,5.384,0,0,0-.5-2.818,1.47,1.47,0,0,0-1.233-.7,1.351,1.351,0,0,0-1.16.615A5.448,5.448,0,0,0-5.092-4.236Z" transform="translate(-19605 -22512)" fill="#fff"/>
    <path id="_1k-20" data-name="$1k" d="M-12.85-4.236a7.86,7.86,0,0,1,.313-2.452A3.05,3.05,0,0,1-11.6-8.121a2.382,2.382,0,0,1,1.556-.5,2.538,2.538,0,0,1,1.213.278,2.319,2.319,0,0,1,.861.8,4.306,4.306,0,0,1,.533,1.277,8.487,8.487,0,0,1,.193,2.03A7.882,7.882,0,0,1-7.559-1.8,3.051,3.051,0,0,1-8.487-.36a2.382,2.382,0,0,1-1.562.507A2.357,2.357,0,0,1-12-.744,5.661,5.661,0,0,1-12.85-4.236Zm1.084,0a5.386,5.386,0,0,0,.5,2.815,1.459,1.459,0,0,0,1.222.7,1.458,1.458,0,0,0,1.222-.7,5.388,5.388,0,0,0,.5-2.812,5.384,5.384,0,0,0-.5-2.818,1.47,1.47,0,0,0-1.233-.7,1.351,1.351,0,0,0-1.16.615A5.448,5.448,0,0,0-11.766-4.236Zm5.59,0a7.86,7.86,0,0,1,.313-2.452,3.05,3.05,0,0,1,.932-1.433,2.382,2.382,0,0,1,1.556-.5,2.538,2.538,0,0,1,1.213.278,2.319,2.319,0,0,1,.861.8A4.306,4.306,0,0,1-.768-6.267a8.487,8.487,0,0,1,.193,2.03A7.882,7.882,0,0,1-.885-1.8,3.051,3.051,0,0,1-1.813-.36,2.382,2.382,0,0,1-3.375.146,2.357,2.357,0,0,1-5.326-.744,5.661,5.661,0,0,1-6.176-4.236Zm1.084,0a5.386,5.386,0,0,0,.5,2.815,1.459,1.459,0,0,0,1.222.7,1.458,1.458,0,0,0,1.222-.7,5.388,5.388,0,0,0,.5-2.812,5.384,5.384,0,0,0-.5-2.818,1.47,1.47,0,0,0-1.233-.7,1.351,1.351,0,0,0-1.16.615A5.448,5.448,0,0,0-5.092-4.236Z" transform="translate(-19605 -22490)" fill="#fff"/>
    <path id="_1k-21" data-name="$1k" d="M-12.85-4.236a7.86,7.86,0,0,1,.313-2.452A3.05,3.05,0,0,1-11.6-8.121a2.382,2.382,0,0,1,1.556-.5,2.538,2.538,0,0,1,1.213.278,2.319,2.319,0,0,1,.861.8,4.306,4.306,0,0,1,.533,1.277,8.487,8.487,0,0,1,.193,2.03A7.882,7.882,0,0,1-7.559-1.8,3.051,3.051,0,0,1-8.487-.36a2.382,2.382,0,0,1-1.562.507A2.357,2.357,0,0,1-12-.744,5.661,5.661,0,0,1-12.85-4.236Zm1.084,0a5.386,5.386,0,0,0,.5,2.815,1.459,1.459,0,0,0,1.222.7,1.458,1.458,0,0,0,1.222-.7,5.388,5.388,0,0,0,.5-2.812,5.384,5.384,0,0,0-.5-2.818,1.47,1.47,0,0,0-1.233-.7,1.351,1.351,0,0,0-1.16.615A5.448,5.448,0,0,0-11.766-4.236Zm5.59,0a7.86,7.86,0,0,1,.313-2.452,3.05,3.05,0,0,1,.932-1.433,2.382,2.382,0,0,1,1.556-.5,2.538,2.538,0,0,1,1.213.278,2.319,2.319,0,0,1,.861.8A4.306,4.306,0,0,1-.768-6.267a8.487,8.487,0,0,1,.193,2.03A7.882,7.882,0,0,1-.885-1.8,3.051,3.051,0,0,1-1.813-.36,2.382,2.382,0,0,1-3.375.146,2.357,2.357,0,0,1-5.326-.744,5.661,5.661,0,0,1-6.176-4.236Zm1.084,0a5.386,5.386,0,0,0,.5,2.815,1.459,1.459,0,0,0,1.222.7,1.458,1.458,0,0,0,1.222-.7,5.388,5.388,0,0,0,.5-2.812,5.384,5.384,0,0,0-.5-2.818,1.47,1.47,0,0,0-1.233-.7,1.351,1.351,0,0,0-1.16.615A5.448,5.448,0,0,0-5.092-4.236Z" transform="translate(-19605 -22465)" fill="#fff"/>
    <path id="矩形_9358" data-name="矩形 9358" d="M5,0H45a5,5,0,0,1,5,5V38a0,0,0,0,1,0,0H0a0,0,0,0,1,0,0V5A5,5,0,0,1,5,0Z" transform="translate(-19637 -22457)" fill="#c6deff"/>
    <path id="_1k-22" data-name="$1k" d="M-12.85-4.236a7.86,7.86,0,0,1,.313-2.452A3.05,3.05,0,0,1-11.6-8.121a2.382,2.382,0,0,1,1.556-.5,2.538,2.538,0,0,1,1.213.278,2.319,2.319,0,0,1,.861.8,4.306,4.306,0,0,1,.533,1.277,8.487,8.487,0,0,1,.193,2.03A7.882,7.882,0,0,1-7.559-1.8,3.051,3.051,0,0,1-8.487-.36a2.382,2.382,0,0,1-1.562.507A2.357,2.357,0,0,1-12-.744,5.661,5.661,0,0,1-12.85-4.236Zm1.084,0a5.386,5.386,0,0,0,.5,2.815,1.459,1.459,0,0,0,1.222.7,1.458,1.458,0,0,0,1.222-.7,5.388,5.388,0,0,0,.5-2.812,5.384,5.384,0,0,0-.5-2.818,1.47,1.47,0,0,0-1.233-.7,1.351,1.351,0,0,0-1.16.615A5.448,5.448,0,0,0-11.766-4.236Zm5.59,0a7.86,7.86,0,0,1,.313-2.452,3.05,3.05,0,0,1,.932-1.433,2.382,2.382,0,0,1,1.556-.5,2.538,2.538,0,0,1,1.213.278,2.319,2.319,0,0,1,.861.8A4.306,4.306,0,0,1-.768-6.267a8.487,8.487,0,0,1,.193,2.03A7.882,7.882,0,0,1-.885-1.8,3.051,3.051,0,0,1-1.813-.36,2.382,2.382,0,0,1-3.375.146,2.357,2.357,0,0,1-5.326-.744,5.661,5.661,0,0,1-6.176-4.236Zm1.084,0a5.386,5.386,0,0,0,.5,2.815,1.459,1.459,0,0,0,1.222.7,1.458,1.458,0,0,0,1.222-.7,5.388,5.388,0,0,0,.5-2.812,5.384,5.384,0,0,0-.5-2.818,1.47,1.47,0,0,0-1.233-.7,1.351,1.351,0,0,0-1.16.615A5.448,5.448,0,0,0-5.092-4.236Z" transform="translate(-19605 -22433)" fill="#fff"/>
    <path id="矩形_9359" data-name="矩形 9359" d="M5,0H45a5,5,0,0,1,5,5V172a0,0,0,0,1,0,0H0a0,0,0,0,1,0,0V5A5,5,0,0,1,5,0Z" transform="translate(-19532 -22591)" fill="#0040be"/>
    <path id="矩形_9360" data-name="矩形 9360" d="M5,0H45a5,5,0,0,1,5,5V138a0,0,0,0,1,0,0H0a0,0,0,0,1,0,0V5A5,5,0,0,1,5,0Z" transform="translate(-19532 -22557)" fill="#1763f7"/>
    <path id="矩形_9361" data-name="矩形 9361" d="M5,0H45a5,5,0,0,1,5,5V116a0,0,0,0,1,0,0H0a0,0,0,0,1,0,0V5A5,5,0,0,1,5,0Z" transform="translate(-19532 -22535)" fill="#5993ff"/>
    <path id="矩形_9362" data-name="矩形 9362" d="M5,0H45a5,5,0,0,1,5,5V96a0,0,0,0,1,0,0H0a0,0,0,0,1,0,0V5A5,5,0,0,1,5,0Z" transform="translate(-19532 -22515)" fill="#72aeff"/>
    <path id="矩形_9363" data-name="矩形 9363" d="M5,0H45a5,5,0,0,1,5,5V69a0,0,0,0,1,0,0H0a0,0,0,0,1,0,0V5A5,5,0,0,1,5,0Z" transform="translate(-19532 -22488)" fill="#9bbeff"/>
    <path id="_1k-23" data-name="$1k" d="M-12.85-4.236a7.86,7.86,0,0,1,.313-2.452A3.05,3.05,0,0,1-11.6-8.121a2.382,2.382,0,0,1,1.556-.5,2.538,2.538,0,0,1,1.213.278,2.319,2.319,0,0,1,.861.8,4.306,4.306,0,0,1,.533,1.277,8.487,8.487,0,0,1,.193,2.03A7.882,7.882,0,0,1-7.559-1.8,3.051,3.051,0,0,1-8.487-.36a2.382,2.382,0,0,1-1.562.507A2.357,2.357,0,0,1-12-.744,5.661,5.661,0,0,1-12.85-4.236Zm1.084,0a5.386,5.386,0,0,0,.5,2.815,1.459,1.459,0,0,0,1.222.7,1.458,1.458,0,0,0,1.222-.7,5.388,5.388,0,0,0,.5-2.812,5.384,5.384,0,0,0-.5-2.818,1.47,1.47,0,0,0-1.233-.7,1.351,1.351,0,0,0-1.16.615A5.448,5.448,0,0,0-11.766-4.236Zm5.59,0a7.86,7.86,0,0,1,.313-2.452,3.05,3.05,0,0,1,.932-1.433,2.382,2.382,0,0,1,1.556-.5,2.538,2.538,0,0,1,1.213.278,2.319,2.319,0,0,1,.861.8A4.306,4.306,0,0,1-.768-6.267a8.487,8.487,0,0,1,.193,2.03A7.882,7.882,0,0,1-.885-1.8,3.051,3.051,0,0,1-1.813-.36,2.382,2.382,0,0,1-3.375.146,2.357,2.357,0,0,1-5.326-.744,5.661,5.661,0,0,1-6.176-4.236Zm1.084,0a5.386,5.386,0,0,0,.5,2.815,1.459,1.459,0,0,0,1.222.7,1.458,1.458,0,0,0,1.222-.7,5.388,5.388,0,0,0,.5-2.812,5.384,5.384,0,0,0-.5-2.818,1.47,1.47,0,0,0-1.233-.7,1.351,1.351,0,0,0-1.16.615A5.448,5.448,0,0,0-5.092-4.236Z" transform="translate(-19500 -22596)" fill="#7e84a3"/>
    <path id="_1k-24" data-name="$1k" d="M-12.85-4.236a7.86,7.86,0,0,1,.313-2.452A3.05,3.05,0,0,1-11.6-8.121a2.382,2.382,0,0,1,1.556-.5,2.538,2.538,0,0,1,1.213.278,2.319,2.319,0,0,1,.861.8,4.306,4.306,0,0,1,.533,1.277,8.487,8.487,0,0,1,.193,2.03A7.882,7.882,0,0,1-7.559-1.8,3.051,3.051,0,0,1-8.487-.36a2.382,2.382,0,0,1-1.562.507A2.357,2.357,0,0,1-12-.744,5.661,5.661,0,0,1-12.85-4.236Zm1.084,0a5.386,5.386,0,0,0,.5,2.815,1.459,1.459,0,0,0,1.222.7,1.458,1.458,0,0,0,1.222-.7,5.388,5.388,0,0,0,.5-2.812,5.384,5.384,0,0,0-.5-2.818,1.47,1.47,0,0,0-1.233-.7,1.351,1.351,0,0,0-1.16.615A5.448,5.448,0,0,0-11.766-4.236Zm5.59,0a7.86,7.86,0,0,1,.313-2.452,3.05,3.05,0,0,1,.932-1.433,2.382,2.382,0,0,1,1.556-.5,2.538,2.538,0,0,1,1.213.278,2.319,2.319,0,0,1,.861.8A4.306,4.306,0,0,1-.768-6.267a8.487,8.487,0,0,1,.193,2.03A7.882,7.882,0,0,1-.885-1.8,3.051,3.051,0,0,1-1.813-.36,2.382,2.382,0,0,1-3.375.146,2.357,2.357,0,0,1-5.326-.744,5.661,5.661,0,0,1-6.176-4.236Zm1.084,0a5.386,5.386,0,0,0,.5,2.815,1.459,1.459,0,0,0,1.222.7,1.458,1.458,0,0,0,1.222-.7,5.388,5.388,0,0,0,.5-2.812,5.384,5.384,0,0,0-.5-2.818,1.47,1.47,0,0,0-1.233-.7,1.351,1.351,0,0,0-1.16.615A5.448,5.448,0,0,0-5.092-4.236Z" transform="translate(-19500 -22540)" fill="#fff"/>
    <path id="_1k-25" data-name="$1k" d="M-12.85-4.236a7.86,7.86,0,0,1,.313-2.452A3.05,3.05,0,0,1-11.6-8.121a2.382,2.382,0,0,1,1.556-.5,2.538,2.538,0,0,1,1.213.278,2.319,2.319,0,0,1,.861.8,4.306,4.306,0,0,1,.533,1.277,8.487,8.487,0,0,1,.193,2.03A7.882,7.882,0,0,1-7.559-1.8,3.051,3.051,0,0,1-8.487-.36a2.382,2.382,0,0,1-1.562.507A2.357,2.357,0,0,1-12-.744,5.661,5.661,0,0,1-12.85-4.236Zm1.084,0a5.386,5.386,0,0,0,.5,2.815,1.459,1.459,0,0,0,1.222.7,1.458,1.458,0,0,0,1.222-.7,5.388,5.388,0,0,0,.5-2.812,5.384,5.384,0,0,0-.5-2.818,1.47,1.47,0,0,0-1.233-.7,1.351,1.351,0,0,0-1.16.615A5.448,5.448,0,0,0-11.766-4.236Zm5.59,0a7.86,7.86,0,0,1,.313-2.452,3.05,3.05,0,0,1,.932-1.433,2.382,2.382,0,0,1,1.556-.5,2.538,2.538,0,0,1,1.213.278,2.319,2.319,0,0,1,.861.8A4.306,4.306,0,0,1-.768-6.267a8.487,8.487,0,0,1,.193,2.03A7.882,7.882,0,0,1-.885-1.8,3.051,3.051,0,0,1-1.813-.36,2.382,2.382,0,0,1-3.375.146,2.357,2.357,0,0,1-5.326-.744,5.661,5.661,0,0,1-6.176-4.236Zm1.084,0a5.386,5.386,0,0,0,.5,2.815,1.459,1.459,0,0,0,1.222.7,1.458,1.458,0,0,0,1.222-.7,5.388,5.388,0,0,0,.5-2.812,5.384,5.384,0,0,0-.5-2.818,1.47,1.47,0,0,0-1.233-.7,1.351,1.351,0,0,0-1.16.615A5.448,5.448,0,0,0-5.092-4.236Z" transform="translate(-19500 -22568)" fill="#fff"/>
    <path id="_1k-26" data-name="$1k" d="M-12.85-4.236a7.86,7.86,0,0,1,.313-2.452A3.05,3.05,0,0,1-11.6-8.121a2.382,2.382,0,0,1,1.556-.5,2.538,2.538,0,0,1,1.213.278,2.319,2.319,0,0,1,.861.8,4.306,4.306,0,0,1,.533,1.277,8.487,8.487,0,0,1,.193,2.03A7.882,7.882,0,0,1-7.559-1.8,3.051,3.051,0,0,1-8.487-.36a2.382,2.382,0,0,1-1.562.507A2.357,2.357,0,0,1-12-.744,5.661,5.661,0,0,1-12.85-4.236Zm1.084,0a5.386,5.386,0,0,0,.5,2.815,1.459,1.459,0,0,0,1.222.7,1.458,1.458,0,0,0,1.222-.7,5.388,5.388,0,0,0,.5-2.812,5.384,5.384,0,0,0-.5-2.818,1.47,1.47,0,0,0-1.233-.7,1.351,1.351,0,0,0-1.16.615A5.448,5.448,0,0,0-11.766-4.236Zm5.59,0a7.86,7.86,0,0,1,.313-2.452,3.05,3.05,0,0,1,.932-1.433,2.382,2.382,0,0,1,1.556-.5,2.538,2.538,0,0,1,1.213.278,2.319,2.319,0,0,1,.861.8A4.306,4.306,0,0,1-.768-6.267a8.487,8.487,0,0,1,.193,2.03A7.882,7.882,0,0,1-.885-1.8,3.051,3.051,0,0,1-1.813-.36,2.382,2.382,0,0,1-3.375.146,2.357,2.357,0,0,1-5.326-.744,5.661,5.661,0,0,1-6.176-4.236Zm1.084,0a5.386,5.386,0,0,0,.5,2.815,1.459,1.459,0,0,0,1.222.7,1.458,1.458,0,0,0,1.222-.7,5.388,5.388,0,0,0,.5-2.812,5.384,5.384,0,0,0-.5-2.818,1.47,1.47,0,0,0-1.233-.7,1.351,1.351,0,0,0-1.16.615A5.448,5.448,0,0,0-5.092-4.236Z" transform="translate(-19500 -22520)" fill="#fff"/>
    <path id="_1k-27" data-name="$1k" d="M-12.85-4.236a7.86,7.86,0,0,1,.313-2.452A3.05,3.05,0,0,1-11.6-8.121a2.382,2.382,0,0,1,1.556-.5,2.538,2.538,0,0,1,1.213.278,2.319,2.319,0,0,1,.861.8,4.306,4.306,0,0,1,.533,1.277,8.487,8.487,0,0,1,.193,2.03A7.882,7.882,0,0,1-7.559-1.8,3.051,3.051,0,0,1-8.487-.36a2.382,2.382,0,0,1-1.562.507A2.357,2.357,0,0,1-12-.744,5.661,5.661,0,0,1-12.85-4.236Zm1.084,0a5.386,5.386,0,0,0,.5,2.815,1.459,1.459,0,0,0,1.222.7,1.458,1.458,0,0,0,1.222-.7,5.388,5.388,0,0,0,.5-2.812,5.384,5.384,0,0,0-.5-2.818,1.47,1.47,0,0,0-1.233-.7,1.351,1.351,0,0,0-1.16.615A5.448,5.448,0,0,0-11.766-4.236Zm5.59,0a7.86,7.86,0,0,1,.313-2.452,3.05,3.05,0,0,1,.932-1.433,2.382,2.382,0,0,1,1.556-.5,2.538,2.538,0,0,1,1.213.278,2.319,2.319,0,0,1,.861.8A4.306,4.306,0,0,1-.768-6.267a8.487,8.487,0,0,1,.193,2.03A7.882,7.882,0,0,1-.885-1.8,3.051,3.051,0,0,1-1.813-.36,2.382,2.382,0,0,1-3.375.146,2.357,2.357,0,0,1-5.326-.744,5.661,5.661,0,0,1-6.176-4.236Zm1.084,0a5.386,5.386,0,0,0,.5,2.815,1.459,1.459,0,0,0,1.222.7,1.458,1.458,0,0,0,1.222-.7,5.388,5.388,0,0,0,.5-2.812,5.384,5.384,0,0,0-.5-2.818,1.47,1.47,0,0,0-1.233-.7,1.351,1.351,0,0,0-1.16.615A5.448,5.448,0,0,0-5.092-4.236Z" transform="translate(-19500 -22496)" fill="#fff"/>
    <path id="_1k-28" data-name="$1k" d="M-12.85-4.236a7.86,7.86,0,0,1,.313-2.452A3.05,3.05,0,0,1-11.6-8.121a2.382,2.382,0,0,1,1.556-.5,2.538,2.538,0,0,1,1.213.278,2.319,2.319,0,0,1,.861.8,4.306,4.306,0,0,1,.533,1.277,8.487,8.487,0,0,1,.193,2.03A7.882,7.882,0,0,1-7.559-1.8,3.051,3.051,0,0,1-8.487-.36a2.382,2.382,0,0,1-1.562.507A2.357,2.357,0,0,1-12-.744,5.661,5.661,0,0,1-12.85-4.236Zm1.084,0a5.386,5.386,0,0,0,.5,2.815,1.459,1.459,0,0,0,1.222.7,1.458,1.458,0,0,0,1.222-.7,5.388,5.388,0,0,0,.5-2.812,5.384,5.384,0,0,0-.5-2.818,1.47,1.47,0,0,0-1.233-.7,1.351,1.351,0,0,0-1.16.615A5.448,5.448,0,0,0-11.766-4.236Zm5.59,0a7.86,7.86,0,0,1,.313-2.452,3.05,3.05,0,0,1,.932-1.433,2.382,2.382,0,0,1,1.556-.5,2.538,2.538,0,0,1,1.213.278,2.319,2.319,0,0,1,.861.8A4.306,4.306,0,0,1-.768-6.267a8.487,8.487,0,0,1,.193,2.03A7.882,7.882,0,0,1-.885-1.8,3.051,3.051,0,0,1-1.813-.36,2.382,2.382,0,0,1-3.375.146,2.357,2.357,0,0,1-5.326-.744,5.661,5.661,0,0,1-6.176-4.236Zm1.084,0a5.386,5.386,0,0,0,.5,2.815,1.459,1.459,0,0,0,1.222.7,1.458,1.458,0,0,0,1.222-.7,5.388,5.388,0,0,0,.5-2.812,5.384,5.384,0,0,0-.5-2.818,1.47,1.47,0,0,0-1.233-.7,1.351,1.351,0,0,0-1.16.615A5.448,5.448,0,0,0-5.092-4.236Z" transform="translate(-19500 -22469)" fill="#fff"/>
    <path id="矩形_9364" data-name="矩形 9364" d="M5,0H45a5,5,0,0,1,5,5V41a0,0,0,0,1,0,0H0a0,0,0,0,1,0,0V5A5,5,0,0,1,5,0Z" transform="translate(-19532 -22460)" fill="#c6deff"/>
    <path id="_1k-29" data-name="$1k" d="M-12.85-4.236a7.86,7.86,0,0,1,.313-2.452A3.05,3.05,0,0,1-11.6-8.121a2.382,2.382,0,0,1,1.556-.5,2.538,2.538,0,0,1,1.213.278,2.319,2.319,0,0,1,.861.8,4.306,4.306,0,0,1,.533,1.277,8.487,8.487,0,0,1,.193,2.03A7.882,7.882,0,0,1-7.559-1.8,3.051,3.051,0,0,1-8.487-.36a2.382,2.382,0,0,1-1.562.507A2.357,2.357,0,0,1-12-.744,5.661,5.661,0,0,1-12.85-4.236Zm1.084,0a5.386,5.386,0,0,0,.5,2.815,1.459,1.459,0,0,0,1.222.7,1.458,1.458,0,0,0,1.222-.7,5.388,5.388,0,0,0,.5-2.812,5.384,5.384,0,0,0-.5-2.818,1.47,1.47,0,0,0-1.233-.7,1.351,1.351,0,0,0-1.16.615A5.448,5.448,0,0,0-11.766-4.236Zm5.59,0a7.86,7.86,0,0,1,.313-2.452,3.05,3.05,0,0,1,.932-1.433,2.382,2.382,0,0,1,1.556-.5,2.538,2.538,0,0,1,1.213.278,2.319,2.319,0,0,1,.861.8A4.306,4.306,0,0,1-.768-6.267a8.487,8.487,0,0,1,.193,2.03A7.882,7.882,0,0,1-.885-1.8,3.051,3.051,0,0,1-1.813-.36,2.382,2.382,0,0,1-3.375.146,2.357,2.357,0,0,1-5.326-.744,5.661,5.661,0,0,1-6.176-4.236Zm1.084,0a5.386,5.386,0,0,0,.5,2.815,1.459,1.459,0,0,0,1.222.7,1.458,1.458,0,0,0,1.222-.7,5.388,5.388,0,0,0,.5-2.812,5.384,5.384,0,0,0-.5-2.818,1.47,1.47,0,0,0-1.233-.7,1.351,1.351,0,0,0-1.16.615A5.448,5.448,0,0,0-5.092-4.236Z" transform="translate(-19500 -22435)" fill="#fff"/>
    <path id="路径_19570" data-name="路径 19570" d="M5,0H45a5,5,0,0,1,5,5V224H0V5A5,5,0,0,1,5,0Z" transform="translate(-19427 -22643)" fill="#0040be"/>
    <path id="路径_19571" data-name="路径 19571" d="M5,0H45a5,5,0,0,1,5,5V181H0V5A5,5,0,0,1,5,0Z" transform="translate(-19427 -22600)" fill="#1763f7"/>
    <path id="路径_19572" data-name="路径 19572" d="M5,0H45a5,5,0,0,1,5,5V151H0V5A5,5,0,0,1,5,0Z" transform="translate(-19427 -22570)" fill="#5993ff"/>
    <path id="路径_19573" data-name="路径 19573" d="M5,0H45a5,5,0,0,1,5,5V125H0V5A5,5,0,0,1,5,0Z" transform="translate(-19427 -22544)" fill="#72aeff"/>
    <path id="路径_19574" data-name="路径 19574" d="M5,0H45a5,5,0,0,1,5,5V90H0V5A5,5,0,0,1,5,0Z" transform="translate(-19427 -22509)" fill="#9bbeff"/>
    <path id="_1k-30" data-name="$1k" d="M-12.85-4.236a7.86,7.86,0,0,1,.313-2.452A3.05,3.05,0,0,1-11.6-8.121a2.382,2.382,0,0,1,1.556-.5,2.538,2.538,0,0,1,1.213.278,2.319,2.319,0,0,1,.861.8,4.306,4.306,0,0,1,.533,1.277,8.487,8.487,0,0,1,.193,2.03A7.882,7.882,0,0,1-7.559-1.8,3.051,3.051,0,0,1-8.487-.36a2.382,2.382,0,0,1-1.562.507A2.357,2.357,0,0,1-12-.744,5.661,5.661,0,0,1-12.85-4.236Zm1.084,0a5.386,5.386,0,0,0,.5,2.815,1.459,1.459,0,0,0,1.222.7,1.458,1.458,0,0,0,1.222-.7,5.388,5.388,0,0,0,.5-2.812,5.384,5.384,0,0,0-.5-2.818,1.47,1.47,0,0,0-1.233-.7,1.351,1.351,0,0,0-1.16.615A5.448,5.448,0,0,0-11.766-4.236Zm5.59,0a7.86,7.86,0,0,1,.313-2.452,3.05,3.05,0,0,1,.932-1.433,2.382,2.382,0,0,1,1.556-.5,2.538,2.538,0,0,1,1.213.278,2.319,2.319,0,0,1,.861.8A4.306,4.306,0,0,1-.768-6.267a8.487,8.487,0,0,1,.193,2.03A7.882,7.882,0,0,1-.885-1.8,3.051,3.051,0,0,1-1.813-.36,2.382,2.382,0,0,1-3.375.146,2.357,2.357,0,0,1-5.326-.744,5.661,5.661,0,0,1-6.176-4.236Zm1.084,0a5.386,5.386,0,0,0,.5,2.815,1.459,1.459,0,0,0,1.222.7,1.458,1.458,0,0,0,1.222-.7,5.388,5.388,0,0,0,.5-2.812,5.384,5.384,0,0,0-.5-2.818,1.47,1.47,0,0,0-1.233-.7,1.351,1.351,0,0,0-1.16.615A5.448,5.448,0,0,0-5.092-4.236Z" transform="translate(-19395 -22653)" fill="#7e84a3"/>
    <path id="_1k-31" data-name="$1k" d="M-12.85-4.236a7.86,7.86,0,0,1,.313-2.452A3.05,3.05,0,0,1-11.6-8.121a2.382,2.382,0,0,1,1.556-.5,2.538,2.538,0,0,1,1.213.278,2.319,2.319,0,0,1,.861.8,4.306,4.306,0,0,1,.533,1.277,8.487,8.487,0,0,1,.193,2.03A7.882,7.882,0,0,1-7.559-1.8,3.051,3.051,0,0,1-8.487-.36a2.382,2.382,0,0,1-1.562.507A2.357,2.357,0,0,1-12-.744,5.661,5.661,0,0,1-12.85-4.236Zm1.084,0a5.386,5.386,0,0,0,.5,2.815,1.459,1.459,0,0,0,1.222.7,1.458,1.458,0,0,0,1.222-.7,5.388,5.388,0,0,0,.5-2.812,5.384,5.384,0,0,0-.5-2.818,1.47,1.47,0,0,0-1.233-.7,1.351,1.351,0,0,0-1.16.615A5.448,5.448,0,0,0-11.766-4.236Zm5.59,0a7.86,7.86,0,0,1,.313-2.452,3.05,3.05,0,0,1,.932-1.433,2.382,2.382,0,0,1,1.556-.5,2.538,2.538,0,0,1,1.213.278,2.319,2.319,0,0,1,.861.8A4.306,4.306,0,0,1-.768-6.267a8.487,8.487,0,0,1,.193,2.03A7.882,7.882,0,0,1-.885-1.8,3.051,3.051,0,0,1-1.813-.36,2.382,2.382,0,0,1-3.375.146,2.357,2.357,0,0,1-5.326-.744,5.661,5.661,0,0,1-6.176-4.236Zm1.084,0a5.386,5.386,0,0,0,.5,2.815,1.459,1.459,0,0,0,1.222.7,1.458,1.458,0,0,0,1.222-.7,5.388,5.388,0,0,0,.5-2.812,5.384,5.384,0,0,0-.5-2.818,1.47,1.47,0,0,0-1.233-.7,1.351,1.351,0,0,0-1.16.615A5.448,5.448,0,0,0-5.092-4.236Z" transform="translate(-19395 -22579)" fill="#fff"/>
    <path id="_1k-32" data-name="$1k" d="M-12.85-4.236a7.86,7.86,0,0,1,.313-2.452A3.05,3.05,0,0,1-11.6-8.121a2.382,2.382,0,0,1,1.556-.5,2.538,2.538,0,0,1,1.213.278,2.319,2.319,0,0,1,.861.8,4.306,4.306,0,0,1,.533,1.277,8.487,8.487,0,0,1,.193,2.03A7.882,7.882,0,0,1-7.559-1.8,3.051,3.051,0,0,1-8.487-.36a2.382,2.382,0,0,1-1.562.507A2.357,2.357,0,0,1-12-.744,5.661,5.661,0,0,1-12.85-4.236Zm1.084,0a5.386,5.386,0,0,0,.5,2.815,1.459,1.459,0,0,0,1.222.7,1.458,1.458,0,0,0,1.222-.7,5.388,5.388,0,0,0,.5-2.812,5.384,5.384,0,0,0-.5-2.818,1.47,1.47,0,0,0-1.233-.7,1.351,1.351,0,0,0-1.16.615A5.448,5.448,0,0,0-11.766-4.236Zm5.59,0a7.86,7.86,0,0,1,.313-2.452,3.05,3.05,0,0,1,.932-1.433,2.382,2.382,0,0,1,1.556-.5,2.538,2.538,0,0,1,1.213.278,2.319,2.319,0,0,1,.861.8A4.306,4.306,0,0,1-.768-6.267a8.487,8.487,0,0,1,.193,2.03A7.882,7.882,0,0,1-.885-1.8,3.051,3.051,0,0,1-1.813-.36,2.382,2.382,0,0,1-3.375.146,2.357,2.357,0,0,1-5.326-.744,5.661,5.661,0,0,1-6.176-4.236Zm1.084,0a5.386,5.386,0,0,0,.5,2.815,1.459,1.459,0,0,0,1.222.7,1.458,1.458,0,0,0,1.222-.7,5.388,5.388,0,0,0,.5-2.812,5.384,5.384,0,0,0-.5-2.818,1.47,1.47,0,0,0-1.233-.7,1.351,1.351,0,0,0-1.16.615A5.448,5.448,0,0,0-5.092-4.236Z" transform="translate(-19395 -22616)" fill="#fff"/>
    <path id="_1k-33" data-name="$1k" d="M-12.85-4.236a7.86,7.86,0,0,1,.313-2.452A3.05,3.05,0,0,1-11.6-8.121a2.382,2.382,0,0,1,1.556-.5,2.538,2.538,0,0,1,1.213.278,2.319,2.319,0,0,1,.861.8,4.306,4.306,0,0,1,.533,1.277,8.487,8.487,0,0,1,.193,2.03A7.882,7.882,0,0,1-7.559-1.8,3.051,3.051,0,0,1-8.487-.36a2.382,2.382,0,0,1-1.562.507A2.357,2.357,0,0,1-12-.744,5.661,5.661,0,0,1-12.85-4.236Zm1.084,0a5.386,5.386,0,0,0,.5,2.815,1.459,1.459,0,0,0,1.222.7,1.458,1.458,0,0,0,1.222-.7,5.388,5.388,0,0,0,.5-2.812,5.384,5.384,0,0,0-.5-2.818,1.47,1.47,0,0,0-1.233-.7,1.351,1.351,0,0,0-1.16.615A5.448,5.448,0,0,0-11.766-4.236Zm5.59,0a7.86,7.86,0,0,1,.313-2.452,3.05,3.05,0,0,1,.932-1.433,2.382,2.382,0,0,1,1.556-.5,2.538,2.538,0,0,1,1.213.278,2.319,2.319,0,0,1,.861.8A4.306,4.306,0,0,1-.768-6.267a8.487,8.487,0,0,1,.193,2.03A7.882,7.882,0,0,1-.885-1.8,3.051,3.051,0,0,1-1.813-.36,2.382,2.382,0,0,1-3.375.146,2.357,2.357,0,0,1-5.326-.744,5.661,5.661,0,0,1-6.176-4.236Zm1.084,0a5.386,5.386,0,0,0,.5,2.815,1.459,1.459,0,0,0,1.222.7,1.458,1.458,0,0,0,1.222-.7,5.388,5.388,0,0,0,.5-2.812,5.384,5.384,0,0,0-.5-2.818,1.47,1.47,0,0,0-1.233-.7,1.351,1.351,0,0,0-1.16.615A5.448,5.448,0,0,0-5.092-4.236Z" transform="translate(-19395 -22552)" fill="#fff"/>
    <path id="_1k-34" data-name="$1k" d="M-12.85-4.236a7.86,7.86,0,0,1,.313-2.452A3.05,3.05,0,0,1-11.6-8.121a2.382,2.382,0,0,1,1.556-.5,2.538,2.538,0,0,1,1.213.278,2.319,2.319,0,0,1,.861.8,4.306,4.306,0,0,1,.533,1.277,8.487,8.487,0,0,1,.193,2.03A7.882,7.882,0,0,1-7.559-1.8,3.051,3.051,0,0,1-8.487-.36a2.382,2.382,0,0,1-1.562.507A2.357,2.357,0,0,1-12-.744,5.661,5.661,0,0,1-12.85-4.236Zm1.084,0a5.386,5.386,0,0,0,.5,2.815,1.459,1.459,0,0,0,1.222.7,1.458,1.458,0,0,0,1.222-.7,5.388,5.388,0,0,0,.5-2.812,5.384,5.384,0,0,0-.5-2.818,1.47,1.47,0,0,0-1.233-.7,1.351,1.351,0,0,0-1.16.615A5.448,5.448,0,0,0-11.766-4.236Zm5.59,0a7.86,7.86,0,0,1,.313-2.452,3.05,3.05,0,0,1,.932-1.433,2.382,2.382,0,0,1,1.556-.5,2.538,2.538,0,0,1,1.213.278,2.319,2.319,0,0,1,.861.8A4.306,4.306,0,0,1-.768-6.267a8.487,8.487,0,0,1,.193,2.03A7.882,7.882,0,0,1-.885-1.8,3.051,3.051,0,0,1-1.813-.36,2.382,2.382,0,0,1-3.375.146,2.357,2.357,0,0,1-5.326-.744,5.661,5.661,0,0,1-6.176-4.236Zm1.084,0a5.386,5.386,0,0,0,.5,2.815,1.459,1.459,0,0,0,1.222.7,1.458,1.458,0,0,0,1.222-.7,5.388,5.388,0,0,0,.5-2.812,5.384,5.384,0,0,0-.5-2.818,1.47,1.47,0,0,0-1.233-.7,1.351,1.351,0,0,0-1.16.615A5.448,5.448,0,0,0-5.092-4.236Z" transform="translate(-19395 -22521)" fill="#fff"/>
    <path id="_1k-35" data-name="$1k" d="M-12.85-4.236a7.86,7.86,0,0,1,.313-2.452A3.05,3.05,0,0,1-11.6-8.121a2.382,2.382,0,0,1,1.556-.5,2.538,2.538,0,0,1,1.213.278,2.319,2.319,0,0,1,.861.8,4.306,4.306,0,0,1,.533,1.277,8.487,8.487,0,0,1,.193,2.03A7.882,7.882,0,0,1-7.559-1.8,3.051,3.051,0,0,1-8.487-.36a2.382,2.382,0,0,1-1.562.507A2.357,2.357,0,0,1-12-.744,5.661,5.661,0,0,1-12.85-4.236Zm1.084,0a5.386,5.386,0,0,0,.5,2.815,1.459,1.459,0,0,0,1.222.7,1.458,1.458,0,0,0,1.222-.7,5.388,5.388,0,0,0,.5-2.812,5.384,5.384,0,0,0-.5-2.818,1.47,1.47,0,0,0-1.233-.7,1.351,1.351,0,0,0-1.16.615A5.448,5.448,0,0,0-11.766-4.236Zm5.59,0a7.86,7.86,0,0,1,.313-2.452,3.05,3.05,0,0,1,.932-1.433,2.382,2.382,0,0,1,1.556-.5,2.538,2.538,0,0,1,1.213.278,2.319,2.319,0,0,1,.861.8A4.306,4.306,0,0,1-.768-6.267a8.487,8.487,0,0,1,.193,2.03A7.882,7.882,0,0,1-.885-1.8,3.051,3.051,0,0,1-1.813-.36,2.382,2.382,0,0,1-3.375.146,2.357,2.357,0,0,1-5.326-.744,5.661,5.661,0,0,1-6.176-4.236Zm1.084,0a5.386,5.386,0,0,0,.5,2.815,1.459,1.459,0,0,0,1.222.7,1.458,1.458,0,0,0,1.222-.7,5.388,5.388,0,0,0,.5-2.812,5.384,5.384,0,0,0-.5-2.818,1.47,1.47,0,0,0-1.233-.7,1.351,1.351,0,0,0-1.16.615A5.448,5.448,0,0,0-5.092-4.236Z" transform="translate(-19395 -22484)" fill="#fff"/>
    <path id="路径_19575" data-name="路径 19575" d="M5,0H45a5,5,0,0,1,5,5V53H0V5A5,5,0,0,1,5,0Z" transform="translate(-19427 -22472)" fill="#c6deff"/>
    <path id="_1k-36" data-name="$1k" d="M-12.85-4.236a7.86,7.86,0,0,1,.313-2.452A3.05,3.05,0,0,1-11.6-8.121a2.382,2.382,0,0,1,1.556-.5,2.538,2.538,0,0,1,1.213.278,2.319,2.319,0,0,1,.861.8,4.306,4.306,0,0,1,.533,1.277,8.487,8.487,0,0,1,.193,2.03A7.882,7.882,0,0,1-7.559-1.8,3.051,3.051,0,0,1-8.487-.36a2.382,2.382,0,0,1-1.562.507A2.357,2.357,0,0,1-12-.744,5.661,5.661,0,0,1-12.85-4.236Zm1.084,0a5.386,5.386,0,0,0,.5,2.815,1.459,1.459,0,0,0,1.222.7,1.458,1.458,0,0,0,1.222-.7,5.388,5.388,0,0,0,.5-2.812,5.384,5.384,0,0,0-.5-2.818,1.47,1.47,0,0,0-1.233-.7,1.351,1.351,0,0,0-1.16.615A5.448,5.448,0,0,0-11.766-4.236Zm5.59,0a7.86,7.86,0,0,1,.313-2.452,3.05,3.05,0,0,1,.932-1.433,2.382,2.382,0,0,1,1.556-.5,2.538,2.538,0,0,1,1.213.278,2.319,2.319,0,0,1,.861.8A4.306,4.306,0,0,1-.768-6.267a8.487,8.487,0,0,1,.193,2.03A7.882,7.882,0,0,1-.885-1.8,3.051,3.051,0,0,1-1.813-.36,2.382,2.382,0,0,1-3.375.146,2.357,2.357,0,0,1-5.326-.744,5.661,5.661,0,0,1-6.176-4.236Zm1.084,0a5.386,5.386,0,0,0,.5,2.815,1.459,1.459,0,0,0,1.222.7,1.458,1.458,0,0,0,1.222-.7,5.388,5.388,0,0,0,.5-2.812,5.384,5.384,0,0,0-.5-2.818,1.47,1.47,0,0,0-1.233-.7,1.351,1.351,0,0,0-1.16.615A5.448,5.448,0,0,0-5.092-4.236Z" transform="translate(-19395 -22437)" fill="#fff"/>
    <path id="路径_19569" data-name="路径 19569" d="M5,0H45a5,5,0,0,1,5,5V198H0V5A5,5,0,0,1,5,0Z" transform="translate(-19322 -22617)" fill="#0040be"/>
    <path id="路径_19568" data-name="路径 19568" d="M5,0H45a5,5,0,0,1,5,5V159H0V5A5,5,0,0,1,5,0Z" transform="translate(-19322 -22578)" fill="#1763f7"/>
    <path id="路径_19567" data-name="路径 19567" d="M5,0H45a5,5,0,0,1,5,5V133H0V5A5,5,0,0,1,5,0Z" transform="translate(-19322 -22552)" fill="#5993ff"/>
    <path id="路径_19566" data-name="路径 19566" d="M5,0H45a5,5,0,0,1,5,5V110H0V5A5,5,0,0,1,5,0Z" transform="translate(-19322 -22529)" fill="#72aeff"/>
    <path id="路径_19565" data-name="路径 19565" d="M5,0H45a5,5,0,0,1,5,5V80H0V5A5,5,0,0,1,5,0Z" transform="translate(-19322 -22499)" fill="#9bbeff"/>
    <path id="_1k-37" data-name="$1k" d="M-12.85-4.236a7.86,7.86,0,0,1,.313-2.452A3.05,3.05,0,0,1-11.6-8.121a2.382,2.382,0,0,1,1.556-.5,2.538,2.538,0,0,1,1.213.278,2.319,2.319,0,0,1,.861.8,4.306,4.306,0,0,1,.533,1.277,8.487,8.487,0,0,1,.193,2.03A7.882,7.882,0,0,1-7.559-1.8,3.051,3.051,0,0,1-8.487-.36a2.382,2.382,0,0,1-1.562.507A2.357,2.357,0,0,1-12-.744,5.661,5.661,0,0,1-12.85-4.236Zm1.084,0a5.386,5.386,0,0,0,.5,2.815,1.459,1.459,0,0,0,1.222.7,1.458,1.458,0,0,0,1.222-.7,5.388,5.388,0,0,0,.5-2.812,5.384,5.384,0,0,0-.5-2.818,1.47,1.47,0,0,0-1.233-.7,1.351,1.351,0,0,0-1.16.615A5.448,5.448,0,0,0-11.766-4.236Zm5.59,0a7.86,7.86,0,0,1,.313-2.452,3.05,3.05,0,0,1,.932-1.433,2.382,2.382,0,0,1,1.556-.5,2.538,2.538,0,0,1,1.213.278,2.319,2.319,0,0,1,.861.8A4.306,4.306,0,0,1-.768-6.267a8.487,8.487,0,0,1,.193,2.03A7.882,7.882,0,0,1-.885-1.8,3.051,3.051,0,0,1-1.813-.36,2.382,2.382,0,0,1-3.375.146,2.357,2.357,0,0,1-5.326-.744,5.661,5.661,0,0,1-6.176-4.236Zm1.084,0a5.386,5.386,0,0,0,.5,2.815,1.459,1.459,0,0,0,1.222.7,1.458,1.458,0,0,0,1.222-.7,5.388,5.388,0,0,0,.5-2.812,5.384,5.384,0,0,0-.5-2.818,1.47,1.47,0,0,0-1.233-.7,1.351,1.351,0,0,0-1.16.615A5.448,5.448,0,0,0-5.092-4.236Z" transform="translate(-19290 -22624)" fill="#7e84a3"/>
    <path id="_1k-38" data-name="$1k" d="M-12.85-4.236a7.86,7.86,0,0,1,.313-2.452A3.05,3.05,0,0,1-11.6-8.121a2.382,2.382,0,0,1,1.556-.5,2.538,2.538,0,0,1,1.213.278,2.319,2.319,0,0,1,.861.8,4.306,4.306,0,0,1,.533,1.277,8.487,8.487,0,0,1,.193,2.03A7.882,7.882,0,0,1-7.559-1.8,3.051,3.051,0,0,1-8.487-.36a2.382,2.382,0,0,1-1.562.507A2.357,2.357,0,0,1-12-.744,5.661,5.661,0,0,1-12.85-4.236Zm1.084,0a5.386,5.386,0,0,0,.5,2.815,1.459,1.459,0,0,0,1.222.7,1.458,1.458,0,0,0,1.222-.7,5.388,5.388,0,0,0,.5-2.812,5.384,5.384,0,0,0-.5-2.818,1.47,1.47,0,0,0-1.233-.7,1.351,1.351,0,0,0-1.16.615A5.448,5.448,0,0,0-11.766-4.236Zm5.59,0a7.86,7.86,0,0,1,.313-2.452,3.05,3.05,0,0,1,.932-1.433,2.382,2.382,0,0,1,1.556-.5,2.538,2.538,0,0,1,1.213.278,2.319,2.319,0,0,1,.861.8A4.306,4.306,0,0,1-.768-6.267a8.487,8.487,0,0,1,.193,2.03A7.882,7.882,0,0,1-.885-1.8,3.051,3.051,0,0,1-1.813-.36,2.382,2.382,0,0,1-3.375.146,2.357,2.357,0,0,1-5.326-.744,5.661,5.661,0,0,1-6.176-4.236Zm1.084,0a5.386,5.386,0,0,0,.5,2.815,1.459,1.459,0,0,0,1.222.7,1.458,1.458,0,0,0,1.222-.7,5.388,5.388,0,0,0,.5-2.812,5.384,5.384,0,0,0-.5-2.818,1.47,1.47,0,0,0-1.233-.7,1.351,1.351,0,0,0-1.16.615A5.448,5.448,0,0,0-5.092-4.236Z" transform="translate(-19290 -22559)" fill="#fff"/>
    <path id="_1k-39" data-name="$1k" d="M-12.85-4.236a7.86,7.86,0,0,1,.313-2.452A3.05,3.05,0,0,1-11.6-8.121a2.382,2.382,0,0,1,1.556-.5,2.538,2.538,0,0,1,1.213.278,2.319,2.319,0,0,1,.861.8,4.306,4.306,0,0,1,.533,1.277,8.487,8.487,0,0,1,.193,2.03A7.882,7.882,0,0,1-7.559-1.8,3.051,3.051,0,0,1-8.487-.36a2.382,2.382,0,0,1-1.562.507A2.357,2.357,0,0,1-12-.744,5.661,5.661,0,0,1-12.85-4.236Zm1.084,0a5.386,5.386,0,0,0,.5,2.815,1.459,1.459,0,0,0,1.222.7,1.458,1.458,0,0,0,1.222-.7,5.388,5.388,0,0,0,.5-2.812,5.384,5.384,0,0,0-.5-2.818,1.47,1.47,0,0,0-1.233-.7,1.351,1.351,0,0,0-1.16.615A5.448,5.448,0,0,0-11.766-4.236Zm5.59,0a7.86,7.86,0,0,1,.313-2.452,3.05,3.05,0,0,1,.932-1.433,2.382,2.382,0,0,1,1.556-.5,2.538,2.538,0,0,1,1.213.278,2.319,2.319,0,0,1,.861.8A4.306,4.306,0,0,1-.768-6.267a8.487,8.487,0,0,1,.193,2.03A7.882,7.882,0,0,1-.885-1.8,3.051,3.051,0,0,1-1.813-.36,2.382,2.382,0,0,1-3.375.146,2.357,2.357,0,0,1-5.326-.744,5.661,5.661,0,0,1-6.176-4.236Zm1.084,0a5.386,5.386,0,0,0,.5,2.815,1.459,1.459,0,0,0,1.222.7,1.458,1.458,0,0,0,1.222-.7,5.388,5.388,0,0,0,.5-2.812,5.384,5.384,0,0,0-.5-2.818,1.47,1.47,0,0,0-1.233-.7,1.351,1.351,0,0,0-1.16.615A5.448,5.448,0,0,0-5.092-4.236Z" transform="translate(-19290 -22591)" fill="#fff"/>
    <path id="_1k-40" data-name="$1k" d="M-12.85-4.236a7.86,7.86,0,0,1,.313-2.452A3.05,3.05,0,0,1-11.6-8.121a2.382,2.382,0,0,1,1.556-.5,2.538,2.538,0,0,1,1.213.278,2.319,2.319,0,0,1,.861.8,4.306,4.306,0,0,1,.533,1.277,8.487,8.487,0,0,1,.193,2.03A7.882,7.882,0,0,1-7.559-1.8,3.051,3.051,0,0,1-8.487-.36a2.382,2.382,0,0,1-1.562.507A2.357,2.357,0,0,1-12-.744,5.661,5.661,0,0,1-12.85-4.236Zm1.084,0a5.386,5.386,0,0,0,.5,2.815,1.459,1.459,0,0,0,1.222.7,1.458,1.458,0,0,0,1.222-.7,5.388,5.388,0,0,0,.5-2.812,5.384,5.384,0,0,0-.5-2.818,1.47,1.47,0,0,0-1.233-.7,1.351,1.351,0,0,0-1.16.615A5.448,5.448,0,0,0-11.766-4.236Zm5.59,0a7.86,7.86,0,0,1,.313-2.452,3.05,3.05,0,0,1,.932-1.433,2.382,2.382,0,0,1,1.556-.5,2.538,2.538,0,0,1,1.213.278,2.319,2.319,0,0,1,.861.8A4.306,4.306,0,0,1-.768-6.267a8.487,8.487,0,0,1,.193,2.03A7.882,7.882,0,0,1-.885-1.8,3.051,3.051,0,0,1-1.813-.36,2.382,2.382,0,0,1-3.375.146,2.357,2.357,0,0,1-5.326-.744,5.661,5.661,0,0,1-6.176-4.236Zm1.084,0a5.386,5.386,0,0,0,.5,2.815,1.459,1.459,0,0,0,1.222.7,1.458,1.458,0,0,0,1.222-.7,5.388,5.388,0,0,0,.5-2.812,5.384,5.384,0,0,0-.5-2.818,1.47,1.47,0,0,0-1.233-.7,1.351,1.351,0,0,0-1.16.615A5.448,5.448,0,0,0-5.092-4.236Z" transform="translate(-19290 -22536)" fill="#fff"/>
    <path id="_1k-41" data-name="$1k" d="M-12.85-4.236a7.86,7.86,0,0,1,.313-2.452A3.05,3.05,0,0,1-11.6-8.121a2.382,2.382,0,0,1,1.556-.5,2.538,2.538,0,0,1,1.213.278,2.319,2.319,0,0,1,.861.8,4.306,4.306,0,0,1,.533,1.277,8.487,8.487,0,0,1,.193,2.03A7.882,7.882,0,0,1-7.559-1.8,3.051,3.051,0,0,1-8.487-.36a2.382,2.382,0,0,1-1.562.507A2.357,2.357,0,0,1-12-.744,5.661,5.661,0,0,1-12.85-4.236Zm1.084,0a5.386,5.386,0,0,0,.5,2.815,1.459,1.459,0,0,0,1.222.7,1.458,1.458,0,0,0,1.222-.7,5.388,5.388,0,0,0,.5-2.812,5.384,5.384,0,0,0-.5-2.818,1.47,1.47,0,0,0-1.233-.7,1.351,1.351,0,0,0-1.16.615A5.448,5.448,0,0,0-11.766-4.236Zm5.59,0a7.86,7.86,0,0,1,.313-2.452,3.05,3.05,0,0,1,.932-1.433,2.382,2.382,0,0,1,1.556-.5,2.538,2.538,0,0,1,1.213.278,2.319,2.319,0,0,1,.861.8A4.306,4.306,0,0,1-.768-6.267a8.487,8.487,0,0,1,.193,2.03A7.882,7.882,0,0,1-.885-1.8,3.051,3.051,0,0,1-1.813-.36,2.382,2.382,0,0,1-3.375.146,2.357,2.357,0,0,1-5.326-.744,5.661,5.661,0,0,1-6.176-4.236Zm1.084,0a5.386,5.386,0,0,0,.5,2.815,1.459,1.459,0,0,0,1.222.7,1.458,1.458,0,0,0,1.222-.7,5.388,5.388,0,0,0,.5-2.812,5.384,5.384,0,0,0-.5-2.818,1.47,1.47,0,0,0-1.233-.7,1.351,1.351,0,0,0-1.16.615A5.448,5.448,0,0,0-5.092-4.236Z" transform="translate(-19290 -22508)" fill="#fff"/>
    <path id="_1k-42" data-name="$1k" d="M-12.85-4.236a7.86,7.86,0,0,1,.313-2.452A3.05,3.05,0,0,1-11.6-8.121a2.382,2.382,0,0,1,1.556-.5,2.538,2.538,0,0,1,1.213.278,2.319,2.319,0,0,1,.861.8,4.306,4.306,0,0,1,.533,1.277,8.487,8.487,0,0,1,.193,2.03A7.882,7.882,0,0,1-7.559-1.8,3.051,3.051,0,0,1-8.487-.36a2.382,2.382,0,0,1-1.562.507A2.357,2.357,0,0,1-12-.744,5.661,5.661,0,0,1-12.85-4.236Zm1.084,0a5.386,5.386,0,0,0,.5,2.815,1.459,1.459,0,0,0,1.222.7,1.458,1.458,0,0,0,1.222-.7,5.388,5.388,0,0,0,.5-2.812,5.384,5.384,0,0,0-.5-2.818,1.47,1.47,0,0,0-1.233-.7,1.351,1.351,0,0,0-1.16.615A5.448,5.448,0,0,0-11.766-4.236Zm5.59,0a7.86,7.86,0,0,1,.313-2.452,3.05,3.05,0,0,1,.932-1.433,2.382,2.382,0,0,1,1.556-.5,2.538,2.538,0,0,1,1.213.278,2.319,2.319,0,0,1,.861.8A4.306,4.306,0,0,1-.768-6.267a8.487,8.487,0,0,1,.193,2.03A7.882,7.882,0,0,1-.885-1.8,3.051,3.051,0,0,1-1.813-.36,2.382,2.382,0,0,1-3.375.146,2.357,2.357,0,0,1-5.326-.744,5.661,5.661,0,0,1-6.176-4.236Zm1.084,0a5.386,5.386,0,0,0,.5,2.815,1.459,1.459,0,0,0,1.222.7,1.458,1.458,0,0,0,1.222-.7,5.388,5.388,0,0,0,.5-2.812,5.384,5.384,0,0,0-.5-2.818,1.47,1.47,0,0,0-1.233-.7,1.351,1.351,0,0,0-1.16.615A5.448,5.448,0,0,0-5.092-4.236Z" transform="translate(-19290 -22477)" fill="#fff"/>
    <path id="路径_19564" data-name="路径 19564" d="M5,0H45a5,5,0,0,1,5,5V47H0V5A5,5,0,0,1,5,0Z" transform="translate(-19322 -22466)" fill="#c6deff"/>
    <path id="_1k-43" data-name="$1k" d="M-12.85-4.236a7.86,7.86,0,0,1,.313-2.452A3.05,3.05,0,0,1-11.6-8.121a2.382,2.382,0,0,1,1.556-.5,2.538,2.538,0,0,1,1.213.278,2.319,2.319,0,0,1,.861.8,4.306,4.306,0,0,1,.533,1.277,8.487,8.487,0,0,1,.193,2.03A7.882,7.882,0,0,1-7.559-1.8,3.051,3.051,0,0,1-8.487-.36a2.382,2.382,0,0,1-1.562.507A2.357,2.357,0,0,1-12-.744,5.661,5.661,0,0,1-12.85-4.236Zm1.084,0a5.386,5.386,0,0,0,.5,2.815,1.459,1.459,0,0,0,1.222.7,1.458,1.458,0,0,0,1.222-.7,5.388,5.388,0,0,0,.5-2.812,5.384,5.384,0,0,0-.5-2.818,1.47,1.47,0,0,0-1.233-.7,1.351,1.351,0,0,0-1.16.615A5.448,5.448,0,0,0-11.766-4.236Zm5.59,0a7.86,7.86,0,0,1,.313-2.452,3.05,3.05,0,0,1,.932-1.433,2.382,2.382,0,0,1,1.556-.5,2.538,2.538,0,0,1,1.213.278,2.319,2.319,0,0,1,.861.8A4.306,4.306,0,0,1-.768-6.267a8.487,8.487,0,0,1,.193,2.03A7.882,7.882,0,0,1-.885-1.8,3.051,3.051,0,0,1-1.813-.36,2.382,2.382,0,0,1-3.375.146,2.357,2.357,0,0,1-5.326-.744,5.661,5.661,0,0,1-6.176-4.236Zm1.084,0a5.386,5.386,0,0,0,.5,2.815,1.459,1.459,0,0,0,1.222.7,1.458,1.458,0,0,0,1.222-.7,5.388,5.388,0,0,0,.5-2.812,5.384,5.384,0,0,0-.5-2.818,1.47,1.47,0,0,0-1.233-.7,1.351,1.351,0,0,0-1.16.615A5.448,5.448,0,0,0-5.092-4.236Z" transform="translate(-19290 -22437)" fill="#fff"/>
    <path id="路径_19559" data-name="路径 19559" d="M5,0H45a5,5,0,0,1,5,5V206H0V5A5,5,0,0,1,5,0Z" transform="translate(-19217 -22625)" fill="#0040be"/>
    <path id="路径_19558" data-name="路径 19558" d="M5,0H45a5,5,0,0,1,5,5V166H0V5A5,5,0,0,1,5,0Z" transform="translate(-19217 -22585)" fill="#1763f7"/>
    <path id="路径_19560" data-name="路径 19560" d="M5,0H45a5,5,0,0,1,5,5V139H0V5A5,5,0,0,1,5,0Z" transform="translate(-19217 -22558)" fill="#5993ff"/>
    <path id="路径_19561" data-name="路径 19561" d="M5,0H45a5,5,0,0,1,5,5V115H0V5A5,5,0,0,1,5,0Z" transform="translate(-19217 -22534)" fill="#72aeff"/>
    <path id="路径_19562" data-name="路径 19562" d="M5,0H45a5,5,0,0,1,5,5V83H0V5A5,5,0,0,1,5,0Z" transform="translate(-19217 -22502)" fill="#9bbeff"/>
    <path id="_1k-44" data-name="$1k" d="M-10.055-8.625A2.347,2.347,0,0,1-8.1-7.734a5.686,5.686,0,0,1,.838,3.5,5.7,5.7,0,0,1-.844,3.5,2.343,2.343,0,0,1-1.945.879,2.458,2.458,0,0,1-2.021-.964,5.7,5.7,0,0,1-.768-3.437A5.675,5.675,0,0,1-12-7.746,2.343,2.343,0,0,1-10.055-8.625Zm0,1.365a.823.823,0,0,0-.533.19,1.278,1.278,0,0,0-.363.683,9.415,9.415,0,0,0-.17,2.15,9.346,9.346,0,0,0,.152,2.077,1.46,1.46,0,0,0,.384.753.819.819,0,0,0,.53.188.823.823,0,0,0,.533-.19,1.278,1.278,0,0,0,.363-.683,9.332,9.332,0,0,0,.17-2.145,9.346,9.346,0,0,0-.152-2.077,1.481,1.481,0,0,0-.384-.756A.811.811,0,0,0-10.055-7.26Zm6.674-1.365a2.347,2.347,0,0,1,1.951.891,5.686,5.686,0,0,1,.838,3.5,5.7,5.7,0,0,1-.844,3.5A2.343,2.343,0,0,1-3.381.146,2.458,2.458,0,0,1-5.4-.817,5.7,5.7,0,0,1-6.17-4.254a5.675,5.675,0,0,1,.844-3.492A2.343,2.343,0,0,1-3.381-8.625Zm0,1.365a.823.823,0,0,0-.533.19,1.278,1.278,0,0,0-.363.683,9.415,9.415,0,0,0-.17,2.15,9.346,9.346,0,0,0,.152,2.077,1.46,1.46,0,0,0,.384.753.819.819,0,0,0,.53.188.823.823,0,0,0,.533-.19,1.278,1.278,0,0,0,.363-.683,9.332,9.332,0,0,0,.17-2.145,9.346,9.346,0,0,0-.152-2.077,1.481,1.481,0,0,0-.384-.756A.811.811,0,0,0-3.381-7.26Z" transform="translate(-19185 -22633)" fill="#727272"/>
    <path id="_1k-45" data-name="$1k" d="M-12.85-4.236a7.86,7.86,0,0,1,.313-2.452A3.05,3.05,0,0,1-11.6-8.121a2.382,2.382,0,0,1,1.556-.5,2.538,2.538,0,0,1,1.213.278,2.319,2.319,0,0,1,.861.8,4.306,4.306,0,0,1,.533,1.277,8.487,8.487,0,0,1,.193,2.03A7.882,7.882,0,0,1-7.559-1.8,3.051,3.051,0,0,1-8.487-.36a2.382,2.382,0,0,1-1.562.507A2.357,2.357,0,0,1-12-.744,5.661,5.661,0,0,1-12.85-4.236Zm1.084,0a5.386,5.386,0,0,0,.5,2.815,1.459,1.459,0,0,0,1.222.7,1.458,1.458,0,0,0,1.222-.7,5.388,5.388,0,0,0,.5-2.812,5.384,5.384,0,0,0-.5-2.818,1.47,1.47,0,0,0-1.233-.7,1.351,1.351,0,0,0-1.16.615A5.448,5.448,0,0,0-11.766-4.236Zm5.59,0a7.86,7.86,0,0,1,.313-2.452,3.05,3.05,0,0,1,.932-1.433,2.382,2.382,0,0,1,1.556-.5,2.538,2.538,0,0,1,1.213.278,2.319,2.319,0,0,1,.861.8A4.306,4.306,0,0,1-.768-6.267a8.487,8.487,0,0,1,.193,2.03A7.882,7.882,0,0,1-.885-1.8,3.051,3.051,0,0,1-1.813-.36,2.382,2.382,0,0,1-3.375.146,2.357,2.357,0,0,1-5.326-.744,5.661,5.661,0,0,1-6.176-4.236Zm1.084,0a5.386,5.386,0,0,0,.5,2.815,1.459,1.459,0,0,0,1.222.7,1.458,1.458,0,0,0,1.222-.7,5.388,5.388,0,0,0,.5-2.812,5.384,5.384,0,0,0-.5-2.818,1.47,1.47,0,0,0-1.233-.7,1.351,1.351,0,0,0-1.16.615A5.448,5.448,0,0,0-5.092-4.236Z" transform="translate(-19185 -22565)" fill="#fff"/>
    <path id="_1k-46" data-name="$1k" d="M-12.85-4.236a7.86,7.86,0,0,1,.313-2.452A3.05,3.05,0,0,1-11.6-8.121a2.382,2.382,0,0,1,1.556-.5,2.538,2.538,0,0,1,1.213.278,2.319,2.319,0,0,1,.861.8,4.306,4.306,0,0,1,.533,1.277,8.487,8.487,0,0,1,.193,2.03A7.882,7.882,0,0,1-7.559-1.8,3.051,3.051,0,0,1-8.487-.36a2.382,2.382,0,0,1-1.562.507A2.357,2.357,0,0,1-12-.744,5.661,5.661,0,0,1-12.85-4.236Zm1.084,0a5.386,5.386,0,0,0,.5,2.815,1.459,1.459,0,0,0,1.222.7,1.458,1.458,0,0,0,1.222-.7,5.388,5.388,0,0,0,.5-2.812,5.384,5.384,0,0,0-.5-2.818,1.47,1.47,0,0,0-1.233-.7,1.351,1.351,0,0,0-1.16.615A5.448,5.448,0,0,0-11.766-4.236Zm5.59,0a7.86,7.86,0,0,1,.313-2.452,3.05,3.05,0,0,1,.932-1.433,2.382,2.382,0,0,1,1.556-.5,2.538,2.538,0,0,1,1.213.278,2.319,2.319,0,0,1,.861.8A4.306,4.306,0,0,1-.768-6.267a8.487,8.487,0,0,1,.193,2.03A7.882,7.882,0,0,1-.885-1.8,3.051,3.051,0,0,1-1.813-.36,2.382,2.382,0,0,1-3.375.146,2.357,2.357,0,0,1-5.326-.744,5.661,5.661,0,0,1-6.176-4.236Zm1.084,0a5.386,5.386,0,0,0,.5,2.815,1.459,1.459,0,0,0,1.222.7,1.458,1.458,0,0,0,1.222-.7,5.388,5.388,0,0,0,.5-2.812,5.384,5.384,0,0,0-.5-2.818,1.47,1.47,0,0,0-1.233-.7,1.351,1.351,0,0,0-1.16.615A5.448,5.448,0,0,0-5.092-4.236Z" transform="translate(-19185 -22599)" fill="#fff"/>
    <path id="_1k-47" data-name="$1k" d="M-12.85-4.236a7.86,7.86,0,0,1,.313-2.452A3.05,3.05,0,0,1-11.6-8.121a2.382,2.382,0,0,1,1.556-.5,2.538,2.538,0,0,1,1.213.278,2.319,2.319,0,0,1,.861.8,4.306,4.306,0,0,1,.533,1.277,8.487,8.487,0,0,1,.193,2.03A7.882,7.882,0,0,1-7.559-1.8,3.051,3.051,0,0,1-8.487-.36a2.382,2.382,0,0,1-1.562.507A2.357,2.357,0,0,1-12-.744,5.661,5.661,0,0,1-12.85-4.236Zm1.084,0a5.386,5.386,0,0,0,.5,2.815,1.459,1.459,0,0,0,1.222.7,1.458,1.458,0,0,0,1.222-.7,5.388,5.388,0,0,0,.5-2.812,5.384,5.384,0,0,0-.5-2.818,1.47,1.47,0,0,0-1.233-.7,1.351,1.351,0,0,0-1.16.615A5.448,5.448,0,0,0-11.766-4.236Zm5.59,0a7.86,7.86,0,0,1,.313-2.452,3.05,3.05,0,0,1,.932-1.433,2.382,2.382,0,0,1,1.556-.5,2.538,2.538,0,0,1,1.213.278,2.319,2.319,0,0,1,.861.8A4.306,4.306,0,0,1-.768-6.267a8.487,8.487,0,0,1,.193,2.03A7.882,7.882,0,0,1-.885-1.8,3.051,3.051,0,0,1-1.813-.36,2.382,2.382,0,0,1-3.375.146,2.357,2.357,0,0,1-5.326-.744,5.661,5.661,0,0,1-6.176-4.236Zm1.084,0a5.386,5.386,0,0,0,.5,2.815,1.459,1.459,0,0,0,1.222.7,1.458,1.458,0,0,0,1.222-.7,5.388,5.388,0,0,0,.5-2.812,5.384,5.384,0,0,0-.5-2.818,1.47,1.47,0,0,0-1.233-.7,1.351,1.351,0,0,0-1.16.615A5.448,5.448,0,0,0-5.092-4.236Z" transform="translate(-19185 -22541)" fill="#fff"/>
    <path id="_1k-48" data-name="$1k" d="M-12.85-4.236a7.86,7.86,0,0,1,.313-2.452A3.05,3.05,0,0,1-11.6-8.121a2.382,2.382,0,0,1,1.556-.5,2.538,2.538,0,0,1,1.213.278,2.319,2.319,0,0,1,.861.8,4.306,4.306,0,0,1,.533,1.277,8.487,8.487,0,0,1,.193,2.03A7.882,7.882,0,0,1-7.559-1.8,3.051,3.051,0,0,1-8.487-.36a2.382,2.382,0,0,1-1.562.507A2.357,2.357,0,0,1-12-.744,5.661,5.661,0,0,1-12.85-4.236Zm1.084,0a5.386,5.386,0,0,0,.5,2.815,1.459,1.459,0,0,0,1.222.7,1.458,1.458,0,0,0,1.222-.7,5.388,5.388,0,0,0,.5-2.812,5.384,5.384,0,0,0-.5-2.818,1.47,1.47,0,0,0-1.233-.7,1.351,1.351,0,0,0-1.16.615A5.448,5.448,0,0,0-11.766-4.236Zm5.59,0a7.86,7.86,0,0,1,.313-2.452,3.05,3.05,0,0,1,.932-1.433,2.382,2.382,0,0,1,1.556-.5,2.538,2.538,0,0,1,1.213.278,2.319,2.319,0,0,1,.861.8A4.306,4.306,0,0,1-.768-6.267a8.487,8.487,0,0,1,.193,2.03A7.882,7.882,0,0,1-.885-1.8,3.051,3.051,0,0,1-1.813-.36,2.382,2.382,0,0,1-3.375.146,2.357,2.357,0,0,1-5.326-.744,5.661,5.661,0,0,1-6.176-4.236Zm1.084,0a5.386,5.386,0,0,0,.5,2.815,1.459,1.459,0,0,0,1.222.7,1.458,1.458,0,0,0,1.222-.7,5.388,5.388,0,0,0,.5-2.812,5.384,5.384,0,0,0-.5-2.818,1.47,1.47,0,0,0-1.233-.7,1.351,1.351,0,0,0-1.16.615A5.448,5.448,0,0,0-5.092-4.236Z" transform="translate(-19185 -22512)" fill="#fff"/>
    <path id="_1k-49" data-name="$1k" d="M-12.85-4.236a7.86,7.86,0,0,1,.313-2.452A3.05,3.05,0,0,1-11.6-8.121a2.382,2.382,0,0,1,1.556-.5,2.538,2.538,0,0,1,1.213.278,2.319,2.319,0,0,1,.861.8,4.306,4.306,0,0,1,.533,1.277,8.487,8.487,0,0,1,.193,2.03A7.882,7.882,0,0,1-7.559-1.8,3.051,3.051,0,0,1-8.487-.36a2.382,2.382,0,0,1-1.562.507A2.357,2.357,0,0,1-12-.744,5.661,5.661,0,0,1-12.85-4.236Zm1.084,0a5.386,5.386,0,0,0,.5,2.815,1.459,1.459,0,0,0,1.222.7,1.458,1.458,0,0,0,1.222-.7,5.388,5.388,0,0,0,.5-2.812,5.384,5.384,0,0,0-.5-2.818,1.47,1.47,0,0,0-1.233-.7,1.351,1.351,0,0,0-1.16.615A5.448,5.448,0,0,0-11.766-4.236Zm5.59,0a7.86,7.86,0,0,1,.313-2.452,3.05,3.05,0,0,1,.932-1.433,2.382,2.382,0,0,1,1.556-.5,2.538,2.538,0,0,1,1.213.278,2.319,2.319,0,0,1,.861.8A4.306,4.306,0,0,1-.768-6.267a8.487,8.487,0,0,1,.193,2.03A7.882,7.882,0,0,1-.885-1.8,3.051,3.051,0,0,1-1.813-.36,2.382,2.382,0,0,1-3.375.146,2.357,2.357,0,0,1-5.326-.744,5.661,5.661,0,0,1-6.176-4.236Zm1.084,0a5.386,5.386,0,0,0,.5,2.815,1.459,1.459,0,0,0,1.222.7,1.458,1.458,0,0,0,1.222-.7,5.388,5.388,0,0,0,.5-2.812,5.384,5.384,0,0,0-.5-2.818,1.47,1.47,0,0,0-1.233-.7,1.351,1.351,0,0,0-1.16.615A5.448,5.448,0,0,0-5.092-4.236Z" transform="translate(-19185 -22479)" fill="#fff"/>
    <path id="路径_19563" data-name="路径 19563" d="M5,0H45a5,5,0,0,1,5,5V49H0V5A5,5,0,0,1,5,0Z" transform="translate(-19217 -22468)" fill="#c6deff"/>
    <path id="_1k-50" data-name="$1k" d="M-12.85-4.236a7.86,7.86,0,0,1,.313-2.452A3.05,3.05,0,0,1-11.6-8.121a2.382,2.382,0,0,1,1.556-.5,2.538,2.538,0,0,1,1.213.278,2.319,2.319,0,0,1,.861.8,4.306,4.306,0,0,1,.533,1.277,8.487,8.487,0,0,1,.193,2.03A7.882,7.882,0,0,1-7.559-1.8,3.051,3.051,0,0,1-8.487-.36a2.382,2.382,0,0,1-1.562.507A2.357,2.357,0,0,1-12-.744,5.661,5.661,0,0,1-12.85-4.236Zm1.084,0a5.386,5.386,0,0,0,.5,2.815,1.459,1.459,0,0,0,1.222.7,1.458,1.458,0,0,0,1.222-.7,5.388,5.388,0,0,0,.5-2.812,5.384,5.384,0,0,0-.5-2.818,1.47,1.47,0,0,0-1.233-.7,1.351,1.351,0,0,0-1.16.615A5.448,5.448,0,0,0-11.766-4.236Zm5.59,0a7.86,7.86,0,0,1,.313-2.452,3.05,3.05,0,0,1,.932-1.433,2.382,2.382,0,0,1,1.556-.5,2.538,2.538,0,0,1,1.213.278,2.319,2.319,0,0,1,.861.8A4.306,4.306,0,0,1-.768-6.267a8.487,8.487,0,0,1,.193,2.03A7.882,7.882,0,0,1-.885-1.8,3.051,3.051,0,0,1-1.813-.36,2.382,2.382,0,0,1-3.375.146,2.357,2.357,0,0,1-5.326-.744,5.661,5.661,0,0,1-6.176-4.236Zm1.084,0a5.386,5.386,0,0,0,.5,2.815,1.459,1.459,0,0,0,1.222.7,1.458,1.458,0,0,0,1.222-.7,5.388,5.388,0,0,0,.5-2.812,5.384,5.384,0,0,0-.5-2.818,1.47,1.47,0,0,0-1.233-.7,1.351,1.351,0,0,0-1.16.615A5.448,5.448,0,0,0-5.092-4.236Z" transform="translate(-19185 -22437)" fill="#fff"/>
    <g id="组_13837" data-name="组 13837" transform="translate(-1)">
      <g id="组_13802" data-name="组 13802" transform="translate(-17913.412 -37181.414)" opacity="0.25">
        <path id="路径_18862" data-name="路径 18862" d="M32,38a6,6,0,1,0,6-6A6,6,0,0,0,32,38Z" transform="translate(-1909.588 14661.412)" fill="#00c1b9"/>
      </g>
      <g id="组_13803" data-name="组 13803" transform="translate(-17910.412 -37178.414)">
        <path id="路径_18862-2" data-name="路径 18862" d="M32,35a3,3,0,1,0,3-3A3,3,0,0,0,32,35Z" transform="translate(-1909.588 14661.412)" fill="#00c1b9"/>
      </g>
    </g>
    <g id="组_13838" data-name="组 13838" transform="translate(104 -26.498)">
      <g id="组_13802-2" data-name="组 13802" transform="translate(-17913.412 -37181.414)" opacity="0.25">
        <path id="路径_18862-3" data-name="路径 18862" d="M32,38a6,6,0,1,0,6-6A6,6,0,0,0,32,38Z" transform="translate(-1909.588 14661.412)" fill="#00c1b9"/>
      </g>
      <g id="组_13803-2" data-name="组 13803" transform="translate(-17910.412 -37178.414)">
        <path id="路径_18862-4" data-name="路径 18862" d="M32,35a3,3,0,1,0,3-3A3,3,0,0,0,32,35Z" transform="translate(-1909.588 14661.412)" fill="#00c1b9"/>
      </g>
    </g>
    <g id="组_13839" data-name="组 13839" transform="translate(209 -50.998)">
      <g id="组_13802-3" data-name="组 13802" transform="translate(-17913.412 -37181.414)" opacity="0.25">
        <path id="路径_18862-5" data-name="路径 18862" d="M32,38a6,6,0,1,0,6-6A6,6,0,0,0,32,38Z" transform="translate(-1909.588 14661.412)" fill="#00c1b9"/>
      </g>
      <g id="组_13803-3" data-name="组 13803" transform="translate(-17910.412 -37178.414)">
        <path id="路径_18862-6" data-name="路径 18862" d="M32,35a3,3,0,1,0,3-3A3,3,0,0,0,32,35Z" transform="translate(-1909.588 14661.412)" fill="#00c1b9"/>
      </g>
    </g>
    <g id="组_13840" data-name="组 13840" transform="translate(314 43.002)">
      <g id="组_13802-4" data-name="组 13802" transform="translate(-17913.412 -37181.414)" opacity="0.25">
        <path id="路径_18862-7" data-name="路径 18862" d="M32,38a6,6,0,1,0,6-6A6,6,0,0,0,32,38Z" transform="translate(-1909.588 14661.412)" fill="#00c1b9"/>
      </g>
      <g id="组_13803-4" data-name="组 13803" transform="translate(-17910.412 -37178.414)">
        <path id="路径_18862-8" data-name="路径 18862" d="M32,35a3,3,0,1,0,3-3A3,3,0,0,0,32,35Z" transform="translate(-1909.588 14661.412)" fill="#00c1b9"/>
      </g>
    </g>
    <g id="组_13841" data-name="组 13841" transform="translate(419 -73.998)">
      <g id="组_13802-5" data-name="组 13802" transform="translate(-17913.412 -37181.414)" opacity="0.25">
        <path id="路径_18862-9" data-name="路径 18862" d="M32,38a6,6,0,1,0,6-6A6,6,0,0,0,32,38Z" transform="translate(-1909.588 14661.412)" fill="#00c1b9"/>
      </g>
      <g id="组_13803-5" data-name="组 13803" transform="translate(-17910.412 -37178.414)">
        <path id="路径_18862-10" data-name="路径 18862" d="M32,35a3,3,0,1,0,3-3A3,3,0,0,0,32,35Z" transform="translate(-1909.588 14661.412)" fill="#00c1b9"/>
      </g>
    </g>
    <g id="组_13842" data-name="组 13842" transform="translate(524 -29.998)">
      <g id="组_13802-6" data-name="组 13802" transform="translate(-17913.412 -37181.414)" opacity="0.25">
        <path id="路径_18862-11" data-name="路径 18862" d="M32,38a6,6,0,1,0,6-6A6,6,0,0,0,32,38Z" transform="translate(-1909.588 14661.412)" fill="#00c1b9"/>
      </g>
      <g id="组_13803-6" data-name="组 13803" transform="translate(-17910.412 -37178.414)">
        <path id="路径_18862-12" data-name="路径 18862" d="M32,35a3,3,0,1,0,3-3A3,3,0,0,0,32,35Z" transform="translate(-1909.588 14661.412)" fill="#00c1b9"/>
      </g>
    </g>
    <path id="Jan" d="M-26.6,0V-10.021h3.76a4.653,4.653,0,0,1,1.842.3,2.369,2.369,0,0,1,1.087.937,2.469,2.469,0,0,1,.393,1.323,2.272,2.272,0,0,1-.349,1.21,2.489,2.489,0,0,1-1.053.916,2.617,2.617,0,0,1,1.4.909,2.435,2.435,0,0,1,.489,1.518,2.927,2.927,0,0,1-.3,1.309,2.534,2.534,0,0,1-.735.933,3.067,3.067,0,0,1-1.1.5A6.673,6.673,0,0,1-22.777,0Zm1.326-5.811h2.167a4.835,4.835,0,0,0,1.265-.116,1.406,1.406,0,0,0,.762-.5,1.438,1.438,0,0,0,.256-.875,1.612,1.612,0,0,0-.239-.878,1.211,1.211,0,0,0-.684-.52,5.709,5.709,0,0,0-1.524-.14h-2Zm0,4.628h2.5a5.743,5.743,0,0,0,.9-.048,2.162,2.162,0,0,0,.766-.273,1.452,1.452,0,0,0,.506-.557,1.744,1.744,0,0,0,.2-.844,1.665,1.665,0,0,0-.287-.974,1.514,1.514,0,0,0-.8-.581,4.938,4.938,0,0,0-1.466-.167h-2.317Zm12.879-1.155,1.271.157A3.1,3.1,0,0,1-12.236-.451a3.35,3.35,0,0,1-2.078.615A3.321,3.321,0,0,1-16.84-.817a3.833,3.833,0,0,1-.933-2.751,4.011,4.011,0,0,1,.943-2.844,3.193,3.193,0,0,1,2.447-1.012A3.1,3.1,0,0,1-12-6.433a3.938,3.938,0,0,1,.923,2.789q0,.109-.007.328H-16.5a2.79,2.79,0,0,0,.677,1.832,2.014,2.014,0,0,0,1.518.636A1.883,1.883,0,0,0-13.152-1.2,2.36,2.36,0,0,0-12.394-2.338Zm-4.04-1.989h4.054A2.459,2.459,0,0,0-12.845-5.7a1.886,1.886,0,0,0-1.524-.711,1.955,1.955,0,0,0-1.425.567A2.246,2.246,0,0,0-16.434-4.327Zm6.364,2.16,1.217-.191a1.7,1.7,0,0,0,.571,1.121,1.989,1.989,0,0,0,1.309.39,1.923,1.923,0,0,0,1.258-.345A1.032,1.032,0,0,0-5.3-2a.747.747,0,0,0-.362-.656,5.337,5.337,0,0,0-1.258-.417A11.478,11.478,0,0,1-8.8-3.667a1.818,1.818,0,0,1-.793-.69,1.829,1.829,0,0,1-.27-.974,1.87,1.87,0,0,1,.222-.9,1.992,1.992,0,0,1,.6-.687,2.536,2.536,0,0,1,.783-.359,3.722,3.722,0,0,1,1.063-.147,4.2,4.2,0,0,1,1.5.246,2.041,2.041,0,0,1,.954.667,2.6,2.6,0,0,1,.424,1.125l-1.2.164A1.316,1.316,0,0,0-5.992-6.1,1.738,1.738,0,0,0-7.1-6.412a2.012,2.012,0,0,0-1.21.28.816.816,0,0,0-.362.656.679.679,0,0,0,.15.431,1.085,1.085,0,0,0,.472.328q.185.068,1.087.314a15.131,15.131,0,0,1,1.822.571,1.848,1.848,0,0,1,.81.646A1.8,1.8,0,0,1-4.04-2.133,2.066,2.066,0,0,1-4.4-.974a2.32,2.32,0,0,1-1.036.841,3.77,3.77,0,0,1-1.531.3A3.411,3.411,0,0,1-9.123-.424,2.734,2.734,0,0,1-10.069-2.167ZM.109-1.1.287-.014A4.564,4.564,0,0,1-.643.1,2.1,2.1,0,0,1-1.682-.116,1.187,1.187,0,0,1-2.2-.673a4.406,4.406,0,0,1-.15-1.453V-6.3h-.9V-7.26h.9v-1.8L-1.128-9.8V-7.26H.109V-6.3H-1.128v4.245a2.144,2.144,0,0,0,.065.677.512.512,0,0,0,.212.239.819.819,0,0,0,.42.089A4,4,0,0,0,.109-1.1ZM5.3,0V-10.021h3.76a4.653,4.653,0,0,1,1.842.3,2.369,2.369,0,0,1,1.087.937,2.469,2.469,0,0,1,.393,1.323,2.272,2.272,0,0,1-.349,1.21,2.489,2.489,0,0,1-1.053.916,2.617,2.617,0,0,1,1.4.909,2.435,2.435,0,0,1,.489,1.518,2.927,2.927,0,0,1-.3,1.309,2.534,2.534,0,0,1-.735.933,3.067,3.067,0,0,1-1.1.5A6.673,6.673,0,0,1,9.126,0ZM6.631-5.811H8.8a4.835,4.835,0,0,0,1.265-.116,1.406,1.406,0,0,0,.762-.5,1.438,1.438,0,0,0,.256-.875,1.612,1.612,0,0,0-.239-.878,1.211,1.211,0,0,0-.684-.52,5.709,5.709,0,0,0-1.524-.14h-2Zm0,4.628h2.5a5.743,5.743,0,0,0,.9-.048,2.162,2.162,0,0,0,.766-.273,1.452,1.452,0,0,0,.506-.557,1.744,1.744,0,0,0,.2-.844,1.665,1.665,0,0,0-.287-.974,1.514,1.514,0,0,0-.8-.581,4.938,4.938,0,0,0-1.466-.167H6.631ZM19.277-.9a4.582,4.582,0,0,1-1.316.82A3.8,3.8,0,0,1,16.6.164,2.639,2.639,0,0,1,14.766-.42a1.929,1.929,0,0,1-.643-1.494,1.986,1.986,0,0,1,.243-.974A2.009,2.009,0,0,1,15-3.6a2.989,2.989,0,0,1,.885-.4,8.792,8.792,0,0,1,1.094-.185,11.247,11.247,0,0,0,2.194-.424q.007-.253.007-.321a1.358,1.358,0,0,0-.349-1.06,2.059,2.059,0,0,0-1.4-.417,2.173,2.173,0,0,0-1.282.3,1.859,1.859,0,0,0-.612,1.077l-1.2-.164a2.981,2.981,0,0,1,.54-1.248,2.367,2.367,0,0,1,1.087-.731,4.848,4.848,0,0,1,1.647-.256,4.36,4.36,0,0,1,1.511.219,1.991,1.991,0,0,1,.854.55,1.935,1.935,0,0,1,.383.837,6.928,6.928,0,0,1,.062,1.135v1.641A17.414,17.414,0,0,0,20.5-.872,2.738,2.738,0,0,0,20.809,0H19.523A2.609,2.609,0,0,1,19.277-.9Zm-.1-2.748a9.028,9.028,0,0,1-2.01.465,4.649,4.649,0,0,0-1.073.246,1.07,1.07,0,0,0-.485.4,1.051,1.051,0,0,0-.171.584,1.048,1.048,0,0,0,.373.82A1.6,1.6,0,0,0,16.9-.8a2.538,2.538,0,0,0,1.265-.311,1.915,1.915,0,0,0,.813-.851,2.972,2.972,0,0,0,.2-1.23ZM22.3,0V-10.021h1.23V0Zm3.11,0V-10.021h1.23V0Z" transform="translate(-19603 -22611)" fill="#727272"/>
    <path id="Jan-2" data-name="Jan" d="M-13.361-10.021h4.006a11.572,11.572,0,0,1,1.774.1,2.606,2.606,0,0,1,1.046.414,2.572,2.572,0,0,1,.769.837A2.269,2.269,0,0,1-5.458-7.5a2.335,2.335,0,0,1-.379,1.292,2.351,2.351,0,0,1-1.029.882,2.637,2.637,0,0,1,1.408.909,2.413,2.413,0,0,1,.492,1.511,2.979,2.979,0,0,1-.318,1.33A2.678,2.678,0,0,1-6.152-.543a2.867,2.867,0,0,1-1.357.475Q-8.015-.014-9.95,0h-3.411Zm2.023,1.668v2.317h1.326q1.183,0,1.47-.034a1.338,1.338,0,0,0,.817-.359,1.058,1.058,0,0,0,.3-.783,1.1,1.1,0,0,0-.256-.755,1.16,1.16,0,0,0-.762-.352q-.3-.034-1.729-.034Zm0,3.985v2.68h1.873A9.154,9.154,0,0,0-8.077-1.75a1.254,1.254,0,0,0,.735-.4A1.231,1.231,0,0,0-7.058-3a1.307,1.307,0,0,0-.219-.766,1.236,1.236,0,0,0-.632-.458A6.874,6.874,0,0,0-9.7-4.368Zm7.622.636a3.927,3.927,0,0,1,.472-1.853A3.238,3.238,0,0,1-1.907-6.952,3.966,3.966,0,0,1,.024-7.424a3.625,3.625,0,0,1,2.7,1.07,3.7,3.7,0,0,1,1.053,2.7A3.74,3.74,0,0,1,2.714-.919,3.593,3.593,0,0,1,.038.164a4.216,4.216,0,0,1-1.9-.451A3.1,3.1,0,0,1-3.244-1.61,4.407,4.407,0,0,1-3.715-3.732Zm1.969.1a2.4,2.4,0,0,0,.513,1.654A1.629,1.629,0,0,0,.031-1.4a1.619,1.619,0,0,0,1.261-.574A2.438,2.438,0,0,0,1.8-3.644a2.394,2.394,0,0,0-.509-1.641A1.619,1.619,0,0,0,.031-5.858a1.629,1.629,0,0,0-1.265.574A2.4,2.4,0,0,0-1.747-3.63ZM5.3-10.021H9.307a11.572,11.572,0,0,1,1.774.1,2.606,2.606,0,0,1,1.046.414,2.572,2.572,0,0,1,.769.837A2.269,2.269,0,0,1,13.2-7.5a2.335,2.335,0,0,1-.379,1.292,2.351,2.351,0,0,1-1.029.882,2.637,2.637,0,0,1,1.408.909A2.413,2.413,0,0,1,13.7-2.905a2.979,2.979,0,0,1-.318,1.33A2.678,2.678,0,0,1,12.51-.543a2.867,2.867,0,0,1-1.357.475q-.506.055-2.44.068H5.3ZM7.325-8.354v2.317H8.651q1.183,0,1.47-.034a1.338,1.338,0,0,0,.817-.359,1.058,1.058,0,0,0,.3-.783,1.1,1.1,0,0,0-.256-.755,1.16,1.16,0,0,0-.762-.352q-.3-.034-1.729-.034Zm0,3.985v2.68H9.2a9.154,9.154,0,0,0,1.388-.062,1.254,1.254,0,0,0,.735-.4A1.231,1.231,0,0,0,11.6-3a1.307,1.307,0,0,0-.219-.766,1.236,1.236,0,0,0-.632-.458,6.874,6.874,0,0,0-1.794-.144Z" transform="translate(-19192 -22657)" fill="#727272"/>
    <g id="组_13836" data-name="组 13836" transform="translate(7 45)">
      <path id="路径_19531" data-name="路径 19531" d="M32,37.794A5.794,5.794,0,1,0,37.794,32,5.794,5.794,0,0,0,32,37.794Z" transform="translate(-19686.588 -22698.588)" fill="#ffb04d"/>
      <path id="路径_19532" data-name="路径 19532" d="M6.593,0h0ZM0,6.593Zm6.923.433c1.643-1.648,1.3-3.564,1.3-4.759A3.142,3.142,0,0,0,8,1.2,3.319,3.319,0,0,0,6.573.824,5.782,5.782,0,0,0,.824,6.593a4.812,4.812,0,0,0,.619,2.22,2.239,2.239,0,0,0,.371.021A7.771,7.771,0,0,0,6.923,7.026ZM7.211.021h.041C7.232.041,7.232.041,7.211.021ZM.082,7.665c0,.021.021.062.021.082A.156.156,0,0,0,.082,7.665ZM.021,7.026a.57.57,0,0,0,.021.185.57.57,0,0,1-.021-.185Zm.021.33c0,.041.021.1.021.144C.062,7.438.041,7.4.041,7.356Z" transform="translate(-19655 -22667)" fill="#ffe1ba"/>
    </g>
    <path id="filter" d="M3.636-7.344V-2.76H6.672V.012c0,.24-.144.36-.408.36-.348,0-.708-.024-1.092-.06l.18.852H6.564A.852.852,0,0,0,7.536.216V-2.76H10.32V-7.344H6.984A8.448,8.448,0,0,0,7.272-8.46H11.2v-.852H1.428V-4.62A12.692,12.692,0,0,1,.492.6l.648.576A13.574,13.574,0,0,0,2.3-4.62V-8.46h4.1a6.871,6.871,0,0,1-.264,1.116ZM9.48-3.54h-5V-4.692h5Zm-5-1.9V-6.552h5v1.116ZM4.5-2.2A10.029,10.029,0,0,1,2.616.312l.72.5a11.4,11.4,0,0,0,1.92-2.652Zm4.872-.012-.7.432A19.849,19.849,0,0,1,10.56.864l.72-.492A21.411,21.411,0,0,0,9.372-2.208ZM20.688-6.6A11.917,11.917,0,0,1,16.68-1.1l.456.78A13.1,13.1,0,0,0,21.072-5.9v5.64c0,.348-.168.528-.48.528C20.208.264,19.8.24,19.38.216l.192.84H20.88a.96.96,0,0,0,1.056-1.1V-6.6h1.38v-.828h-1.38V-9.8h-.864v2.376H17.628V-6.6ZM12.7-7.452v.828h1.9a10.707,10.707,0,0,1-2.136,4.032l.384.972a13.658,13.658,0,0,0,1.788-3.516V1.152h.864V-5.016q.576.684,1.368,1.8l.5-.744a26.975,26.975,0,0,0-1.872-1.956v-.708h1.6v-.828h-1.6v-2.34h-.864v2.34Zm12.78-1.356-.72.228a19.307,19.307,0,0,1,.708,2.448l.672-.192A21.566,21.566,0,0,0,25.476-8.808Zm3.264-.156a9.389,9.389,0,0,1-.492,2.508l.66.216a9.009,9.009,0,0,0,.564-2.628ZM24.648-5.592v.84h2.1A9.727,9.727,0,0,1,24.48-1.584l.348.888A11.771,11.771,0,0,0,26.8-3.672V1.164h.876V-3.684c.36.456.792,1.068,1.3,1.824l.516-.756c-.612-.672-1.212-1.284-1.812-1.824v-.312H29.46v-.84H27.672V-9.756H26.8v4.164Zm8.6-4.152v6.936l-3.588.54.12.864,3.468-.528v3.1H34.1V-2.064l1.464-.216-.144-.864-1.32.2v-6.8Zm-2.424.852-.576.552a12.574,12.574,0,0,1,1.98,1.8l.588-.588A15.8,15.8,0,0,0,30.828-8.892ZM30.54-6.084l-.576.552A13.345,13.345,0,0,1,31.908-3.66l.588-.6A15.381,15.381,0,0,0,30.54-6.084ZM36,.146l2.49-8.883h.844L36.85.146ZM47.338-7.14H49.15a11.107,11.107,0,0,1-.936,4.38,16.129,16.129,0,0,1-1.188-3.432C47.134-6.492,47.242-6.8,47.338-7.14Zm.444,5.208A7.243,7.243,0,0,1,45.37.48l.468.732a8.5,8.5,0,0,0,2.4-2.364,7.628,7.628,0,0,0,2.244,2.34l.492-.72a7.159,7.159,0,0,1-2.28-2.388A11.632,11.632,0,0,0,49.93-7.14H50.7v-.828H47.542q.18-.81.324-1.728l-.84-.144a13.273,13.273,0,0,1-1.68,5.352l.516.648a10.394,10.394,0,0,0,.7-1.212A16.576,16.576,0,0,0,47.782-1.932Zm-7.6-6.684v.768h1.152V-6.6H40.006v.792h5.88V-6.6H44.578V-7.848h1.14v-.768h-1.14V-9.84h-.792v1.224H42.13V-9.828h-.792v1.212ZM42.13-6.6V-7.848h1.656V-6.6Zm-.468,4.044h2.6v.948h-2.6Zm2.6-.732h-2.6v-.984h2.6Zm-2.6,2.4h2.6v.84c0,.3-.144.456-.432.456L42.8.372l.216.78h1.068A.9.9,0,0,0,45.094.132V-5.04h-4.26V1.188h.828ZM54.478-9.876a13.361,13.361,0,0,1-2.76,4.98l.276.924a15.023,15.023,0,0,0,1.26-1.512v6.7h.852V-6.8a15.108,15.108,0,0,0,1.188-2.7Zm2.016.792a10.306,10.306,0,0,1-1.488,4.056l.552.72a9.365,9.365,0,0,0,1.116-2.124h2.04V-3.54H55.186v.828h3.528V1.152h.864V-2.712h3.2V-3.54h-3.2V-6.432h2.76v-.84h-2.76v-2.5h-.864v2.5H56.95a11.813,11.813,0,0,0,.4-1.7Z" transform="translate(-19542 -22698)" fill="#0d2451"/>
    <g id="组_6819" data-name="组 6819" transform="translate(-19557 -22708)">
      <circle id="椭圆_402" data-name="椭圆 402" cx="5" cy="5" r="5" transform="translate(0)" fill="#0040be"/>
    </g>
    <path id="filter-2" data-name="filter" d="M1.872-7.476h1.68v1.548H.648v.8h2.9v1.26H1.188V.456h.84V-3.06H3.552V1.212h.864V-3.06H5.928V-.876c0,.312-.18.468-.516.468L4.824-.444,5.04.372h.636A.951.951,0,0,0,6.756-.7V-3.864H4.416v-1.26H7.008v-.8H4.416V-7.476H6.66v-.8H4.416V-9.768H3.552V-8.28H2.16a8.129,8.129,0,0,0,.228-1.056l-.816-.132A4.872,4.872,0,0,1,.42-6.792l.7.5A4.394,4.394,0,0,0,1.872-7.476ZM7.716-8.688v7.416h.84V-8.688Zm2.2,9.78a.991.991,0,0,0,1.1-1.128V-9.768h-.852V-.252a.5.5,0,0,1-.552.576C9.084.324,8.532.3,7.956.264l.192.828Zm3.612-10.8-.588.552a13.981,13.981,0,0,1,2.028,2.028l.6-.6A14.65,14.65,0,0,0,13.524-9.708ZM20.484.984h2.8L23.5.12c-.324.024-.78.036-1.368.048S20.94.192,20.364.192c-.936,0-1.728-.012-2.352-.024A4.472,4.472,0,0,1,16.38-.12a2.714,2.714,0,0,1-.936-.756,2.041,2.041,0,0,0-.288-.276V-5.64H12.648v.792h1.7V-1.2A4.746,4.746,0,0,0,12.636.66l.648.588c.672-1.128,1.152-1.68,1.452-1.68a.66.66,0,0,1,.468.3,2.745,2.745,0,0,0,1.26.876A7.823,7.823,0,0,0,18.348.96C19.116.972,19.836.984,20.484.984Zm-2.9-8.532h1.848v1.56H16V-5.2H23.34v-.792H20.256v-1.56h2.46v-.8h-2.46v-1.44h-.828v1.44H17.9c.12-.324.228-.66.324-1.02l-.78-.168a8.649,8.649,0,0,1-1.272,2.76l.72.444A9.067,9.067,0,0,0,17.58-7.548Zm-.552,3.312V-.864H22.4V-4.236Zm4.536,2.568h-3.7V-3.432h3.7Zm4.98-5.376H28.26a3.116,3.116,0,0,1-.132.756H26.352Zm2.556,0h1.752v.756h-1.86A7.162,7.162,0,0,0,29.1-7.044Zm2.592,0h2.652V-9.2H31.692v-.624h-.84V-9.2H29.1v-.624h-.84V-9.2H25.524V-8.5H28.26v.768H25.836l-.42,2.1H27.78c-.072.1-.156.192-.24.288A5.556,5.556,0,0,1,25.008-4.3l.432.684c.312-.072.624-.156.924-.252V-.672h.852v-2.5H33.1v2.5h.852V-3.936H26.58a4.418,4.418,0,0,0,1.608-.9,3.492,3.492,0,0,0,.564-.792h2.1V-4.26h.84V-5.628H34.1a1.333,1.333,0,0,1-.12.624c-.1.12-.324.18-.7.18-.192,0-.4-.012-.612-.024l.168.612c.168,0,.36.012.552.012.648,0,1.068-.132,1.248-.4a3.147,3.147,0,0,0,.276-1.668H31.692ZM29.1-8.5h1.752v.768H29.1Zm2.592,0h1.836v.768H31.692ZM30.8-.84l-.432.648A23.318,23.318,0,0,1,34.584,1.26l.468-.72A26.329,26.329,0,0,0,30.8-.84ZM29.688-2.748a3.366,3.366,0,0,1-.948,2.34c-.612.48-1.872.756-3.78.852l.348.768c2.16-.156,3.54-.528,4.164-1.116a4.179,4.179,0,0,0,1.08-2.76Z" transform="translate(-19444 -22698)" fill="#0d2451"/>
    <g id="组_6819-2" data-name="组 6819" transform="translate(-19459.359 -22708)">
      <circle id="椭圆_402-2" data-name="椭圆 402" cx="5" cy="5" r="5" transform="translate(0.36)" fill="#1763f7"/>
    </g>
    <g id="组_6819-3" data-name="组 6819" transform="translate(-19387.598 -22708)">
      <circle id="椭圆_402-3" data-name="椭圆 402" cx="5" cy="5" r="5" transform="translate(-0.401)" fill="#5993ff"/>
    </g>
    <path id="filter-3" data-name="filter" d="M4.644-4.98c-.456.24-.912.456-1.38.66V-6.768H4.608V-7.6H3.264V-9.768H2.412V-7.6H.672v.828h1.74v2.784a19.725,19.725,0,0,1-1.92.564l.216.852c.576-.18,1.152-.372,1.7-.576V-.12A.451.451,0,0,1,1.92.4,9.852,9.852,0,0,1,.912.336l.192.828H2.22A.939.939,0,0,0,3.264.084V-3.492c.468-.192.924-.408,1.38-.636Zm1.476.756h.7A6.608,6.608,0,0,0,8.34-1.02,6.319,6.319,0,0,1,6.4.456l.42.756A6.8,6.8,0,0,0,8.916-.4a11.874,11.874,0,0,0,2.028,1.572l.576-.66A10.273,10.273,0,0,1,9.4-1.008,8.386,8.386,0,0,0,10.68-4.272v-.744H6.12v-3.5H9.744a5.923,5.923,0,0,1-.156,1.464.6.6,0,0,1-.324.276,4.143,4.143,0,0,1-.66.048c-.288,0-.516-.012-.708-.012l.24.756H9c.768,0,1.224-.228,1.368-.66a11.254,11.254,0,0,0,.2-2.664H5.3V1.2H6.12Zm1.476,0H9.852a7.665,7.665,0,0,1-1.044,2.58A5.5,5.5,0,0,1,7.6-4.224Zm7.644-.264h2.352A10.287,10.287,0,0,1,14.34.36l.408.732a9.93,9.93,0,0,0,2.784-3.36A5.7,5.7,0,0,0,19.08-.6,15.9,15.9,0,0,1,16.488.492l.4.7A15.15,15.15,0,0,0,19.8-.132a16.283,16.283,0,0,0,3.048,1.368l.384-.7A16.2,16.2,0,0,1,20.46-.576a4.7,4.7,0,0,0,1.716-2.136v-.7H18.048a11.294,11.294,0,0,0,.4-1.08h4.692v-.768H18.672c.168-.648.324-1.332.444-2.064l-.828-.108a19.842,19.842,0,0,1-.456,2.172h-1.56L16.848-7l-.8-.12Zm2.832,1.812h3.252A4.583,4.583,0,0,1,19.74-1.008,5.01,5.01,0,0,1,18.072-2.676ZM20.724-7.44l-.54.528A10.213,10.213,0,0,1,21.636-5.64l.576-.576A10.811,10.811,0,0,0,20.724-7.44ZM18.5-9.876l-.912.144a8.593,8.593,0,0,1,.528,1H13.584v3.6A13,13,0,0,1,12.492.552l.672.6a14.5,14.5,0,0,0,1.272-6.288V-7.9h8.856v-.84H19.02A11.442,11.442,0,0,0,18.5-9.876Zm14.424.036-.552.528a8.985,8.985,0,0,1,1.452,1.344H31.584c-.024-.576-.036-1.188-.036-1.86H30.66c0,.648.012,1.26.036,1.86H25.74v4A8.2,8.2,0,0,1,24.54.612l.66.588a9.391,9.391,0,0,0,1.416-5.172v-.36h2.076A22.184,22.184,0,0,1,28.56-1.74c-.072.336-.24.516-.5.528q-.486,0-1.188-.036l.264.78c.384.024.732.048,1.02.048a1.094,1.094,0,0,0,1.128-.8,20.574,20.574,0,0,0,.276-3.924h-2.94V-7.14h4.116a20.437,20.437,0,0,0,.528,3.768,13.566,13.566,0,0,0,.456,1.44A8.068,8.068,0,0,1,28.668.444l.48.72A8.272,8.272,0,0,0,32.1-1.056a6.082,6.082,0,0,0,.6,1,2.3,2.3,0,0,0,1.62,1.08c.54,0,.948-.8,1.236-2.4l-.78-.432c-.18,1.236-.384,1.86-.6,1.872-.24,0-.564-.288-.96-.864a5.892,5.892,0,0,1-.54-1,13.8,13.8,0,0,0,1.872-4.008l-.78-.336a13.35,13.35,0,0,1-1.452,3.372c-.084-.264-.168-.54-.24-.84A19.72,19.72,0,0,1,31.62-7.14h3.7v-.828H33.852L34.4-8.52A10.809,10.809,0,0,0,32.928-9.84ZM36.864-7.6v.828h3.924A11.479,11.479,0,0,1,36.444-1.56l.492.8a12.75,12.75,0,0,0,4.536-6.012h.084v4.68H39.084v.828h2.472V1.2h.888V-1.26h2.568v-.828H42.444v-4.68h.1A13.925,13.925,0,0,0,46.932-.912l.588-.744a12.34,12.34,0,0,1-4.308-5.112h3.912V-7.6h-4.68V-9.768h-.888V-7.6Z" transform="translate(-19373 -22698)" fill="#0d2451"/>
    <path id="filter-4" data-name="filter" d="M9.432-5.064H2.58V1.188h.864V.7H9.132v.5h.852V-1.884H3.444v-.828H9.432ZM3.444-.072V-1.188H9.132V-.072Zm0-3.336v-.96H8.592v.96Zm7.644-3.108H6.528a9.5,9.5,0,0,0-.384-.912l.648.4a9.384,9.384,0,0,0,.732-1.152H8.28A7.994,7.994,0,0,1,9.036-6.96L9.8-7.248a6.321,6.321,0,0,0-.6-.936H11.34V-8.94H7.872c.1-.24.18-.48.264-.732l-.828-.18A7.006,7.006,0,0,1,6.06-7.488l.072.048-.84.144a7.9,7.9,0,0,1,.372.78H.912v2.172h.84V-5.772h8.5v1.428h.84ZM2.352-8.184h.684a9.4,9.4,0,0,1,.78,1.332l.792-.3a8.127,8.127,0,0,0-.66-1.032H5.964V-8.94H2.748c.1-.24.2-.48.3-.744l-.828-.18a7.108,7.108,0,0,1-1.584,2.5l.756.48A8.628,8.628,0,0,0,2.352-8.184Zm14.64-1.14V-3.78H19.5v1.416H16.788v.816H19.5V.012H16.284V.84h7.224V.012H20.364v-1.56h2.7v-.816h-2.7V-3.78h2.5V-9.324Zm5.04,4.776H20.364v-1.62h1.668Zm-2.532,0H17.82v-1.62H19.5ZM17.82-6.924V-8.556H19.5v1.632Zm2.544-1.632h1.668v1.632H20.364Zm-7.608,3.2v.828h1.308v3.012c-.516.144-1.044.264-1.572.36l.216.828a24.806,24.806,0,0,0,3.564-1.152v-.84c-.432.192-.864.36-1.32.516V-4.524h1.32v-.828h-1.32V-8.2h1.464v-.816H12.588V-8.2h1.476v2.844ZM26.544-7.044H28.26a3.116,3.116,0,0,1-.132.756H26.352Zm2.556,0h1.752v.756h-1.86A7.162,7.162,0,0,0,29.1-7.044Zm2.592,0h2.652V-9.2H31.692v-.624h-.84V-9.2H29.1v-.624h-.84V-9.2H25.524V-8.5H28.26v.768H25.836l-.42,2.1H27.78c-.072.1-.156.192-.24.288A5.556,5.556,0,0,1,25.008-4.3l.432.684c.312-.072.624-.156.924-.252V-.672h.852v-2.5H33.1v2.5h.852V-3.936H26.58a4.418,4.418,0,0,0,1.608-.9,3.492,3.492,0,0,0,.564-.792h2.1V-4.26h.84V-5.628H34.1a1.333,1.333,0,0,1-.12.624c-.1.12-.324.18-.7.18-.192,0-.4-.012-.612-.024l.168.612c.168,0,.36.012.552.012.648,0,1.068-.132,1.248-.4a3.147,3.147,0,0,0,.276-1.668H31.692ZM29.1-8.5h1.752v.768H29.1Zm2.592,0h1.836v.768H31.692ZM30.8-.84l-.432.648A23.318,23.318,0,0,1,34.584,1.26l.468-.72A26.329,26.329,0,0,0,30.8-.84ZM29.688-2.748a3.366,3.366,0,0,1-.948,2.34c-.612.48-1.872.756-3.78.852l.348.768c2.16-.156,3.54-.528,4.164-1.116a4.179,4.179,0,0,0,1.08-2.76Z" transform="translate(-19290 -22698)" fill="#0d2451"/>
    <g id="组_6819-4" data-name="组 6819" transform="translate(-19304.846 -22708)">
      <circle id="椭圆_402-4" data-name="椭圆 402" cx="5" cy="5" r="5" transform="translate(-0.154)" fill="#72aeff"/>
    </g>
    <path id="filter-5" data-name="filter" d="M.84-8.748v.816H2.868v5.5H.624v.8H11.388v-.8H9.132v-5.5H11.16v-.816H9.132v-1.1H8.256v1.1H3.744v-1.1H2.868v1.1Zm2.9,6.312V-3.8H8.256v1.368Zm0-2.112V-5.88H8.256v1.332Zm0-2.076V-7.932H8.256v1.308Zm.624,5.28A15.417,15.417,0,0,1,.8.468l.54.7A15.191,15.191,0,0,0,4.98-.792Zm3.168.036L7.1-.66a17.4,17.4,0,0,1,3.624,1.824l.48-.732A19.212,19.212,0,0,0,7.536-1.308ZM15.06-9.876a13.82,13.82,0,0,1-2.676,5l.276.9a16.119,16.119,0,0,0,1.272-1.6V1.224h.852V-6.96A16.1,16.1,0,0,0,15.84-9.516ZM21.8.972a1.46,1.46,0,0,0,1.176-.4,5.367,5.367,0,0,0,.42-2.292l-.816-.276A5.562,5.562,0,0,1,22.332-.12a.832.832,0,0,1-.672.264H17.892c-.408,0-.6-.192-.6-.564v-5l1.788-.564v4.536h.864V-6.264l1.764-.552C21.7-5.1,21.672-4.1,21.624-3.84q-.09.432-.468.432c-.192,0-.4-.012-.624-.024l.252.84h.192c.84,0,1.308-.276,1.428-.8A35.205,35.205,0,0,0,22.572-8l-2.628.84V-9.816H19.08v2.928l-1.788.576V-8.7h-.864v2.664l-1.14.372v.876l1.14-.36V-.3A1.114,1.114,0,0,0,17.676.972Zm4.74-8.016H28.26a3.116,3.116,0,0,1-.132.756H26.352Zm2.556,0h1.752v.756h-1.86A7.162,7.162,0,0,0,29.1-7.044Zm2.592,0h2.652V-9.2H31.692v-.624h-.84V-9.2H29.1v-.624h-.84V-9.2H25.524V-8.5H28.26v.768H25.836l-.42,2.1H27.78c-.072.1-.156.192-.24.288A5.556,5.556,0,0,1,25.008-4.3l.432.684c.312-.072.624-.156.924-.252V-.672h.852v-2.5H33.1v2.5h.852V-3.936H26.58a4.418,4.418,0,0,0,1.608-.9,3.492,3.492,0,0,0,.564-.792h2.1V-4.26h.84V-5.628H34.1a1.333,1.333,0,0,1-.12.624c-.1.12-.324.18-.7.18-.192,0-.4-.012-.612-.024l.168.612c.168,0,.36.012.552.012.648,0,1.068-.132,1.248-.4a3.147,3.147,0,0,0,.276-1.668H31.692ZM29.1-8.5h1.752v.768H29.1Zm2.592,0h1.836v.768H31.692ZM30.8-.84l-.432.648A23.318,23.318,0,0,1,34.584,1.26l.468-.72A26.329,26.329,0,0,0,30.8-.84ZM29.688-2.748a3.366,3.366,0,0,1-.948,2.34c-.612.48-1.872.756-3.78.852l.348.768c2.16-.156,3.54-.528,4.164-1.116a4.179,4.179,0,0,0,1.08-2.76Zm8.868-2.868H41.6v2.1H38.556Zm-.048,2.892h3.1V.792h.888V-2.724h3.264V-.636c0,.5-.228.756-.66.756-.408,0-.852-.024-1.332-.048l.228.852h1.38a1.114,1.114,0,0,0,1.26-1.26V-9.324h-8.94v5.76A6.977,6.977,0,0,1,36.5.5l.66.588A7.164,7.164,0,0,0,38.508-2.724Zm7.248-.792H42.492v-2.1h3.264Zm0-2.9H42.492V-8.484h3.264ZM41.6-8.484V-6.42H38.556V-8.484Z" transform="translate(-19219 -22698)" fill="#0d2451"/>
    <g id="组_6819-5" data-name="组 6819" transform="translate(-19233.846 -22708)">
      <circle id="椭圆_402-5" data-name="椭圆 402" cx="5" cy="5" r="5" transform="translate(-0.154)" fill="#9bbeff"/>
    </g>
    <path id="filter-6" data-name="filter" d="M.7-6.564v.828H3.084v.024a9.329,9.329,0,0,1-2.652,3.7l.384,1A12.17,12.17,0,0,0,3.084-4.188V1.2H3.96V-4.3A26.229,26.229,0,0,1,5.748-2.208l.516-.768C5.472-3.8,4.7-4.536,3.96-5.184v-.552H6.18v-.828H3.96V-8.376a15.062,15.062,0,0,0,2.088-.648l-.42-.732a16.774,16.774,0,0,1-4.9,1.02l.264.8A19.848,19.848,0,0,0,3.084-8.2v1.632Zm6.48-2.112V-1.26H8.04V-8.676Zm2.58,9.768c.744,0,1.116-.4,1.116-1.164v-9.7H10v9.48C10,.1,9.816.3,9.468.3,8.94.3,8.388.276,7.812.252l.18.84ZM17.472-6.84v.768h1.572v1.68H17.688v.756h1.356v1.92H17.376v.768h4.14v-.768H19.86v-1.92h1.32v-.756H19.86v-1.68h1.5V-6.84ZM15.9-7.788V1.128h.852V-7.788ZM21.852,1.14c.768,0,1.164-.372,1.164-1.1V-9.312h-3.9v.84h3.048V-.216c0,.4-.168.6-.48.6L20.52.36l.2.78ZM16.764-9.84,16.2-9.3a10.952,10.952,0,0,1,1.812,1.644l.564-.564A12.952,12.952,0,0,0,16.764-9.84Zm-3.192.2-.612.6a11.259,11.259,0,0,1,1.848,1.548l.624-.612A12.555,12.555,0,0,0,13.572-9.636ZM13.3-6.756l-.612.588A12.331,12.331,0,0,1,14.556-4.4l.624-.624A13.423,13.423,0,0,0,13.3-6.756Zm1.212,3.192A39.613,39.613,0,0,1,12.888.684l.792.348c.576-1.344,1.1-2.784,1.584-4.308Z" transform="translate(-19136 -22698)" fill="#0d2451"/>
    <g id="组_6819-6" data-name="组 6819" transform="translate(-19151 -22707)">
      <circle id="椭圆_402-6" data-name="椭圆 402" cx="5" cy="5" r="5" transform="translate(0)" fill="#c6deff"/>
    </g>
  </g>
</svg>
