<?xml version="1.0" standalone="no"?><!DOCTYPE svg PUBLIC "-//W3C//DTD SVG 1.1//EN" "http://www.w3.org/Graphics/SVG/1.1/DTD/svg11.dtd"><svg t="1623231468486" class="icon" viewBox="0 0 1024 1024" version="1.1" xmlns="http://www.w3.org/2000/svg" p-id="13725" xmlns:xlink="http://www.w3.org/1999/xlink" width="200" height="200"><defs><style type="text/css"></style></defs><path d="M390 185.9c-10.2 0-18.5 8.3-18.5 18.5V305c0 10.2 8.3 18.5 18.5 18.5s18.5-8.3 18.5-18.5V204.4c-0.1-10.2-8.3-18.5-18.5-18.5z" fill="#cbcbcb" p-id="13726"></path><path d="M390 329c-13.2 0-24-10.8-24-24V204.4c0-13.2 10.8-24 24-24s24 10.8 24 24V305c-0.1 13.2-10.8 24-24 24z m0-137.6c-7.2 0-13 5.8-13 13V305c0 7.2 5.8 13 13 13s13-5.8 13-13V204.4c-0.1-7.2-5.9-13-13-13zM636 185.9c-10.2 0-18.5 8.3-18.5 18.5V305c0 10.2 8.3 18.5 18.5 18.5s18.5-8.3 18.5-18.5V204.4c0-10.2-8.3-18.5-18.5-18.5z" fill="#cbcbcb" p-id="13727"></path><path d="M636 329c-13.2 0-24-10.8-24-24V204.4c0-13.2 10.8-24 24-24s24 10.8 24 24V305c0 13.2-10.7 24-24 24z m0-137.6c-7.2 0-13 5.8-13 13V305c0 7.2 5.8 13 13 13s13-5.8 13-13V204.4c0-7.2-5.8-13-13-13z" fill="#cbcbcb" p-id="13728"></path><path d="M841.5 232.6h-657c-25.7 0-46.5 20.9-46.5 46.5v527.3c0 25.7 20.9 46.6 46.5 46.6h657c25.7 0 46.5-20.9 46.5-46.6V279.1c0-25.7-20.9-46.5-46.5-46.5z m-1.4 200.2V805H185.9V432.8h654.2z m-654.2-47.9V280.5H840v104.3H185.9z" fill="#cbcbcb" p-id="13729"></path><path d="M511.9 486.9c-13.4 0-24.3 10.9-24.3 24.3V733c0 13.4 10.9 24.3 24.3 24.3s24.3-10.9 24.3-24.3V511.2c0-13.4-10.9-24.3-24.3-24.3z" fill="#cbcbcb" p-id="13730"></path></svg>