<svg width="34" height="23" viewBox="0 0 34 23" fill="none" xmlns="http://www.w3.org/2000/svg">
<rect x="1" y="1" width="32" height="21" rx="1" stroke="white" stroke-width="2"/>
<path d="M16.0795 10H15.0227C14.9602 9.69602 14.8509 9.42898 14.6946 9.19886C14.5412 8.96875 14.3537 8.77557 14.1321 8.61932C13.9134 8.46023 13.6705 8.34091 13.4034 8.26136C13.1364 8.18182 12.858 8.14205 12.5682 8.14205C12.0398 8.14205 11.5611 8.27557 11.1321 8.54261C10.706 8.80966 10.3665 9.20312 10.1136 9.72301C9.86364 10.2429 9.73864 10.8807 9.73864 11.6364C9.73864 12.392 9.86364 13.0298 10.1136 13.5497C10.3665 14.0696 10.706 14.4631 11.1321 14.7301C11.5611 14.9972 12.0398 15.1307 12.5682 15.1307C12.858 15.1307 13.1364 15.0909 13.4034 15.0114C13.6705 14.9318 13.9134 14.8139 14.1321 14.6577C14.3537 14.4986 14.5412 14.304 14.6946 14.0739C14.8509 13.8409 14.9602 13.5739 15.0227 13.2727H16.0795C16 13.7187 15.8551 14.1179 15.6449 14.4702C15.4347 14.8224 15.1733 15.1222 14.8608 15.3693C14.5483 15.6136 14.1974 15.7997 13.8082 15.9276C13.4219 16.0554 13.0085 16.1193 12.5682 16.1193C11.8239 16.1193 11.1619 15.9375 10.5824 15.5739C10.0028 15.2102 9.54688 14.6932 9.21449 14.0227C8.8821 13.3523 8.71591 12.5568 8.71591 11.6364C8.71591 10.7159 8.8821 9.92045 9.21449 9.25C9.54688 8.57955 10.0028 8.0625 10.5824 7.69886C11.1619 7.33523 11.8239 7.15341 12.5682 7.15341C13.0085 7.15341 13.4219 7.21733 13.8082 7.34517C14.1974 7.47301 14.5483 7.66051 14.8608 7.90767C15.1733 8.15199 15.4347 8.45028 15.6449 8.80256C15.8551 9.15199 16 9.55114 16.0795 10ZM24.7077 7.27273V16H23.685L18.9293 9.14773H18.8441V16H17.7873V7.27273H18.81L23.5827 14.142H23.668V7.27273H24.7077Z" fill="white"/>
</svg>
