<svg width="18" height="18" viewBox="0 0 18 18" fill="none" xmlns="http://www.w3.org/2000/svg">
<g id="home" clip-path="url(#clip0_1_30)">
<path id="Vector" d="M8.76154 5.63312L2.99998 10.3784V15.5C2.99998 15.6326 3.05266 15.7598 3.14643 15.8535C3.24019 15.9473 3.36737 16 3.49998 16L7.00185 15.9909C7.13403 15.9903 7.26056 15.9373 7.35379 15.8436C7.44702 15.7499 7.49936 15.6231 7.49935 15.4909V12.5C7.49935 12.3674 7.55203 12.2402 7.6458 12.1464C7.73957 12.0527 7.86675 12 7.99935 12H9.99935C10.132 12 10.2591 12.0527 10.3529 12.1464C10.4467 12.2402 10.4994 12.3674 10.4994 12.5V15.4887C10.4991 15.5545 10.5119 15.6197 10.537 15.6806C10.562 15.7414 10.5988 15.7967 10.6452 15.8433C10.6917 15.8899 10.7469 15.9269 10.8077 15.9521C10.8684 15.9773 10.9336 15.9903 10.9994 15.9903L14.5 16C14.6326 16 14.7598 15.9473 14.8535 15.8535C14.9473 15.7598 15 15.6326 15 15.5V10.375L9.23967 5.63312C9.17195 5.57853 9.08758 5.54877 9.0006 5.54877C8.91362 5.54877 8.82926 5.57853 8.76154 5.63312ZM17.8625 8.85843L15.25 6.70499V2.37656C15.25 2.2771 15.2105 2.18172 15.1401 2.11139C15.0698 2.04107 14.9744 2.00156 14.875 2.00156H13.125C13.0255 2.00156 12.9301 2.04107 12.8598 2.11139C12.7895 2.18172 12.75 2.2771 12.75 2.37656V4.64562L9.95217 2.34374C9.68367 2.1228 9.34676 2.002 8.99904 2.002C8.65133 2.002 8.31441 2.1228 8.04592 2.34374L0.135605 8.85843C0.0976324 8.88982 0.0662161 8.92838 0.0431511 8.97191C0.0200861 9.01544 0.00582446 9.06309 0.00118114 9.11213C-0.00346217 9.16118 0.0016038 9.21066 0.0160896 9.25774C0.0305754 9.30483 0.0541971 9.3486 0.0856051 9.38656L0.88248 10.3553C0.913802 10.3934 0.952329 10.4249 0.995854 10.4481C1.03938 10.4713 1.08705 10.4856 1.13613 10.4904C1.18522 10.4951 1.23475 10.4901 1.2819 10.4757C1.32906 10.4612 1.3729 10.4376 1.41092 10.4062L8.76154 4.35187C8.82926 4.29728 8.91362 4.26752 9.0006 4.26752C9.08758 4.26752 9.17195 4.29728 9.23967 4.35187L16.5906 10.4062C16.6286 10.4377 16.6723 10.4613 16.7194 10.4758C16.7665 10.4902 16.816 10.4953 16.865 10.4907C16.9141 10.486 16.9617 10.4718 17.0053 10.4487C17.0488 10.4256 17.0873 10.3942 17.1187 10.3562L17.9156 9.38749C17.947 9.34932 17.9705 9.30532 17.9848 9.25803C17.9991 9.21074 18.004 9.16108 17.999 9.11192C17.9941 9.06275 17.9795 9.01505 17.956 8.97155C17.9326 8.92805 17.9008 8.8896 17.8625 8.85843Z" fill="black"/>
</g>
<defs>
<clipPath id="clip0_1_30">
<rect width="18" height="18" fill="white"/>
</clipPath>
</defs>
</svg>
