<svg xmlns="http://www.w3.org/2000/svg" viewBox="0 0 32 32" width="16" height="16" style="fill: rgba(234, 23, 23, 1);border-color: rgba(187,187,187,1);border-width: 0px;border-style: solid" filter="none"><path d="M25.888 6.112c-1.28-1.312-2.784-2.304-4.448-3.008-1.728-0.736-3.552-1.12-5.44-1.12s-3.712 0.384-5.44 1.12c-1.664 0.704-3.168 1.696-4.448 3.008-1.312 1.28-2.304 2.784-3.008 4.448-0.736 1.728-1.088 3.552-1.088 5.44s0.352 3.712 1.088 5.44c0.704 1.664 1.696 3.168 3.008 4.448 1.28 1.312 2.784 2.304 4.448 3.008 1.728 0.736 3.552 1.12 5.44 1.12s3.712-0.384 5.44-1.12c1.664-0.704 3.168-1.696 4.448-3.008 1.312-1.28 2.304-2.784 3.008-4.448 0.736-1.728 1.12-3.552 1.12-5.44s-0.384-3.712-1.12-5.44c-0.704-1.664-1.696-3.168-3.008-4.448zM16 27.136c-2.976 0-5.76-1.152-7.872-3.264-2.080-2.112-3.264-4.896-3.264-7.872 0-2.496 0.832-4.864 2.304-6.784l15.616 15.584c-1.844 1.456-4.201 2.336-6.764 2.336-0.007 0-0.014 0-0.021-0h0.001zM24.832 22.784l-15.616-15.616c1.952-1.472 4.288-2.304 6.784-2.304 2.976 0 5.76 1.152 7.872 3.264s3.264 4.896 3.264 7.872c0 2.496-0.832 4.832-2.304 6.784z"></path></svg>