<svg width="18" height="18" viewBox="0 0 18 18" fill="none" xmlns="http://www.w3.org/2000/svg">
<g id="list-ul" clip-path="url(#clip0_1_32)">
<path id="Vector" d="M1.6875 1.6875C1.35374 1.6875 1.02748 1.78647 0.749976 1.9719C0.472468 2.15732 0.256177 2.42087 0.128454 2.72922C0.00073117 3.03757 -0.032687 3.37687 0.0324256 3.70421C0.0975382 4.03156 0.258257 4.33224 0.494258 4.56824C0.730259 4.80424 1.03094 4.96496 1.35829 5.03008C1.68563 5.09519 2.02493 5.06177 2.33328 4.93405C2.64163 4.80632 2.90518 4.59003 3.09061 4.31252C3.27603 4.03502 3.375 3.70876 3.375 3.375C3.375 2.92745 3.19721 2.49822 2.88074 2.18176C2.56428 1.86529 2.13505 1.6875 1.6875 1.6875ZM1.6875 7.3125C1.35374 7.3125 1.02748 7.41147 0.749976 7.5969C0.472468 7.78232 0.256177 8.04587 0.128454 8.35422C0.00073117 8.66257 -0.032687 9.00187 0.0324256 9.32922C0.0975382 9.65656 0.258257 9.95724 0.494258 10.1932C0.730259 10.4292 1.03094 10.59 1.35829 10.6551C1.68563 10.7202 2.02493 10.6868 2.33328 10.559C2.64163 10.4313 2.90518 10.215 3.09061 9.93752C3.27603 9.66002 3.375 9.33376 3.375 9C3.375 8.55245 3.19721 8.12322 2.88074 7.80676C2.56428 7.49029 2.13505 7.3125 1.6875 7.3125ZM1.6875 12.9375C1.35374 12.9375 1.02748 13.0365 0.749976 13.2219C0.472468 13.4073 0.256177 13.6709 0.128454 13.9792C0.00073117 14.2876 -0.032687 14.6269 0.0324256 14.9542C0.0975382 15.2816 0.258257 15.5822 0.494258 15.8182C0.730259 16.0542 1.03094 16.215 1.35829 16.2801C1.68563 16.3452 2.02493 16.3118 2.33328 16.184C2.64163 16.0563 2.90518 15.84 3.09061 15.5625C3.27603 15.285 3.375 14.9588 3.375 14.625C3.375 14.1774 3.19721 13.7482 2.88074 13.4318C2.56428 13.1153 2.13505 12.9375 1.6875 12.9375ZM17.4375 13.5H6.1875C6.03832 13.5 5.89524 13.5593 5.78975 13.6648C5.68426 13.7702 5.625 13.9133 5.625 14.0625V15.1875C5.625 15.3367 5.68426 15.4798 5.78975 15.5852C5.89524 15.6907 6.03832 15.75 6.1875 15.75H17.4375C17.5867 15.75 17.7298 15.6907 17.8352 15.5852C17.9407 15.4798 18 15.3367 18 15.1875V14.0625C18 13.9133 17.9407 13.7702 17.8352 13.6648C17.7298 13.5593 17.5867 13.5 17.4375 13.5ZM17.4375 2.25H6.1875C6.03832 2.25 5.89524 2.30926 5.78975 2.41475C5.68426 2.52024 5.625 2.66332 5.625 2.8125V3.9375C5.625 4.08668 5.68426 4.22976 5.78975 4.33525C5.89524 4.44074 6.03832 4.5 6.1875 4.5H17.4375C17.5867 4.5 17.7298 4.44074 17.8352 4.33525C17.9407 4.22976 18 4.08668 18 3.9375V2.8125C18 2.66332 17.9407 2.52024 17.8352 2.41475C17.7298 2.30926 17.5867 2.25 17.4375 2.25ZM17.4375 7.875H6.1875C6.03832 7.875 5.89524 7.93426 5.78975 8.03975C5.68426 8.14524 5.625 8.28832 5.625 8.4375V9.5625C5.625 9.71168 5.68426 9.85476 5.78975 9.96025C5.89524 10.0657 6.03832 10.125 6.1875 10.125H17.4375C17.5867 10.125 17.7298 10.0657 17.8352 9.96025C17.9407 9.85476 18 9.71168 18 9.5625V8.4375C18 8.28832 17.9407 8.14524 17.8352 8.03975C17.7298 7.93426 17.5867 7.875 17.4375 7.875Z" fill="black"/>
</g>
<defs>
<clipPath id="clip0_1_32">
<rect width="18" height="18" fill="white"/>
</clipPath>
</defs>
</svg>
