<svg xmlns="http://www.w3.org/2000/svg" width="770" height="276.508" viewBox="0 0 770 276.508">
  <g id="组_13845" data-name="组 13845" transform="translate(19842 21968.508)">
    <g id="组_13844" data-name="组 13844">
      <path id="Shape" d="M0,0H770V1H0Z" transform="translate(-19842 -21693)" fill="#eef2fb"/>
      <path id="Shape-2" data-name="Shape" d="M0,0H770V1H0Z" transform="translate(-19842 -21903)" fill="#eef2fb"/>
      <path id="Shape-3" data-name="Shape" d="M0,0H770V1H0Z" transform="translate(-19842 -21833)" fill="#eef2fb"/>
      <path id="Shape-4" data-name="Shape" d="M0,0H770V1H0Z" transform="translate(-19842 -21763)" fill="#eef2fb"/>
      <path id="Jan" d="M-22.8,0V-8.59h3.223A3.989,3.989,0,0,1-18-8.329a2.03,2.03,0,0,1,.932.8,2.116,2.116,0,0,1,.337,1.134,1.948,1.948,0,0,1-.3,1.037,2.134,2.134,0,0,1-.9.785,2.244,2.244,0,0,1,1.2.779,2.087,2.087,0,0,1,.419,1.3,2.509,2.509,0,0,1-.255,1.122,2.172,2.172,0,0,1-.63.8,2.629,2.629,0,0,1-.94.425A5.72,5.72,0,0,1-19.523,0Zm1.137-4.98H-19.8a4.145,4.145,0,0,0,1.084-.1,1.2,1.2,0,0,0,.653-.428,1.232,1.232,0,0,0,.22-.75,1.381,1.381,0,0,0-.205-.753,1.038,1.038,0,0,0-.586-.445,4.894,4.894,0,0,0-1.307-.12h-1.717Zm0,3.967h2.139a4.923,4.923,0,0,0,.773-.041,1.853,1.853,0,0,0,.656-.234,1.244,1.244,0,0,0,.434-.478,1.5,1.5,0,0,0,.17-.724,1.427,1.427,0,0,0-.246-.835,1.3,1.3,0,0,0-.683-.5,4.232,4.232,0,0,0-1.257-.144h-1.986ZM-10.623-2l1.09.135a2.659,2.659,0,0,1-.955,1.482A2.871,2.871,0,0,1-12.27.141,2.846,2.846,0,0,1-14.435-.7a3.285,3.285,0,0,1-.8-2.358A3.438,3.438,0,0,1-14.426-5.5a2.737,2.737,0,0,1,2.1-.867,2.66,2.66,0,0,1,2.039.85A3.376,3.376,0,0,1-9.5-3.123q0,.094-.006.281h-4.641a2.391,2.391,0,0,0,.58,1.57,1.727,1.727,0,0,0,1.3.545,1.614,1.614,0,0,0,.99-.3A2.023,2.023,0,0,0-10.623-2Zm-3.463-1.705h3.475a2.108,2.108,0,0,0-.4-1.178A1.616,1.616,0,0,0-12.316-5.5a1.675,1.675,0,0,0-1.222.486A1.925,1.925,0,0,0-14.086-3.709Zm5.455,1.852,1.043-.164a1.458,1.458,0,0,0,.489.961,1.705,1.705,0,0,0,1.122.334,1.648,1.648,0,0,0,1.078-.3.885.885,0,0,0,.352-.694.641.641,0,0,0-.311-.562,4.574,4.574,0,0,0-1.078-.357,9.838,9.838,0,0,1-1.608-.507,1.558,1.558,0,0,1-.68-.592,1.568,1.568,0,0,1-.231-.835,1.6,1.6,0,0,1,.19-.771,1.708,1.708,0,0,1,.519-.589,2.174,2.174,0,0,1,.671-.308,3.19,3.19,0,0,1,.911-.126,3.6,3.6,0,0,1,1.286.211,1.749,1.749,0,0,1,.817.571,2.232,2.232,0,0,1,.363.964l-1.031.141a1.128,1.128,0,0,0-.407-.75,1.489,1.489,0,0,0-.952-.27,1.724,1.724,0,0,0-1.037.24.7.7,0,0,0-.311.563.582.582,0,0,0,.129.369.93.93,0,0,0,.4.281q.158.059.932.27a12.969,12.969,0,0,1,1.562.489,1.584,1.584,0,0,1,.694.554,1.546,1.546,0,0,1,.252.9,1.771,1.771,0,0,1-.308.993,1.988,1.988,0,0,1-.888.721A3.231,3.231,0,0,1-5.971.141a2.924,2.924,0,0,1-1.849-.5A2.343,2.343,0,0,1-8.631-1.857ZM.094-.943l.152.932a3.912,3.912,0,0,1-.8.094A1.8,1.8,0,0,1-1.441-.1a1.017,1.017,0,0,1-.445-.478,3.776,3.776,0,0,1-.129-1.245V-5.4h-.773v-.82h.773V-7.764L-.967-8.4v2.174H.094v.82H-.967v3.639a1.838,1.838,0,0,0,.056.58.439.439,0,0,0,.182.205A.7.7,0,0,0-.369-.9,3.431,3.431,0,0,0,.094-.943ZM4.547,0V-8.59H7.77a3.989,3.989,0,0,1,1.579.261,2.03,2.03,0,0,1,.932.8,2.116,2.116,0,0,1,.337,1.134,1.948,1.948,0,0,1-.3,1.037,2.134,2.134,0,0,1-.9.785,2.244,2.244,0,0,1,1.2.779,2.087,2.087,0,0,1,.419,1.3,2.509,2.509,0,0,1-.255,1.122,2.172,2.172,0,0,1-.63.8,2.629,2.629,0,0,1-.94.425A5.72,5.72,0,0,1,7.822,0ZM5.684-4.98H7.541a4.145,4.145,0,0,0,1.084-.1,1.2,1.2,0,0,0,.653-.428,1.232,1.232,0,0,0,.22-.75,1.381,1.381,0,0,0-.205-.753,1.038,1.038,0,0,0-.586-.445A4.894,4.894,0,0,0,7.4-7.576H5.684Zm0,3.967H7.822A4.923,4.923,0,0,0,8.6-1.055a1.853,1.853,0,0,0,.656-.234,1.244,1.244,0,0,0,.434-.478,1.5,1.5,0,0,0,.17-.724,1.427,1.427,0,0,0-.246-.835,1.3,1.3,0,0,0-.683-.5A4.232,4.232,0,0,0,7.67-3.967H5.684Zm10.84.246a3.927,3.927,0,0,1-1.128.7,3.259,3.259,0,0,1-1.163.205,2.262,2.262,0,0,1-1.576-.5,1.654,1.654,0,0,1-.551-1.28,1.7,1.7,0,0,1,.208-.835,1.722,1.722,0,0,1,.545-.606,2.562,2.562,0,0,1,.759-.346,7.536,7.536,0,0,1,.938-.158,9.64,9.64,0,0,0,1.881-.363q.006-.217.006-.275a1.164,1.164,0,0,0-.3-.908,1.765,1.765,0,0,0-1.2-.357,1.863,1.863,0,0,0-1.1.261,1.593,1.593,0,0,0-.524.923l-1.031-.141a2.555,2.555,0,0,1,.463-1.069,2.029,2.029,0,0,1,.932-.627,4.155,4.155,0,0,1,1.412-.22,3.738,3.738,0,0,1,1.295.188,1.706,1.706,0,0,1,.732.472,1.659,1.659,0,0,1,.328.718,5.938,5.938,0,0,1,.053.973v1.406a14.926,14.926,0,0,0,.067,1.86A2.347,2.347,0,0,0,17.836,0h-1.1A2.236,2.236,0,0,1,16.523-.768Zm-.088-2.355a7.738,7.738,0,0,1-1.723.4,3.985,3.985,0,0,0-.92.211.917.917,0,0,0-.416.343.9.9,0,0,0-.146.5.9.9,0,0,0,.319.7,1.374,1.374,0,0,0,.935.281,2.175,2.175,0,0,0,1.084-.267,1.642,1.642,0,0,0,.7-.729,2.548,2.548,0,0,0,.17-1.055ZM19.113,0V-8.59h1.055V0Zm2.666,0V-8.59h1.055V0Z" transform="translate(-19762 -21936)" fill="#727272"/>
      <path id="Jan-2" data-name="Jan" d="M-16.3-10.752H-25.69V1.414h1.022V.476H-17.3v.91H-16.3ZM-24.668-.5V-3.136H-17.3V-.5Zm0-3.556V-6.524H-17.3V-4.06Zm0-3.388V-9.772H-17.3v2.324ZM-11.326-11.4V-8.75h-1.708v.966h1.708a13.219,13.219,0,0,1-2.156,4.718l.434,1.092a16.535,16.535,0,0,0,1.722-3.612V1.386h.994V-5.628c.42.532.91,1.232,1.484,2.114l.574-.854c-.686-.854-1.372-1.638-2.058-2.338V-7.784h1.624V-8.75h-1.624V-11.4ZM-7.2-5.068A15.432,15.432,0,0,1-9.086-.35l.868.56A17.71,17.71,0,0,0-6.272-4.858Zm5.068-.07-.91.294A47.888,47.888,0,0,1-1.526.336l.91-.406A42.2,42.2,0,0,0-2.128-5.138ZM-5.264,1.246A1.1,1.1,0,0,0-4.032,0V-6.23H-.6V-7.2H-8.456v.966H-5.04V-.252c0,.406-.2.616-.574.616C-6.02.364-6.44.336-6.888.308l.2.938ZM-7.714-10.6v.952H-1.33V-10.6Zm8.946.966v.98h2.8A14.552,14.552,0,0,1,1.778-5.488L2-4.564H6.664v2.058H1.022v.98H6.664v3.01H7.686v-3.01h5.306v-.98H7.686V-4.564H12v-.924H7.686V-7.546H6.664v2.058H3.052A19.015,19.015,0,0,0,5.124-8.652h7.63v-.98H5.614c.238-.532.476-1.078.7-1.652l-1.008-.224c-.252.658-.518,1.288-.784,1.876ZM15.3-10.808v.9H16.73v2.1H14.938v.924h1.736A3.606,3.606,0,0,1,15.288-4.3l.756.658a4.524,4.524,0,0,0,1.61-3.248h1.834v3.08h.98v-3.08H22.19v-.924H20.468v-2.1h1.414v-.9Zm2.394.9h1.792v2.1H17.7Zm5.32-.574V-5.67h.966v-4.816Zm-7.378,8.05v.924h4.914V.126h-5.7V1.05H27.146V.126H21.56V-1.512h4.816v-.924H21.56V-3.654H20.552v1.218ZM25.4-3.682c.742,0,1.12-.434,1.12-1.288v-6.286H25.55v6.048c0,.42-.168.644-.49.644-.56,0-1.134-.028-1.75-.07l.21.952Z" transform="translate(-19762 -21957)" fill="#727272"/>
      <path id="Jan-3" data-name="Jan" d="M-16.661-9.632v.98h2.8a14.552,14.552,0,0,1-2.254,3.164l.224.924h4.662v2.058h-5.642v.98h5.642v3.01h1.022v-3.01H-4.9v-.98h-5.306V-4.564H-5.9v-.924h-4.312V-7.546h-1.022v2.058h-3.612a19.015,19.015,0,0,0,2.072-3.164h7.63v-.98h-7.14c.238-.532.476-1.078.7-1.652l-1.008-.224c-.252.658-.518,1.288-.784,1.876Zm14.07-1.176v.9h1.428v2.1H-2.955v.924h1.736A3.606,3.606,0,0,1-2.605-4.3l.756.658A4.524,4.524,0,0,0-.239-6.888H1.595v3.08h.98v-3.08H4.3v-.924H2.575v-2.1H3.989v-.9Zm2.394.9H1.595v2.1H-.2Zm5.32-.574V-5.67h.966v-4.816Zm-7.378,8.05v.924H2.659V.126h-5.7V1.05H9.253V.126H3.667V-1.512H8.483v-.924H3.667V-3.654H2.659v1.218ZM7.5-3.682c.742,0,1.12-.434,1.12-1.288v-6.286H7.657v6.048c0,.42-.168.644-.49.644-.56,0-1.134-.028-1.75-.07l.21.952ZM15.323,0h-1.23V-7.841a6.36,6.36,0,0,1-1.166.848,8.262,8.262,0,0,1-1.3.636V-7.547a7.431,7.431,0,0,0,1.8-1.176,4.625,4.625,0,0,0,1.094-1.34h.793Z" transform="translate(-19624 -21957)" fill="#727272"/>
      <path id="Jan-4" data-name="Jan" d="M-16.661-9.632v.98h2.8a14.552,14.552,0,0,1-2.254,3.164l.224.924h4.662v2.058h-5.642v.98h5.642v3.01h1.022v-3.01H-4.9v-.98h-5.306V-4.564H-5.9v-.924h-4.312V-7.546h-1.022v2.058h-3.612a19.015,19.015,0,0,0,2.072-3.164h7.63v-.98h-7.14c.238-.532.476-1.078.7-1.652l-1.008-.224c-.252.658-.518,1.288-.784,1.876Zm14.07-1.176v.9h1.428v2.1H-2.955v.924h1.736A3.606,3.606,0,0,1-2.605-4.3l.756.658A4.524,4.524,0,0,0-.239-6.888H1.595v3.08h.98v-3.08H4.3v-.924H2.575v-2.1H3.989v-.9Zm2.394.9H1.595v2.1H-.2Zm5.32-.574V-5.67h.966v-4.816Zm-7.378,8.05v.924H2.659V.126h-5.7V1.05H9.253V.126H3.667V-1.512H8.483v-.924H3.667V-3.654H2.659v1.218ZM7.5-3.682c.742,0,1.12-.434,1.12-1.288v-6.286H7.657v6.048c0,.42-.168.644-.49.644-.56,0-1.134-.028-1.75-.07l.21.952Zm9.652,2.5V0H10.531a2.177,2.177,0,0,1,.144-.854,4.52,4.52,0,0,1,.81-1.333,12.691,12.691,0,0,1,1.61-1.518A13.647,13.647,0,0,0,15.3-5.828a2.542,2.542,0,0,0,.574-1.48,1.644,1.644,0,0,0-.523-1.234,1.886,1.886,0,0,0-1.364-.5,1.922,1.922,0,0,0-1.422.533,2.018,2.018,0,0,0-.54,1.477l-1.265-.13a3.113,3.113,0,0,1,.978-2.157,3.335,3.335,0,0,1,2.276-.742,3.176,3.176,0,0,1,2.283.8,2.626,2.626,0,0,1,.841,1.982A3.007,3.007,0,0,1,16.9-6.1a4.589,4.589,0,0,1-.817,1.224,19.9,19.9,0,0,1-1.9,1.764q-1.107.93-1.422,1.261a4.046,4.046,0,0,0-.52.667Z" transform="translate(-19472 -21957)" fill="#727272"/>
      <path id="Jan-5" data-name="Jan" d="M-16.661-9.632v.98h2.8a14.552,14.552,0,0,1-2.254,3.164l.224.924h4.662v2.058h-5.642v.98h5.642v3.01h1.022v-3.01H-4.9v-.98h-5.306V-4.564H-5.9v-.924h-4.312V-7.546h-1.022v2.058h-3.612a19.015,19.015,0,0,0,2.072-3.164h7.63v-.98h-7.14c.238-.532.476-1.078.7-1.652l-1.008-.224c-.252.658-.518,1.288-.784,1.876Zm14.07-1.176v.9h1.428v2.1H-2.955v.924h1.736A3.606,3.606,0,0,1-2.605-4.3l.756.658A4.524,4.524,0,0,0-.239-6.888H1.595v3.08h.98v-3.08H4.3v-.924H2.575v-2.1H3.989v-.9Zm2.394.9H1.595v2.1H-.2Zm5.32-.574V-5.67h.966v-4.816Zm-7.378,8.05v.924H2.659V.126h-5.7V1.05H9.253V.126H3.667V-1.512H8.483v-.924H3.667V-3.654H2.659v1.218ZM7.5-3.682c.742,0,1.12-.434,1.12-1.288v-6.286H7.657v6.048c0,.42-.168.644-.49.644-.56,0-1.134-.028-1.75-.07l.21.952Zm3.192,1.036,1.23-.164A2.711,2.711,0,0,0,12.646-1.3a1.781,1.781,0,0,0,1.241.461,1.988,1.988,0,0,0,1.466-.6,2.03,2.03,0,0,0,.6-1.49,1.888,1.888,0,0,0-.554-1.4,1.914,1.914,0,0,0-1.408-.55,3.533,3.533,0,0,0-.868.137l.137-1.08a1.881,1.881,0,0,0,.2.014,2.534,2.534,0,0,0,1.415-.41A1.4,1.4,0,0,0,15.5-7.485a1.5,1.5,0,0,0-.458-1.121,1.627,1.627,0,0,0-1.183-.444,1.676,1.676,0,0,0-1.2.451,2.265,2.265,0,0,0-.615,1.354l-1.23-.219a3.163,3.163,0,0,1,1.025-1.917,2.964,2.964,0,0,1,1.989-.68,3.277,3.277,0,0,1,1.511.352,2.546,2.546,0,0,1,1.056.96,2.467,2.467,0,0,1,.366,1.292,2.115,2.115,0,0,1-.349,1.183,2.381,2.381,0,0,1-1.032.848,2.326,2.326,0,0,1,1.381.851,2.59,2.59,0,0,1,.492,1.617A2.958,2.958,0,0,1,16.3-.735a3.366,3.366,0,0,1-2.42.913,3.148,3.148,0,0,1-2.191-.786A3.04,3.04,0,0,1,10.695-2.646Z" transform="translate(-19324 -21957)" fill="#727272"/>
      <path id="Jan-6" data-name="Jan" d="M-16.661-9.632v.98h2.8a14.552,14.552,0,0,1-2.254,3.164l.224.924h4.662v2.058h-5.642v.98h5.642v3.01h1.022v-3.01H-4.9v-.98h-5.306V-4.564H-5.9v-.924h-4.312V-7.546h-1.022v2.058h-3.612a19.015,19.015,0,0,0,2.072-3.164h7.63v-.98h-7.14c.238-.532.476-1.078.7-1.652l-1.008-.224c-.252.658-.518,1.288-.784,1.876Zm14.07-1.176v.9h1.428v2.1H-2.955v.924h1.736A3.606,3.606,0,0,1-2.605-4.3l.756.658A4.524,4.524,0,0,0-.239-6.888H1.595v3.08h.98v-3.08H4.3v-.924H2.575v-2.1H3.989v-.9Zm2.394.9H1.595v2.1H-.2Zm5.32-.574V-5.67h.966v-4.816Zm-7.378,8.05v.924H2.659V.126h-5.7V1.05H9.253V.126H3.667V-1.512H8.483v-.924H3.667V-3.654H2.659v1.218ZM7.5-3.682c.742,0,1.12-.434,1.12-1.288v-6.286H7.657v6.048c0,.42-.168.644-.49.644-.56,0-1.134-.028-1.75-.07l.21.952ZM14.632,0V-2.4H10.285V-3.527l4.573-6.494h1v6.494h1.354V-2.4H15.863V0Zm0-3.527V-8.046L11.495-3.527Z" transform="translate(-19176 -21957)" fill="#727272"/>
      <path id="Jan-7" data-name="Jan" d="M-9.513-4.236A7.86,7.86,0,0,1-9.2-6.688a3.05,3.05,0,0,1,.932-1.433,2.382,2.382,0,0,1,1.556-.5A2.538,2.538,0,0,1-5.5-8.347a2.319,2.319,0,0,1,.861.8A4.306,4.306,0,0,1-4.1-6.267a8.487,8.487,0,0,1,.193,2.03A7.882,7.882,0,0,1-4.222-1.8,3.051,3.051,0,0,1-5.15-.36,2.382,2.382,0,0,1-6.712.146,2.357,2.357,0,0,1-8.663-.744,5.661,5.661,0,0,1-9.513-4.236Zm1.084,0a5.386,5.386,0,0,0,.5,2.815,1.459,1.459,0,0,0,1.222.7,1.458,1.458,0,0,0,1.222-.7A5.388,5.388,0,0,0-5-4.236a5.384,5.384,0,0,0-.5-2.818,1.47,1.47,0,0,0-1.233-.7,1.351,1.351,0,0,0-1.16.615A5.448,5.448,0,0,0-8.429-4.236Zm5.59,0a7.86,7.86,0,0,1,.313-2.452,3.05,3.05,0,0,1,.932-1.433,2.382,2.382,0,0,1,1.556-.5,2.538,2.538,0,0,1,1.213.278,2.319,2.319,0,0,1,.861.8,4.306,4.306,0,0,1,.533,1.277,8.487,8.487,0,0,1,.193,2.03A7.882,7.882,0,0,1,2.452-1.8,3.051,3.051,0,0,1,1.523-.36,2.382,2.382,0,0,1-.038.146,2.357,2.357,0,0,1-1.989-.744,5.661,5.661,0,0,1-2.839-4.236Zm1.084,0a5.386,5.386,0,0,0,.5,2.815,1.459,1.459,0,0,0,1.222.7,1.458,1.458,0,0,0,1.222-.7,5.388,5.388,0,0,0,.5-2.812,5.384,5.384,0,0,0-.5-2.818,1.47,1.47,0,0,0-1.233-.7,1.351,1.351,0,0,0-1.16.615A5.448,5.448,0,0,0-1.755-4.236Zm5.59,0a7.86,7.86,0,0,1,.313-2.452A3.05,3.05,0,0,1,5.08-8.121a2.382,2.382,0,0,1,1.556-.5,2.538,2.538,0,0,1,1.213.278,2.319,2.319,0,0,1,.861.8,4.306,4.306,0,0,1,.533,1.277,8.487,8.487,0,0,1,.193,2.03A7.882,7.882,0,0,1,9.126-1.8,3.051,3.051,0,0,1,8.2-.36,2.382,2.382,0,0,1,6.636.146,2.357,2.357,0,0,1,4.685-.744,5.661,5.661,0,0,1,3.835-4.236Zm1.084,0a5.386,5.386,0,0,0,.5,2.815,1.459,1.459,0,0,0,1.222.7,1.458,1.458,0,0,0,1.222-.7,5.388,5.388,0,0,0,.5-2.812,5.384,5.384,0,0,0-.5-2.818,1.47,1.47,0,0,0-1.233-.7,1.351,1.351,0,0,0-1.16.615A5.448,5.448,0,0,0,4.919-4.236Z" transform="translate(-19732 -21908)" fill="#727272"/>
      <path id="矩形_8927" data-name="矩形 8927" d="M5,0H15a5,5,0,0,1,5,5V208a0,0,0,0,1,0,0H0a0,0,0,0,1,0,0V5A5,5,0,0,1,5,0Z" transform="translate(-19742 -21900)" fill="#5993ff"/>
      <path id="Jan-8" data-name="Jan" d="M-9.513-4.236A7.86,7.86,0,0,1-9.2-6.688a3.05,3.05,0,0,1,.932-1.433,2.382,2.382,0,0,1,1.556-.5A2.538,2.538,0,0,1-5.5-8.347a2.319,2.319,0,0,1,.861.8A4.306,4.306,0,0,1-4.1-6.267a8.487,8.487,0,0,1,.193,2.03A7.882,7.882,0,0,1-4.222-1.8,3.051,3.051,0,0,1-5.15-.36,2.382,2.382,0,0,1-6.712.146,2.357,2.357,0,0,1-8.663-.744,5.661,5.661,0,0,1-9.513-4.236Zm1.084,0a5.386,5.386,0,0,0,.5,2.815,1.459,1.459,0,0,0,1.222.7,1.458,1.458,0,0,0,1.222-.7A5.388,5.388,0,0,0-5-4.236a5.384,5.384,0,0,0-.5-2.818,1.47,1.47,0,0,0-1.233-.7,1.351,1.351,0,0,0-1.16.615A5.448,5.448,0,0,0-8.429-4.236Zm5.59,0a7.86,7.86,0,0,1,.313-2.452,3.05,3.05,0,0,1,.932-1.433,2.382,2.382,0,0,1,1.556-.5,2.538,2.538,0,0,1,1.213.278,2.319,2.319,0,0,1,.861.8,4.306,4.306,0,0,1,.533,1.277,8.487,8.487,0,0,1,.193,2.03A7.882,7.882,0,0,1,2.452-1.8,3.051,3.051,0,0,1,1.523-.36,2.382,2.382,0,0,1-.038.146,2.357,2.357,0,0,1-1.989-.744,5.661,5.661,0,0,1-2.839-4.236Zm1.084,0a5.386,5.386,0,0,0,.5,2.815,1.459,1.459,0,0,0,1.222.7,1.458,1.458,0,0,0,1.222-.7,5.388,5.388,0,0,0,.5-2.812,5.384,5.384,0,0,0-.5-2.818,1.47,1.47,0,0,0-1.233-.7,1.351,1.351,0,0,0-1.16.615A5.448,5.448,0,0,0-1.755-4.236Zm5.59,0a7.86,7.86,0,0,1,.313-2.452A3.05,3.05,0,0,1,5.08-8.121a2.382,2.382,0,0,1,1.556-.5,2.538,2.538,0,0,1,1.213.278,2.319,2.319,0,0,1,.861.8,4.306,4.306,0,0,1,.533,1.277,8.487,8.487,0,0,1,.193,2.03A7.882,7.882,0,0,1,9.126-1.8,3.051,3.051,0,0,1,8.2-.36,2.382,2.382,0,0,1,6.636.146,2.357,2.357,0,0,1,4.685-.744,5.661,5.661,0,0,1,3.835-4.236Zm1.084,0a5.386,5.386,0,0,0,.5,2.815,1.459,1.459,0,0,0,1.222.7,1.458,1.458,0,0,0,1.222-.7,5.388,5.388,0,0,0,.5-2.812,5.384,5.384,0,0,0-.5-2.818,1.47,1.47,0,0,0-1.233-.7,1.351,1.351,0,0,0-1.16.615A5.448,5.448,0,0,0,4.919-4.236Z" transform="translate(-19792 -21871)" fill="#727272"/>
      <path id="矩形_7489" data-name="矩形 7489" d="M5,0H15a5,5,0,0,1,5,5V171a0,0,0,0,1,0,0H0a0,0,0,0,1,0,0V5A5,5,0,0,1,5,0Z" transform="translate(-19802 -21863)" fill="#a1d0ff"/>
      <path id="Jan-9" data-name="Jan" d="M-9.513-4.236A7.86,7.86,0,0,1-9.2-6.688a3.05,3.05,0,0,1,.932-1.433,2.382,2.382,0,0,1,1.556-.5A2.538,2.538,0,0,1-5.5-8.347a2.319,2.319,0,0,1,.861.8A4.306,4.306,0,0,1-4.1-6.267a8.487,8.487,0,0,1,.193,2.03A7.882,7.882,0,0,1-4.222-1.8,3.051,3.051,0,0,1-5.15-.36,2.382,2.382,0,0,1-6.712.146,2.357,2.357,0,0,1-8.663-.744,5.661,5.661,0,0,1-9.513-4.236Zm1.084,0a5.386,5.386,0,0,0,.5,2.815,1.459,1.459,0,0,0,1.222.7,1.458,1.458,0,0,0,1.222-.7A5.388,5.388,0,0,0-5-4.236a5.384,5.384,0,0,0-.5-2.818,1.47,1.47,0,0,0-1.233-.7,1.351,1.351,0,0,0-1.16.615A5.448,5.448,0,0,0-8.429-4.236Zm5.59,0a7.86,7.86,0,0,1,.313-2.452,3.05,3.05,0,0,1,.932-1.433,2.382,2.382,0,0,1,1.556-.5,2.538,2.538,0,0,1,1.213.278,2.319,2.319,0,0,1,.861.8,4.306,4.306,0,0,1,.533,1.277,8.487,8.487,0,0,1,.193,2.03A7.882,7.882,0,0,1,2.452-1.8,3.051,3.051,0,0,1,1.523-.36,2.382,2.382,0,0,1-.038.146,2.357,2.357,0,0,1-1.989-.744,5.661,5.661,0,0,1-2.839-4.236Zm1.084,0a5.386,5.386,0,0,0,.5,2.815,1.459,1.459,0,0,0,1.222.7,1.458,1.458,0,0,0,1.222-.7,5.388,5.388,0,0,0,.5-2.812,5.384,5.384,0,0,0-.5-2.818,1.47,1.47,0,0,0-1.233-.7,1.351,1.351,0,0,0-1.16.615A5.448,5.448,0,0,0-1.755-4.236Zm5.59,0a7.86,7.86,0,0,1,.313-2.452A3.05,3.05,0,0,1,5.08-8.121a2.382,2.382,0,0,1,1.556-.5,2.538,2.538,0,0,1,1.213.278,2.319,2.319,0,0,1,.861.8,4.306,4.306,0,0,1,.533,1.277,8.487,8.487,0,0,1,.193,2.03A7.882,7.882,0,0,1,9.126-1.8,3.051,3.051,0,0,1,8.2-.36,2.382,2.382,0,0,1,6.636.146,2.357,2.357,0,0,1,4.685-.744,5.661,5.661,0,0,1,3.835-4.236Zm1.084,0a5.386,5.386,0,0,0,.5,2.815,1.459,1.459,0,0,0,1.222.7,1.458,1.458,0,0,0,1.222-.7,5.388,5.388,0,0,0,.5-2.812,5.384,5.384,0,0,0-.5-2.818,1.47,1.47,0,0,0-1.233-.7,1.351,1.351,0,0,0-1.16.615A5.448,5.448,0,0,0,4.919-4.236Z" transform="translate(-19762 -21888)" fill="#727272"/>
      <path id="矩形_8926" data-name="矩形 8926" d="M5,0H15a5,5,0,0,1,5,5V188a0,0,0,0,1,0,0H0a0,0,0,0,1,0,0V5A5,5,0,0,1,5,0Z" transform="translate(-19772 -21880)" fill="#92b8ff"/>
      <path id="Jan-10" data-name="Jan" d="M-9.513-4.236A7.86,7.86,0,0,1-9.2-6.688a3.05,3.05,0,0,1,.932-1.433,2.382,2.382,0,0,1,1.556-.5A2.538,2.538,0,0,1-5.5-8.347a2.319,2.319,0,0,1,.861.8A4.306,4.306,0,0,1-4.1-6.267a8.487,8.487,0,0,1,.193,2.03A7.882,7.882,0,0,1-4.222-1.8,3.051,3.051,0,0,1-5.15-.36,2.382,2.382,0,0,1-6.712.146,2.357,2.357,0,0,1-8.663-.744,5.661,5.661,0,0,1-9.513-4.236Zm1.084,0a5.386,5.386,0,0,0,.5,2.815,1.459,1.459,0,0,0,1.222.7,1.458,1.458,0,0,0,1.222-.7A5.388,5.388,0,0,0-5-4.236a5.384,5.384,0,0,0-.5-2.818,1.47,1.47,0,0,0-1.233-.7,1.351,1.351,0,0,0-1.16.615A5.448,5.448,0,0,0-8.429-4.236Zm5.59,0a7.86,7.86,0,0,1,.313-2.452,3.05,3.05,0,0,1,.932-1.433,2.382,2.382,0,0,1,1.556-.5,2.538,2.538,0,0,1,1.213.278,2.319,2.319,0,0,1,.861.8,4.306,4.306,0,0,1,.533,1.277,8.487,8.487,0,0,1,.193,2.03A7.882,7.882,0,0,1,2.452-1.8,3.051,3.051,0,0,1,1.523-.36,2.382,2.382,0,0,1-.038.146,2.357,2.357,0,0,1-1.989-.744,5.661,5.661,0,0,1-2.839-4.236Zm1.084,0a5.386,5.386,0,0,0,.5,2.815,1.459,1.459,0,0,0,1.222.7,1.458,1.458,0,0,0,1.222-.7,5.388,5.388,0,0,0,.5-2.812,5.384,5.384,0,0,0-.5-2.818,1.47,1.47,0,0,0-1.233-.7,1.351,1.351,0,0,0-1.16.615A5.448,5.448,0,0,0-1.755-4.236Zm5.59,0a7.86,7.86,0,0,1,.313-2.452A3.05,3.05,0,0,1,5.08-8.121a2.382,2.382,0,0,1,1.556-.5,2.538,2.538,0,0,1,1.213.278,2.319,2.319,0,0,1,.861.8,4.306,4.306,0,0,1,.533,1.277,8.487,8.487,0,0,1,.193,2.03A7.882,7.882,0,0,1,9.126-1.8,3.051,3.051,0,0,1,8.2-.36,2.382,2.382,0,0,1,6.636.146,2.357,2.357,0,0,1,4.685-.744,5.661,5.661,0,0,1,3.835-4.236Zm1.084,0a5.386,5.386,0,0,0,.5,2.815,1.459,1.459,0,0,0,1.222.7,1.458,1.458,0,0,0,1.222-.7,5.388,5.388,0,0,0,.5-2.812,5.384,5.384,0,0,0-.5-2.818,1.47,1.47,0,0,0-1.233-.7,1.351,1.351,0,0,0-1.16.615A5.448,5.448,0,0,0,4.919-4.236Z" transform="translate(-19594 -21890)" fill="#727272"/>
      <path id="矩形_9383" data-name="矩形 9383" d="M5,0H15a5,5,0,0,1,5,5V190a0,0,0,0,1,0,0H0a0,0,0,0,1,0,0V5A5,5,0,0,1,5,0Z" transform="translate(-19604 -21882)" fill="#5993ff"/>
      <path id="Jan-11" data-name="Jan" d="M-9.513-4.236A7.86,7.86,0,0,1-9.2-6.688a3.05,3.05,0,0,1,.932-1.433,2.382,2.382,0,0,1,1.556-.5A2.538,2.538,0,0,1-5.5-8.347a2.319,2.319,0,0,1,.861.8A4.306,4.306,0,0,1-4.1-6.267a8.487,8.487,0,0,1,.193,2.03A7.882,7.882,0,0,1-4.222-1.8,3.051,3.051,0,0,1-5.15-.36,2.382,2.382,0,0,1-6.712.146,2.357,2.357,0,0,1-8.663-.744,5.661,5.661,0,0,1-9.513-4.236Zm1.084,0a5.386,5.386,0,0,0,.5,2.815,1.459,1.459,0,0,0,1.222.7,1.458,1.458,0,0,0,1.222-.7A5.388,5.388,0,0,0-5-4.236a5.384,5.384,0,0,0-.5-2.818,1.47,1.47,0,0,0-1.233-.7,1.351,1.351,0,0,0-1.16.615A5.448,5.448,0,0,0-8.429-4.236Zm5.59,0a7.86,7.86,0,0,1,.313-2.452,3.05,3.05,0,0,1,.932-1.433,2.382,2.382,0,0,1,1.556-.5,2.538,2.538,0,0,1,1.213.278,2.319,2.319,0,0,1,.861.8,4.306,4.306,0,0,1,.533,1.277,8.487,8.487,0,0,1,.193,2.03A7.882,7.882,0,0,1,2.452-1.8,3.051,3.051,0,0,1,1.523-.36,2.382,2.382,0,0,1-.038.146,2.357,2.357,0,0,1-1.989-.744,5.661,5.661,0,0,1-2.839-4.236Zm1.084,0a5.386,5.386,0,0,0,.5,2.815,1.459,1.459,0,0,0,1.222.7,1.458,1.458,0,0,0,1.222-.7,5.388,5.388,0,0,0,.5-2.812,5.384,5.384,0,0,0-.5-2.818,1.47,1.47,0,0,0-1.233-.7,1.351,1.351,0,0,0-1.16.615A5.448,5.448,0,0,0-1.755-4.236Zm5.59,0a7.86,7.86,0,0,1,.313-2.452A3.05,3.05,0,0,1,5.08-8.121a2.382,2.382,0,0,1,1.556-.5,2.538,2.538,0,0,1,1.213.278,2.319,2.319,0,0,1,.861.8,4.306,4.306,0,0,1,.533,1.277,8.487,8.487,0,0,1,.193,2.03A7.882,7.882,0,0,1,9.126-1.8,3.051,3.051,0,0,1,8.2-.36,2.382,2.382,0,0,1,6.636.146,2.357,2.357,0,0,1,4.685-.744,5.661,5.661,0,0,1,3.835-4.236Zm1.084,0a5.386,5.386,0,0,0,.5,2.815,1.459,1.459,0,0,0,1.222.7,1.458,1.458,0,0,0,1.222-.7,5.388,5.388,0,0,0,.5-2.812,5.384,5.384,0,0,0-.5-2.818,1.47,1.47,0,0,0-1.233-.7,1.351,1.351,0,0,0-1.16.615A5.448,5.448,0,0,0,4.919-4.236Z" transform="translate(-19654 -21856)" fill="#727272"/>
      <path id="矩形_9385" data-name="矩形 9385" d="M5,0H15a5,5,0,0,1,5,5V156a0,0,0,0,1,0,0H0a0,0,0,0,1,0,0V5A5,5,0,0,1,5,0Z" transform="translate(-19664 -21848)" fill="#a1d0ff"/>
      <path id="Jan-12" data-name="Jan" d="M-9.513-4.236A7.86,7.86,0,0,1-9.2-6.688a3.05,3.05,0,0,1,.932-1.433,2.382,2.382,0,0,1,1.556-.5A2.538,2.538,0,0,1-5.5-8.347a2.319,2.319,0,0,1,.861.8A4.306,4.306,0,0,1-4.1-6.267a8.487,8.487,0,0,1,.193,2.03A7.882,7.882,0,0,1-4.222-1.8,3.051,3.051,0,0,1-5.15-.36,2.382,2.382,0,0,1-6.712.146,2.357,2.357,0,0,1-8.663-.744,5.661,5.661,0,0,1-9.513-4.236Zm1.084,0a5.386,5.386,0,0,0,.5,2.815,1.459,1.459,0,0,0,1.222.7,1.458,1.458,0,0,0,1.222-.7A5.388,5.388,0,0,0-5-4.236a5.384,5.384,0,0,0-.5-2.818,1.47,1.47,0,0,0-1.233-.7,1.351,1.351,0,0,0-1.16.615A5.448,5.448,0,0,0-8.429-4.236Zm5.59,0a7.86,7.86,0,0,1,.313-2.452,3.05,3.05,0,0,1,.932-1.433,2.382,2.382,0,0,1,1.556-.5,2.538,2.538,0,0,1,1.213.278,2.319,2.319,0,0,1,.861.8,4.306,4.306,0,0,1,.533,1.277,8.487,8.487,0,0,1,.193,2.03A7.882,7.882,0,0,1,2.452-1.8,3.051,3.051,0,0,1,1.523-.36,2.382,2.382,0,0,1-.038.146,2.357,2.357,0,0,1-1.989-.744,5.661,5.661,0,0,1-2.839-4.236Zm1.084,0a5.386,5.386,0,0,0,.5,2.815,1.459,1.459,0,0,0,1.222.7,1.458,1.458,0,0,0,1.222-.7,5.388,5.388,0,0,0,.5-2.812,5.384,5.384,0,0,0-.5-2.818,1.47,1.47,0,0,0-1.233-.7,1.351,1.351,0,0,0-1.16.615A5.448,5.448,0,0,0-1.755-4.236Zm5.59,0a7.86,7.86,0,0,1,.313-2.452A3.05,3.05,0,0,1,5.08-8.121a2.382,2.382,0,0,1,1.556-.5,2.538,2.538,0,0,1,1.213.278,2.319,2.319,0,0,1,.861.8,4.306,4.306,0,0,1,.533,1.277,8.487,8.487,0,0,1,.193,2.03A7.882,7.882,0,0,1,9.126-1.8,3.051,3.051,0,0,1,8.2-.36,2.382,2.382,0,0,1,6.636.146,2.357,2.357,0,0,1,4.685-.744,5.661,5.661,0,0,1,3.835-4.236Zm1.084,0a5.386,5.386,0,0,0,.5,2.815,1.459,1.459,0,0,0,1.222.7,1.458,1.458,0,0,0,1.222-.7,5.388,5.388,0,0,0,.5-2.812,5.384,5.384,0,0,0-.5-2.818,1.47,1.47,0,0,0-1.233-.7,1.351,1.351,0,0,0-1.16.615A5.448,5.448,0,0,0,4.919-4.236Z" transform="translate(-19624 -21871)" fill="#727272"/>
      <path id="矩形_9384" data-name="矩形 9384" d="M5,0H15a5,5,0,0,1,5,5V171a0,0,0,0,1,0,0H0a0,0,0,0,1,0,0V5A5,5,0,0,1,5,0Z" transform="translate(-19634 -21863)" fill="#92b8ff"/>
      <path id="Jan-13" data-name="Jan" d="M-9.513-4.236A7.86,7.86,0,0,1-9.2-6.688a3.05,3.05,0,0,1,.932-1.433,2.382,2.382,0,0,1,1.556-.5A2.538,2.538,0,0,1-5.5-8.347a2.319,2.319,0,0,1,.861.8A4.306,4.306,0,0,1-4.1-6.267a8.487,8.487,0,0,1,.193,2.03A7.882,7.882,0,0,1-4.222-1.8,3.051,3.051,0,0,1-5.15-.36,2.382,2.382,0,0,1-6.712.146,2.357,2.357,0,0,1-8.663-.744,5.661,5.661,0,0,1-9.513-4.236Zm1.084,0a5.386,5.386,0,0,0,.5,2.815,1.459,1.459,0,0,0,1.222.7,1.458,1.458,0,0,0,1.222-.7A5.388,5.388,0,0,0-5-4.236a5.384,5.384,0,0,0-.5-2.818,1.47,1.47,0,0,0-1.233-.7,1.351,1.351,0,0,0-1.16.615A5.448,5.448,0,0,0-8.429-4.236Zm5.59,0a7.86,7.86,0,0,1,.313-2.452,3.05,3.05,0,0,1,.932-1.433,2.382,2.382,0,0,1,1.556-.5,2.538,2.538,0,0,1,1.213.278,2.319,2.319,0,0,1,.861.8,4.306,4.306,0,0,1,.533,1.277,8.487,8.487,0,0,1,.193,2.03A7.882,7.882,0,0,1,2.452-1.8,3.051,3.051,0,0,1,1.523-.36,2.382,2.382,0,0,1-.038.146,2.357,2.357,0,0,1-1.989-.744,5.661,5.661,0,0,1-2.839-4.236Zm1.084,0a5.386,5.386,0,0,0,.5,2.815,1.459,1.459,0,0,0,1.222.7,1.458,1.458,0,0,0,1.222-.7,5.388,5.388,0,0,0,.5-2.812,5.384,5.384,0,0,0-.5-2.818,1.47,1.47,0,0,0-1.233-.7,1.351,1.351,0,0,0-1.16.615A5.448,5.448,0,0,0-1.755-4.236Zm5.59,0a7.86,7.86,0,0,1,.313-2.452A3.05,3.05,0,0,1,5.08-8.121a2.382,2.382,0,0,1,1.556-.5,2.538,2.538,0,0,1,1.213.278,2.319,2.319,0,0,1,.861.8,4.306,4.306,0,0,1,.533,1.277,8.487,8.487,0,0,1,.193,2.03A7.882,7.882,0,0,1,9.126-1.8,3.051,3.051,0,0,1,8.2-.36,2.382,2.382,0,0,1,6.636.146,2.357,2.357,0,0,1,4.685-.744,5.661,5.661,0,0,1,3.835-4.236Zm1.084,0a5.386,5.386,0,0,0,.5,2.815,1.459,1.459,0,0,0,1.222.7,1.458,1.458,0,0,0,1.222-.7,5.388,5.388,0,0,0,.5-2.812,5.384,5.384,0,0,0-.5-2.818,1.47,1.47,0,0,0-1.233-.7,1.351,1.351,0,0,0-1.16.615A5.448,5.448,0,0,0,4.919-4.236Z" transform="translate(-19457 -21890)" fill="#727272"/>
      <path id="Jan-14" data-name="Jan" d="M-9.513-4.236A7.86,7.86,0,0,1-9.2-6.688a3.05,3.05,0,0,1,.932-1.433,2.382,2.382,0,0,1,1.556-.5A2.538,2.538,0,0,1-5.5-8.347a2.319,2.319,0,0,1,.861.8A4.306,4.306,0,0,1-4.1-6.267a8.487,8.487,0,0,1,.193,2.03A7.882,7.882,0,0,1-4.222-1.8,3.051,3.051,0,0,1-5.15-.36,2.382,2.382,0,0,1-6.712.146,2.357,2.357,0,0,1-8.663-.744,5.661,5.661,0,0,1-9.513-4.236Zm1.084,0a5.386,5.386,0,0,0,.5,2.815,1.459,1.459,0,0,0,1.222.7,1.458,1.458,0,0,0,1.222-.7A5.388,5.388,0,0,0-5-4.236a5.384,5.384,0,0,0-.5-2.818,1.47,1.47,0,0,0-1.233-.7,1.351,1.351,0,0,0-1.16.615A5.448,5.448,0,0,0-8.429-4.236Zm5.59,0a7.86,7.86,0,0,1,.313-2.452,3.05,3.05,0,0,1,.932-1.433,2.382,2.382,0,0,1,1.556-.5,2.538,2.538,0,0,1,1.213.278,2.319,2.319,0,0,1,.861.8,4.306,4.306,0,0,1,.533,1.277,8.487,8.487,0,0,1,.193,2.03A7.882,7.882,0,0,1,2.452-1.8,3.051,3.051,0,0,1,1.523-.36,2.382,2.382,0,0,1-.038.146,2.357,2.357,0,0,1-1.989-.744,5.661,5.661,0,0,1-2.839-4.236Zm1.084,0a5.386,5.386,0,0,0,.5,2.815,1.459,1.459,0,0,0,1.222.7,1.458,1.458,0,0,0,1.222-.7,5.388,5.388,0,0,0,.5-2.812,5.384,5.384,0,0,0-.5-2.818,1.47,1.47,0,0,0-1.233-.7,1.351,1.351,0,0,0-1.16.615A5.448,5.448,0,0,0-1.755-4.236Zm5.59,0a7.86,7.86,0,0,1,.313-2.452A3.05,3.05,0,0,1,5.08-8.121a2.382,2.382,0,0,1,1.556-.5,2.538,2.538,0,0,1,1.213.278,2.319,2.319,0,0,1,.861.8,4.306,4.306,0,0,1,.533,1.277,8.487,8.487,0,0,1,.193,2.03A7.882,7.882,0,0,1,9.126-1.8,3.051,3.051,0,0,1,8.2-.36,2.382,2.382,0,0,1,6.636.146,2.357,2.357,0,0,1,4.685-.744,5.661,5.661,0,0,1,3.835-4.236Zm1.084,0a5.386,5.386,0,0,0,.5,2.815,1.459,1.459,0,0,0,1.222.7,1.458,1.458,0,0,0,1.222-.7,5.388,5.388,0,0,0,.5-2.812,5.384,5.384,0,0,0-.5-2.818,1.47,1.47,0,0,0-1.233-.7,1.351,1.351,0,0,0-1.16.615A5.448,5.448,0,0,0,4.919-4.236Z" transform="translate(-19427 -21911)" fill="#727272"/>
      <path id="矩形_9386" data-name="矩形 9386" d="M5,0H15a5,5,0,0,1,5,5V190a0,0,0,0,1,0,0H0a0,0,0,0,1,0,0V5A5,5,0,0,1,5,0Z" transform="translate(-19467 -21882)" fill="#5993ff"/>
      <path id="矩形_9395" data-name="矩形 9395" d="M5,0H15a5,5,0,0,1,5,5V211a0,0,0,0,1,0,0H0a0,0,0,0,1,0,0V5A5,5,0,0,1,5,0Z" transform="translate(-19437 -21903)" fill="#0059ff"/>
      <path id="Jan-15" data-name="Jan" d="M-9.513-4.236A7.86,7.86,0,0,1-9.2-6.688a3.05,3.05,0,0,1,.932-1.433,2.382,2.382,0,0,1,1.556-.5A2.538,2.538,0,0,1-5.5-8.347a2.319,2.319,0,0,1,.861.8A4.306,4.306,0,0,1-4.1-6.267a8.487,8.487,0,0,1,.193,2.03A7.882,7.882,0,0,1-4.222-1.8,3.051,3.051,0,0,1-5.15-.36,2.382,2.382,0,0,1-6.712.146,2.357,2.357,0,0,1-8.663-.744,5.661,5.661,0,0,1-9.513-4.236Zm1.084,0a5.386,5.386,0,0,0,.5,2.815,1.459,1.459,0,0,0,1.222.7,1.458,1.458,0,0,0,1.222-.7A5.388,5.388,0,0,0-5-4.236a5.384,5.384,0,0,0-.5-2.818,1.47,1.47,0,0,0-1.233-.7,1.351,1.351,0,0,0-1.16.615A5.448,5.448,0,0,0-8.429-4.236Zm5.59,0a7.86,7.86,0,0,1,.313-2.452,3.05,3.05,0,0,1,.932-1.433,2.382,2.382,0,0,1,1.556-.5,2.538,2.538,0,0,1,1.213.278,2.319,2.319,0,0,1,.861.8,4.306,4.306,0,0,1,.533,1.277,8.487,8.487,0,0,1,.193,2.03A7.882,7.882,0,0,1,2.452-1.8,3.051,3.051,0,0,1,1.523-.36,2.382,2.382,0,0,1-.038.146,2.357,2.357,0,0,1-1.989-.744,5.661,5.661,0,0,1-2.839-4.236Zm1.084,0a5.386,5.386,0,0,0,.5,2.815,1.459,1.459,0,0,0,1.222.7,1.458,1.458,0,0,0,1.222-.7,5.388,5.388,0,0,0,.5-2.812,5.384,5.384,0,0,0-.5-2.818,1.47,1.47,0,0,0-1.233-.7,1.351,1.351,0,0,0-1.16.615A5.448,5.448,0,0,0-1.755-4.236Zm5.59,0a7.86,7.86,0,0,1,.313-2.452A3.05,3.05,0,0,1,5.08-8.121a2.382,2.382,0,0,1,1.556-.5,2.538,2.538,0,0,1,1.213.278,2.319,2.319,0,0,1,.861.8,4.306,4.306,0,0,1,.533,1.277,8.487,8.487,0,0,1,.193,2.03A7.882,7.882,0,0,1,9.126-1.8,3.051,3.051,0,0,1,8.2-.36,2.382,2.382,0,0,1,6.636.146,2.357,2.357,0,0,1,4.685-.744,5.661,5.661,0,0,1,3.835-4.236Zm1.084,0a5.386,5.386,0,0,0,.5,2.815,1.459,1.459,0,0,0,1.222.7,1.458,1.458,0,0,0,1.222-.7,5.388,5.388,0,0,0,.5-2.812,5.384,5.384,0,0,0-.5-2.818,1.47,1.47,0,0,0-1.233-.7,1.351,1.351,0,0,0-1.16.615A5.448,5.448,0,0,0,4.919-4.236Z" transform="translate(-19517 -21856)" fill="#727272"/>
      <path id="矩形_9388" data-name="矩形 9388" d="M5,0H15a5,5,0,0,1,5,5V156a0,0,0,0,1,0,0H0a0,0,0,0,1,0,0V5A5,5,0,0,1,5,0Z" transform="translate(-19527 -21848)" fill="#a1d0ff"/>
      <path id="Jan-16" data-name="Jan" d="M-9.513-4.236A7.86,7.86,0,0,1-9.2-6.688a3.05,3.05,0,0,1,.932-1.433,2.382,2.382,0,0,1,1.556-.5A2.538,2.538,0,0,1-5.5-8.347a2.319,2.319,0,0,1,.861.8A4.306,4.306,0,0,1-4.1-6.267a8.487,8.487,0,0,1,.193,2.03A7.882,7.882,0,0,1-4.222-1.8,3.051,3.051,0,0,1-5.15-.36,2.382,2.382,0,0,1-6.712.146,2.357,2.357,0,0,1-8.663-.744,5.661,5.661,0,0,1-9.513-4.236Zm1.084,0a5.386,5.386,0,0,0,.5,2.815,1.459,1.459,0,0,0,1.222.7,1.458,1.458,0,0,0,1.222-.7A5.388,5.388,0,0,0-5-4.236a5.384,5.384,0,0,0-.5-2.818,1.47,1.47,0,0,0-1.233-.7,1.351,1.351,0,0,0-1.16.615A5.448,5.448,0,0,0-8.429-4.236Zm5.59,0a7.86,7.86,0,0,1,.313-2.452,3.05,3.05,0,0,1,.932-1.433,2.382,2.382,0,0,1,1.556-.5,2.538,2.538,0,0,1,1.213.278,2.319,2.319,0,0,1,.861.8,4.306,4.306,0,0,1,.533,1.277,8.487,8.487,0,0,1,.193,2.03A7.882,7.882,0,0,1,2.452-1.8,3.051,3.051,0,0,1,1.523-.36,2.382,2.382,0,0,1-.038.146,2.357,2.357,0,0,1-1.989-.744,5.661,5.661,0,0,1-2.839-4.236Zm1.084,0a5.386,5.386,0,0,0,.5,2.815,1.459,1.459,0,0,0,1.222.7,1.458,1.458,0,0,0,1.222-.7,5.388,5.388,0,0,0,.5-2.812,5.384,5.384,0,0,0-.5-2.818,1.47,1.47,0,0,0-1.233-.7,1.351,1.351,0,0,0-1.16.615A5.448,5.448,0,0,0-1.755-4.236Zm5.59,0a7.86,7.86,0,0,1,.313-2.452A3.05,3.05,0,0,1,5.08-8.121a2.382,2.382,0,0,1,1.556-.5,2.538,2.538,0,0,1,1.213.278,2.319,2.319,0,0,1,.861.8,4.306,4.306,0,0,1,.533,1.277,8.487,8.487,0,0,1,.193,2.03A7.882,7.882,0,0,1,9.126-1.8,3.051,3.051,0,0,1,8.2-.36,2.382,2.382,0,0,1,6.636.146,2.357,2.357,0,0,1,4.685-.744,5.661,5.661,0,0,1,3.835-4.236Zm1.084,0a5.386,5.386,0,0,0,.5,2.815,1.459,1.459,0,0,0,1.222.7,1.458,1.458,0,0,0,1.222-.7,5.388,5.388,0,0,0,.5-2.812,5.384,5.384,0,0,0-.5-2.818,1.47,1.47,0,0,0-1.233-.7,1.351,1.351,0,0,0-1.16.615A5.448,5.448,0,0,0,4.919-4.236Z" transform="translate(-19487 -21871)" fill="#727272"/>
      <path id="矩形_9387" data-name="矩形 9387" d="M5,0H15a5,5,0,0,1,5,5V171a0,0,0,0,1,0,0H0a0,0,0,0,1,0,0V5A5,5,0,0,1,5,0Z" transform="translate(-19497 -21863)" fill="#92b8ff"/>
      <path id="Jan-17" data-name="Jan" d="M-9.513-4.236A7.86,7.86,0,0,1-9.2-6.688a3.05,3.05,0,0,1,.932-1.433,2.382,2.382,0,0,1,1.556-.5A2.538,2.538,0,0,1-5.5-8.347a2.319,2.319,0,0,1,.861.8A4.306,4.306,0,0,1-4.1-6.267a8.487,8.487,0,0,1,.193,2.03A7.882,7.882,0,0,1-4.222-1.8,3.051,3.051,0,0,1-5.15-.36,2.382,2.382,0,0,1-6.712.146,2.357,2.357,0,0,1-8.663-.744,5.661,5.661,0,0,1-9.513-4.236Zm1.084,0a5.386,5.386,0,0,0,.5,2.815,1.459,1.459,0,0,0,1.222.7,1.458,1.458,0,0,0,1.222-.7A5.388,5.388,0,0,0-5-4.236a5.384,5.384,0,0,0-.5-2.818,1.47,1.47,0,0,0-1.233-.7,1.351,1.351,0,0,0-1.16.615A5.448,5.448,0,0,0-8.429-4.236Zm5.59,0a7.86,7.86,0,0,1,.313-2.452,3.05,3.05,0,0,1,.932-1.433,2.382,2.382,0,0,1,1.556-.5,2.538,2.538,0,0,1,1.213.278,2.319,2.319,0,0,1,.861.8,4.306,4.306,0,0,1,.533,1.277,8.487,8.487,0,0,1,.193,2.03A7.882,7.882,0,0,1,2.452-1.8,3.051,3.051,0,0,1,1.523-.36,2.382,2.382,0,0,1-.038.146,2.357,2.357,0,0,1-1.989-.744,5.661,5.661,0,0,1-2.839-4.236Zm1.084,0a5.386,5.386,0,0,0,.5,2.815,1.459,1.459,0,0,0,1.222.7,1.458,1.458,0,0,0,1.222-.7,5.388,5.388,0,0,0,.5-2.812,5.384,5.384,0,0,0-.5-2.818,1.47,1.47,0,0,0-1.233-.7,1.351,1.351,0,0,0-1.16.615A5.448,5.448,0,0,0-1.755-4.236Zm5.59,0a7.86,7.86,0,0,1,.313-2.452A3.05,3.05,0,0,1,5.08-8.121a2.382,2.382,0,0,1,1.556-.5,2.538,2.538,0,0,1,1.213.278,2.319,2.319,0,0,1,.861.8,4.306,4.306,0,0,1,.533,1.277,8.487,8.487,0,0,1,.193,2.03A7.882,7.882,0,0,1,9.126-1.8,3.051,3.051,0,0,1,8.2-.36,2.382,2.382,0,0,1,6.636.146,2.357,2.357,0,0,1,4.685-.744,5.661,5.661,0,0,1,3.835-4.236Zm1.084,0a5.386,5.386,0,0,0,.5,2.815,1.459,1.459,0,0,0,1.222.7,1.458,1.458,0,0,0,1.222-.7,5.388,5.388,0,0,0,.5-2.812,5.384,5.384,0,0,0-.5-2.818,1.47,1.47,0,0,0-1.233-.7,1.351,1.351,0,0,0-1.16.615A5.448,5.448,0,0,0,4.919-4.236Z" transform="translate(-19152 -21860)" fill="#727272"/>
      <path id="Jan-18" data-name="Jan" d="M-9.513-4.236A7.86,7.86,0,0,1-9.2-6.688a3.05,3.05,0,0,1,.932-1.433,2.382,2.382,0,0,1,1.556-.5A2.538,2.538,0,0,1-5.5-8.347a2.319,2.319,0,0,1,.861.8A4.306,4.306,0,0,1-4.1-6.267a8.487,8.487,0,0,1,.193,2.03A7.882,7.882,0,0,1-4.222-1.8,3.051,3.051,0,0,1-5.15-.36,2.382,2.382,0,0,1-6.712.146,2.357,2.357,0,0,1-8.663-.744,5.661,5.661,0,0,1-9.513-4.236Zm1.084,0a5.386,5.386,0,0,0,.5,2.815,1.459,1.459,0,0,0,1.222.7,1.458,1.458,0,0,0,1.222-.7A5.388,5.388,0,0,0-5-4.236a5.384,5.384,0,0,0-.5-2.818,1.47,1.47,0,0,0-1.233-.7,1.351,1.351,0,0,0-1.16.615A5.448,5.448,0,0,0-8.429-4.236Zm5.59,0a7.86,7.86,0,0,1,.313-2.452,3.05,3.05,0,0,1,.932-1.433,2.382,2.382,0,0,1,1.556-.5,2.538,2.538,0,0,1,1.213.278,2.319,2.319,0,0,1,.861.8,4.306,4.306,0,0,1,.533,1.277,8.487,8.487,0,0,1,.193,2.03A7.882,7.882,0,0,1,2.452-1.8,3.051,3.051,0,0,1,1.523-.36,2.382,2.382,0,0,1-.038.146,2.357,2.357,0,0,1-1.989-.744,5.661,5.661,0,0,1-2.839-4.236Zm1.084,0a5.386,5.386,0,0,0,.5,2.815,1.459,1.459,0,0,0,1.222.7,1.458,1.458,0,0,0,1.222-.7,5.388,5.388,0,0,0,.5-2.812,5.384,5.384,0,0,0-.5-2.818,1.47,1.47,0,0,0-1.233-.7,1.351,1.351,0,0,0-1.16.615A5.448,5.448,0,0,0-1.755-4.236Zm5.59,0a7.86,7.86,0,0,1,.313-2.452A3.05,3.05,0,0,1,5.08-8.121a2.382,2.382,0,0,1,1.556-.5,2.538,2.538,0,0,1,1.213.278,2.319,2.319,0,0,1,.861.8,4.306,4.306,0,0,1,.533,1.277,8.487,8.487,0,0,1,.193,2.03A7.882,7.882,0,0,1,9.126-1.8,3.051,3.051,0,0,1,8.2-.36,2.382,2.382,0,0,1,6.636.146,2.357,2.357,0,0,1,4.685-.744,5.661,5.661,0,0,1,3.835-4.236Zm1.084,0a5.386,5.386,0,0,0,.5,2.815,1.459,1.459,0,0,0,1.222.7,1.458,1.458,0,0,0,1.222-.7,5.388,5.388,0,0,0,.5-2.812,5.384,5.384,0,0,0-.5-2.818,1.47,1.47,0,0,0-1.233-.7,1.351,1.351,0,0,0-1.16.615A5.448,5.448,0,0,0,4.919-4.236Z" transform="translate(-19122 -21877)" fill="#727272"/>
      <path id="矩形_9386-2" data-name="矩形 9386" d="M5,0H15a5,5,0,0,1,5,5V160a0,0,0,0,1,0,0H0a0,0,0,0,1,0,0V5A5,5,0,0,1,5,0Z" transform="translate(-19162 -21852)" fill="#5993ff"/>
      <path id="矩形_9395-2" data-name="矩形 9395" d="M5,0H15a5,5,0,0,1,5,5V177a0,0,0,0,1,0,0H0a0,0,0,0,1,0,0V5A5,5,0,0,1,5,0Z" transform="translate(-19132 -21869)" fill="#0059ff"/>
      <path id="Jan-19" data-name="Jan" d="M-9.513-4.236A7.86,7.86,0,0,1-9.2-6.688a3.05,3.05,0,0,1,.932-1.433,2.382,2.382,0,0,1,1.556-.5A2.538,2.538,0,0,1-5.5-8.347a2.319,2.319,0,0,1,.861.8A4.306,4.306,0,0,1-4.1-6.267a8.487,8.487,0,0,1,.193,2.03A7.882,7.882,0,0,1-4.222-1.8,3.051,3.051,0,0,1-5.15-.36,2.382,2.382,0,0,1-6.712.146,2.357,2.357,0,0,1-8.663-.744,5.661,5.661,0,0,1-9.513-4.236Zm1.084,0a5.386,5.386,0,0,0,.5,2.815,1.459,1.459,0,0,0,1.222.7,1.458,1.458,0,0,0,1.222-.7A5.388,5.388,0,0,0-5-4.236a5.384,5.384,0,0,0-.5-2.818,1.47,1.47,0,0,0-1.233-.7,1.351,1.351,0,0,0-1.16.615A5.448,5.448,0,0,0-8.429-4.236Zm5.59,0a7.86,7.86,0,0,1,.313-2.452,3.05,3.05,0,0,1,.932-1.433,2.382,2.382,0,0,1,1.556-.5,2.538,2.538,0,0,1,1.213.278,2.319,2.319,0,0,1,.861.8,4.306,4.306,0,0,1,.533,1.277,8.487,8.487,0,0,1,.193,2.03A7.882,7.882,0,0,1,2.452-1.8,3.051,3.051,0,0,1,1.523-.36,2.382,2.382,0,0,1-.038.146,2.357,2.357,0,0,1-1.989-.744,5.661,5.661,0,0,1-2.839-4.236Zm1.084,0a5.386,5.386,0,0,0,.5,2.815,1.459,1.459,0,0,0,1.222.7,1.458,1.458,0,0,0,1.222-.7,5.388,5.388,0,0,0,.5-2.812,5.384,5.384,0,0,0-.5-2.818,1.47,1.47,0,0,0-1.233-.7,1.351,1.351,0,0,0-1.16.615A5.448,5.448,0,0,0-1.755-4.236Zm5.59,0a7.86,7.86,0,0,1,.313-2.452A3.05,3.05,0,0,1,5.08-8.121a2.382,2.382,0,0,1,1.556-.5,2.538,2.538,0,0,1,1.213.278,2.319,2.319,0,0,1,.861.8,4.306,4.306,0,0,1,.533,1.277,8.487,8.487,0,0,1,.193,2.03A7.882,7.882,0,0,1,9.126-1.8,3.051,3.051,0,0,1,8.2-.36,2.382,2.382,0,0,1,6.636.146,2.357,2.357,0,0,1,4.685-.744,5.661,5.661,0,0,1,3.835-4.236Zm1.084,0a5.386,5.386,0,0,0,.5,2.815,1.459,1.459,0,0,0,1.222.7,1.458,1.458,0,0,0,1.222-.7,5.388,5.388,0,0,0,.5-2.812,5.384,5.384,0,0,0-.5-2.818,1.47,1.47,0,0,0-1.233-.7,1.351,1.351,0,0,0-1.16.615A5.448,5.448,0,0,0,4.919-4.236Z" transform="translate(-19212 -21831)" fill="#727272"/>
      <path id="矩形_9388-2" data-name="矩形 9388" d="M5,0H15a5,5,0,0,1,5,5V131a0,0,0,0,1,0,0H0a0,0,0,0,1,0,0V5A5,5,0,0,1,5,0Z" transform="translate(-19222 -21823)" fill="#a1d0ff"/>
      <path id="Jan-20" data-name="Jan" d="M-9.513-4.236A7.86,7.86,0,0,1-9.2-6.688a3.05,3.05,0,0,1,.932-1.433,2.382,2.382,0,0,1,1.556-.5A2.538,2.538,0,0,1-5.5-8.347a2.319,2.319,0,0,1,.861.8A4.306,4.306,0,0,1-4.1-6.267a8.487,8.487,0,0,1,.193,2.03A7.882,7.882,0,0,1-4.222-1.8,3.051,3.051,0,0,1-5.15-.36,2.382,2.382,0,0,1-6.712.146,2.357,2.357,0,0,1-8.663-.744,5.661,5.661,0,0,1-9.513-4.236Zm1.084,0a5.386,5.386,0,0,0,.5,2.815,1.459,1.459,0,0,0,1.222.7,1.458,1.458,0,0,0,1.222-.7A5.388,5.388,0,0,0-5-4.236a5.384,5.384,0,0,0-.5-2.818,1.47,1.47,0,0,0-1.233-.7,1.351,1.351,0,0,0-1.16.615A5.448,5.448,0,0,0-8.429-4.236Zm5.59,0a7.86,7.86,0,0,1,.313-2.452,3.05,3.05,0,0,1,.932-1.433,2.382,2.382,0,0,1,1.556-.5,2.538,2.538,0,0,1,1.213.278,2.319,2.319,0,0,1,.861.8,4.306,4.306,0,0,1,.533,1.277,8.487,8.487,0,0,1,.193,2.03A7.882,7.882,0,0,1,2.452-1.8,3.051,3.051,0,0,1,1.523-.36,2.382,2.382,0,0,1-.038.146,2.357,2.357,0,0,1-1.989-.744,5.661,5.661,0,0,1-2.839-4.236Zm1.084,0a5.386,5.386,0,0,0,.5,2.815,1.459,1.459,0,0,0,1.222.7,1.458,1.458,0,0,0,1.222-.7,5.388,5.388,0,0,0,.5-2.812,5.384,5.384,0,0,0-.5-2.818,1.47,1.47,0,0,0-1.233-.7,1.351,1.351,0,0,0-1.16.615A5.448,5.448,0,0,0-1.755-4.236Zm5.59,0a7.86,7.86,0,0,1,.313-2.452A3.05,3.05,0,0,1,5.08-8.121a2.382,2.382,0,0,1,1.556-.5,2.538,2.538,0,0,1,1.213.278,2.319,2.319,0,0,1,.861.8,4.306,4.306,0,0,1,.533,1.277,8.487,8.487,0,0,1,.193,2.03A7.882,7.882,0,0,1,9.126-1.8,3.051,3.051,0,0,1,8.2-.36,2.382,2.382,0,0,1,6.636.146,2.357,2.357,0,0,1,4.685-.744,5.661,5.661,0,0,1,3.835-4.236Zm1.084,0a5.386,5.386,0,0,0,.5,2.815,1.459,1.459,0,0,0,1.222.7,1.458,1.458,0,0,0,1.222-.7,5.388,5.388,0,0,0,.5-2.812,5.384,5.384,0,0,0-.5-2.818,1.47,1.47,0,0,0-1.233-.7,1.351,1.351,0,0,0-1.16.615A5.448,5.448,0,0,0,4.919-4.236Z" transform="translate(-19182 -21844)" fill="#727272"/>
      <path id="矩形_9387-2" data-name="矩形 9387" d="M5,0H15a5,5,0,0,1,5,5V144a0,0,0,0,1,0,0H0a0,0,0,0,1,0,0V5A5,5,0,0,1,5,0Z" transform="translate(-19192 -21836)" fill="#92b8ff"/>
      <path id="Jan-21" data-name="Jan" d="M-9.513-4.236A7.86,7.86,0,0,1-9.2-6.688a3.05,3.05,0,0,1,.932-1.433,2.382,2.382,0,0,1,1.556-.5A2.538,2.538,0,0,1-5.5-8.347a2.319,2.319,0,0,1,.861.8A4.306,4.306,0,0,1-4.1-6.267a8.487,8.487,0,0,1,.193,2.03A7.882,7.882,0,0,1-4.222-1.8,3.051,3.051,0,0,1-5.15-.36,2.382,2.382,0,0,1-6.712.146,2.357,2.357,0,0,1-8.663-.744,5.661,5.661,0,0,1-9.513-4.236Zm1.084,0a5.386,5.386,0,0,0,.5,2.815,1.459,1.459,0,0,0,1.222.7,1.458,1.458,0,0,0,1.222-.7A5.388,5.388,0,0,0-5-4.236a5.384,5.384,0,0,0-.5-2.818,1.47,1.47,0,0,0-1.233-.7,1.351,1.351,0,0,0-1.16.615A5.448,5.448,0,0,0-8.429-4.236Zm5.59,0a7.86,7.86,0,0,1,.313-2.452,3.05,3.05,0,0,1,.932-1.433,2.382,2.382,0,0,1,1.556-.5,2.538,2.538,0,0,1,1.213.278,2.319,2.319,0,0,1,.861.8,4.306,4.306,0,0,1,.533,1.277,8.487,8.487,0,0,1,.193,2.03A7.882,7.882,0,0,1,2.452-1.8,3.051,3.051,0,0,1,1.523-.36,2.382,2.382,0,0,1-.038.146,2.357,2.357,0,0,1-1.989-.744,5.661,5.661,0,0,1-2.839-4.236Zm1.084,0a5.386,5.386,0,0,0,.5,2.815,1.459,1.459,0,0,0,1.222.7,1.458,1.458,0,0,0,1.222-.7,5.388,5.388,0,0,0,.5-2.812,5.384,5.384,0,0,0-.5-2.818,1.47,1.47,0,0,0-1.233-.7,1.351,1.351,0,0,0-1.16.615A5.448,5.448,0,0,0-1.755-4.236Zm5.59,0a7.86,7.86,0,0,1,.313-2.452A3.05,3.05,0,0,1,5.08-8.121a2.382,2.382,0,0,1,1.556-.5,2.538,2.538,0,0,1,1.213.278,2.319,2.319,0,0,1,.861.8,4.306,4.306,0,0,1,.533,1.277,8.487,8.487,0,0,1,.193,2.03A7.882,7.882,0,0,1,9.126-1.8,3.051,3.051,0,0,1,8.2-.36,2.382,2.382,0,0,1,6.636.146,2.357,2.357,0,0,1,4.685-.744,5.661,5.661,0,0,1,3.835-4.236Zm1.084,0a5.386,5.386,0,0,0,.5,2.815,1.459,1.459,0,0,0,1.222.7,1.458,1.458,0,0,0,1.222-.7,5.388,5.388,0,0,0,.5-2.812,5.384,5.384,0,0,0-.5-2.818,1.47,1.47,0,0,0-1.233-.7,1.351,1.351,0,0,0-1.16.615A5.448,5.448,0,0,0,4.919-4.236Z" transform="translate(-19289 -21857)" fill="#727272"/>
      <path id="矩形_9389" data-name="矩形 9389" d="M5,0H15a5,5,0,0,1,5,5V157a0,0,0,0,1,0,0H0a0,0,0,0,1,0,0V5A5,5,0,0,1,5,0Z" transform="translate(-19299 -21849)" fill="#5993ff"/>
      <path id="Jan-22" data-name="Jan" d="M-9.513-4.236A7.86,7.86,0,0,1-9.2-6.688a3.05,3.05,0,0,1,.932-1.433,2.382,2.382,0,0,1,1.556-.5A2.538,2.538,0,0,1-5.5-8.347a2.319,2.319,0,0,1,.861.8A4.306,4.306,0,0,1-4.1-6.267a8.487,8.487,0,0,1,.193,2.03A7.882,7.882,0,0,1-4.222-1.8,3.051,3.051,0,0,1-5.15-.36,2.382,2.382,0,0,1-6.712.146,2.357,2.357,0,0,1-8.663-.744,5.661,5.661,0,0,1-9.513-4.236Zm1.084,0a5.386,5.386,0,0,0,.5,2.815,1.459,1.459,0,0,0,1.222.7,1.458,1.458,0,0,0,1.222-.7A5.388,5.388,0,0,0-5-4.236a5.384,5.384,0,0,0-.5-2.818,1.47,1.47,0,0,0-1.233-.7,1.351,1.351,0,0,0-1.16.615A5.448,5.448,0,0,0-8.429-4.236Zm5.59,0a7.86,7.86,0,0,1,.313-2.452,3.05,3.05,0,0,1,.932-1.433,2.382,2.382,0,0,1,1.556-.5,2.538,2.538,0,0,1,1.213.278,2.319,2.319,0,0,1,.861.8,4.306,4.306,0,0,1,.533,1.277,8.487,8.487,0,0,1,.193,2.03A7.882,7.882,0,0,1,2.452-1.8,3.051,3.051,0,0,1,1.523-.36,2.382,2.382,0,0,1-.038.146,2.357,2.357,0,0,1-1.989-.744,5.661,5.661,0,0,1-2.839-4.236Zm1.084,0a5.386,5.386,0,0,0,.5,2.815,1.459,1.459,0,0,0,1.222.7,1.458,1.458,0,0,0,1.222-.7,5.388,5.388,0,0,0,.5-2.812,5.384,5.384,0,0,0-.5-2.818,1.47,1.47,0,0,0-1.233-.7,1.351,1.351,0,0,0-1.16.615A5.448,5.448,0,0,0-1.755-4.236Zm5.59,0a7.86,7.86,0,0,1,.313-2.452A3.05,3.05,0,0,1,5.08-8.121a2.382,2.382,0,0,1,1.556-.5,2.538,2.538,0,0,1,1.213.278,2.319,2.319,0,0,1,.861.8,4.306,4.306,0,0,1,.533,1.277,8.487,8.487,0,0,1,.193,2.03A7.882,7.882,0,0,1,9.126-1.8,3.051,3.051,0,0,1,8.2-.36,2.382,2.382,0,0,1,6.636.146,2.357,2.357,0,0,1,4.685-.744,5.661,5.661,0,0,1,3.835-4.236Zm1.084,0a5.386,5.386,0,0,0,.5,2.815,1.459,1.459,0,0,0,1.222.7,1.458,1.458,0,0,0,1.222-.7,5.388,5.388,0,0,0,.5-2.812,5.384,5.384,0,0,0-.5-2.818,1.47,1.47,0,0,0-1.233-.7,1.351,1.351,0,0,0-1.16.615A5.448,5.448,0,0,0,4.919-4.236Z" transform="translate(-19349 -21829)" fill="#727272"/>
      <path id="矩形_9391" data-name="矩形 9391" d="M5,0H15a5,5,0,0,1,5,5V129a0,0,0,0,1,0,0H0a0,0,0,0,1,0,0V5A5,5,0,0,1,5,0Z" transform="translate(-19359 -21821)" fill="#a1d0ff"/>
      <path id="Jan-23" data-name="Jan" d="M-9.513-4.236A7.86,7.86,0,0,1-9.2-6.688a3.05,3.05,0,0,1,.932-1.433,2.382,2.382,0,0,1,1.556-.5A2.538,2.538,0,0,1-5.5-8.347a2.319,2.319,0,0,1,.861.8A4.306,4.306,0,0,1-4.1-6.267a8.487,8.487,0,0,1,.193,2.03A7.882,7.882,0,0,1-4.222-1.8,3.051,3.051,0,0,1-5.15-.36,2.382,2.382,0,0,1-6.712.146,2.357,2.357,0,0,1-8.663-.744,5.661,5.661,0,0,1-9.513-4.236Zm1.084,0a5.386,5.386,0,0,0,.5,2.815,1.459,1.459,0,0,0,1.222.7,1.458,1.458,0,0,0,1.222-.7A5.388,5.388,0,0,0-5-4.236a5.384,5.384,0,0,0-.5-2.818,1.47,1.47,0,0,0-1.233-.7,1.351,1.351,0,0,0-1.16.615A5.448,5.448,0,0,0-8.429-4.236Zm5.59,0a7.86,7.86,0,0,1,.313-2.452,3.05,3.05,0,0,1,.932-1.433,2.382,2.382,0,0,1,1.556-.5,2.538,2.538,0,0,1,1.213.278,2.319,2.319,0,0,1,.861.8,4.306,4.306,0,0,1,.533,1.277,8.487,8.487,0,0,1,.193,2.03A7.882,7.882,0,0,1,2.452-1.8,3.051,3.051,0,0,1,1.523-.36,2.382,2.382,0,0,1-.038.146,2.357,2.357,0,0,1-1.989-.744,5.661,5.661,0,0,1-2.839-4.236Zm1.084,0a5.386,5.386,0,0,0,.5,2.815,1.459,1.459,0,0,0,1.222.7,1.458,1.458,0,0,0,1.222-.7,5.388,5.388,0,0,0,.5-2.812,5.384,5.384,0,0,0-.5-2.818,1.47,1.47,0,0,0-1.233-.7,1.351,1.351,0,0,0-1.16.615A5.448,5.448,0,0,0-1.755-4.236Zm5.59,0a7.86,7.86,0,0,1,.313-2.452A3.05,3.05,0,0,1,5.08-8.121a2.382,2.382,0,0,1,1.556-.5,2.538,2.538,0,0,1,1.213.278,2.319,2.319,0,0,1,.861.8,4.306,4.306,0,0,1,.533,1.277,8.487,8.487,0,0,1,.193,2.03A7.882,7.882,0,0,1,9.126-1.8,3.051,3.051,0,0,1,8.2-.36,2.382,2.382,0,0,1,6.636.146,2.357,2.357,0,0,1,4.685-.744,5.661,5.661,0,0,1,3.835-4.236Zm1.084,0a5.386,5.386,0,0,0,.5,2.815,1.459,1.459,0,0,0,1.222.7,1.458,1.458,0,0,0,1.222-.7,5.388,5.388,0,0,0,.5-2.812,5.384,5.384,0,0,0-.5-2.818,1.47,1.47,0,0,0-1.233-.7,1.351,1.351,0,0,0-1.16.615A5.448,5.448,0,0,0,4.919-4.236Z" transform="translate(-19319 -21842)" fill="#727272"/>
      <path id="矩形_9390" data-name="矩形 9390" d="M5,0H15a5,5,0,0,1,5,5V142a0,0,0,0,1,0,0H0a0,0,0,0,1,0,0V5A5,5,0,0,1,5,0Z" transform="translate(-19329 -21834)" fill="#92b8ff"/>
    </g>
  </g>
</svg>
