<svg xmlns="http://www.w3.org/2000/svg" width="770.518" height="286" viewBox="0 0 770.518 286">
  <g id="组_13848" data-name="组 13848" transform="translate(-179.982 -1294)">
    <path id="直线_762" data-name="直线 762" d="M770,.5H0v-1H770Z" transform="translate(180.5 1579.5)" fill="#acb8cf"/>
    <path id="矩形_9261" data-name="矩形 9261" d="M5,0H45a5,5,0,0,1,5,5V170a0,0,0,0,1,0,0H0a0,0,0,0,1,0,0V5A5,5,0,0,1,5,0Z" transform="translate(235 1410)" fill="#c6deff"/>
    <path id="矩形_9266" data-name="矩形 9266" d="M5,0H45a5,5,0,0,1,5,5V140a0,0,0,0,1,0,0H0a0,0,0,0,1,0,0V5A5,5,0,0,1,5,0Z" transform="translate(337 1439)" fill="#9bbeff"/>
    <path id="矩形_9271" data-name="矩形 9271" d="M5,0H45a5,5,0,0,1,5,5V125a0,0,0,0,1,0,0H0a0,0,0,0,1,0,0V5A5,5,0,0,1,5,0Z" transform="translate(743 1454)" fill="#5993ff"/>
    <path id="矩形_9267" data-name="矩形 9267" d="M5,0H45a5,5,0,0,1,5,5V140a0,0,0,0,1,0,0H0a0,0,0,0,1,0,0V5A5,5,0,0,1,5,0Z" transform="translate(541 1439)" fill="#72aeff"/>
    <path id="矩形_9268" data-name="矩形 9268" d="M5,0H45a5,5,0,0,1,5,5V120a0,0,0,0,1,0,0H0a0,0,0,0,1,0,0V5A5,5,0,0,1,5,0Z" transform="translate(846 1459)" fill="#1763f7"/>
    <path id="路径_19484" data-name="路径 19484" d="M.664-6a9.449,9.449,0,0,1,.411-3.075,3.816,3.816,0,0,1,1.223-1.8A3.222,3.222,0,0,1,4.339-11.5a3.458,3.458,0,0,1,1.592.349,2.993,2.993,0,0,1,1.13,1.007,5.274,5.274,0,0,1,.7,1.6A10.189,10.189,0,0,1,8.015-6a9.475,9.475,0,0,1-.408,3.06,3.816,3.816,0,0,1-1.219,1.8A3.222,3.222,0,0,1,4.339-.5,3.153,3.153,0,0,1,1.779-1.617,6.86,6.86,0,0,1,.664-6ZM2.087-6a6.5,6.5,0,0,0,.65,3.531,1.935,1.935,0,0,0,1.6.878,1.933,1.933,0,0,0,1.6-.882A6.5,6.5,0,0,0,6.592-6a6.5,6.5,0,0,0-.65-3.534,1.95,1.95,0,0,0-1.619-.874A1.8,1.8,0,0,0,2.8-9.634,6.577,6.577,0,0,0,2.087-6ZM9.422-6a9.449,9.449,0,0,1,.411-3.075,3.816,3.816,0,0,1,1.223-1.8A3.222,3.222,0,0,1,13.1-11.5a3.458,3.458,0,0,1,1.592.349,2.993,2.993,0,0,1,1.13,1.007,5.274,5.274,0,0,1,.7,1.6A10.188,10.188,0,0,1,16.773-6a9.475,9.475,0,0,1-.408,3.06,3.816,3.816,0,0,1-1.219,1.8A3.222,3.222,0,0,1,13.1-.5a3.153,3.153,0,0,1-2.561-1.117A6.86,6.86,0,0,1,9.422-6Zm1.423,0a6.5,6.5,0,0,0,.65,3.531,1.935,1.935,0,0,0,1.6.878,1.933,1.933,0,0,0,1.6-.882A6.5,6.5,0,0,0,15.35-6a6.5,6.5,0,0,0-.65-3.534,1.95,1.95,0,0,0-1.619-.874,1.8,1.8,0,0,0-1.522.772A6.577,6.577,0,0,0,10.845-6ZM18.957-.684V-2.19h1.576V-.684ZM22.555-6a9.449,9.449,0,0,1,.411-3.075,3.816,3.816,0,0,1,1.223-1.8,3.222,3.222,0,0,1,2.041-.632,3.458,3.458,0,0,1,1.592.349,2.993,2.993,0,0,1,1.13,1.007,5.274,5.274,0,0,1,.7,1.6A10.188,10.188,0,0,1,29.906-6a9.475,9.475,0,0,1-.408,3.06,3.816,3.816,0,0,1-1.219,1.8A3.222,3.222,0,0,1,26.231-.5,3.153,3.153,0,0,1,23.67-1.617,6.86,6.86,0,0,1,22.555-6Zm1.423,0a6.5,6.5,0,0,0,.65,3.531,1.935,1.935,0,0,0,1.6.878,1.933,1.933,0,0,0,1.6-.882A6.5,6.5,0,0,0,28.484-6a6.5,6.5,0,0,0-.65-3.534,1.95,1.95,0,0,0-1.619-.874,1.8,1.8,0,0,0-1.522.772A6.577,6.577,0,0,0,23.978-6Zm7.335,0a9.449,9.449,0,0,1,.411-3.075,3.816,3.816,0,0,1,1.223-1.8,3.222,3.222,0,0,1,2.041-.632,3.458,3.458,0,0,1,1.592.349,2.993,2.993,0,0,1,1.13,1.007,5.274,5.274,0,0,1,.7,1.6A10.188,10.188,0,0,1,38.664-6a9.475,9.475,0,0,1-.408,3.06,3.816,3.816,0,0,1-1.219,1.8A3.222,3.222,0,0,1,34.989-.5a3.153,3.153,0,0,1-2.561-1.117A6.86,6.86,0,0,1,31.313-6Zm1.423,0a6.5,6.5,0,0,0,.65,3.531,1.935,1.935,0,0,0,1.6.878,1.933,1.933,0,0,0,1.6-.882A6.5,6.5,0,0,0,37.242-6a6.5,6.5,0,0,0-.65-3.534,1.95,1.95,0,0,0-1.619-.874,1.8,1.8,0,0,0-1.522.772A6.577,6.577,0,0,0,32.736-6Z" transform="translate(240 1404.729)"/>
    <path id="路径_19481" data-name="路径 19481" d="M-.018,0l3.3-8.59H4.506L8.021,0H6.727l-1-2.6H2.133L1.189,0ZM2.461-3.527H5.373l-.9-2.379q-.41-1.084-.609-1.781A10.95,10.95,0,0,1,3.4-6.047Zm5.924.949V-3.639h3.24v1.061ZM12.926,0V-8.59h3.24a7.823,7.823,0,0,1,1.307.082,2.588,2.588,0,0,1,1.061.4,2.106,2.106,0,0,1,.688.829,2.631,2.631,0,0,1,.261,1.172,2.641,2.641,0,0,1-.7,1.854,3.345,3.345,0,0,1-2.52.759h-2.2V0Zm1.137-4.506h2.221a2.355,2.355,0,0,0,1.564-.41,1.461,1.461,0,0,0,.463-1.154,1.553,1.553,0,0,0-.272-.923A1.274,1.274,0,0,0,17.32-7.5a4.857,4.857,0,0,0-1.061-.076h-2.2ZM20.783,0V-6.223h.949v.943a2.574,2.574,0,0,1,.671-.873,1.171,1.171,0,0,1,.677-.211,2.057,2.057,0,0,1,1.084.34l-.363.979a1.509,1.509,0,0,0-.773-.229,1,1,0,0,0-.621.208,1.127,1.127,0,0,0-.393.577,4.108,4.108,0,0,0-.176,1.23V0ZM24.8-7.377V-8.59h1.055v1.213ZM24.8,0V-6.223h1.055V0Zm6.721-2.279,1.037.135a2.69,2.69,0,0,1-.87,1.679,2.535,2.535,0,0,1-1.72.606,2.672,2.672,0,0,1-2.054-.835,3.388,3.388,0,0,1-.776-2.394,4.331,4.331,0,0,1,.334-1.764,2.329,2.329,0,0,1,1.017-1.134,3.016,3.016,0,0,1,1.485-.378,2.582,2.582,0,0,1,1.658.513,2.351,2.351,0,0,1,.826,1.456l-1.025.158a1.7,1.7,0,0,0-.519-.943,1.342,1.342,0,0,0-.9-.316,1.637,1.637,0,0,0-1.295.571,2.712,2.712,0,0,0-.5,1.808,2.8,2.8,0,0,0,.48,1.822,1.564,1.564,0,0,0,1.254.568,1.478,1.478,0,0,0,1.037-.381A1.89,1.89,0,0,0,31.518-2.279Zm6.2.275,1.09.135a2.659,2.659,0,0,1-.955,1.482A2.871,2.871,0,0,1,36.07.141,2.846,2.846,0,0,1,33.905-.7a3.285,3.285,0,0,1-.8-2.358A3.438,3.438,0,0,1,33.914-5.5a2.737,2.737,0,0,1,2.1-.867,2.66,2.66,0,0,1,2.039.85,3.376,3.376,0,0,1,.791,2.391q0,.094-.006.281H34.2a2.391,2.391,0,0,0,.58,1.57,1.727,1.727,0,0,0,1.3.545,1.614,1.614,0,0,0,.99-.3A2.023,2.023,0,0,0,37.717-2ZM34.254-3.709h3.475a2.108,2.108,0,0,0-.4-1.178A1.616,1.616,0,0,0,36.023-5.5,1.675,1.675,0,0,0,34.8-5.01,1.925,1.925,0,0,0,34.254-3.709Zm6.17-1.312v-1.2h1.2v1.2Zm0,5.021V-1.2h1.2V0Zm6.527,0V-8.59H50.76a5.069,5.069,0,0,1,1.746.231,1.909,1.909,0,0,1,.955.817,2.439,2.439,0,0,1,.357,1.295,2.16,2.16,0,0,1-.592,1.541,3,3,0,0,1-1.828.8,2.948,2.948,0,0,1,.686.428,5.906,5.906,0,0,1,.943,1.143L54.521,0h-1.43L51.955-1.787q-.5-.773-.82-1.184a2.579,2.579,0,0,0-.577-.574,1.706,1.706,0,0,0-.519-.229,3.415,3.415,0,0,0-.633-.041H48.088V0Zm1.137-4.8h2.443A3.664,3.664,0,0,0,51.75-4.96a1.3,1.3,0,0,0,.668-.516,1.4,1.4,0,0,0,.229-.771,1.28,1.28,0,0,0-.442-1,2.07,2.07,0,0,0-1.4-.393H48.088ZM55.564,0V-8.59h1.711l2.033,6.082q.281.85.41,1.271.146-.469.457-1.377L62.232-8.59h1.529V0h-1.1V-7.189L60.17,0H59.145L56.66-7.312V0Zm9.984,0V-8.59h3.223a3.989,3.989,0,0,1,1.579.261,2.03,2.03,0,0,1,.932.8,2.116,2.116,0,0,1,.337,1.134,1.948,1.948,0,0,1-.3,1.037,2.134,2.134,0,0,1-.9.785,2.244,2.244,0,0,1,1.2.779,2.087,2.087,0,0,1,.419,1.3,2.509,2.509,0,0,1-.255,1.122,2.172,2.172,0,0,1-.63.8,2.629,2.629,0,0,1-.94.425A5.72,5.72,0,0,1,68.824,0Zm1.137-4.98h1.857a4.145,4.145,0,0,0,1.084-.1,1.2,1.2,0,0,0,.653-.428,1.232,1.232,0,0,0,.22-.75,1.381,1.381,0,0,0-.205-.753,1.038,1.038,0,0,0-.586-.445,4.894,4.894,0,0,0-1.307-.12H66.686Zm0,3.967h2.139a4.923,4.923,0,0,0,.773-.041,1.853,1.853,0,0,0,.656-.234,1.244,1.244,0,0,0,.434-.478,1.5,1.5,0,0,0,.17-.724,1.427,1.427,0,0,0-.246-.835,1.3,1.3,0,0,0-.683-.5,4.232,4.232,0,0,0-1.257-.144H66.686Z" transform="translate(180 1312.59)" fill="#727272"/>
    <path id="路径_19480" data-name="路径 19480" d="M.879,0V-8.59H2.016v7.576h4.23V0ZM8.895,0V-7.576H6.064V-8.59h6.809v1.014H10.031V0ZM20.168-3.012l1.137.287A3.826,3.826,0,0,1,20.019-.589a3.544,3.544,0,0,1-2.271.735,4.08,4.08,0,0,1-2.259-.565,3.531,3.531,0,0,1-1.324-1.638,5.843,5.843,0,0,1-.454-2.3A5.062,5.062,0,0,1,14.224-6.7a3.513,3.513,0,0,1,1.459-1.518,4.263,4.263,0,0,1,2.083-.519,3.521,3.521,0,0,1,2.168.656,3.408,3.408,0,0,1,1.225,1.846l-1.119.264a2.655,2.655,0,0,0-.867-1.365,2.311,2.311,0,0,0-1.43-.428,2.777,2.777,0,0,0-1.655.475,2.506,2.506,0,0,0-.935,1.274,5.131,5.131,0,0,0-.27,1.649A5.242,5.242,0,0,0,15.2-2.452,2.379,2.379,0,0,0,16.2-1.23a2.785,2.785,0,0,0,1.459.4,2.445,2.445,0,0,0,1.617-.551A2.819,2.819,0,0,0,20.168-3.012Z" transform="translate(685 1303)"/>
    <path id="路径_19477" data-name="路径 19477" d="M.943,0V-8.59H4.752A5.069,5.069,0,0,1,6.5-8.358a1.909,1.909,0,0,1,.955.817,2.439,2.439,0,0,1,.357,1.295,2.16,2.16,0,0,1-.592,1.541,3,3,0,0,1-1.828.8,2.948,2.948,0,0,1,.686.428A5.906,5.906,0,0,1,7.02-2.338L8.514,0H7.084L5.947-1.787q-.5-.773-.82-1.184a2.579,2.579,0,0,0-.577-.574,1.706,1.706,0,0,0-.519-.229A3.415,3.415,0,0,0,3.4-3.814H2.08V0ZM2.08-4.8H4.523A3.664,3.664,0,0,0,5.742-4.96a1.3,1.3,0,0,0,.668-.516,1.4,1.4,0,0,0,.229-.771,1.28,1.28,0,0,0-.442-1,2.07,2.07,0,0,0-1.4-.393H2.08ZM13.717-2l1.09.135a2.659,2.659,0,0,1-.955,1.482A2.871,2.871,0,0,1,12.07.141,2.846,2.846,0,0,1,9.905-.7a3.285,3.285,0,0,1-.8-2.358A3.438,3.438,0,0,1,9.914-5.5a2.737,2.737,0,0,1,2.1-.867,2.66,2.66,0,0,1,2.039.85,3.376,3.376,0,0,1,.791,2.391q0,.094-.006.281H10.2a2.391,2.391,0,0,0,.58,1.57,1.727,1.727,0,0,0,1.3.545,1.614,1.614,0,0,0,.99-.3A2.023,2.023,0,0,0,13.717-2ZM10.254-3.709h3.475a2.108,2.108,0,0,0-.4-1.178A1.616,1.616,0,0,0,12.023-5.5,1.675,1.675,0,0,0,10.8-5.01,1.925,1.925,0,0,0,10.254-3.709ZM16.131,0V-6.223h.943v.873a2.218,2.218,0,0,1,.779-.735,2.189,2.189,0,0,1,1.107-.278,2.047,2.047,0,0,1,1.134.287,1.537,1.537,0,0,1,.624.8,2.234,2.234,0,0,1,1.922-1.09,1.894,1.894,0,0,1,1.424.513,2.191,2.191,0,0,1,.5,1.579V0H23.514V-3.92a2.886,2.886,0,0,0-.1-.911.883.883,0,0,0-.372-.448,1.161,1.161,0,0,0-.633-.17,1.473,1.473,0,0,0-1.09.437,1.923,1.923,0,0,0-.434,1.4V0H19.828V-4.043A1.779,1.779,0,0,0,19.57-5.1a.976.976,0,0,0-.844-.352,1.533,1.533,0,0,0-.823.234,1.329,1.329,0,0,0-.548.686,3.859,3.859,0,0,0-.17,1.3V0ZM30.188-.768a3.927,3.927,0,0,1-1.128.7A3.259,3.259,0,0,1,27.9.141a2.262,2.262,0,0,1-1.576-.5,1.654,1.654,0,0,1-.551-1.28,1.7,1.7,0,0,1,.208-.835,1.722,1.722,0,0,1,.545-.606,2.562,2.562,0,0,1,.759-.346,7.536,7.536,0,0,1,.938-.158A9.64,9.64,0,0,0,30.1-3.949q.006-.217.006-.275a1.164,1.164,0,0,0-.3-.908,1.765,1.765,0,0,0-1.2-.357,1.863,1.863,0,0,0-1.1.261,1.593,1.593,0,0,0-.524.923l-1.031-.141a2.555,2.555,0,0,1,.463-1.069,2.029,2.029,0,0,1,.932-.627,4.155,4.155,0,0,1,1.412-.22,3.738,3.738,0,0,1,1.295.188,1.706,1.706,0,0,1,.732.472,1.659,1.659,0,0,1,.328.718,5.938,5.938,0,0,1,.053.973v1.406a14.926,14.926,0,0,0,.067,1.86A2.347,2.347,0,0,0,31.5,0H30.4A2.236,2.236,0,0,1,30.188-.768ZM30.1-3.123a7.738,7.738,0,0,1-1.723.4,3.985,3.985,0,0,0-.92.211.917.917,0,0,0-.416.343.9.9,0,0,0-.146.5.9.9,0,0,0,.319.7,1.374,1.374,0,0,0,.935.281,2.175,2.175,0,0,0,1.084-.267,1.642,1.642,0,0,0,.7-.729,2.548,2.548,0,0,0,.17-1.055Zm2.707-4.254V-8.59h1.055v1.213Zm0,7.377V-6.223h1.055V0Zm2.66,0V-6.223h.949v.885A2.237,2.237,0,0,1,38.4-6.363a2.6,2.6,0,0,1,1.034.2,1.627,1.627,0,0,1,.706.53,2.035,2.035,0,0,1,.328.779,6.039,6.039,0,0,1,.059,1.025V0H39.469V-3.785a2.841,2.841,0,0,0-.123-.964,1.014,1.014,0,0,0-.437-.51,1.389,1.389,0,0,0-.735-.19,1.709,1.709,0,0,0-1.163.428A2.11,2.11,0,0,0,36.521-3.4V0ZM45.609,0V-8.59h3.24a7.823,7.823,0,0,1,1.307.082,2.588,2.588,0,0,1,1.061.4,2.106,2.106,0,0,1,.688.829,2.631,2.631,0,0,1,.261,1.172,2.641,2.641,0,0,1-.7,1.854,3.345,3.345,0,0,1-2.52.759h-2.2V0Zm1.137-4.506h2.221a2.355,2.355,0,0,0,1.564-.41,1.461,1.461,0,0,0,.463-1.154,1.553,1.553,0,0,0-.272-.923A1.274,1.274,0,0,0,50-7.5a4.857,4.857,0,0,0-1.061-.076h-2.2Zm6.34,1.395a3.207,3.207,0,0,1,.961-2.561A2.9,2.9,0,0,1,56-6.363a2.792,2.792,0,0,1,2.1.841A3.2,3.2,0,0,1,58.916-3.2a4.117,4.117,0,0,1-.36,1.89A2.551,2.551,0,0,1,57.507-.24,3.054,3.054,0,0,1,56,.141,2.8,2.8,0,0,1,53.892-.7,3.347,3.347,0,0,1,53.086-3.111Zm1.084,0a2.65,2.65,0,0,0,.521,1.79A1.672,1.672,0,0,0,56-.727a1.662,1.662,0,0,0,1.307-.6,2.713,2.713,0,0,0,.521-1.822A2.571,2.571,0,0,0,57.308-4.9,1.668,1.668,0,0,0,56-5.49a1.675,1.675,0,0,0-1.312.592A2.639,2.639,0,0,0,54.17-3.111ZM62.455-.943l.152.932a3.912,3.912,0,0,1-.8.094A1.8,1.8,0,0,1,60.92-.1a1.017,1.017,0,0,1-.445-.478,3.776,3.776,0,0,1-.129-1.245V-5.4h-.773v-.82h.773V-7.764L61.395-8.4v2.174h1.061v.82H61.395v3.639a1.838,1.838,0,0,0,.056.58.439.439,0,0,0,.182.205.7.7,0,0,0,.36.076A3.431,3.431,0,0,0,62.455-.943ZM67.746-2l1.09.135a2.659,2.659,0,0,1-.955,1.482A2.871,2.871,0,0,1,66.1.141,2.846,2.846,0,0,1,63.935-.7a3.285,3.285,0,0,1-.8-2.358A3.438,3.438,0,0,1,63.943-5.5a2.737,2.737,0,0,1,2.1-.867,2.66,2.66,0,0,1,2.039.85,3.376,3.376,0,0,1,.791,2.391q0,.094-.006.281H64.225a2.391,2.391,0,0,0,.58,1.57,1.727,1.727,0,0,0,1.3.545,1.614,1.614,0,0,0,.99-.3A2.023,2.023,0,0,0,67.746-2ZM64.283-3.709h3.475a2.108,2.108,0,0,0-.4-1.178A1.616,1.616,0,0,0,66.053-5.5a1.675,1.675,0,0,0-1.222.486A1.925,1.925,0,0,0,64.283-3.709ZM70.16,0V-6.223h.949v.885a2.237,2.237,0,0,1,1.98-1.025,2.6,2.6,0,0,1,1.034.2,1.627,1.627,0,0,1,.706.53,2.035,2.035,0,0,1,.328.779,6.039,6.039,0,0,1,.059,1.025V0H74.162V-3.785a2.841,2.841,0,0,0-.123-.964,1.014,1.014,0,0,0-.437-.51,1.389,1.389,0,0,0-.735-.19,1.709,1.709,0,0,0-1.163.428A2.11,2.11,0,0,0,71.215-3.4V0Zm8.977-.943.152.932a3.912,3.912,0,0,1-.8.094A1.8,1.8,0,0,1,77.6-.1a1.017,1.017,0,0,1-.445-.478,3.776,3.776,0,0,1-.129-1.245V-5.4h-.773v-.82h.773V-7.764L78.076-8.4v2.174h1.061v.82H78.076v3.639a1.838,1.838,0,0,0,.056.58.439.439,0,0,0,.182.205.7.7,0,0,0,.36.076A3.431,3.431,0,0,0,79.137-.943Zm1.037-6.434V-8.59h1.055v1.213Zm0,7.377V-6.223h1.055V0Zm6.721-.768a3.927,3.927,0,0,1-1.128.7A3.259,3.259,0,0,1,84.6.141a2.262,2.262,0,0,1-1.576-.5,1.654,1.654,0,0,1-.551-1.28,1.7,1.7,0,0,1,.208-.835,1.722,1.722,0,0,1,.545-.606,2.562,2.562,0,0,1,.759-.346,7.536,7.536,0,0,1,.938-.158,9.64,9.64,0,0,0,1.881-.363q.006-.217.006-.275a1.164,1.164,0,0,0-.3-.908,1.765,1.765,0,0,0-1.2-.357,1.863,1.863,0,0,0-1.1.261,1.593,1.593,0,0,0-.524.923l-1.031-.141a2.555,2.555,0,0,1,.463-1.069,2.029,2.029,0,0,1,.932-.627,4.155,4.155,0,0,1,1.412-.22,3.738,3.738,0,0,1,1.295.188,1.706,1.706,0,0,1,.732.472,1.659,1.659,0,0,1,.328.718,5.938,5.938,0,0,1,.053.973v1.406a14.926,14.926,0,0,0,.067,1.86A2.347,2.347,0,0,0,88.207,0h-1.1A2.236,2.236,0,0,1,86.895-.768Zm-.088-2.355a7.738,7.738,0,0,1-1.723.4,3.985,3.985,0,0,0-.92.211.917.917,0,0,0-.416.343.9.9,0,0,0-.146.5.9.9,0,0,0,.319.7,1.374,1.374,0,0,0,.935.281,2.175,2.175,0,0,0,1.084-.267,1.642,1.642,0,0,0,.7-.729,2.548,2.548,0,0,0,.17-1.055ZM89.484,0V-8.59h1.055V0Z" transform="translate(742 1303)"/>
    <path id="路径_19478" data-name="路径 19478" d="M.879,0V-8.59H2.016v4.26L6.281-8.59H7.822l-3.6,3.48L7.98,0H6.48L3.422-4.348,2.016-2.977V0Zm8,0V-8.59H10.02v7.576h4.23V0Zm6.334-2.76,1.072-.094A2.368,2.368,0,0,0,16.644-1.8a1.935,1.935,0,0,0,.864.668,3.273,3.273,0,0,0,1.318.255,3.159,3.159,0,0,0,1.148-.193,1.593,1.593,0,0,0,.741-.53,1.23,1.23,0,0,0,.243-.735,1.118,1.118,0,0,0-.234-.706,1.736,1.736,0,0,0-.773-.507,15.117,15.117,0,0,0-1.529-.419A7.814,7.814,0,0,1,16.764-4.5a2.325,2.325,0,0,1-.917-.8,1.96,1.96,0,0,1-.3-1.069,2.183,2.183,0,0,1,.369-1.216,2.286,2.286,0,0,1,1.078-.858,4.09,4.09,0,0,1,1.576-.293,4.306,4.306,0,0,1,1.685.308,2.43,2.43,0,0,1,1.122.905A2.6,2.6,0,0,1,21.8-6.17l-1.09.082a1.758,1.758,0,0,0-.595-1.23,2.315,2.315,0,0,0-1.5-.416,2.4,2.4,0,0,0-1.5.378,1.133,1.133,0,0,0-.472.911.977.977,0,0,0,.334.762,4.526,4.526,0,0,0,1.714.612,11.336,11.336,0,0,1,1.9.548,2.6,2.6,0,0,1,1.107.876,2.134,2.134,0,0,1,.357,1.222,2.336,2.336,0,0,1-.393,1.292,2.585,2.585,0,0,1-1.128.943,3.93,3.93,0,0,1-1.655.337,4.942,4.942,0,0,1-1.954-.34,2.737,2.737,0,0,1-1.236-1.022A2.9,2.9,0,0,1,15.217-2.76Z" transform="translate(868 1303)"/>
    <path id="路径_19479" data-name="路径 19479" d="M.879,0V-8.59H2.016v4.26L6.281-8.59H7.822l-3.6,3.48L7.98,0H6.48L3.422-4.348,2.016-2.977V0Zm12.07-3.369V-4.377l3.639-.006V-1.2a6.425,6.425,0,0,1-1.729,1,5.127,5.127,0,0,1-1.828.337,4.878,4.878,0,0,1-2.3-.542A3.583,3.583,0,0,1,9.17-1.963a4.935,4.935,0,0,1-.527-2.291,5.316,5.316,0,0,1,.524-2.341,3.488,3.488,0,0,1,1.509-1.614,4.728,4.728,0,0,1,2.268-.527,4.493,4.493,0,0,1,1.685.3,2.793,2.793,0,0,1,1.181.841,3.73,3.73,0,0,1,.65,1.406l-1.025.281a3.174,3.174,0,0,0-.48-1.031,1.971,1.971,0,0,0-.82-.6,3.008,3.008,0,0,0-1.184-.226,3.485,3.485,0,0,0-1.348.237,2.515,2.515,0,0,0-.917.624,2.976,2.976,0,0,0-.542.85,4.5,4.5,0,0,0-.328,1.729,4.194,4.194,0,0,0,.4,1.922,2.531,2.531,0,0,0,1.151,1.148,3.565,3.565,0,0,0,1.605.375,3.814,3.814,0,0,0,1.441-.284,3.72,3.72,0,0,0,1.066-.606v-1.6ZM18.322,0V-8.59h5.795v1.014H19.459v2.66H23.49V-3.9H19.459V0Z" transform="translate(926 1303)"/>
    <path id="路径_19482" data-name="路径 19482" d="M.926,0V-8.59h3.24a7.823,7.823,0,0,1,1.307.082,2.588,2.588,0,0,1,1.061.4,2.106,2.106,0,0,1,.688.829,2.631,2.631,0,0,1,.261,1.172,2.641,2.641,0,0,1-.7,1.854,3.345,3.345,0,0,1-2.52.759h-2.2V0ZM2.063-4.506H4.283a2.355,2.355,0,0,0,1.564-.41A1.461,1.461,0,0,0,6.311-6.07a1.553,1.553,0,0,0-.272-.923A1.274,1.274,0,0,0,5.32-7.5,4.857,4.857,0,0,0,4.26-7.576h-2.2ZM13.055-2l1.09.135a2.659,2.659,0,0,1-.955,1.482,2.871,2.871,0,0,1-1.781.527A2.846,2.846,0,0,1,9.243-.7a3.285,3.285,0,0,1-.8-2.358A3.438,3.438,0,0,1,9.252-5.5a2.737,2.737,0,0,1,2.1-.867,2.66,2.66,0,0,1,2.039.85,3.376,3.376,0,0,1,.791,2.391q0,.094-.006.281H9.533a2.391,2.391,0,0,0,.58,1.57,1.727,1.727,0,0,0,1.3.545,1.614,1.614,0,0,0,.99-.3A2.023,2.023,0,0,0,13.055-2ZM9.592-3.709h3.475a2.108,2.108,0,0,0-.4-1.178A1.616,1.616,0,0,0,11.361-5.5a1.675,1.675,0,0,0-1.222.486A1.925,1.925,0,0,0,9.592-3.709ZM15.457,0V-6.223h.949v.943a2.574,2.574,0,0,1,.671-.873,1.171,1.171,0,0,1,.677-.211,2.057,2.057,0,0,1,1.084.34l-.363.979a1.509,1.509,0,0,0-.773-.229,1,1,0,0,0-.621.208,1.127,1.127,0,0,0-.393.577,4.108,4.108,0,0,0-.176,1.23V0Zm7.477,0V-8.59h3.24a7.823,7.823,0,0,1,1.307.082,2.588,2.588,0,0,1,1.061.4,2.106,2.106,0,0,1,.688.829,2.631,2.631,0,0,1,.261,1.172,2.641,2.641,0,0,1-.7,1.854,3.345,3.345,0,0,1-2.52.759h-2.2V0ZM24.07-4.506h2.221a2.355,2.355,0,0,0,1.564-.41,1.461,1.461,0,0,0,.463-1.154,1.553,1.553,0,0,0-.272-.923,1.274,1.274,0,0,0-.718-.507,4.857,4.857,0,0,0-1.061-.076h-2.2ZM30.791,0V-6.223h.949v.943a2.574,2.574,0,0,1,.671-.873,1.171,1.171,0,0,1,.677-.211,2.057,2.057,0,0,1,1.084.34l-.363.979a1.509,1.509,0,0,0-.773-.229,1,1,0,0,0-.621.208,1.127,1.127,0,0,0-.393.577,4.108,4.108,0,0,0-.176,1.23V0ZM34.8-7.377V-8.59h1.055v1.213ZM34.8,0V-6.223h1.055V0Zm6.721-2.279,1.037.135a2.69,2.69,0,0,1-.87,1.679,2.535,2.535,0,0,1-1.72.606,2.672,2.672,0,0,1-2.054-.835,3.388,3.388,0,0,1-.776-2.394,4.331,4.331,0,0,1,.334-1.764,2.329,2.329,0,0,1,1.017-1.134,3.016,3.016,0,0,1,1.485-.378,2.582,2.582,0,0,1,1.658.513,2.351,2.351,0,0,1,.826,1.456l-1.025.158a1.7,1.7,0,0,0-.519-.943,1.342,1.342,0,0,0-.9-.316,1.637,1.637,0,0,0-1.295.571,2.712,2.712,0,0,0-.5,1.808,2.8,2.8,0,0,0,.48,1.822,1.564,1.564,0,0,0,1.254.568A1.478,1.478,0,0,0,41-1.107,1.89,1.89,0,0,0,41.525-2.279Zm6.2.275,1.09.135a2.659,2.659,0,0,1-.955,1.482,2.871,2.871,0,0,1-1.781.527A2.846,2.846,0,0,1,43.913-.7a3.285,3.285,0,0,1-.8-2.358A3.438,3.438,0,0,1,43.922-5.5a2.737,2.737,0,0,1,2.1-.867,2.66,2.66,0,0,1,2.039.85,3.376,3.376,0,0,1,.791,2.391q0,.094-.006.281H44.2a2.391,2.391,0,0,0,.58,1.57,1.727,1.727,0,0,0,1.3.545,1.614,1.614,0,0,0,.99-.3A2.023,2.023,0,0,0,47.725-2ZM44.262-3.709h3.475a2.108,2.108,0,0,0-.4-1.178A1.616,1.616,0,0,0,46.031-5.5a1.675,1.675,0,0,0-1.222.486A1.925,1.925,0,0,0,44.262-3.709Z" transform="translate(180 1326.59)" fill="#727272"/>
    <path id="路径_19485" data-name="路径 19485" d="M.664-5.648a10.48,10.48,0,0,1,.418-3.27,4.067,4.067,0,0,1,1.242-1.91A3.176,3.176,0,0,1,4.4-11.5a3.384,3.384,0,0,1,1.617.371,3.091,3.091,0,0,1,1.148,1.07,5.742,5.742,0,0,1,.711,1.7,11.316,11.316,0,0,1,.258,2.707,10.51,10.51,0,0,1-.414,3.254A4.068,4.068,0,0,1,6.48-.48,3.176,3.176,0,0,1,4.4.2,3.143,3.143,0,0,1,1.8-.992,7.548,7.548,0,0,1,.664-5.648Zm1.445,0a7.181,7.181,0,0,0,.66,3.754A1.945,1.945,0,0,0,4.4-.961,1.944,1.944,0,0,0,6.027-1.9a7.184,7.184,0,0,0,.66-3.75,7.179,7.179,0,0,0-.66-3.758,1.959,1.959,0,0,0-1.645-.93,1.8,1.8,0,0,0-1.547.82A7.264,7.264,0,0,0,2.109-5.648Zm7.453,0a10.48,10.48,0,0,1,.418-3.27,4.067,4.067,0,0,1,1.242-1.91A3.176,3.176,0,0,1,13.3-11.5a3.384,3.384,0,0,1,1.617.371,3.091,3.091,0,0,1,1.148,1.07,5.742,5.742,0,0,1,.711,1.7,11.316,11.316,0,0,1,.258,2.707,10.51,10.51,0,0,1-.414,3.254A4.068,4.068,0,0,1,15.379-.48,3.176,3.176,0,0,1,13.3.2,3.143,3.143,0,0,1,10.7-.992,7.548,7.548,0,0,1,9.563-5.648Zm1.445,0a7.181,7.181,0,0,0,.66,3.754A1.945,1.945,0,0,0,13.3-.961,1.944,1.944,0,0,0,14.926-1.9a7.184,7.184,0,0,0,.66-3.75,7.179,7.179,0,0,0-.66-3.758,1.959,1.959,0,0,0-1.645-.93,1.8,1.8,0,0,0-1.547.82A7.264,7.264,0,0,0,11.008-5.648ZM19.25,0V-1.6h1.6V0Zm3.656-5.648a10.48,10.48,0,0,1,.418-3.27,4.067,4.067,0,0,1,1.242-1.91,3.176,3.176,0,0,1,2.074-.672,3.384,3.384,0,0,1,1.617.371,3.091,3.091,0,0,1,1.148,1.07,5.742,5.742,0,0,1,.711,1.7,11.316,11.316,0,0,1,.258,2.707,10.51,10.51,0,0,1-.414,3.254A4.068,4.068,0,0,1,28.723-.48,3.176,3.176,0,0,1,26.641.2a3.143,3.143,0,0,1-2.6-1.187A7.548,7.548,0,0,1,22.906-5.648Zm1.445,0a7.181,7.181,0,0,0,.66,3.754,1.945,1.945,0,0,0,1.629.934A1.944,1.944,0,0,0,28.27-1.9a7.184,7.184,0,0,0,.66-3.75,7.179,7.179,0,0,0-.66-3.758,1.959,1.959,0,0,0-1.645-.93,1.8,1.8,0,0,0-1.547.82A7.264,7.264,0,0,0,24.352-5.648Zm7.453,0a10.48,10.48,0,0,1,.418-3.27,4.067,4.067,0,0,1,1.242-1.91,3.176,3.176,0,0,1,2.074-.672,3.384,3.384,0,0,1,1.617.371,3.091,3.091,0,0,1,1.148,1.07,5.742,5.742,0,0,1,.711,1.7,11.316,11.316,0,0,1,.258,2.707,10.51,10.51,0,0,1-.414,3.254A4.068,4.068,0,0,1,37.621-.48,3.176,3.176,0,0,1,35.539.2a3.143,3.143,0,0,1-2.6-1.187A7.548,7.548,0,0,1,31.8-5.648Zm1.445,0a7.181,7.181,0,0,0,.66,3.754,1.945,1.945,0,0,0,1.629.934A1.944,1.944,0,0,0,37.168-1.9a7.184,7.184,0,0,0,.66-3.75,7.179,7.179,0,0,0-.66-3.758,1.959,1.959,0,0,0-1.645-.93,1.8,1.8,0,0,0-1.547.82A7.264,7.264,0,0,0,33.25-5.648Z" transform="translate(342 1433)"/>
    <path id="路径_19487" data-name="路径 19487" d="M.664-5.648a10.48,10.48,0,0,1,.418-3.27,4.067,4.067,0,0,1,1.242-1.91A3.176,3.176,0,0,1,4.4-11.5a3.384,3.384,0,0,1,1.617.371,3.091,3.091,0,0,1,1.148,1.07,5.742,5.742,0,0,1,.711,1.7,11.316,11.316,0,0,1,.258,2.707,10.51,10.51,0,0,1-.414,3.254A4.068,4.068,0,0,1,6.48-.48,3.176,3.176,0,0,1,4.4.2,3.143,3.143,0,0,1,1.8-.992,7.548,7.548,0,0,1,.664-5.648Zm1.445,0a7.181,7.181,0,0,0,.66,3.754A1.945,1.945,0,0,0,4.4-.961,1.944,1.944,0,0,0,6.027-1.9a7.184,7.184,0,0,0,.66-3.75,7.179,7.179,0,0,0-.66-3.758,1.959,1.959,0,0,0-1.645-.93,1.8,1.8,0,0,0-1.547.82A7.264,7.264,0,0,0,2.109-5.648Zm7.453,0a10.48,10.48,0,0,1,.418-3.27,4.067,4.067,0,0,1,1.242-1.91A3.176,3.176,0,0,1,13.3-11.5a3.384,3.384,0,0,1,1.617.371,3.091,3.091,0,0,1,1.148,1.07,5.742,5.742,0,0,1,.711,1.7,11.316,11.316,0,0,1,.258,2.707,10.51,10.51,0,0,1-.414,3.254A4.068,4.068,0,0,1,15.379-.48,3.176,3.176,0,0,1,13.3.2,3.143,3.143,0,0,1,10.7-.992,7.548,7.548,0,0,1,9.563-5.648Zm1.445,0a7.181,7.181,0,0,0,.66,3.754A1.945,1.945,0,0,0,13.3-.961,1.944,1.944,0,0,0,14.926-1.9a7.184,7.184,0,0,0,.66-3.75,7.179,7.179,0,0,0-.66-3.758,1.959,1.959,0,0,0-1.645-.93,1.8,1.8,0,0,0-1.547.82A7.264,7.264,0,0,0,11.008-5.648ZM19.25,0V-1.6h1.6V0Zm3.656-5.648a10.48,10.48,0,0,1,.418-3.27,4.067,4.067,0,0,1,1.242-1.91,3.176,3.176,0,0,1,2.074-.672,3.384,3.384,0,0,1,1.617.371,3.091,3.091,0,0,1,1.148,1.07,5.742,5.742,0,0,1,.711,1.7,11.316,11.316,0,0,1,.258,2.707,10.51,10.51,0,0,1-.414,3.254A4.068,4.068,0,0,1,28.723-.48,3.176,3.176,0,0,1,26.641.2a3.143,3.143,0,0,1-2.6-1.187A7.548,7.548,0,0,1,22.906-5.648Zm1.445,0a7.181,7.181,0,0,0,.66,3.754,1.945,1.945,0,0,0,1.629.934A1.944,1.944,0,0,0,28.27-1.9a7.184,7.184,0,0,0,.66-3.75,7.179,7.179,0,0,0-.66-3.758,1.959,1.959,0,0,0-1.645-.93,1.8,1.8,0,0,0-1.547.82A7.264,7.264,0,0,0,24.352-5.648Zm7.453,0a10.48,10.48,0,0,1,.418-3.27,4.067,4.067,0,0,1,1.242-1.91,3.176,3.176,0,0,1,2.074-.672,3.384,3.384,0,0,1,1.617.371,3.091,3.091,0,0,1,1.148,1.07,5.742,5.742,0,0,1,.711,1.7,11.316,11.316,0,0,1,.258,2.707,10.51,10.51,0,0,1-.414,3.254A4.068,4.068,0,0,1,37.621-.48,3.176,3.176,0,0,1,35.539.2a3.143,3.143,0,0,1-2.6-1.187A7.548,7.548,0,0,1,31.8-5.648Zm1.445,0a7.181,7.181,0,0,0,.66,3.754,1.945,1.945,0,0,0,1.629.934A1.944,1.944,0,0,0,37.168-1.9a7.184,7.184,0,0,0,.66-3.75,7.179,7.179,0,0,0-.66-3.758,1.959,1.959,0,0,0-1.645-.93,1.8,1.8,0,0,0-1.547.82A7.264,7.264,0,0,0,33.25-5.648Z" transform="translate(545 1433)"/>
    <path id="路径_19490" data-name="路径 19490" d="M.664-5.648a10.48,10.48,0,0,1,.418-3.27,4.067,4.067,0,0,1,1.242-1.91A3.176,3.176,0,0,1,4.4-11.5a3.384,3.384,0,0,1,1.617.371,3.091,3.091,0,0,1,1.148,1.07,5.742,5.742,0,0,1,.711,1.7,11.316,11.316,0,0,1,.258,2.707,10.51,10.51,0,0,1-.414,3.254A4.068,4.068,0,0,1,6.48-.48,3.176,3.176,0,0,1,4.4.2,3.143,3.143,0,0,1,1.8-.992,7.548,7.548,0,0,1,.664-5.648Zm1.445,0a7.181,7.181,0,0,0,.66,3.754A1.945,1.945,0,0,0,4.4-.961,1.944,1.944,0,0,0,6.027-1.9a7.184,7.184,0,0,0,.66-3.75,7.179,7.179,0,0,0-.66-3.758,1.959,1.959,0,0,0-1.645-.93,1.8,1.8,0,0,0-1.547.82A7.264,7.264,0,0,0,2.109-5.648Zm7.453,0a10.48,10.48,0,0,1,.418-3.27,4.067,4.067,0,0,1,1.242-1.91A3.176,3.176,0,0,1,13.3-11.5a3.384,3.384,0,0,1,1.617.371,3.091,3.091,0,0,1,1.148,1.07,5.742,5.742,0,0,1,.711,1.7,11.316,11.316,0,0,1,.258,2.707,10.51,10.51,0,0,1-.414,3.254A4.068,4.068,0,0,1,15.379-.48,3.176,3.176,0,0,1,13.3.2,3.143,3.143,0,0,1,10.7-.992,7.548,7.548,0,0,1,9.563-5.648Zm1.445,0a7.181,7.181,0,0,0,.66,3.754A1.945,1.945,0,0,0,13.3-.961,1.944,1.944,0,0,0,14.926-1.9a7.184,7.184,0,0,0,.66-3.75,7.179,7.179,0,0,0-.66-3.758,1.959,1.959,0,0,0-1.645-.93,1.8,1.8,0,0,0-1.547.82A7.264,7.264,0,0,0,11.008-5.648ZM19.25,0V-1.6h1.6V0Zm3.656-5.648a10.48,10.48,0,0,1,.418-3.27,4.067,4.067,0,0,1,1.242-1.91,3.176,3.176,0,0,1,2.074-.672,3.384,3.384,0,0,1,1.617.371,3.091,3.091,0,0,1,1.148,1.07,5.742,5.742,0,0,1,.711,1.7,11.316,11.316,0,0,1,.258,2.707,10.51,10.51,0,0,1-.414,3.254A4.068,4.068,0,0,1,28.723-.48,3.176,3.176,0,0,1,26.641.2a3.143,3.143,0,0,1-2.6-1.187A7.548,7.548,0,0,1,22.906-5.648Zm1.445,0a7.181,7.181,0,0,0,.66,3.754,1.945,1.945,0,0,0,1.629.934A1.944,1.944,0,0,0,28.27-1.9a7.184,7.184,0,0,0,.66-3.75,7.179,7.179,0,0,0-.66-3.758,1.959,1.959,0,0,0-1.645-.93,1.8,1.8,0,0,0-1.547.82A7.264,7.264,0,0,0,24.352-5.648Zm7.453,0a10.48,10.48,0,0,1,.418-3.27,4.067,4.067,0,0,1,1.242-1.91,3.176,3.176,0,0,1,2.074-.672,3.384,3.384,0,0,1,1.617.371,3.091,3.091,0,0,1,1.148,1.07,5.742,5.742,0,0,1,.711,1.7,11.316,11.316,0,0,1,.258,2.707,10.51,10.51,0,0,1-.414,3.254A4.068,4.068,0,0,1,37.621-.48,3.176,3.176,0,0,1,35.539.2a3.143,3.143,0,0,1-2.6-1.187A7.548,7.548,0,0,1,31.8-5.648Zm1.445,0a7.181,7.181,0,0,0,.66,3.754,1.945,1.945,0,0,0,1.629.934A1.944,1.944,0,0,0,37.168-1.9a7.184,7.184,0,0,0,.66-3.75,7.179,7.179,0,0,0-.66-3.758,1.959,1.959,0,0,0-1.645-.93,1.8,1.8,0,0,0-1.547.82A7.264,7.264,0,0,0,33.25-5.648Z" transform="translate(748 1449)"/>
    <path id="路径_19492" data-name="路径 19492" d="M.664-5.648a10.48,10.48,0,0,1,.418-3.27,4.067,4.067,0,0,1,1.242-1.91A3.176,3.176,0,0,1,4.4-11.5a3.384,3.384,0,0,1,1.617.371,3.091,3.091,0,0,1,1.148,1.07,5.742,5.742,0,0,1,.711,1.7,11.316,11.316,0,0,1,.258,2.707,10.51,10.51,0,0,1-.414,3.254A4.068,4.068,0,0,1,6.48-.48,3.176,3.176,0,0,1,4.4.2,3.143,3.143,0,0,1,1.8-.992,7.548,7.548,0,0,1,.664-5.648Zm1.445,0a7.181,7.181,0,0,0,.66,3.754A1.945,1.945,0,0,0,4.4-.961,1.944,1.944,0,0,0,6.027-1.9a7.184,7.184,0,0,0,.66-3.75,7.179,7.179,0,0,0-.66-3.758,1.959,1.959,0,0,0-1.645-.93,1.8,1.8,0,0,0-1.547.82A7.264,7.264,0,0,0,2.109-5.648Zm7.453,0a10.48,10.48,0,0,1,.418-3.27,4.067,4.067,0,0,1,1.242-1.91A3.176,3.176,0,0,1,13.3-11.5a3.384,3.384,0,0,1,1.617.371,3.091,3.091,0,0,1,1.148,1.07,5.742,5.742,0,0,1,.711,1.7,11.316,11.316,0,0,1,.258,2.707,10.51,10.51,0,0,1-.414,3.254A4.068,4.068,0,0,1,15.379-.48,3.176,3.176,0,0,1,13.3.2,3.143,3.143,0,0,1,10.7-.992,7.548,7.548,0,0,1,9.563-5.648Zm1.445,0a7.181,7.181,0,0,0,.66,3.754A1.945,1.945,0,0,0,13.3-.961,1.944,1.944,0,0,0,14.926-1.9a7.184,7.184,0,0,0,.66-3.75,7.179,7.179,0,0,0-.66-3.758,1.959,1.959,0,0,0-1.645-.93,1.8,1.8,0,0,0-1.547.82A7.264,7.264,0,0,0,11.008-5.648ZM19.25,0V-1.6h1.6V0Zm3.656-5.648a10.48,10.48,0,0,1,.418-3.27,4.067,4.067,0,0,1,1.242-1.91,3.176,3.176,0,0,1,2.074-.672,3.384,3.384,0,0,1,1.617.371,3.091,3.091,0,0,1,1.148,1.07,5.742,5.742,0,0,1,.711,1.7,11.316,11.316,0,0,1,.258,2.707,10.51,10.51,0,0,1-.414,3.254A4.068,4.068,0,0,1,28.723-.48,3.176,3.176,0,0,1,26.641.2a3.143,3.143,0,0,1-2.6-1.187A7.548,7.548,0,0,1,22.906-5.648Zm1.445,0a7.181,7.181,0,0,0,.66,3.754,1.945,1.945,0,0,0,1.629.934A1.944,1.944,0,0,0,28.27-1.9a7.184,7.184,0,0,0,.66-3.75,7.179,7.179,0,0,0-.66-3.758,1.959,1.959,0,0,0-1.645-.93,1.8,1.8,0,0,0-1.547.82A7.264,7.264,0,0,0,24.352-5.648Zm7.453,0a10.48,10.48,0,0,1,.418-3.27,4.067,4.067,0,0,1,1.242-1.91,3.176,3.176,0,0,1,2.074-.672,3.384,3.384,0,0,1,1.617.371,3.091,3.091,0,0,1,1.148,1.07,5.742,5.742,0,0,1,.711,1.7,11.316,11.316,0,0,1,.258,2.707,10.51,10.51,0,0,1-.414,3.254A4.068,4.068,0,0,1,37.621-.48,3.176,3.176,0,0,1,35.539.2a3.143,3.143,0,0,1-2.6-1.187A7.548,7.548,0,0,1,31.8-5.648Zm1.445,0a7.181,7.181,0,0,0,.66,3.754,1.945,1.945,0,0,0,1.629.934A1.944,1.944,0,0,0,37.168-1.9a7.184,7.184,0,0,0,.66-3.75,7.179,7.179,0,0,0-.66-3.758,1.959,1.959,0,0,0-1.645-.93,1.8,1.8,0,0,0-1.547.82A7.264,7.264,0,0,0,33.25-5.648Z" transform="translate(850 1453.805)"/>
    <path id="路径_19477-2" data-name="路径 19477" d="M-20407.5-21943.887h-1v-51.852h-101v16.316h-1v-16.992h103Z" transform="translate(20770 23362.174)" fill="#acb8cf"/>
    <path id="路径_19478-2" data-name="路径 19478" d="M-20306.971-21963.67h-1l-.027-31.855h-201.5v19.32h-1v-20.209h203.5Z" transform="translate(21075.5 23392.49)" fill="#acb8cf"/>
    <path id="路径_19479-2" data-name="路径 19479" d="M-20407.5-21978.383h-1v-17.033h-101v9.621h-1v-10.621h103Z" transform="translate(21277.998 23414.701)" fill="#acb8cf"/>
    <rect id="矩形_9272" data-name="矩形 9272" width="62" height="28" rx="14" transform="translate(280 1352)" fill="#fff"/>
    <path id="矩形_9272_-_轮廓" data-name="矩形 9272 - 轮廓" d="M14,1A13,13,0,0,0,4.808,23.192,12.915,12.915,0,0,0,14,27H48A13,13,0,0,0,57.192,4.808,12.915,12.915,0,0,0,48,1H14m0-1H48a14,14,0,0,1,0,28H14A14,14,0,0,1,14,0Z" transform="translate(280 1352)" fill="#acb8cf"/>
    <rect id="矩形_9275" data-name="矩形 9275" width="62" height="28" rx="14" transform="translate(635 1383)" fill="#fff"/>
    <path id="矩形_9275_-_轮廓" data-name="矩形 9275 - 轮廓" d="M14,1A13,13,0,0,0,4.808,23.192,12.915,12.915,0,0,0,14,27H48A13,13,0,0,0,57.192,4.808,12.915,12.915,0,0,0,48,1H14m0-1H48a14,14,0,0,1,0,28H14A14,14,0,0,1,14,0Z" transform="translate(635 1383)" fill="#acb8cf"/>
    <rect id="矩形_9276" data-name="矩形 9276" width="62" height="28" rx="14" transform="translate(788 1405)" fill="#fff"/>
    <path id="矩形_9276_-_轮廓" data-name="矩形 9276 - 轮廓" d="M14,1A13,13,0,0,0,4.808,23.192,12.915,12.915,0,0,0,14,27H48A13,13,0,0,0,57.192,4.808,12.915,12.915,0,0,0,48,1H14m0-1H48a14,14,0,0,1,0,28H14A14,14,0,0,1,14,0Z" transform="translate(788 1405)" fill="#acb8cf"/>
    <rect id="矩形_9273" data-name="矩形 9273" width="62" height="28" rx="14" transform="translate(431 1427)" fill="#70ad47"/>
    <rect id="矩形_9274" data-name="矩形 9274" width="62" height="28" rx="14" transform="translate(635 1425)" fill="#c00000"/>
    <path id="路径_19483" data-name="路径 19483" d="M.786-2.673V-4.594H4.56v1.921ZM8.5-10.062A2.738,2.738,0,0,1,10.78-9.023a6.634,6.634,0,0,1,.978,4.081,6.649,6.649,0,0,1-.984,4.088A2.734,2.734,0,0,1,8.5.171,2.868,2.868,0,0,1,6.146-.954a6.647,6.647,0,0,1-.9-4.009,6.621,6.621,0,0,1,.984-4.074A2.734,2.734,0,0,1,8.5-10.062Zm0,1.593a.96.96,0,0,0-.622.222,1.491,1.491,0,0,0-.424.8,10.984,10.984,0,0,0-.2,2.509,10.9,10.9,0,0,0,.178,2.423,1.7,1.7,0,0,0,.448.878.955.955,0,0,0,.619.219.96.96,0,0,0,.622-.222,1.491,1.491,0,0,0,.424-.8,10.887,10.887,0,0,0,.2-2.5A10.9,10.9,0,0,0,9.57-7.366a1.728,1.728,0,0,0-.448-.882A.946.946,0,0,0,8.5-8.47Zm7.786-1.593a2.738,2.738,0,0,1,2.276,1.039,6.634,6.634,0,0,1,.978,4.081A6.649,6.649,0,0,1,18.56-.854,2.734,2.734,0,0,1,16.29.171,2.868,2.868,0,0,1,13.932-.954a6.647,6.647,0,0,1-.9-4.009,6.621,6.621,0,0,1,.984-4.074A2.734,2.734,0,0,1,16.29-10.062Zm0,1.593a.96.96,0,0,0-.622.222,1.491,1.491,0,0,0-.424.8,10.984,10.984,0,0,0-.2,2.509,10.9,10.9,0,0,0,.178,2.423,1.7,1.7,0,0,0,.448.878.955.955,0,0,0,.619.219.96.96,0,0,0,.622-.222,1.491,1.491,0,0,0,.424-.8,10.887,10.887,0,0,0,.2-2.5,10.9,10.9,0,0,0-.178-2.423,1.728,1.728,0,0,0-.448-.882A.946.946,0,0,0,16.29-8.47Zm4.553.923a2.89,2.89,0,0,1,.591-2,2.06,2.06,0,0,1,1.6-.649,2.108,2.108,0,0,1,1.637.646,2.888,2.888,0,0,1,.591,2,2.89,2.89,0,0,1-.591,2,2.06,2.06,0,0,1-1.6.649,2.108,2.108,0,0,1-1.637-.646A2.888,2.888,0,0,1,20.843-7.547Zm1.5-.014a2.59,2.59,0,0,0,.226,1.313A.543.543,0,0,0,23.037-6a.55.55,0,0,0,.479-.246,2.66,2.66,0,0,0,.219-1.312,2.616,2.616,0,0,0-.219-1.306.545.545,0,0,0-.479-.253.543.543,0,0,0-.472.246A2.59,2.59,0,0,0,22.34-7.561ZM24.5.383H23.078l5.339-10.575H29.8Zm3.1-2.632a2.89,2.89,0,0,1,.591-2,2.077,2.077,0,0,1,1.617-.649,2.086,2.086,0,0,1,1.624.649,2.89,2.89,0,0,1,.591,2,2.9,2.9,0,0,1-.591,2,2.06,2.06,0,0,1-1.6.649,2.1,2.1,0,0,1-1.637-.649A2.9,2.9,0,0,1,27.6-2.249Zm1.5-.007A2.547,2.547,0,0,0,29.326-.95.539.539,0,0,0,29.8-.7a.533.533,0,0,0,.472-.246A2.59,2.59,0,0,0,30.5-2.256a2.66,2.66,0,0,0-.219-1.312.55.55,0,0,0-.479-.246.533.533,0,0,0-.472.246A2.59,2.59,0,0,0,29.1-2.256Z" transform="translate(295 1371)"/>
    <path id="路径_19488" data-name="路径 19488" d="M.786-2.673V-4.594H4.56v1.921ZM8.5-10.062A2.738,2.738,0,0,1,10.78-9.023a6.634,6.634,0,0,1,.978,4.081,6.649,6.649,0,0,1-.984,4.088A2.734,2.734,0,0,1,8.5.171,2.868,2.868,0,0,1,6.146-.954a6.647,6.647,0,0,1-.9-4.009,6.621,6.621,0,0,1,.984-4.074A2.734,2.734,0,0,1,8.5-10.062Zm0,1.593a.96.96,0,0,0-.622.222,1.491,1.491,0,0,0-.424.8,10.984,10.984,0,0,0-.2,2.509,10.9,10.9,0,0,0,.178,2.423,1.7,1.7,0,0,0,.448.878.955.955,0,0,0,.619.219.96.96,0,0,0,.622-.222,1.491,1.491,0,0,0,.424-.8,10.887,10.887,0,0,0,.2-2.5A10.9,10.9,0,0,0,9.57-7.366a1.728,1.728,0,0,0-.448-.882A.946.946,0,0,0,8.5-8.47Zm7.786-1.593a2.738,2.738,0,0,1,2.276,1.039,6.634,6.634,0,0,1,.978,4.081A6.649,6.649,0,0,1,18.56-.854,2.734,2.734,0,0,1,16.29.171,2.868,2.868,0,0,1,13.932-.954a6.647,6.647,0,0,1-.9-4.009,6.621,6.621,0,0,1,.984-4.074A2.734,2.734,0,0,1,16.29-10.062Zm0,1.593a.96.96,0,0,0-.622.222,1.491,1.491,0,0,0-.424.8,10.984,10.984,0,0,0-.2,2.509,10.9,10.9,0,0,0,.178,2.423,1.7,1.7,0,0,0,.448.878.955.955,0,0,0,.619.219.96.96,0,0,0,.622-.222,1.491,1.491,0,0,0,.424-.8,10.887,10.887,0,0,0,.2-2.5,10.9,10.9,0,0,0-.178-2.423,1.728,1.728,0,0,0-.448-.882A.946.946,0,0,0,16.29-8.47Zm4.553.923a2.89,2.89,0,0,1,.591-2,2.06,2.06,0,0,1,1.6-.649,2.108,2.108,0,0,1,1.637.646,2.888,2.888,0,0,1,.591,2,2.89,2.89,0,0,1-.591,2,2.06,2.06,0,0,1-1.6.649,2.108,2.108,0,0,1-1.637-.646A2.888,2.888,0,0,1,20.843-7.547Zm1.5-.014a2.59,2.59,0,0,0,.226,1.313A.543.543,0,0,0,23.037-6a.55.55,0,0,0,.479-.246,2.66,2.66,0,0,0,.219-1.312,2.616,2.616,0,0,0-.219-1.306.545.545,0,0,0-.479-.253.543.543,0,0,0-.472.246A2.59,2.59,0,0,0,22.34-7.561ZM24.5.383H23.078l5.339-10.575H29.8Zm3.1-2.632a2.89,2.89,0,0,1,.591-2,2.077,2.077,0,0,1,1.617-.649,2.086,2.086,0,0,1,1.624.649,2.89,2.89,0,0,1,.591,2,2.9,2.9,0,0,1-.591,2,2.06,2.06,0,0,1-1.6.649,2.1,2.1,0,0,1-1.637-.649A2.9,2.9,0,0,1,27.6-2.249Zm1.5-.007A2.547,2.547,0,0,0,29.326-.95.539.539,0,0,0,29.8-.7a.533.533,0,0,0,.472-.246A2.59,2.59,0,0,0,30.5-2.256a2.66,2.66,0,0,0-.219-1.312.55.55,0,0,0-.479-.246.533.533,0,0,0-.472.246A2.59,2.59,0,0,0,29.1-2.256Z" transform="translate(650 1402)"/>
    <path id="路径_19491" data-name="路径 19491" d="M.786-2.673V-4.594H4.56v1.921ZM8.5-10.062A2.738,2.738,0,0,1,10.78-9.023a6.634,6.634,0,0,1,.978,4.081,6.649,6.649,0,0,1-.984,4.088A2.734,2.734,0,0,1,8.5.171,2.868,2.868,0,0,1,6.146-.954a6.647,6.647,0,0,1-.9-4.009,6.621,6.621,0,0,1,.984-4.074A2.734,2.734,0,0,1,8.5-10.062Zm0,1.593a.96.96,0,0,0-.622.222,1.491,1.491,0,0,0-.424.8,10.984,10.984,0,0,0-.2,2.509,10.9,10.9,0,0,0,.178,2.423,1.7,1.7,0,0,0,.448.878.955.955,0,0,0,.619.219.96.96,0,0,0,.622-.222,1.491,1.491,0,0,0,.424-.8,10.887,10.887,0,0,0,.2-2.5A10.9,10.9,0,0,0,9.57-7.366a1.728,1.728,0,0,0-.448-.882A.946.946,0,0,0,8.5-8.47Zm7.786-1.593a2.738,2.738,0,0,1,2.276,1.039,6.634,6.634,0,0,1,.978,4.081A6.649,6.649,0,0,1,18.56-.854,2.734,2.734,0,0,1,16.29.171,2.868,2.868,0,0,1,13.932-.954a6.647,6.647,0,0,1-.9-4.009,6.621,6.621,0,0,1,.984-4.074A2.734,2.734,0,0,1,16.29-10.062Zm0,1.593a.96.96,0,0,0-.622.222,1.491,1.491,0,0,0-.424.8,10.984,10.984,0,0,0-.2,2.509,10.9,10.9,0,0,0,.178,2.423,1.7,1.7,0,0,0,.448.878.955.955,0,0,0,.619.219.96.96,0,0,0,.622-.222,1.491,1.491,0,0,0,.424-.8,10.887,10.887,0,0,0,.2-2.5,10.9,10.9,0,0,0-.178-2.423,1.728,1.728,0,0,0-.448-.882A.946.946,0,0,0,16.29-8.47Zm4.553.923a2.89,2.89,0,0,1,.591-2,2.06,2.06,0,0,1,1.6-.649,2.108,2.108,0,0,1,1.637.646,2.888,2.888,0,0,1,.591,2,2.89,2.89,0,0,1-.591,2,2.06,2.06,0,0,1-1.6.649,2.108,2.108,0,0,1-1.637-.646A2.888,2.888,0,0,1,20.843-7.547Zm1.5-.014a2.59,2.59,0,0,0,.226,1.313A.543.543,0,0,0,23.037-6a.55.55,0,0,0,.479-.246,2.66,2.66,0,0,0,.219-1.312,2.616,2.616,0,0,0-.219-1.306.545.545,0,0,0-.479-.253.543.543,0,0,0-.472.246A2.59,2.59,0,0,0,22.34-7.561ZM24.5.383H23.078l5.339-10.575H29.8Zm3.1-2.632a2.89,2.89,0,0,1,.591-2,2.077,2.077,0,0,1,1.617-.649,2.086,2.086,0,0,1,1.624.649,2.89,2.89,0,0,1,.591,2,2.9,2.9,0,0,1-.591,2,2.06,2.06,0,0,1-1.6.649,2.1,2.1,0,0,1-1.637-.649A2.9,2.9,0,0,1,27.6-2.249Zm1.5-.007A2.547,2.547,0,0,0,29.326-.95.539.539,0,0,0,29.8-.7a.533.533,0,0,0,.472-.246A2.59,2.59,0,0,0,30.5-2.256a2.66,2.66,0,0,0-.219-1.312.55.55,0,0,0-.479-.246.533.533,0,0,0-.472.246A2.59,2.59,0,0,0,29.1-2.256Z" transform="translate(803 1424)"/>
    <path id="路径_19486" data-name="路径 19486" d="M3.842-10.062A2.738,2.738,0,0,1,6.118-9.023,6.634,6.634,0,0,1,7.1-4.942,6.649,6.649,0,0,1,6.111-.854,2.734,2.734,0,0,1,3.842.171,2.868,2.868,0,0,1,1.483-.954a6.647,6.647,0,0,1-.9-4.009,6.621,6.621,0,0,1,.984-4.074A2.734,2.734,0,0,1,3.842-10.062Zm0,1.593a.96.96,0,0,0-.622.222,1.491,1.491,0,0,0-.424.8,10.984,10.984,0,0,0-.2,2.509,10.9,10.9,0,0,0,.178,2.423,1.7,1.7,0,0,0,.448.878.955.955,0,0,0,.619.219.96.96,0,0,0,.622-.222,1.491,1.491,0,0,0,.424-.8,10.887,10.887,0,0,0,.2-2.5,10.9,10.9,0,0,0-.178-2.423,1.728,1.728,0,0,0-.448-.882A.946.946,0,0,0,3.842-8.47ZM8.791,0V-1.921h1.921V0Zm6.727-10.062a2.738,2.738,0,0,1,2.276,1.039,6.634,6.634,0,0,1,.978,4.081,6.649,6.649,0,0,1-.984,4.088A2.734,2.734,0,0,1,15.518.171,2.868,2.868,0,0,1,13.159-.954a6.647,6.647,0,0,1-.9-4.009,6.621,6.621,0,0,1,.984-4.074A2.734,2.734,0,0,1,15.518-10.062Zm0,1.593a.96.96,0,0,0-.622.222,1.491,1.491,0,0,0-.424.8,10.984,10.984,0,0,0-.2,2.509,10.9,10.9,0,0,0,.178,2.423,1.7,1.7,0,0,0,.448.878.955.955,0,0,0,.619.219.96.96,0,0,0,.622-.222,1.491,1.491,0,0,0,.424-.8,10.887,10.887,0,0,0,.2-2.5,10.9,10.9,0,0,0-.178-2.423,1.728,1.728,0,0,0-.448-.882A.946.946,0,0,0,15.518-8.47ZM23.3-10.062A2.738,2.738,0,0,1,25.58-9.023a6.634,6.634,0,0,1,.978,4.081,6.649,6.649,0,0,1-.984,4.088A2.734,2.734,0,0,1,23.3.171,2.868,2.868,0,0,1,20.945-.954a6.647,6.647,0,0,1-.9-4.009,6.621,6.621,0,0,1,.984-4.074A2.734,2.734,0,0,1,23.3-10.062Zm0,1.593a.96.96,0,0,0-.622.222,1.491,1.491,0,0,0-.424.8,10.984,10.984,0,0,0-.2,2.509,10.9,10.9,0,0,0,.178,2.423,1.7,1.7,0,0,0,.448.878.955.955,0,0,0,.619.219.96.96,0,0,0,.622-.222,1.491,1.491,0,0,0,.424-.8,10.887,10.887,0,0,0,.2-2.5,10.9,10.9,0,0,0-.178-2.423,1.728,1.728,0,0,0-.448-.882A.946.946,0,0,0,23.3-8.47Z" transform="translate(449 1446)" fill="#fff"/>
    <path id="路径_19489" data-name="路径 19489" d="M3.842-10.062A2.738,2.738,0,0,1,6.118-9.023,6.634,6.634,0,0,1,7.1-4.942,6.649,6.649,0,0,1,6.111-.854,2.734,2.734,0,0,1,3.842.171,2.868,2.868,0,0,1,1.483-.954a6.647,6.647,0,0,1-.9-4.009,6.621,6.621,0,0,1,.984-4.074A2.734,2.734,0,0,1,3.842-10.062Zm0,1.593a.96.96,0,0,0-.622.222,1.491,1.491,0,0,0-.424.8,10.984,10.984,0,0,0-.2,2.509,10.9,10.9,0,0,0,.178,2.423,1.7,1.7,0,0,0,.448.878.955.955,0,0,0,.619.219.96.96,0,0,0,.622-.222,1.491,1.491,0,0,0,.424-.8,10.887,10.887,0,0,0,.2-2.5,10.9,10.9,0,0,0-.178-2.423,1.728,1.728,0,0,0-.448-.882A.946.946,0,0,0,3.842-8.47ZM8.791,0V-1.921h1.921V0Zm6.727-10.062a2.738,2.738,0,0,1,2.276,1.039,6.634,6.634,0,0,1,.978,4.081,6.649,6.649,0,0,1-.984,4.088A2.734,2.734,0,0,1,15.518.171,2.868,2.868,0,0,1,13.159-.954a6.647,6.647,0,0,1-.9-4.009,6.621,6.621,0,0,1,.984-4.074A2.734,2.734,0,0,1,15.518-10.062Zm0,1.593a.96.96,0,0,0-.622.222,1.491,1.491,0,0,0-.424.8,10.984,10.984,0,0,0-.2,2.509,10.9,10.9,0,0,0,.178,2.423,1.7,1.7,0,0,0,.448.878.955.955,0,0,0,.619.219.96.96,0,0,0,.622-.222,1.491,1.491,0,0,0,.424-.8,10.887,10.887,0,0,0,.2-2.5,10.9,10.9,0,0,0-.178-2.423,1.728,1.728,0,0,0-.448-.882A.946.946,0,0,0,15.518-8.47ZM23.3-10.062A2.738,2.738,0,0,1,25.58-9.023a6.634,6.634,0,0,1,.978,4.081,6.649,6.649,0,0,1-.984,4.088A2.734,2.734,0,0,1,23.3.171,2.868,2.868,0,0,1,20.945-.954a6.647,6.647,0,0,1-.9-4.009,6.621,6.621,0,0,1,.984-4.074A2.734,2.734,0,0,1,23.3-10.062Zm0,1.593a.96.96,0,0,0-.622.222,1.491,1.491,0,0,0-.424.8,10.984,10.984,0,0,0-.2,2.509,10.9,10.9,0,0,0,.178,2.423,1.7,1.7,0,0,0,.448.878.955.955,0,0,0,.619.219.96.96,0,0,0,.622-.222,1.491,1.491,0,0,0,.424-.8,10.887,10.887,0,0,0,.2-2.5,10.9,10.9,0,0,0-.178-2.423,1.728,1.728,0,0,0-.448-.882A.946.946,0,0,0,23.3-8.47Z" transform="translate(653 1444)" fill="#fff"/>
    <circle id="椭圆_608" data-name="椭圆 608" cx="5" cy="5" r="5" transform="translate(670 1294)" fill="#70ad47"/>
    <circle id="椭圆_609" data-name="椭圆 609" cx="5" cy="5" r="5" transform="translate(727 1294)" fill="#c00000"/>
    <circle id="椭圆_610" data-name="椭圆 610" cx="5" cy="5" r="5" transform="translate(853 1294)" fill="#5993ff"/>
    <circle id="椭圆_611" data-name="椭圆 611" cx="5" cy="5" r="5" transform="translate(911 1294)" fill="#1763f7"/>
  </g>
</svg>
