<svg xmlns="http://www.w3.org/2000/svg" xmlns:xlink="http://www.w3.org/1999/xlink" width="774.26" height="250.647" viewBox="0 0 774.26 250.647">
  <defs>
    <clipPath id="clip-path">
      <path id="路径_19504" data-name="路径 19504" d="M19900-12418.984h81.041v-83.9H19900Z" transform="translate(-19900 12502.881)" fill="#059347" stroke="#707070" stroke-width="1"/>
    </clipPath>
    <clipPath id="clip-path-2">
      <path id="路径_19506" data-name="路径 19506" d="M19801.537-12418.984h119.307v-83.9H19839.8Z" transform="translate(-19801.537 12502.881)" fill="#fff" stroke="#707070" stroke-width="1"/>
    </clipPath>
    <clipPath id="clip-path-3">
      <path id="路径_19508" data-name="路径 19508" d="M19705.277-12418.984l-61.191-59.217,99.455-24.68h0Z" transform="translate(-19644.086 12502.881)" fill="#fff"/>
    </clipPath>
    <clipPath id="clip-path-4">
      <path id="路径_19510" data-name="路径 19510" d="M19679.426-12502.779l-.5-32.681,86.16,12.66h0Z" transform="translate(-19678.926 12535.46)" fill="#fff" stroke="#707070" stroke-width="1"/>
    </clipPath>
    <clipPath id="clip-path-5">
      <path id="路径_19512" data-name="路径 19512" d="M19672.184-12653.077l45.932-60.609,42.6-13.317v87.1h0Z" transform="translate(-19672.184 12727.004)" fill="#fff" stroke="#707070" stroke-width="1"/>
    </clipPath>
  </defs>
  <g id="组_13850" data-name="组 13850" transform="translate(-180.083 -881.478)">
    <path id="Shape" d="M.011,200V0h1V200Z" transform="translate(180.781 932.125)" fill="#acb8cf"/>
    <path id="Shape-2" data-name="Shape" d="M0,381.708V0H.449V381.708Z" transform="translate(562.359 1032.125) rotate(90)" opacity="0.1"/>
    <path id="路径_19498" data-name="路径 19498" d="M5529.1-22528.748l-.24-.2-30.368-25.037-33.794,11.6-.127-.023-45.383-7.994-.1-.088-40.512-34.6-76.694,11.227-.11-.035-52.326-16.674-32.113,27.717a.494.494,0,0,1-.705-.053.5.5,0,0,1,.052-.705l32.537-28.08.267.084,52.482,16.723,76.915-11.258.172.146,40.581,34.656,44.988,7.924,34.079-11.7.216.178,30.344,25.018,29.989-13.5.153.027,26.991,4.926a.5.5,0,0,1,.4.582.5.5,0,0,1-.582.4l-26.837-4.9Z" transform="translate(-5036.289 23595.352)" fill="#0c47a1"/>
    <path id="路径_19555" data-name="路径 19555" d="M.5,4.292h-1V0h1Z" transform="translate(431.898 977.049)" fill="#707070"/>
    <path id="路径_19554" data-name="路径 19554" d="M.5,2.245h-1V0h1Z" transform="translate(437.58 1031.229)" fill="#707070"/>
    <path id="路径_19499" data-name="路径 19499" d="M5216.714-22635.02a.5.5,0,0,1-.453-.287.5.5,0,0,1,.24-.666l30.751-14.465h36.9l46.678-32.334.274.158,26.57,15.393,71.773-9.426,50.277-21.693,51.29-17.424.05-.006,55.938-7.094c.021,0,.042,0,.063,0a.5.5,0,0,1,.5.438.5.5,0,0,1-.433.559l-55.889,7.088-51.174,17.383-50.349,21.727-.069.01-72.18,9.479-.147-.084-26.443-15.318-46.414,32.15h-36.989l-30.549,14.371A.514.514,0,0,1,5216.714-22635.02Z" transform="translate(-5036.131 23667.656)" fill="#00503e"/>
    <path id="路径_19500" data-name="路径 19500" d="M5473.493-22526.2l-.106-.02-26.89-4.725h-70.2l-.063-.018-48.94-12.945h-76.877l-33.485,6.893a.6.6,0,0,1-.1.01.5.5,0,0,1-.489-.4.5.5,0,0,1,.389-.592l33.584-6.912h77.109l.063.018,48.94,12.945h70.16l.043.008,26.827,4.713,32.54-8.387h80.7a.5.5,0,0,1,.5.5.5.5,0,0,1-.5.5H5506.12Z" transform="translate(-5036.193 23569.611)" fill="#f67f16"/>
    <path id="路径_19501" data-name="路径 19501" d="M5586.357-22486.924h-56.472l-.135-.105-28.962-22.555-39.3-19.092-56.334,7.139-.154-.1-23.271-15.229h-97.654l-.066-.02-40.739-11.5-26.078,8.85a.5.5,0,0,1-.634-.312.5.5,0,0,1,.313-.633l26.372-8.951.149.043,40.822,11.525h97.813l.125.082,23.242,15.209,56.265-7.131.134.066,39.531,19.2.042.033,28.869,22.482h56.128a.5.5,0,0,1,.5.5A.5.5,0,0,1,5586.357-22486.924Z" transform="translate(-5036.305 23572.096)" fill="#c62928"/>
    <path id="路径_19502" data-name="路径 19502" d="M5382.391-22528.586l-.145-.094-42.008-27.242-53.824,8.727-42.854,9.057-.1-.02-26.444-5.432a.5.5,0,0,1-.389-.592.5.5,0,0,1,.489-.4.6.6,0,0,1,.1.01l26.342,5.412,42.685-9.023,54.217-8.787.162.1,42.025,27.252,91.346-8.035,40.6-19.311,39.152,4.775h32.642a.5.5,0,0,1,.5.5.5.5,0,0,1-.5.5h-32.7l-.03,0-38.894-4.744-40.5,19.264-.089.008Z" transform="translate(-5036.352 23576.246)" fill="#817717"/>
    <path id="路径_19550" data-name="路径 19550" d="M390,.5H380v-1h10Zm-20,0H360v-1h10Zm-20,0H340v-1h10Zm-20,0H320v-1h10Zm-20,0H300v-1h10Zm-20,0H280v-1h10Zm-20,0H260v-1h10Zm-20,0H240v-1h10Zm-20,0H220v-1h10Zm-20,0H200v-1h10Zm-20,0H180v-1h10Zm-20,0H160v-1h10Zm-20,0H140v-1h10Zm-20,0H120v-1h10Zm-20,0H100v-1h10ZM90,.5H80v-1H90ZM70,.5H60v-1H70ZM50,.5H40v-1H50ZM30,.5H20v-1H30ZM10,.5H0v-1H10Z" transform="translate(180.764 987.242)" fill="#00503e"/>
    <path id="路径_19551" data-name="路径 19551" d="M390,.5H380v-1h10Zm-20,0H360v-1h10Zm-20,0H340v-1h10Zm-20,0H320v-1h10Zm-20,0H300v-1h10Zm-20,0H280v-1h10Zm-20,0H260v-1h10Zm-20,0H240v-1h10Zm-20,0H220v-1h10Zm-20,0H200v-1h10Zm-20,0H180v-1h10Zm-20,0H160v-1h10Zm-20,0H140v-1h10Zm-20,0H120v-1h10Zm-20,0H100v-1h10ZM90,.5H80v-1H90ZM70,.5H60v-1H70ZM50,.5H40v-1H50ZM30,.5H20v-1H30ZM10,.5H0v-1H10Z" transform="translate(180.764 1024.289)" fill="#c62928"/>
    <path id="路径_19552" data-name="路径 19552" d="M390,.5H380v-1h10Zm-20,0H360v-1h10Zm-20,0H340v-1h10Zm-20,0H320v-1h10Zm-20,0H300v-1h10Zm-20,0H280v-1h10Zm-20,0H260v-1h10Zm-20,0H240v-1h10Zm-20,0H220v-1h10Zm-20,0H200v-1h10Zm-20,0H180v-1h10Zm-20,0H160v-1h10Zm-20,0H140v-1h10Zm-20,0H120v-1h10Zm-20,0H100v-1h10ZM90,.5H80v-1H90ZM70,.5H60v-1H70ZM50,.5H40v-1H50ZM30,.5H20v-1H30ZM10,.5H0v-1H10Z" transform="translate(180.764 1042.926)" fill="#817717"/>
    <path id="路径_19553" data-name="路径 19553" d="M390,.5H380v-1h10Zm-20,0H360v-1h10Zm-20,0H340v-1h10Zm-20,0H320v-1h10Zm-20,0H300v-1h10Zm-20,0H280v-1h10Zm-20,0H260v-1h10Zm-20,0H240v-1h10Zm-20,0H220v-1h10Zm-20,0H200v-1h10Zm-20,0H180v-1h10Zm-20,0H160v-1h10Zm-20,0H140v-1h10Zm-20,0H120v-1h10Zm-20,0H100v-1h10ZM90,.5H80v-1H90ZM70,.5H60v-1H70ZM50,.5H40v-1H50ZM30,.5H20v-1H30ZM10,.5H0v-1H10Z" transform="translate(180.764 1074.793)" fill="#0c47a1"/>
    <path id="_800" data-name="800" d="M-16.686-4.236a7.86,7.86,0,0,1,.313-2.452,3.05,3.05,0,0,1,.932-1.433,2.382,2.382,0,0,1,1.556-.5,2.538,2.538,0,0,1,1.213.278,2.319,2.319,0,0,1,.861.8,4.306,4.306,0,0,1,.533,1.277,8.487,8.487,0,0,1,.193,2.03A7.882,7.882,0,0,1-11.4-1.8,3.051,3.051,0,0,1-12.324-.36a2.382,2.382,0,0,1-1.562.507,2.357,2.357,0,0,1-1.951-.891A5.661,5.661,0,0,1-16.686-4.236Zm1.084,0a5.386,5.386,0,0,0,.5,2.815,1.459,1.459,0,0,0,1.222.7,1.458,1.458,0,0,0,1.222-.7,5.388,5.388,0,0,0,.5-2.812,5.384,5.384,0,0,0-.5-2.818,1.47,1.47,0,0,0-1.233-.7,1.351,1.351,0,0,0-1.16.615A5.448,5.448,0,0,0-15.6-4.236Zm5.676,0a7.86,7.86,0,0,1,.313-2.452,3.05,3.05,0,0,1,.932-1.433,2.382,2.382,0,0,1,1.556-.5,2.538,2.538,0,0,1,1.213.278,2.319,2.319,0,0,1,.861.8,4.306,4.306,0,0,1,.533,1.277,8.487,8.487,0,0,1,.193,2.03A7.882,7.882,0,0,1-4.636-1.8,3.051,3.051,0,0,1-5.564-.36,2.382,2.382,0,0,1-7.126.146,2.357,2.357,0,0,1-9.077-.744,5.661,5.661,0,0,1-9.927-4.236Zm1.084,0a5.386,5.386,0,0,0,.5,2.815,1.459,1.459,0,0,0,1.222.7,1.458,1.458,0,0,0,1.222-.7,5.388,5.388,0,0,0,.5-2.812,5.384,5.384,0,0,0-.5-2.818,1.47,1.47,0,0,0-1.233-.7,1.351,1.351,0,0,0-1.16.615A5.448,5.448,0,0,0-8.843-4.236ZM-2.575,0V-1.2h1.2V0ZM.253-4.236A7.86,7.86,0,0,1,.566-6.688,3.05,3.05,0,0,1,1.5-8.121a2.382,2.382,0,0,1,1.556-.5,2.538,2.538,0,0,1,1.213.278,2.319,2.319,0,0,1,.861.8,4.306,4.306,0,0,1,.533,1.277,8.487,8.487,0,0,1,.193,2.03A7.882,7.882,0,0,1,5.544-1.8,3.051,3.051,0,0,1,4.615-.36,2.382,2.382,0,0,1,3.053.146,2.357,2.357,0,0,1,1.1-.744,5.661,5.661,0,0,1,.253-4.236Zm1.084,0a5.386,5.386,0,0,0,.5,2.815,1.459,1.459,0,0,0,1.222.7,1.458,1.458,0,0,0,1.222-.7,5.388,5.388,0,0,0,.5-2.812,5.384,5.384,0,0,0-.5-2.818,1.47,1.47,0,0,0-1.233-.7,1.351,1.351,0,0,0-1.16.615A5.448,5.448,0,0,0,1.337-4.236ZM7.211-6.527a2.611,2.611,0,0,1,.463-1.564,1.549,1.549,0,0,1,1.342-.645,1.74,1.74,0,0,1,1.339.577,2.426,2.426,0,0,1,.53,1.7,2.407,2.407,0,0,1-.536,1.679A1.717,1.717,0,0,1,9.028-4.2a1.668,1.668,0,0,1-1.3-.58A2.561,2.561,0,0,1,7.211-6.527ZM9.045-8.01a.793.793,0,0,0-.653.34,2.153,2.153,0,0,0-.261,1.248A1.935,1.935,0,0,0,8.4-5.259a.8.8,0,0,0,.65.337.8.8,0,0,0,.659-.34A2.139,2.139,0,0,0,9.965-6.5,1.948,1.948,0,0,0,9.7-7.673.8.8,0,0,0,9.045-8.01ZM9.051.316l4.7-9.053h.855L9.924.316Zm3.715-2.332a2.608,2.608,0,0,1,.463-1.567,1.558,1.558,0,0,1,1.348-.642,1.74,1.74,0,0,1,1.339.577,2.426,2.426,0,0,1,.53,1.7A2.407,2.407,0,0,1,15.91-.272a1.723,1.723,0,0,1-1.327.589,1.665,1.665,0,0,1-1.3-.583A2.563,2.563,0,0,1,12.766-2.016ZM14.606-3.5a.8.8,0,0,0-.659.34,2.153,2.153,0,0,0-.261,1.248A1.937,1.937,0,0,0,13.95-.75a.8.8,0,0,0,.65.34.8.8,0,0,0,.665-.34,2.139,2.139,0,0,0,.261-1.242,1.948,1.948,0,0,0-.264-1.169A.8.8,0,0,0,14.606-3.5Z" transform="translate(596 948.289)" fill="#727272"/>
    <path id="_800-2" data-name="800" d="M-16.686-4.236a7.86,7.86,0,0,1,.313-2.452,3.05,3.05,0,0,1,.932-1.433,2.382,2.382,0,0,1,1.556-.5,2.538,2.538,0,0,1,1.213.278,2.319,2.319,0,0,1,.861.8,4.306,4.306,0,0,1,.533,1.277,8.487,8.487,0,0,1,.193,2.03A7.882,7.882,0,0,1-11.4-1.8,3.051,3.051,0,0,1-12.324-.36a2.382,2.382,0,0,1-1.562.507,2.357,2.357,0,0,1-1.951-.891A5.661,5.661,0,0,1-16.686-4.236Zm1.084,0a5.386,5.386,0,0,0,.5,2.815,1.459,1.459,0,0,0,1.222.7,1.458,1.458,0,0,0,1.222-.7,5.388,5.388,0,0,0,.5-2.812,5.384,5.384,0,0,0-.5-2.818,1.47,1.47,0,0,0-1.233-.7,1.351,1.351,0,0,0-1.16.615A5.448,5.448,0,0,0-15.6-4.236Zm5.676,0a7.86,7.86,0,0,1,.313-2.452,3.05,3.05,0,0,1,.932-1.433,2.382,2.382,0,0,1,1.556-.5,2.538,2.538,0,0,1,1.213.278,2.319,2.319,0,0,1,.861.8,4.306,4.306,0,0,1,.533,1.277,8.487,8.487,0,0,1,.193,2.03A7.882,7.882,0,0,1-4.636-1.8,3.051,3.051,0,0,1-5.564-.36,2.382,2.382,0,0,1-7.126.146,2.357,2.357,0,0,1-9.077-.744,5.661,5.661,0,0,1-9.927-4.236Zm1.084,0a5.386,5.386,0,0,0,.5,2.815,1.459,1.459,0,0,0,1.222.7,1.458,1.458,0,0,0,1.222-.7,5.388,5.388,0,0,0,.5-2.812,5.384,5.384,0,0,0-.5-2.818,1.47,1.47,0,0,0-1.233-.7,1.351,1.351,0,0,0-1.16.615A5.448,5.448,0,0,0-8.843-4.236ZM-2.575,0V-1.2h1.2V0ZM.253-4.236A7.86,7.86,0,0,1,.566-6.688,3.05,3.05,0,0,1,1.5-8.121a2.382,2.382,0,0,1,1.556-.5,2.538,2.538,0,0,1,1.213.278,2.319,2.319,0,0,1,.861.8,4.306,4.306,0,0,1,.533,1.277,8.487,8.487,0,0,1,.193,2.03A7.882,7.882,0,0,1,5.544-1.8,3.051,3.051,0,0,1,4.615-.36,2.382,2.382,0,0,1,3.053.146,2.357,2.357,0,0,1,1.1-.744,5.661,5.661,0,0,1,.253-4.236Zm1.084,0a5.386,5.386,0,0,0,.5,2.815,1.459,1.459,0,0,0,1.222.7,1.458,1.458,0,0,0,1.222-.7,5.388,5.388,0,0,0,.5-2.812,5.384,5.384,0,0,0-.5-2.818,1.47,1.47,0,0,0-1.233-.7,1.351,1.351,0,0,0-1.16.615A5.448,5.448,0,0,0,1.337-4.236ZM7.211-6.527a2.611,2.611,0,0,1,.463-1.564,1.549,1.549,0,0,1,1.342-.645,1.74,1.74,0,0,1,1.339.577,2.426,2.426,0,0,1,.53,1.7,2.407,2.407,0,0,1-.536,1.679A1.717,1.717,0,0,1,9.028-4.2a1.668,1.668,0,0,1-1.3-.58A2.561,2.561,0,0,1,7.211-6.527ZM9.045-8.01a.793.793,0,0,0-.653.34,2.153,2.153,0,0,0-.261,1.248A1.935,1.935,0,0,0,8.4-5.259a.8.8,0,0,0,.65.337.8.8,0,0,0,.659-.34A2.139,2.139,0,0,0,9.965-6.5,1.948,1.948,0,0,0,9.7-7.673.8.8,0,0,0,9.045-8.01ZM9.051.316l4.7-9.053h.855L9.924.316Zm3.715-2.332a2.608,2.608,0,0,1,.463-1.567,1.558,1.558,0,0,1,1.348-.642,1.74,1.74,0,0,1,1.339.577,2.426,2.426,0,0,1,.53,1.7A2.407,2.407,0,0,1,15.91-.272a1.723,1.723,0,0,1-1.327.589,1.665,1.665,0,0,1-1.3-.583A2.563,2.563,0,0,1,12.766-2.016ZM14.606-3.5a.8.8,0,0,0-.659.34,2.153,2.153,0,0,0-.261,1.248A1.937,1.937,0,0,0,13.95-.75a.8.8,0,0,0,.65.34.8.8,0,0,0,.665-.34,2.139,2.139,0,0,0,.261-1.242,1.948,1.948,0,0,0-.264-1.169A.8.8,0,0,0,14.606-3.5Z" transform="translate(596 991.289)" fill="#727272"/>
    <path id="_800-3" data-name="800" d="M-16.686-4.236a7.86,7.86,0,0,1,.313-2.452,3.05,3.05,0,0,1,.932-1.433,2.382,2.382,0,0,1,1.556-.5,2.538,2.538,0,0,1,1.213.278,2.319,2.319,0,0,1,.861.8,4.306,4.306,0,0,1,.533,1.277,8.487,8.487,0,0,1,.193,2.03A7.882,7.882,0,0,1-11.4-1.8,3.051,3.051,0,0,1-12.324-.36a2.382,2.382,0,0,1-1.562.507,2.357,2.357,0,0,1-1.951-.891A5.661,5.661,0,0,1-16.686-4.236Zm1.084,0a5.386,5.386,0,0,0,.5,2.815,1.459,1.459,0,0,0,1.222.7,1.458,1.458,0,0,0,1.222-.7,5.388,5.388,0,0,0,.5-2.812,5.384,5.384,0,0,0-.5-2.818,1.47,1.47,0,0,0-1.233-.7,1.351,1.351,0,0,0-1.16.615A5.448,5.448,0,0,0-15.6-4.236Zm5.676,0a7.86,7.86,0,0,1,.313-2.452,3.05,3.05,0,0,1,.932-1.433,2.382,2.382,0,0,1,1.556-.5,2.538,2.538,0,0,1,1.213.278,2.319,2.319,0,0,1,.861.8,4.306,4.306,0,0,1,.533,1.277,8.487,8.487,0,0,1,.193,2.03A7.882,7.882,0,0,1-4.636-1.8,3.051,3.051,0,0,1-5.564-.36,2.382,2.382,0,0,1-7.126.146,2.357,2.357,0,0,1-9.077-.744,5.661,5.661,0,0,1-9.927-4.236Zm1.084,0a5.386,5.386,0,0,0,.5,2.815,1.459,1.459,0,0,0,1.222.7,1.458,1.458,0,0,0,1.222-.7,5.388,5.388,0,0,0,.5-2.812,5.384,5.384,0,0,0-.5-2.818,1.47,1.47,0,0,0-1.233-.7,1.351,1.351,0,0,0-1.16.615A5.448,5.448,0,0,0-8.843-4.236ZM-2.575,0V-1.2h1.2V0ZM.253-4.236A7.86,7.86,0,0,1,.566-6.688,3.05,3.05,0,0,1,1.5-8.121a2.382,2.382,0,0,1,1.556-.5,2.538,2.538,0,0,1,1.213.278,2.319,2.319,0,0,1,.861.8,4.306,4.306,0,0,1,.533,1.277,8.487,8.487,0,0,1,.193,2.03A7.882,7.882,0,0,1,5.544-1.8,3.051,3.051,0,0,1,4.615-.36,2.382,2.382,0,0,1,3.053.146,2.357,2.357,0,0,1,1.1-.744,5.661,5.661,0,0,1,.253-4.236Zm1.084,0a5.386,5.386,0,0,0,.5,2.815,1.459,1.459,0,0,0,1.222.7,1.458,1.458,0,0,0,1.222-.7,5.388,5.388,0,0,0,.5-2.812,5.384,5.384,0,0,0-.5-2.818,1.47,1.47,0,0,0-1.233-.7,1.351,1.351,0,0,0-1.16.615A5.448,5.448,0,0,0,1.337-4.236ZM7.211-6.527a2.611,2.611,0,0,1,.463-1.564,1.549,1.549,0,0,1,1.342-.645,1.74,1.74,0,0,1,1.339.577,2.426,2.426,0,0,1,.53,1.7,2.407,2.407,0,0,1-.536,1.679A1.717,1.717,0,0,1,9.028-4.2a1.668,1.668,0,0,1-1.3-.58A2.561,2.561,0,0,1,7.211-6.527ZM9.045-8.01a.793.793,0,0,0-.653.34,2.153,2.153,0,0,0-.261,1.248A1.935,1.935,0,0,0,8.4-5.259a.8.8,0,0,0,.65.337.8.8,0,0,0,.659-.34A2.139,2.139,0,0,0,9.965-6.5,1.948,1.948,0,0,0,9.7-7.673.8.8,0,0,0,9.045-8.01ZM9.051.316l4.7-9.053h.855L9.924.316Zm3.715-2.332a2.608,2.608,0,0,1,.463-1.567,1.558,1.558,0,0,1,1.348-.642,1.74,1.74,0,0,1,1.339.577,2.426,2.426,0,0,1,.53,1.7A2.407,2.407,0,0,1,15.91-.272a1.723,1.723,0,0,1-1.327.589,1.665,1.665,0,0,1-1.3-.583A2.563,2.563,0,0,1,12.766-2.016ZM14.606-3.5a.8.8,0,0,0-.659.34,2.153,2.153,0,0,0-.261,1.248A1.937,1.937,0,0,0,13.95-.75a.8.8,0,0,0,.65.34.8.8,0,0,0,.665-.34,2.139,2.139,0,0,0,.261-1.242,1.948,1.948,0,0,0-.264-1.169A.8.8,0,0,0,14.606-3.5Z" transform="translate(596 1027.289)" fill="#727272"/>
    <path id="_800-4" data-name="800" d="M-16.686-4.236a7.86,7.86,0,0,1,.313-2.452,3.05,3.05,0,0,1,.932-1.433,2.382,2.382,0,0,1,1.556-.5,2.538,2.538,0,0,1,1.213.278,2.319,2.319,0,0,1,.861.8,4.306,4.306,0,0,1,.533,1.277,8.487,8.487,0,0,1,.193,2.03A7.882,7.882,0,0,1-11.4-1.8,3.051,3.051,0,0,1-12.324-.36a2.382,2.382,0,0,1-1.562.507,2.357,2.357,0,0,1-1.951-.891A5.661,5.661,0,0,1-16.686-4.236Zm1.084,0a5.386,5.386,0,0,0,.5,2.815,1.459,1.459,0,0,0,1.222.7,1.458,1.458,0,0,0,1.222-.7,5.388,5.388,0,0,0,.5-2.812,5.384,5.384,0,0,0-.5-2.818,1.47,1.47,0,0,0-1.233-.7,1.351,1.351,0,0,0-1.16.615A5.448,5.448,0,0,0-15.6-4.236Zm5.676,0a7.86,7.86,0,0,1,.313-2.452,3.05,3.05,0,0,1,.932-1.433,2.382,2.382,0,0,1,1.556-.5,2.538,2.538,0,0,1,1.213.278,2.319,2.319,0,0,1,.861.8,4.306,4.306,0,0,1,.533,1.277,8.487,8.487,0,0,1,.193,2.03A7.882,7.882,0,0,1-4.636-1.8,3.051,3.051,0,0,1-5.564-.36,2.382,2.382,0,0,1-7.126.146,2.357,2.357,0,0,1-9.077-.744,5.661,5.661,0,0,1-9.927-4.236Zm1.084,0a5.386,5.386,0,0,0,.5,2.815,1.459,1.459,0,0,0,1.222.7,1.458,1.458,0,0,0,1.222-.7,5.388,5.388,0,0,0,.5-2.812,5.384,5.384,0,0,0-.5-2.818,1.47,1.47,0,0,0-1.233-.7,1.351,1.351,0,0,0-1.16.615A5.448,5.448,0,0,0-8.843-4.236ZM-2.575,0V-1.2h1.2V0ZM.253-4.236A7.86,7.86,0,0,1,.566-6.688,3.05,3.05,0,0,1,1.5-8.121a2.382,2.382,0,0,1,1.556-.5,2.538,2.538,0,0,1,1.213.278,2.319,2.319,0,0,1,.861.8,4.306,4.306,0,0,1,.533,1.277,8.487,8.487,0,0,1,.193,2.03A7.882,7.882,0,0,1,5.544-1.8,3.051,3.051,0,0,1,4.615-.36,2.382,2.382,0,0,1,3.053.146,2.357,2.357,0,0,1,1.1-.744,5.661,5.661,0,0,1,.253-4.236Zm1.084,0a5.386,5.386,0,0,0,.5,2.815,1.459,1.459,0,0,0,1.222.7,1.458,1.458,0,0,0,1.222-.7,5.388,5.388,0,0,0,.5-2.812,5.384,5.384,0,0,0-.5-2.818,1.47,1.47,0,0,0-1.233-.7,1.351,1.351,0,0,0-1.16.615A5.448,5.448,0,0,0,1.337-4.236ZM7.211-6.527a2.611,2.611,0,0,1,.463-1.564,1.549,1.549,0,0,1,1.342-.645,1.74,1.74,0,0,1,1.339.577,2.426,2.426,0,0,1,.53,1.7,2.407,2.407,0,0,1-.536,1.679A1.717,1.717,0,0,1,9.028-4.2a1.668,1.668,0,0,1-1.3-.58A2.561,2.561,0,0,1,7.211-6.527ZM9.045-8.01a.793.793,0,0,0-.653.34,2.153,2.153,0,0,0-.261,1.248A1.935,1.935,0,0,0,8.4-5.259a.8.8,0,0,0,.65.337.8.8,0,0,0,.659-.34A2.139,2.139,0,0,0,9.965-6.5,1.948,1.948,0,0,0,9.7-7.673.8.8,0,0,0,9.045-8.01ZM9.051.316l4.7-9.053h.855L9.924.316Zm3.715-2.332a2.608,2.608,0,0,1,.463-1.567,1.558,1.558,0,0,1,1.348-.642,1.74,1.74,0,0,1,1.339.577,2.426,2.426,0,0,1,.53,1.7A2.407,2.407,0,0,1,15.91-.272a1.723,1.723,0,0,1-1.327.589,1.665,1.665,0,0,1-1.3-.583A2.563,2.563,0,0,1,12.766-2.016ZM14.606-3.5a.8.8,0,0,0-.659.34,2.153,2.153,0,0,0-.261,1.248A1.937,1.937,0,0,0,13.95-.75a.8.8,0,0,0,.65.34.8.8,0,0,0,.665-.34,2.139,2.139,0,0,0,.261-1.242,1.948,1.948,0,0,0-.264-1.169A.8.8,0,0,0,14.606-3.5Z" transform="translate(596 1047.289)" fill="#727272"/>
    <path id="_800-5" data-name="800" d="M-16.686-4.236a7.86,7.86,0,0,1,.313-2.452,3.05,3.05,0,0,1,.932-1.433,2.382,2.382,0,0,1,1.556-.5,2.538,2.538,0,0,1,1.213.278,2.319,2.319,0,0,1,.861.8,4.306,4.306,0,0,1,.533,1.277,8.487,8.487,0,0,1,.193,2.03A7.882,7.882,0,0,1-11.4-1.8,3.051,3.051,0,0,1-12.324-.36a2.382,2.382,0,0,1-1.562.507,2.357,2.357,0,0,1-1.951-.891A5.661,5.661,0,0,1-16.686-4.236Zm1.084,0a5.386,5.386,0,0,0,.5,2.815,1.459,1.459,0,0,0,1.222.7,1.458,1.458,0,0,0,1.222-.7,5.388,5.388,0,0,0,.5-2.812,5.384,5.384,0,0,0-.5-2.818,1.47,1.47,0,0,0-1.233-.7,1.351,1.351,0,0,0-1.16.615A5.448,5.448,0,0,0-15.6-4.236Zm5.676,0a7.86,7.86,0,0,1,.313-2.452,3.05,3.05,0,0,1,.932-1.433,2.382,2.382,0,0,1,1.556-.5,2.538,2.538,0,0,1,1.213.278,2.319,2.319,0,0,1,.861.8,4.306,4.306,0,0,1,.533,1.277,8.487,8.487,0,0,1,.193,2.03A7.882,7.882,0,0,1-4.636-1.8,3.051,3.051,0,0,1-5.564-.36,2.382,2.382,0,0,1-7.126.146,2.357,2.357,0,0,1-9.077-.744,5.661,5.661,0,0,1-9.927-4.236Zm1.084,0a5.386,5.386,0,0,0,.5,2.815,1.459,1.459,0,0,0,1.222.7,1.458,1.458,0,0,0,1.222-.7,5.388,5.388,0,0,0,.5-2.812,5.384,5.384,0,0,0-.5-2.818,1.47,1.47,0,0,0-1.233-.7,1.351,1.351,0,0,0-1.16.615A5.448,5.448,0,0,0-8.843-4.236ZM-2.575,0V-1.2h1.2V0ZM.253-4.236A7.86,7.86,0,0,1,.566-6.688,3.05,3.05,0,0,1,1.5-8.121a2.382,2.382,0,0,1,1.556-.5,2.538,2.538,0,0,1,1.213.278,2.319,2.319,0,0,1,.861.8,4.306,4.306,0,0,1,.533,1.277,8.487,8.487,0,0,1,.193,2.03A7.882,7.882,0,0,1,5.544-1.8,3.051,3.051,0,0,1,4.615-.36,2.382,2.382,0,0,1,3.053.146,2.357,2.357,0,0,1,1.1-.744,5.661,5.661,0,0,1,.253-4.236Zm1.084,0a5.386,5.386,0,0,0,.5,2.815,1.459,1.459,0,0,0,1.222.7,1.458,1.458,0,0,0,1.222-.7,5.388,5.388,0,0,0,.5-2.812,5.384,5.384,0,0,0-.5-2.818,1.47,1.47,0,0,0-1.233-.7,1.351,1.351,0,0,0-1.16.615A5.448,5.448,0,0,0,1.337-4.236ZM7.211-6.527a2.611,2.611,0,0,1,.463-1.564,1.549,1.549,0,0,1,1.342-.645,1.74,1.74,0,0,1,1.339.577,2.426,2.426,0,0,1,.53,1.7,2.407,2.407,0,0,1-.536,1.679A1.717,1.717,0,0,1,9.028-4.2a1.668,1.668,0,0,1-1.3-.58A2.561,2.561,0,0,1,7.211-6.527ZM9.045-8.01a.793.793,0,0,0-.653.34,2.153,2.153,0,0,0-.261,1.248A1.935,1.935,0,0,0,8.4-5.259a.8.8,0,0,0,.65.337.8.8,0,0,0,.659-.34A2.139,2.139,0,0,0,9.965-6.5,1.948,1.948,0,0,0,9.7-7.673.8.8,0,0,0,9.045-8.01ZM9.051.316l4.7-9.053h.855L9.924.316Zm3.715-2.332a2.608,2.608,0,0,1,.463-1.567,1.558,1.558,0,0,1,1.348-.642,1.74,1.74,0,0,1,1.339.577,2.426,2.426,0,0,1,.53,1.7A2.407,2.407,0,0,1,15.91-.272a1.723,1.723,0,0,1-1.327.589,1.665,1.665,0,0,1-1.3-.583A2.563,2.563,0,0,1,12.766-2.016ZM14.606-3.5a.8.8,0,0,0-.659.34,2.153,2.153,0,0,0-.261,1.248A1.937,1.937,0,0,0,13.95-.75a.8.8,0,0,0,.65.34.8.8,0,0,0,.665-.34,2.139,2.139,0,0,0,.261-1.242,1.948,1.948,0,0,0-.264-1.169A.8.8,0,0,0,14.606-3.5Z" transform="translate(596 1077.289)" fill="#727272"/>
    <path id="Top_Retail_Sales_Loc" data-name="Top Retail Sales Loc" d="M-62.525,0V-10.021h3.78a9.127,9.127,0,0,1,1.524.1,3.02,3.02,0,0,1,1.237.468,2.457,2.457,0,0,1,.8.967,3.07,3.07,0,0,1,.3,1.367,3.081,3.081,0,0,1-.813,2.164,3.9,3.9,0,0,1-2.939.885H-61.2V0ZM-61.2-5.257h2.591a2.748,2.748,0,0,0,1.825-.479,1.7,1.7,0,0,0,.54-1.347,1.811,1.811,0,0,0-.318-1.077A1.486,1.486,0,0,0-57.4-8.75a5.666,5.666,0,0,0-1.237-.089H-61.2ZM-53.274,0V-7.26h1.107v1.1a3,3,0,0,1,.783-1.019,1.366,1.366,0,0,1,.79-.246,2.4,2.4,0,0,1,1.265.4l-.424,1.142a1.761,1.761,0,0,0-.9-.267,1.172,1.172,0,0,0-.725.243,1.315,1.315,0,0,0-.458.673A4.793,4.793,0,0,0-52.044-3.8V0Zm4.767-8.606v-1.415h1.23v1.415Zm0,8.606V-7.26h1.23V0Zm7.925-2.659,1.21.157A3.138,3.138,0,0,1-40.388-.543a2.957,2.957,0,0,1-2.006.708,3.117,3.117,0,0,1-2.4-.974A3.952,3.952,0,0,1-45.7-3.6a5.053,5.053,0,0,1,.39-2.058A2.717,2.717,0,0,1-44.12-6.983a3.519,3.519,0,0,1,1.733-.441,3.012,3.012,0,0,1,1.935.6,2.743,2.743,0,0,1,.964,1.7l-1.2.185a1.987,1.987,0,0,0-.6-1.1,1.565,1.565,0,0,0-1.049-.369,1.91,1.91,0,0,0-1.511.667,3.164,3.164,0,0,0-.581,2.109,3.271,3.271,0,0,0,.561,2.126,1.824,1.824,0,0,0,1.463.663,1.724,1.724,0,0,0,1.21-.444A2.205,2.205,0,0,0-40.583-2.659Zm7.316.321,1.271.157A3.1,3.1,0,0,1-33.109-.451a3.35,3.35,0,0,1-2.078.615,3.321,3.321,0,0,1-2.526-.981,3.833,3.833,0,0,1-.933-2.751A4.011,4.011,0,0,1-37.7-6.412a3.193,3.193,0,0,1,2.447-1.012,3.1,3.1,0,0,1,2.379.991,3.938,3.938,0,0,1,.923,2.789q0,.109-.007.328h-5.414A2.79,2.79,0,0,0-36.7-1.483a2.014,2.014,0,0,0,1.518.636A1.883,1.883,0,0,0-34.025-1.2,2.36,2.36,0,0,0-33.266-2.338Zm-4.04-1.989h4.054A2.459,2.459,0,0,0-33.717-5.7a1.886,1.886,0,0,0-1.524-.711,1.955,1.955,0,0,0-1.425.567A2.246,2.246,0,0,0-37.306-4.327ZM-26.009,0V-10.021h1.326V0Zm3.591,0V-7.26h1.107v1.032A2.61,2.61,0,0,1-19-7.424a3.031,3.031,0,0,1,1.207.236,1.9,1.9,0,0,1,.824.619,2.375,2.375,0,0,1,.383.909,7.046,7.046,0,0,1,.068,1.2V0h-1.23V-4.416a3.315,3.315,0,0,0-.144-1.125,1.183,1.183,0,0,0-.509-.595,1.62,1.62,0,0,0-.858-.222,1.994,1.994,0,0,0-1.357.5,2.462,2.462,0,0,0-.571,1.894V0Zm12.58,0V-.916a2.258,2.258,0,0,1-2.03,1.08,2.847,2.847,0,0,1-1.6-.479,3.147,3.147,0,0,1-1.128-1.336,4.619,4.619,0,0,1-.4-1.972A5.162,5.162,0,0,1-14.63-5.6a2.857,2.857,0,0,1,1.087-1.357,2.906,2.906,0,0,1,1.62-.472,2.421,2.421,0,0,1,1.169.277,2.444,2.444,0,0,1,.834.721v-3.6H-8.7V0Zm-3.89-3.623a3.153,3.153,0,0,0,.588,2.085,1.773,1.773,0,0,0,1.388.69,1.74,1.74,0,0,0,1.371-.66,3.041,3.041,0,0,0,.564-2.013,3.414,3.414,0,0,0-.574-2.187,1.766,1.766,0,0,0-1.415-.7,1.7,1.7,0,0,0-1.371.67A3.306,3.306,0,0,0-13.728-3.623Zm12.02,1.285,1.271.157A3.1,3.1,0,0,1-1.551-.451,3.35,3.35,0,0,1-3.629.164,3.321,3.321,0,0,1-6.155-.817a3.833,3.833,0,0,1-.933-2.751,4.011,4.011,0,0,1,.943-2.844A3.193,3.193,0,0,1-3.7-7.424a3.1,3.1,0,0,1,2.379.991A3.938,3.938,0,0,1-.4-3.644q0,.109-.007.328H-5.817A2.79,2.79,0,0,0-5.14-1.483a2.014,2.014,0,0,0,1.518.636A1.883,1.883,0,0,0-2.467-1.2,2.36,2.36,0,0,0-1.708-2.338Zm-4.04-1.989h4.054A2.459,2.459,0,0,0-2.16-5.7a1.886,1.886,0,0,0-1.524-.711,1.955,1.955,0,0,0-1.425.567A2.246,2.246,0,0,0-5.749-4.327ZM.372,0,3.024-3.773.57-7.26H2.108l1.114,1.7q.314.485.506.813.3-.451.554-.8L5.505-7.26h1.47L4.466-3.842,7.167,0H5.656L4.166-2.256l-.4-.608L1.862,0ZM9.691-6.58V1.358h1.036V-8.316A17.423,17.423,0,0,0,11.819-11l-.952-.434a15.555,15.555,0,0,1-3,5.67L8.207-4.7A17.468,17.468,0,0,0,9.691-6.58Zm7.574.042V1.274h.98V-6.538Zm-3.6.042v2.114C13.639-2.016,13.023-.294,11.819.77l.756.658c1.344-1.232,2.03-3.164,2.058-5.81V-6.5Zm1.778-4.872a12.918,12.918,0,0,1-4.326,5.082l.56.854a13.5,13.5,0,0,0,4.214-4.97,12.638,12.638,0,0,0,4.4,4.816l.574-.854a12.172,12.172,0,0,1-4.508-4.928Zm9.632,5.53c.336.49.756,1.134,1.246,1.946l.21-.322.378.5A15.263,15.263,0,0,0,30.8-5.824a15.846,15.846,0,0,0,3.64,2.072l.448-.938A15.018,15.018,0,0,1,31.5-6.412a9.26,9.26,0,0,0,2.2-3v-.784H29.753q.252-.5.462-1.05l-.966-.21a10.786,10.786,0,0,1-2.492,3.78l.644.77a13.4,13.4,0,0,0,1.162-1.33,9.626,9.626,0,0,0,1.5,1.778,15.023,15.023,0,0,1-3.206,1.736l.014-.014c-.6-.826-1.2-1.568-1.792-2.24v-.756H26.6v-.966H25.077v-2.73h-.994v2.73H22.221v.966h1.848a13.168,13.168,0,0,1-2.128,4.592l.434,1.092a15.82,15.82,0,0,0,1.708-3.64V1.344h.994Zm8.6,1.988H27.751V1.372h.98V.756h3.962v.616h.98ZM28.731-.182v-2.73h3.962v2.73ZM30.747-7a8.175,8.175,0,0,1-1.68-1.96c.056-.084.1-.182.154-.266H32.6A8.6,8.6,0,0,1,30.747-7Zm9.828-4.144a14.785,14.785,0,0,1-1.848,2.758,10.111,10.111,0,0,1-2.59,2.142l.546.882a14.066,14.066,0,0,0,2.8-2.394,16.776,16.776,0,0,0,1.974-2.856ZM41.037-4.9a8.6,8.6,0,0,1-1.316,3.192A9.293,9.293,0,0,1,36.8.6l.644.84a9.568,9.568,0,0,0,3.22-2.7,10.681,10.681,0,0,0,1.4-3.64h3.486a16.553,16.553,0,0,1-.476,4.27,1.424,1.424,0,0,1-1.484.966q-1.092,0-2.31-.042l.28.994H44.1A1.932,1.932,0,0,0,45.615.616a4.954,4.954,0,0,0,.686-2.24,42.488,42.488,0,0,0,.266-4.242H38.209V-4.9Zm3.486-6.426-.868.49a11.157,11.157,0,0,0,4.536,5.418l.672-.8A9.894,9.894,0,0,1,44.523-11.326Zm8.946,5.4a24.086,24.086,0,0,1,1.47,2.072l.546-.8c-.686-.868-1.358-1.638-2.016-2.324v-.756h1.89v-.966h-1.89v-2.744h-.994v2.744H50.431v.966h1.988A12.733,12.733,0,0,1,50.151-3.01l.434,1.092A15.838,15.838,0,0,0,52.475-5.8V1.358h.994ZM62-11.382a17.811,17.811,0,0,1-5.81,1.05v4.494A11.075,11.075,0,0,1,54.323.546l.714.742a12.369,12.369,0,0,0,2.128-7.126v-.154h2.59V1.372h1.008V-5.992h2.086v-.966H57.165v-2.52A18.424,18.424,0,0,0,62.5-10.486Z" transform="translate(244 893)" fill="#727272"/>
    <path id="Top_Retail_Sales_Loc-2" data-name="Top Retail Sales Loc" d="M-35.826-4.522l-.588.546A10.694,10.694,0,0,1-34.93-2.912h-4.242v.84h6.3A13.345,13.345,0,0,1-35.238-.5c-.812-.308-1.666-.574-2.548-.826l-.5.742A29.847,29.847,0,0,1-32.8,1.54l.518-.8c-.63-.308-1.288-.6-1.96-.868a15.571,15.571,0,0,0,2.716-2.086v-.7H-34.51l.35-.406A8.274,8.274,0,0,0-35.826-4.522Zm.14-1.526a21.214,21.214,0,0,1-5.95,2.618l.56.812a20.319,20.319,0,0,0,5.852-2.828A16.742,16.742,0,0,0-29.4-2.618l.56-.826A17.1,17.1,0,0,1-34.734-6.02V-8.554h4.27v1.876h.966v-2.66h-5.236v-.84h4.662v-.812H-40.348v.812h4.662v.84h-5.236v2.66h.966V-8.554h4.27Zm-3.57-1.736v.658H-36.4v-.658ZM-39.284-6.4v.658h2.9V-6.4Zm5.292-1.386v.658h2.814v-.658ZM-34.006-6.4v.658h2.87V-6.4Zm9.548-5.124a15.587,15.587,0,0,1-3.22,5.81l.322,1.078A17.527,17.527,0,0,0-25.886-6.4V1.414h.994V-7.938a17.626,17.626,0,0,0,1.386-3.15Zm2.352.924a12.024,12.024,0,0,1-1.736,4.732l.644.84A10.926,10.926,0,0,0-21.9-7.5h2.38V-4.13h-4.116v.966h4.116V1.344h1.008V-3.164h3.738V-4.13h-3.738V-7.5h3.22v-.98h-3.22V-11.4h-1.008v2.912h-2.058a13.782,13.782,0,0,0,.462-1.988Zm18.48-.882-.644.616A10.482,10.482,0,0,1-2.576-9.3H-5.194c-.028-.672-.042-1.386-.042-2.17H-6.272c0,.756.014,1.47.042,2.17h-5.782v4.662a9.56,9.56,0,0,1-1.4,5.348l.77.686A10.956,10.956,0,0,0-10.99-4.634v-.42h2.422A25.882,25.882,0,0,1-8.722-2.03c-.084.392-.28.6-.588.616q-.567,0-1.386-.042l.308.91c.448.028.854.056,1.19.056a1.276,1.276,0,0,0,1.316-.938A24,24,0,0,0-7.56-6.006h-3.43V-8.33h4.8a23.844,23.844,0,0,0,.616,4.4,15.827,15.827,0,0,0,.532,1.68A9.412,9.412,0,0,1-8.6.518l.56.84a9.65,9.65,0,0,0,3.444-2.59,7.1,7.1,0,0,0,.7,1.162A2.684,2.684,0,0,0-2,1.19c.63,0,1.106-.938,1.442-2.8l-.91-.5C-1.68-.672-1.918.056-2.17.07c-.28,0-.658-.336-1.12-1.008A6.873,6.873,0,0,1-3.92-2.1,16.1,16.1,0,0,0-1.736-6.776l-.91-.392A15.575,15.575,0,0,1-4.34-3.234c-.1-.308-.2-.63-.28-.98A23.007,23.007,0,0,1-5.152-8.33H-.84V-9.3H-2.548L-1.9-9.94A12.61,12.61,0,0,0-3.626-11.48ZM1.05-8.862V-7.9H5.628A13.392,13.392,0,0,1,.56-1.82l.574.938A14.875,14.875,0,0,0,6.426-7.9h.1v5.46H3.64v.966H6.524V1.4H7.56V-1.47h3v-.966h-3V-7.9h.112A16.246,16.246,0,0,0,12.8-1.064l.686-.868A14.4,14.4,0,0,1,8.456-7.9H13.02v-.966H7.56V-11.4H6.524v2.534Zm20.426-2.59a13.327,13.327,0,0,1-1.792,5.04l.644.84a13.511,13.511,0,0,0,1.428-2.884h4.256q-.021,6.51-.21,7.728A1.153,1.153,0,0,1,24.6.378c-.448,0-.966-.028-1.582-.056l.224.91q1.071.042,1.512.042A1.8,1.8,0,0,0,26.74-.434c.14-1.12.224-4.116.224-8.96H22.05a19.567,19.567,0,0,0,.42-1.932ZM20.328-1.624c1.372-.28,2.6-.56,3.668-.854.112.392.238.812.364,1.26l.882-.392a29.527,29.527,0,0,0-1.26-3.514l-.84.294c.2.476.406,1.008.6,1.6-.672.168-1.442.336-2.282.5A32.826,32.826,0,0,0,23.1-6.636l-.882-.322c-.994,2.8-1.68,4.3-2.072,4.508ZM17.948-5.74c.392.5.868,1.176,1.414,1.988l.56-.854c-.672-.826-1.33-1.568-1.974-2.24v-.882H19.67v-.966H17.948v-2.73h-.994v2.73h-2.03v.966h1.96A13.075,13.075,0,0,1,14.644-3L15.078-1.9a15.805,15.805,0,0,0,1.876-3.878V1.344h.994Zm20.678-5.74-.644.616A10.482,10.482,0,0,1,39.676-9.3H37.058c-.028-.672-.042-1.386-.042-2.17H35.98c0,.756.014,1.47.042,2.17H30.24v4.662A9.56,9.56,0,0,1,28.84.714l.77.686a10.956,10.956,0,0,0,1.652-6.034v-.42h2.422A25.882,25.882,0,0,1,33.53-2.03c-.084.392-.28.6-.588.616q-.567,0-1.386-.042l.308.91c.448.028.854.056,1.19.056a1.276,1.276,0,0,0,1.316-.938,24,24,0,0,0,.322-4.578h-3.43V-8.33h4.8a23.844,23.844,0,0,0,.616,4.4,15.827,15.827,0,0,0,.532,1.68A9.412,9.412,0,0,1,33.656.518l.56.84a9.65,9.65,0,0,0,3.444-2.59,7.1,7.1,0,0,0,.7,1.162,2.684,2.684,0,0,0,1.89,1.26c.63,0,1.106-.938,1.442-2.8l-.91-.5c-.21,1.442-.448,2.17-.7,2.184-.28,0-.658-.336-1.12-1.008a6.873,6.873,0,0,1-.63-1.162,16.1,16.1,0,0,0,2.184-4.676l-.91-.392a15.575,15.575,0,0,1-1.694,3.934c-.1-.308-.2-.63-.28-.98A23.006,23.006,0,0,1,37.1-8.33h4.312V-9.3H39.7l.644-.644A12.61,12.61,0,0,0,38.626-11.48Z" transform="translate(688 893)" fill="#727272"/>
    <path id="Top_Retail_Sales_Loc-3" data-name="Top Retail Sales Loc" d="M-11.583-4.236a7.86,7.86,0,0,1,.313-2.452,3.05,3.05,0,0,1,.932-1.433,2.382,2.382,0,0,1,1.556-.5,2.538,2.538,0,0,1,1.213.278,2.319,2.319,0,0,1,.861.8,4.306,4.306,0,0,1,.533,1.277,8.487,8.487,0,0,1,.193,2.03A7.882,7.882,0,0,1-6.292-1.8,3.051,3.051,0,0,1-7.22-.36,2.382,2.382,0,0,1-8.782.146a2.357,2.357,0,0,1-1.951-.891A5.661,5.661,0,0,1-11.583-4.236Zm1.084,0A5.386,5.386,0,0,0-10-1.421a1.459,1.459,0,0,0,1.222.7,1.458,1.458,0,0,0,1.222-.7,5.388,5.388,0,0,0,.5-2.812,5.384,5.384,0,0,0-.5-2.818,1.47,1.47,0,0,0-1.233-.7,1.351,1.351,0,0,0-1.16.615A5.448,5.448,0,0,0-10.5-4.236Zm5.662,0a7.86,7.86,0,0,1,.313-2.452,3.05,3.05,0,0,1,.932-1.433,2.382,2.382,0,0,1,1.556-.5,2.538,2.538,0,0,1,1.213.278,2.319,2.319,0,0,1,.861.8A4.306,4.306,0,0,1,.571-6.267a8.487,8.487,0,0,1,.193,2.03A7.882,7.882,0,0,1,.454-1.8,3.051,3.051,0,0,1-.475-.36,2.382,2.382,0,0,1-2.036.146,2.357,2.357,0,0,1-3.987-.744,5.661,5.661,0,0,1-4.837-4.236Zm1.084,0a5.386,5.386,0,0,0,.5,2.815,1.459,1.459,0,0,0,1.222.7,1.458,1.458,0,0,0,1.222-.7,5.388,5.388,0,0,0,.5-2.812,5.384,5.384,0,0,0-.5-2.818,1.47,1.47,0,0,0-1.233-.7,1.351,1.351,0,0,0-1.16.615A5.448,5.448,0,0,0-3.753-4.236ZM2.108-6.527a2.611,2.611,0,0,1,.463-1.564,1.549,1.549,0,0,1,1.342-.645,1.74,1.74,0,0,1,1.339.577,2.426,2.426,0,0,1,.53,1.7,2.407,2.407,0,0,1-.536,1.679A1.717,1.717,0,0,1,3.925-4.2a1.668,1.668,0,0,1-1.3-.58A2.561,2.561,0,0,1,2.108-6.527ZM3.942-8.01a.793.793,0,0,0-.653.34,2.153,2.153,0,0,0-.261,1.248,1.935,1.935,0,0,0,.264,1.163.8.8,0,0,0,.65.337.8.8,0,0,0,.659-.34A2.139,2.139,0,0,0,4.862-6.5,1.948,1.948,0,0,0,4.6-7.673.8.8,0,0,0,3.942-8.01ZM3.948.316l4.7-9.053H9.5L4.821.316ZM7.663-2.016a2.608,2.608,0,0,1,.463-1.567,1.558,1.558,0,0,1,1.348-.642,1.74,1.74,0,0,1,1.339.577,2.426,2.426,0,0,1,.53,1.7,2.407,2.407,0,0,1-.536,1.679A1.723,1.723,0,0,1,9.479.316a1.665,1.665,0,0,1-1.3-.583A2.563,2.563,0,0,1,7.663-2.016ZM9.5-3.5a.8.8,0,0,0-.659.34A2.153,2.153,0,0,0,8.583-1.91,1.937,1.937,0,0,0,8.846-.75a.8.8,0,0,0,.65.34.8.8,0,0,0,.665-.34,2.139,2.139,0,0,0,.261-1.242,1.948,1.948,0,0,0-.264-1.169A.8.8,0,0,0,9.5-3.5Z" transform="translate(659 948.289)" fill="#727272"/>
    <path id="Top_Retail_Sales_Loc-4" data-name="Top Retail Sales Loc" d="M-11.583-4.236a7.86,7.86,0,0,1,.313-2.452,3.05,3.05,0,0,1,.932-1.433,2.382,2.382,0,0,1,1.556-.5,2.538,2.538,0,0,1,1.213.278,2.319,2.319,0,0,1,.861.8,4.306,4.306,0,0,1,.533,1.277,8.487,8.487,0,0,1,.193,2.03A7.882,7.882,0,0,1-6.292-1.8,3.051,3.051,0,0,1-7.22-.36,2.382,2.382,0,0,1-8.782.146a2.357,2.357,0,0,1-1.951-.891A5.661,5.661,0,0,1-11.583-4.236Zm1.084,0A5.386,5.386,0,0,0-10-1.421a1.459,1.459,0,0,0,1.222.7,1.458,1.458,0,0,0,1.222-.7,5.388,5.388,0,0,0,.5-2.812,5.384,5.384,0,0,0-.5-2.818,1.47,1.47,0,0,0-1.233-.7,1.351,1.351,0,0,0-1.16.615A5.448,5.448,0,0,0-10.5-4.236Zm5.662,0a7.86,7.86,0,0,1,.313-2.452,3.05,3.05,0,0,1,.932-1.433,2.382,2.382,0,0,1,1.556-.5,2.538,2.538,0,0,1,1.213.278,2.319,2.319,0,0,1,.861.8A4.306,4.306,0,0,1,.571-6.267a8.487,8.487,0,0,1,.193,2.03A7.882,7.882,0,0,1,.454-1.8,3.051,3.051,0,0,1-.475-.36,2.382,2.382,0,0,1-2.036.146,2.357,2.357,0,0,1-3.987-.744,5.661,5.661,0,0,1-4.837-4.236Zm1.084,0a5.386,5.386,0,0,0,.5,2.815,1.459,1.459,0,0,0,1.222.7,1.458,1.458,0,0,0,1.222-.7,5.388,5.388,0,0,0,.5-2.812,5.384,5.384,0,0,0-.5-2.818,1.47,1.47,0,0,0-1.233-.7,1.351,1.351,0,0,0-1.16.615A5.448,5.448,0,0,0-3.753-4.236ZM2.108-6.527a2.611,2.611,0,0,1,.463-1.564,1.549,1.549,0,0,1,1.342-.645,1.74,1.74,0,0,1,1.339.577,2.426,2.426,0,0,1,.53,1.7,2.407,2.407,0,0,1-.536,1.679A1.717,1.717,0,0,1,3.925-4.2a1.668,1.668,0,0,1-1.3-.58A2.561,2.561,0,0,1,2.108-6.527ZM3.942-8.01a.793.793,0,0,0-.653.34,2.153,2.153,0,0,0-.261,1.248,1.935,1.935,0,0,0,.264,1.163.8.8,0,0,0,.65.337.8.8,0,0,0,.659-.34A2.139,2.139,0,0,0,4.862-6.5,1.948,1.948,0,0,0,4.6-7.673.8.8,0,0,0,3.942-8.01ZM3.948.316l4.7-9.053H9.5L4.821.316ZM7.663-2.016a2.608,2.608,0,0,1,.463-1.567,1.558,1.558,0,0,1,1.348-.642,1.74,1.74,0,0,1,1.339.577,2.426,2.426,0,0,1,.53,1.7,2.407,2.407,0,0,1-.536,1.679A1.723,1.723,0,0,1,9.479.316a1.665,1.665,0,0,1-1.3-.583A2.563,2.563,0,0,1,7.663-2.016ZM9.5-3.5a.8.8,0,0,0-.659.34A2.153,2.153,0,0,0,8.583-1.91,1.937,1.937,0,0,0,8.846-.75a.8.8,0,0,0,.65.34.8.8,0,0,0,.665-.34,2.139,2.139,0,0,0,.261-1.242,1.948,1.948,0,0,0-.264-1.169A.8.8,0,0,0,9.5-3.5Z" transform="translate(943 948.289)" fill="#727272"/>
    <path id="Top_Retail_Sales_Loc-5" data-name="Top Retail Sales Loc" d="M-11.583-4.236a7.86,7.86,0,0,1,.313-2.452,3.05,3.05,0,0,1,.932-1.433,2.382,2.382,0,0,1,1.556-.5,2.538,2.538,0,0,1,1.213.278,2.319,2.319,0,0,1,.861.8,4.306,4.306,0,0,1,.533,1.277,8.487,8.487,0,0,1,.193,2.03A7.882,7.882,0,0,1-6.292-1.8,3.051,3.051,0,0,1-7.22-.36,2.382,2.382,0,0,1-8.782.146a2.357,2.357,0,0,1-1.951-.891A5.661,5.661,0,0,1-11.583-4.236Zm1.084,0A5.386,5.386,0,0,0-10-1.421a1.459,1.459,0,0,0,1.222.7,1.458,1.458,0,0,0,1.222-.7,5.388,5.388,0,0,0,.5-2.812,5.384,5.384,0,0,0-.5-2.818,1.47,1.47,0,0,0-1.233-.7,1.351,1.351,0,0,0-1.16.615A5.448,5.448,0,0,0-10.5-4.236Zm5.662,0a7.86,7.86,0,0,1,.313-2.452,3.05,3.05,0,0,1,.932-1.433,2.382,2.382,0,0,1,1.556-.5,2.538,2.538,0,0,1,1.213.278,2.319,2.319,0,0,1,.861.8A4.306,4.306,0,0,1,.571-6.267a8.487,8.487,0,0,1,.193,2.03A7.882,7.882,0,0,1,.454-1.8,3.051,3.051,0,0,1-.475-.36,2.382,2.382,0,0,1-2.036.146,2.357,2.357,0,0,1-3.987-.744,5.661,5.661,0,0,1-4.837-4.236Zm1.084,0a5.386,5.386,0,0,0,.5,2.815,1.459,1.459,0,0,0,1.222.7,1.458,1.458,0,0,0,1.222-.7,5.388,5.388,0,0,0,.5-2.812,5.384,5.384,0,0,0-.5-2.818,1.47,1.47,0,0,0-1.233-.7,1.351,1.351,0,0,0-1.16.615A5.448,5.448,0,0,0-3.753-4.236ZM2.108-6.527a2.611,2.611,0,0,1,.463-1.564,1.549,1.549,0,0,1,1.342-.645,1.74,1.74,0,0,1,1.339.577,2.426,2.426,0,0,1,.53,1.7,2.407,2.407,0,0,1-.536,1.679A1.717,1.717,0,0,1,3.925-4.2a1.668,1.668,0,0,1-1.3-.58A2.561,2.561,0,0,1,2.108-6.527ZM3.942-8.01a.793.793,0,0,0-.653.34,2.153,2.153,0,0,0-.261,1.248,1.935,1.935,0,0,0,.264,1.163.8.8,0,0,0,.65.337.8.8,0,0,0,.659-.34A2.139,2.139,0,0,0,4.862-6.5,1.948,1.948,0,0,0,4.6-7.673.8.8,0,0,0,3.942-8.01ZM3.948.316l4.7-9.053H9.5L4.821.316ZM7.663-2.016a2.608,2.608,0,0,1,.463-1.567,1.558,1.558,0,0,1,1.348-.642,1.74,1.74,0,0,1,1.339.577,2.426,2.426,0,0,1,.53,1.7,2.407,2.407,0,0,1-.536,1.679A1.723,1.723,0,0,1,9.479.316a1.665,1.665,0,0,1-1.3-.583A2.563,2.563,0,0,1,7.663-2.016ZM9.5-3.5a.8.8,0,0,0-.659.34A2.153,2.153,0,0,0,8.583-1.91,1.937,1.937,0,0,0,8.846-.75a.8.8,0,0,0,.65.34.8.8,0,0,0,.665-.34,2.139,2.139,0,0,0,.261-1.242,1.948,1.948,0,0,0-.264-1.169A.8.8,0,0,0,9.5-3.5Z" transform="translate(659 1022.289)" fill="#727272"/>
    <path id="Top_Retail_Sales_Loc-6" data-name="Top Retail Sales Loc" d="M-11.583-4.236a7.86,7.86,0,0,1,.313-2.452,3.05,3.05,0,0,1,.932-1.433,2.382,2.382,0,0,1,1.556-.5,2.538,2.538,0,0,1,1.213.278,2.319,2.319,0,0,1,.861.8,4.306,4.306,0,0,1,.533,1.277,8.487,8.487,0,0,1,.193,2.03A7.882,7.882,0,0,1-6.292-1.8,3.051,3.051,0,0,1-7.22-.36,2.382,2.382,0,0,1-8.782.146a2.357,2.357,0,0,1-1.951-.891A5.661,5.661,0,0,1-11.583-4.236Zm1.084,0A5.386,5.386,0,0,0-10-1.421a1.459,1.459,0,0,0,1.222.7,1.458,1.458,0,0,0,1.222-.7,5.388,5.388,0,0,0,.5-2.812,5.384,5.384,0,0,0-.5-2.818,1.47,1.47,0,0,0-1.233-.7,1.351,1.351,0,0,0-1.16.615A5.448,5.448,0,0,0-10.5-4.236Zm5.662,0a7.86,7.86,0,0,1,.313-2.452,3.05,3.05,0,0,1,.932-1.433,2.382,2.382,0,0,1,1.556-.5,2.538,2.538,0,0,1,1.213.278,2.319,2.319,0,0,1,.861.8A4.306,4.306,0,0,1,.571-6.267a8.487,8.487,0,0,1,.193,2.03A7.882,7.882,0,0,1,.454-1.8,3.051,3.051,0,0,1-.475-.36,2.382,2.382,0,0,1-2.036.146,2.357,2.357,0,0,1-3.987-.744,5.661,5.661,0,0,1-4.837-4.236Zm1.084,0a5.386,5.386,0,0,0,.5,2.815,1.459,1.459,0,0,0,1.222.7,1.458,1.458,0,0,0,1.222-.7,5.388,5.388,0,0,0,.5-2.812,5.384,5.384,0,0,0-.5-2.818,1.47,1.47,0,0,0-1.233-.7,1.351,1.351,0,0,0-1.16.615A5.448,5.448,0,0,0-3.753-4.236ZM2.108-6.527a2.611,2.611,0,0,1,.463-1.564,1.549,1.549,0,0,1,1.342-.645,1.74,1.74,0,0,1,1.339.577,2.426,2.426,0,0,1,.53,1.7,2.407,2.407,0,0,1-.536,1.679A1.717,1.717,0,0,1,3.925-4.2a1.668,1.668,0,0,1-1.3-.58A2.561,2.561,0,0,1,2.108-6.527ZM3.942-8.01a.793.793,0,0,0-.653.34,2.153,2.153,0,0,0-.261,1.248,1.935,1.935,0,0,0,.264,1.163.8.8,0,0,0,.65.337.8.8,0,0,0,.659-.34A2.139,2.139,0,0,0,4.862-6.5,1.948,1.948,0,0,0,4.6-7.673.8.8,0,0,0,3.942-8.01ZM3.948.316l4.7-9.053H9.5L4.821.316ZM7.663-2.016a2.608,2.608,0,0,1,.463-1.567,1.558,1.558,0,0,1,1.348-.642,1.74,1.74,0,0,1,1.339.577,2.426,2.426,0,0,1,.53,1.7,2.407,2.407,0,0,1-.536,1.679A1.723,1.723,0,0,1,9.479.316a1.665,1.665,0,0,1-1.3-.583A2.563,2.563,0,0,1,7.663-2.016ZM9.5-3.5a.8.8,0,0,0-.659.34A2.153,2.153,0,0,0,8.583-1.91,1.937,1.937,0,0,0,8.846-.75a.8.8,0,0,0,.65.34.8.8,0,0,0,.665-.34,2.139,2.139,0,0,0,.261-1.242,1.948,1.948,0,0,0-.264-1.169A.8.8,0,0,0,9.5-3.5Z" transform="translate(943 1087.289)" fill="#727272"/>
    <path id="Top_Retail_Sales_Loc-7" data-name="Top Retail Sales Loc" d="M-11.583-4.236a7.86,7.86,0,0,1,.313-2.452,3.05,3.05,0,0,1,.932-1.433,2.382,2.382,0,0,1,1.556-.5,2.538,2.538,0,0,1,1.213.278,2.319,2.319,0,0,1,.861.8,4.306,4.306,0,0,1,.533,1.277,8.487,8.487,0,0,1,.193,2.03A7.882,7.882,0,0,1-6.292-1.8,3.051,3.051,0,0,1-7.22-.36,2.382,2.382,0,0,1-8.782.146a2.357,2.357,0,0,1-1.951-.891A5.661,5.661,0,0,1-11.583-4.236Zm1.084,0A5.386,5.386,0,0,0-10-1.421a1.459,1.459,0,0,0,1.222.7,1.458,1.458,0,0,0,1.222-.7,5.388,5.388,0,0,0,.5-2.812,5.384,5.384,0,0,0-.5-2.818,1.47,1.47,0,0,0-1.233-.7,1.351,1.351,0,0,0-1.16.615A5.448,5.448,0,0,0-10.5-4.236Zm5.662,0a7.86,7.86,0,0,1,.313-2.452,3.05,3.05,0,0,1,.932-1.433,2.382,2.382,0,0,1,1.556-.5,2.538,2.538,0,0,1,1.213.278,2.319,2.319,0,0,1,.861.8A4.306,4.306,0,0,1,.571-6.267a8.487,8.487,0,0,1,.193,2.03A7.882,7.882,0,0,1,.454-1.8,3.051,3.051,0,0,1-.475-.36,2.382,2.382,0,0,1-2.036.146,2.357,2.357,0,0,1-3.987-.744,5.661,5.661,0,0,1-4.837-4.236Zm1.084,0a5.386,5.386,0,0,0,.5,2.815,1.459,1.459,0,0,0,1.222.7,1.458,1.458,0,0,0,1.222-.7,5.388,5.388,0,0,0,.5-2.812,5.384,5.384,0,0,0-.5-2.818,1.47,1.47,0,0,0-1.233-.7,1.351,1.351,0,0,0-1.16.615A5.448,5.448,0,0,0-3.753-4.236ZM2.108-6.527a2.611,2.611,0,0,1,.463-1.564,1.549,1.549,0,0,1,1.342-.645,1.74,1.74,0,0,1,1.339.577,2.426,2.426,0,0,1,.53,1.7,2.407,2.407,0,0,1-.536,1.679A1.717,1.717,0,0,1,3.925-4.2a1.668,1.668,0,0,1-1.3-.58A2.561,2.561,0,0,1,2.108-6.527ZM3.942-8.01a.793.793,0,0,0-.653.34,2.153,2.153,0,0,0-.261,1.248,1.935,1.935,0,0,0,.264,1.163.8.8,0,0,0,.65.337.8.8,0,0,0,.659-.34A2.139,2.139,0,0,0,4.862-6.5,1.948,1.948,0,0,0,4.6-7.673.8.8,0,0,0,3.942-8.01ZM3.948.316l4.7-9.053H9.5L4.821.316ZM7.663-2.016a2.608,2.608,0,0,1,.463-1.567,1.558,1.558,0,0,1,1.348-.642,1.74,1.74,0,0,1,1.339.577,2.426,2.426,0,0,1,.53,1.7,2.407,2.407,0,0,1-.536,1.679A1.723,1.723,0,0,1,9.479.316a1.665,1.665,0,0,1-1.3-.583A2.563,2.563,0,0,1,7.663-2.016ZM9.5-3.5a.8.8,0,0,0-.659.34A2.153,2.153,0,0,0,8.583-1.91,1.937,1.937,0,0,0,8.846-.75a.8.8,0,0,0,.65.34.8.8,0,0,0,.665-.34,2.139,2.139,0,0,0,.261-1.242,1.948,1.948,0,0,0-.264-1.169A.8.8,0,0,0,9.5-3.5Z" transform="translate(659 1086.289)" fill="#727272"/>
    <g id="蒙版组_54" data-name="蒙版组 54" transform="translate(796.084 929.109)" clip-path="url(#clip-path)">
      <path id="路径_19503" data-name="路径 19503" d="M77.725,0c42.926,0,77.725,35.147,77.725,78.5S120.652,157,77.725,157,0,121.857,0,78.5,34.8,0,77.725,0Z" transform="translate(-77.725 5.395)" fill="#1976d1"/>
    </g>
    <g id="蒙版组_55" data-name="蒙版组 55" transform="translate(757.82 1014.996)" clip-path="url(#clip-path-2)">
      <path id="路径_19505" data-name="路径 19505" d="M77.725,0c42.926,0,77.725,35.147,77.725,78.5S120.652,157,77.725,157,0,121.857,0,78.5,34.8,0,77.725,0Z" transform="translate(-39.461 -78.502)" fill="#2297f3"/>
    </g>
    <g id="蒙版组_56" data-name="蒙版组 56" transform="translate(695.076 1014.996)" clip-path="url(#clip-path-3)">
      <path id="路径_19507" data-name="路径 19507" d="M77.725,0c42.926,0,77.725,35.147,77.725,78.5S120.652,157,77.725,157,0,121.857,0,78.5,34.8,0,77.725,0Z" transform="translate(21.728 -78.502)" fill="#004e3f"/>
    </g>
    <g id="蒙版组_57" data-name="蒙版组 57" transform="translate(708.225 1001.51)" clip-path="url(#clip-path-4)">
      <path id="路径_19509" data-name="路径 19509" d="M77.725,0c42.926,0,77.725,35.147,77.725,78.5S120.652,157,77.725,157,0,121.857,0,78.5,34.8,0,77.725,0Z" transform="translate(8.19 -65.841)" fill="#212121"/>
    </g>
    <g id="蒙版组_58" data-name="蒙版组 58" transform="translate(705.996 925.906)" clip-path="url(#clip-path-5)">
      <path id="矩形_9300" data-name="矩形 9300" d="M10,1a9.01,9.01,0,0,0-9,9V249.6a9.01,9.01,0,0,0,9,9H408.161a9.01,9.01,0,0,0,9-9V10a9.01,9.01,0,0,0-9-9H10m0-1H408.161a10,10,0,0,1,10,10V249.6a10,10,0,0,1-10,10H10a10,10,0,0,1-10-10V10A10,10,0,0,1,10,0Z" transform="translate(-79.353 -50.862)" fill="#acb8cf" opacity="0.4"/>
      <path id="路径_19511" data-name="路径 19511" d="M77.725,0c42.926,0,77.725,35.147,77.725,78.5S120.652,157,77.725,157,0,121.857,0,78.5,34.8,0,77.725,0Z" transform="translate(10.809 8.598)" fill="#0c47a1"/>
    </g>
    <path id="路径_19549" data-name="路径 19549" d="M60.7,0A60.7,60.7,0,1,1,0,60.7,60.7,60.7,0,0,1,60.7,0Z" transform="translate(735.258 953.699)" fill="#fff"/>
    <path id="路径_19519" data-name="路径 19519" d="M6,3A3,3,0,1,0,9,6,3,3,0,0,0,6,3M6,0A6,6,0,1,1,0,6,6,6,0,0,1,6,0Z" transform="translate(676 938.289)" fill="#0c47a1"/>
    <path id="路径_19524" data-name="路径 19524" d="M6,3A3,3,0,1,0,9,6,3,3,0,0,0,6,3M6,0A6,6,0,1,1,0,6,6,6,0,0,1,6,0Z" transform="translate(914 938.289)" fill="#1976d1"/>
    <path id="路径_19525" data-name="路径 19525" d="M6,3A3,3,0,1,0,9,6,3,3,0,0,0,6,3M6,0A6,6,0,1,1,0,6,6,6,0,0,1,6,0Z" transform="translate(914 1076.289)" fill="#2297f3"/>
    <path id="路径_19520" data-name="路径 19520" d="M6,3A3,3,0,1,0,9,6,3,3,0,0,0,6,3M6,0A6,6,0,1,1,0,6,6,6,0,0,1,6,0Z" transform="translate(676 1012.289)" fill="#212121"/>
    <path id="路径_19521" data-name="路径 19521" d="M6,3A3,3,0,1,0,9,6,3,3,0,0,0,6,3M6,0A6,6,0,1,1,0,6,6,6,0,0,1,6,0Z" transform="translate(676 1076.289)" fill="#004e3f"/>
    <path id="路径_19515" data-name="路径 19515" d="M12670.337-10038.06l-23-11.652h-18.687v-.6h18.83l.064.032,23.065,11.685Z" transform="translate(-11938.244 10994.301)" fill="#c0c9d9" opacity="0.749"/>
    <path id="路径_19517" data-name="路径 19517" d="M12694.473-10049.711h-21.482v-.6h21.482Z" transform="translate(-11982.586 11067.86)" fill="#c0c9d9" opacity="0.749"/>
    <path id="路径_19518" data-name="路径 19518" d="M12670.053-10034.712H12639.9v-.6h29.844l10.523-14.873.49.346Z" transform="translate(-11949.494 11117.479)" fill="#c0c9d9" opacity="0.749"/>
    <path id="路径_19522" data-name="路径 19522" d="M12644.336-10031.643l-.672-.742,20.03-18.127h17.373v1h-16.988Z" transform="translate(-11772.016 10994.301)" fill="#c0c9d9" opacity="0.749"/>
    <path id="路径_19523" data-name="路径 19523" d="M12696.439-10049.772H12663.5l-14.348-13.867.417-.432,14.173,13.7h32.7Z" transform="translate(-11782.383 11132.539)" fill="#c0c9d9" opacity="0.749"/>
  </g>
</svg>
