<svg xmlns="http://www.w3.org/2000/svg" width="777" height="287.924" viewBox="0 0 777 287.924">
  <g id="组_13846" data-name="组 13846" transform="translate(-1070 -1297.076)">
    <path id="矩形_9278" data-name="矩形 9278" d="M5,0H55a5,5,0,0,1,5,5V199a0,0,0,0,1,0,0H0a0,0,0,0,1,0,0V5A5,5,0,0,1,5,0Z" transform="translate(1143 1386)" fill="#c6deff"/>
    <path id="矩形_9287" data-name="矩形 9287" d="M5,0H55a5,5,0,0,1,5,5V177a0,0,0,0,1,0,0H0a0,0,0,0,1,0,0V5A5,5,0,0,1,5,0Z" transform="translate(1647 1408)" fill="#0040be"/>
    <path id="矩形_9288" data-name="矩形 9288" d="M5,0H55a5,5,0,0,1,5,5V156a0,0,0,0,1,0,0H0a0,0,0,0,1,0,0V5A5,5,0,0,1,5,0Z" transform="translate(1707 1429)" fill="#5c6bc0"/>
    <path id="矩形_9285" data-name="矩形 9285" d="M5,0H55a5,5,0,0,1,5,5V199a0,0,0,0,1,0,0H0a0,0,0,0,1,0,0V5A5,5,0,0,1,5,0Z" transform="translate(1271 1386)" fill="#72aeff"/>
    <path id="路径_19493" data-name="路径 19493" d="M5,0H55c2.761,0,5,1.92,5,4.289V186.123H0V4.289C0,1.92,2.239,0,5,0Z" transform="translate(1331 1398.877)" fill="#9bbeff"/>
    <path id="矩形_9289" data-name="矩形 9289" d="M5,0H55a5,5,0,0,1,5,5V199a0,0,0,0,1,0,0H0a0,0,0,0,1,0,0V5A5,5,0,0,1,5,0Z" transform="translate(1459 1386)" fill="#1763f7"/>
    <path id="路径_19494" data-name="路径 19494" d="M5,0H55c2.761,0,5,1.92,5,4.289V186.123H0V4.289C0,1.92,2.239,0,5,0Z" transform="translate(1519 1398.877)" fill="#5993ff"/>
    <circle id="椭圆_612" data-name="椭圆 612" cx="5" cy="5" r="5" transform="translate(1509 1297.5)" fill="#c6deff"/>
    <circle id="椭圆_613" data-name="椭圆 613" cx="5" cy="5" r="5" transform="translate(1587 1297.5)" fill="#72aeff"/>
    <circle id="椭圆_614" data-name="椭圆 614" cx="5" cy="5" r="5" transform="translate(1665 1297.5)" fill="#1763f7"/>
    <circle id="椭圆_615" data-name="椭圆 615" cx="5" cy="5" r="5" transform="translate(1743 1297.5)" fill="#0040be"/>
    <circle id="椭圆_616" data-name="椭圆 616" cx="5" cy="5" r="5" transform="translate(1804 1297.5)" fill="#5c6bc0"/>
    <path id="直线_763" data-name="直线 763" d="M777,.5H0v-1H777Z" transform="translate(1070 1584.5)" fill="#acb8cf"/>
    <path id="路径_19548" data-name="路径 19548" d="M6.563-8.59H7.7v4.963A5.874,5.874,0,0,1,7.406-1.57,2.509,2.509,0,0,1,6.349-.331,3.745,3.745,0,0,1,4.342.146,4.125,4.125,0,0,1,2.367-.27a2.375,2.375,0,0,1-1.1-1.2A5.738,5.738,0,0,1,.943-3.627V-8.59H2.08v4.957a4.832,4.832,0,0,0,.208,1.649A1.579,1.579,0,0,0,3-1.166a2.48,2.48,0,0,0,1.239.287,2.368,2.368,0,0,0,1.787-.568,3.274,3.274,0,0,0,.533-2.186ZM9.457,0V-6.223h.949v.885a2.237,2.237,0,0,1,1.98-1.025,2.6,2.6,0,0,1,1.034.2,1.627,1.627,0,0,1,.706.53,2.035,2.035,0,0,1,.328.779,6.039,6.039,0,0,1,.059,1.025V0H13.459V-3.785a2.841,2.841,0,0,0-.123-.964,1.014,1.014,0,0,0-.437-.51,1.389,1.389,0,0,0-.735-.19A1.709,1.709,0,0,0,11-5.021,2.11,2.11,0,0,0,10.512-3.4V0Zm6.68-7.377V-8.59h1.055v1.213Zm0,7.377V-6.223h1.055V0ZM21.1-.943l.152.932a3.912,3.912,0,0,1-.8.094A1.8,1.8,0,0,1,19.564-.1a1.017,1.017,0,0,1-.445-.478,3.776,3.776,0,0,1-.129-1.245V-5.4h-.773v-.82h.773V-7.764L20.039-8.4v2.174H21.1v.82H20.039v3.639a1.838,1.838,0,0,0,.056.58.439.439,0,0,0,.182.205.7.7,0,0,0,.36.076A3.431,3.431,0,0,0,21.1-.943Zm1.324-4.078v-1.2h1.2v1.2Zm0,5.021V-1.2h1.2V0ZM28.9,0V-8.59h1.711l2.033,6.082q.281.85.41,1.271.146-.469.457-1.377L35.566-8.59H37.1V0H36V-7.189L33.5,0H32.479L29.994-7.312V0Zm9.9-7.377V-8.59h1.055v1.213ZM38.8,0V-6.223h1.055V0Zm2.268-3.111a3.207,3.207,0,0,1,.961-2.561,2.9,2.9,0,0,1,1.957-.691,2.792,2.792,0,0,1,2.1.841A3.2,3.2,0,0,1,46.9-3.2a4.117,4.117,0,0,1-.36,1.89A2.551,2.551,0,0,1,45.489-.24a3.054,3.054,0,0,1-1.5.381A2.8,2.8,0,0,1,41.874-.7,3.347,3.347,0,0,1,41.068-3.111Zm1.084,0a2.65,2.65,0,0,0,.521,1.79,1.672,1.672,0,0,0,1.313.595,1.662,1.662,0,0,0,1.307-.6,2.713,2.713,0,0,0,.521-1.822A2.571,2.571,0,0,0,45.29-4.9a1.668,1.668,0,0,0-1.3-.595,1.675,1.675,0,0,0-1.312.592A2.639,2.639,0,0,0,42.152-3.111ZM48.434,0V-1.2h1.2V0Zm3.188,0V-8.59H55.43a5.069,5.069,0,0,1,1.746.231,1.909,1.909,0,0,1,.955.817,2.439,2.439,0,0,1,.357,1.295A2.16,2.16,0,0,1,57.9-4.705a3,3,0,0,1-1.828.8,2.948,2.948,0,0,1,.686.428A5.906,5.906,0,0,1,57.7-2.338L59.191,0h-1.43L56.625-1.787q-.5-.773-.82-1.184a2.579,2.579,0,0,0-.577-.574,1.706,1.706,0,0,0-.519-.229,3.415,3.415,0,0,0-.633-.041H52.758V0Zm1.137-4.8H55.2A3.664,3.664,0,0,0,56.42-4.96a1.3,1.3,0,0,0,.668-.516,1.4,1.4,0,0,0,.229-.771,1.28,1.28,0,0,0-.442-1,2.07,2.07,0,0,0-1.4-.393H52.758ZM60.234,0V-8.59h1.711l2.033,6.082q.281.85.41,1.271.146-.469.457-1.377L66.9-8.59h1.529V0h-1.1V-7.189L64.84,0H63.814L61.33-7.312V0Zm9.984,0V-8.59h3.223a3.989,3.989,0,0,1,1.579.261,2.03,2.03,0,0,1,.932.8,2.116,2.116,0,0,1,.337,1.134,1.948,1.948,0,0,1-.3,1.037,2.134,2.134,0,0,1-.9.785,2.244,2.244,0,0,1,1.2.779,2.087,2.087,0,0,1,.419,1.3,2.509,2.509,0,0,1-.255,1.122,2.172,2.172,0,0,1-.63.8,2.629,2.629,0,0,1-.94.425A5.72,5.72,0,0,1,73.494,0Zm1.137-4.98h1.857a4.145,4.145,0,0,0,1.084-.1,1.2,1.2,0,0,0,.653-.428,1.232,1.232,0,0,0,.22-.75,1.381,1.381,0,0,0-.205-.753,1.038,1.038,0,0,0-.586-.445,4.894,4.894,0,0,0-1.307-.12H71.355Zm0,3.967h2.139a4.923,4.923,0,0,0,.773-.041,1.853,1.853,0,0,0,.656-.234,1.244,1.244,0,0,0,.434-.478,1.5,1.5,0,0,0,.17-.724,1.427,1.427,0,0,0-.246-.835,1.3,1.3,0,0,0-.683-.5,4.232,4.232,0,0,0-1.257-.144H71.355Z" transform="translate(1070 1316)" fill="#727272"/>
    <path id="路径_19546" data-name="路径 19546" d="M.5-4.236A7.86,7.86,0,0,1,.812-6.688a3.05,3.05,0,0,1,.932-1.433,2.382,2.382,0,0,1,1.556-.5,2.538,2.538,0,0,1,1.213.278,2.319,2.319,0,0,1,.861.8,4.306,4.306,0,0,1,.533,1.277A8.487,8.487,0,0,1,6.1-4.236,7.882,7.882,0,0,1,5.789-1.8,3.051,3.051,0,0,1,4.86-.36,2.382,2.382,0,0,1,3.3.146,2.357,2.357,0,0,1,1.348-.744,5.661,5.661,0,0,1,.5-4.236Zm1.084,0a5.386,5.386,0,0,0,.5,2.815,1.459,1.459,0,0,0,1.222.7,1.458,1.458,0,0,0,1.222-.7,5.388,5.388,0,0,0,.5-2.812,5.384,5.384,0,0,0-.5-2.818,1.47,1.47,0,0,0-1.233-.7,1.351,1.351,0,0,0-1.16.615A5.448,5.448,0,0,0,1.582-4.236Zm5.59,0a7.86,7.86,0,0,1,.313-2.452,3.05,3.05,0,0,1,.932-1.433,2.382,2.382,0,0,1,1.556-.5,2.538,2.538,0,0,1,1.213.278,2.319,2.319,0,0,1,.861.8,4.306,4.306,0,0,1,.533,1.277,8.487,8.487,0,0,1,.193,2.03,7.882,7.882,0,0,1-.311,2.44A3.051,3.051,0,0,1,11.534-.36,2.382,2.382,0,0,1,9.973.146,2.357,2.357,0,0,1,8.021-.744,5.661,5.661,0,0,1,7.172-4.236Zm1.084,0a5.386,5.386,0,0,0,.5,2.815,1.459,1.459,0,0,0,1.222.7,1.458,1.458,0,0,0,1.222-.7,5.388,5.388,0,0,0,.5-2.812,5.384,5.384,0,0,0-.5-2.818,1.47,1.47,0,0,0-1.233-.7,1.351,1.351,0,0,0-1.16.615A5.448,5.448,0,0,0,8.256-4.236ZM14.438,0V-1.2h1.2V0ZM17.18-4.236a7.86,7.86,0,0,1,.313-2.452,3.05,3.05,0,0,1,.932-1.433,2.382,2.382,0,0,1,1.556-.5,2.538,2.538,0,0,1,1.213.278,2.319,2.319,0,0,1,.861.8,4.306,4.306,0,0,1,.533,1.277,8.487,8.487,0,0,1,.193,2.03,7.882,7.882,0,0,1-.311,2.44A3.051,3.051,0,0,1,21.542-.36,2.382,2.382,0,0,1,19.98.146a2.357,2.357,0,0,1-1.951-.891A5.661,5.661,0,0,1,17.18-4.236Zm1.084,0a5.386,5.386,0,0,0,.5,2.815,1.459,1.459,0,0,0,1.222.7,1.458,1.458,0,0,0,1.222-.7,5.388,5.388,0,0,0,.5-2.812,5.384,5.384,0,0,0-.5-2.818,1.47,1.47,0,0,0-1.233-.7,1.351,1.351,0,0,0-1.16.615A5.448,5.448,0,0,0,18.264-4.236Zm5.59,0a7.86,7.86,0,0,1,.313-2.452A3.05,3.05,0,0,1,25.1-8.121a2.382,2.382,0,0,1,1.556-.5,2.538,2.538,0,0,1,1.213.278,2.319,2.319,0,0,1,.861.8,4.306,4.306,0,0,1,.533,1.277,8.487,8.487,0,0,1,.193,2.03,7.882,7.882,0,0,1-.311,2.44A3.051,3.051,0,0,1,28.216-.36a2.382,2.382,0,0,1-1.562.507A2.357,2.357,0,0,1,24.7-.744,5.661,5.661,0,0,1,23.854-4.236Zm1.084,0a5.386,5.386,0,0,0,.5,2.815,1.459,1.459,0,0,0,1.222.7,1.458,1.458,0,0,0,1.222-.7,5.388,5.388,0,0,0,.5-2.812,5.384,5.384,0,0,0-.5-2.818,1.47,1.47,0,0,0-1.233-.7,1.351,1.351,0,0,0-1.16.615A5.448,5.448,0,0,0,24.938-4.236Z" transform="translate(1158 1378)"/>
    <path id="路径_19545" data-name="路径 19545" d="M.5-4.236A7.86,7.86,0,0,1,.812-6.688a3.05,3.05,0,0,1,.932-1.433,2.382,2.382,0,0,1,1.556-.5,2.538,2.538,0,0,1,1.213.278,2.319,2.319,0,0,1,.861.8,4.306,4.306,0,0,1,.533,1.277A8.487,8.487,0,0,1,6.1-4.236,7.882,7.882,0,0,1,5.789-1.8,3.051,3.051,0,0,1,4.86-.36,2.382,2.382,0,0,1,3.3.146,2.357,2.357,0,0,1,1.348-.744,5.661,5.661,0,0,1,.5-4.236Zm1.084,0a5.386,5.386,0,0,0,.5,2.815,1.459,1.459,0,0,0,1.222.7,1.458,1.458,0,0,0,1.222-.7,5.388,5.388,0,0,0,.5-2.812,5.384,5.384,0,0,0-.5-2.818,1.47,1.47,0,0,0-1.233-.7,1.351,1.351,0,0,0-1.16.615A5.448,5.448,0,0,0,1.582-4.236Zm5.59,0a7.86,7.86,0,0,1,.313-2.452,3.05,3.05,0,0,1,.932-1.433,2.382,2.382,0,0,1,1.556-.5,2.538,2.538,0,0,1,1.213.278,2.319,2.319,0,0,1,.861.8,4.306,4.306,0,0,1,.533,1.277,8.487,8.487,0,0,1,.193,2.03,7.882,7.882,0,0,1-.311,2.44A3.051,3.051,0,0,1,11.534-.36,2.382,2.382,0,0,1,9.973.146,2.357,2.357,0,0,1,8.021-.744,5.661,5.661,0,0,1,7.172-4.236Zm1.084,0a5.386,5.386,0,0,0,.5,2.815,1.459,1.459,0,0,0,1.222.7,1.458,1.458,0,0,0,1.222-.7,5.388,5.388,0,0,0,.5-2.812,5.384,5.384,0,0,0-.5-2.818,1.47,1.47,0,0,0-1.233-.7,1.351,1.351,0,0,0-1.16.615A5.448,5.448,0,0,0,8.256-4.236ZM14.438,0V-1.2h1.2V0ZM17.18-4.236a7.86,7.86,0,0,1,.313-2.452,3.05,3.05,0,0,1,.932-1.433,2.382,2.382,0,0,1,1.556-.5,2.538,2.538,0,0,1,1.213.278,2.319,2.319,0,0,1,.861.8,4.306,4.306,0,0,1,.533,1.277,8.487,8.487,0,0,1,.193,2.03,7.882,7.882,0,0,1-.311,2.44A3.051,3.051,0,0,1,21.542-.36,2.382,2.382,0,0,1,19.98.146a2.357,2.357,0,0,1-1.951-.891A5.661,5.661,0,0,1,17.18-4.236Zm1.084,0a5.386,5.386,0,0,0,.5,2.815,1.459,1.459,0,0,0,1.222.7,1.458,1.458,0,0,0,1.222-.7,5.388,5.388,0,0,0,.5-2.812,5.384,5.384,0,0,0-.5-2.818,1.47,1.47,0,0,0-1.233-.7,1.351,1.351,0,0,0-1.16.615A5.448,5.448,0,0,0,18.264-4.236Zm5.59,0a7.86,7.86,0,0,1,.313-2.452A3.05,3.05,0,0,1,25.1-8.121a2.382,2.382,0,0,1,1.556-.5,2.538,2.538,0,0,1,1.213.278,2.319,2.319,0,0,1,.861.8,4.306,4.306,0,0,1,.533,1.277,8.487,8.487,0,0,1,.193,2.03,7.882,7.882,0,0,1-.311,2.44A3.051,3.051,0,0,1,28.216-.36a2.382,2.382,0,0,1-1.562.507A2.357,2.357,0,0,1,24.7-.744,5.661,5.661,0,0,1,23.854-4.236Zm1.084,0a5.386,5.386,0,0,0,.5,2.815,1.459,1.459,0,0,0,1.222.7,1.458,1.458,0,0,0,1.222-.7,5.388,5.388,0,0,0,.5-2.812,5.384,5.384,0,0,0-.5-2.818,1.47,1.47,0,0,0-1.233-.7,1.351,1.351,0,0,0-1.16.615A5.448,5.448,0,0,0,24.938-4.236Z" transform="translate(1287 1378)"/>
    <path id="路径_19542" data-name="路径 19542" d="M.5-4.236A7.86,7.86,0,0,1,.812-6.688a3.05,3.05,0,0,1,.932-1.433,2.382,2.382,0,0,1,1.556-.5,2.538,2.538,0,0,1,1.213.278,2.319,2.319,0,0,1,.861.8,4.306,4.306,0,0,1,.533,1.277A8.487,8.487,0,0,1,6.1-4.236,7.882,7.882,0,0,1,5.789-1.8,3.051,3.051,0,0,1,4.86-.36,2.382,2.382,0,0,1,3.3.146,2.357,2.357,0,0,1,1.348-.744,5.661,5.661,0,0,1,.5-4.236Zm1.084,0a5.386,5.386,0,0,0,.5,2.815,1.459,1.459,0,0,0,1.222.7,1.458,1.458,0,0,0,1.222-.7,5.388,5.388,0,0,0,.5-2.812,5.384,5.384,0,0,0-.5-2.818,1.47,1.47,0,0,0-1.233-.7,1.351,1.351,0,0,0-1.16.615A5.448,5.448,0,0,0,1.582-4.236Zm5.59,0a7.86,7.86,0,0,1,.313-2.452,3.05,3.05,0,0,1,.932-1.433,2.382,2.382,0,0,1,1.556-.5,2.538,2.538,0,0,1,1.213.278,2.319,2.319,0,0,1,.861.8,4.306,4.306,0,0,1,.533,1.277,8.487,8.487,0,0,1,.193,2.03,7.882,7.882,0,0,1-.311,2.44A3.051,3.051,0,0,1,11.534-.36,2.382,2.382,0,0,1,9.973.146,2.357,2.357,0,0,1,8.021-.744,5.661,5.661,0,0,1,7.172-4.236Zm1.084,0a5.386,5.386,0,0,0,.5,2.815,1.459,1.459,0,0,0,1.222.7,1.458,1.458,0,0,0,1.222-.7,5.388,5.388,0,0,0,.5-2.812,5.384,5.384,0,0,0-.5-2.818,1.47,1.47,0,0,0-1.233-.7,1.351,1.351,0,0,0-1.16.615A5.448,5.448,0,0,0,8.256-4.236ZM14.438,0V-1.2h1.2V0ZM17.18-4.236a7.86,7.86,0,0,1,.313-2.452,3.05,3.05,0,0,1,.932-1.433,2.382,2.382,0,0,1,1.556-.5,2.538,2.538,0,0,1,1.213.278,2.319,2.319,0,0,1,.861.8,4.306,4.306,0,0,1,.533,1.277,8.487,8.487,0,0,1,.193,2.03,7.882,7.882,0,0,1-.311,2.44A3.051,3.051,0,0,1,21.542-.36,2.382,2.382,0,0,1,19.98.146a2.357,2.357,0,0,1-1.951-.891A5.661,5.661,0,0,1,17.18-4.236Zm1.084,0a5.386,5.386,0,0,0,.5,2.815,1.459,1.459,0,0,0,1.222.7,1.458,1.458,0,0,0,1.222-.7,5.388,5.388,0,0,0,.5-2.812,5.384,5.384,0,0,0-.5-2.818,1.47,1.47,0,0,0-1.233-.7,1.351,1.351,0,0,0-1.16.615A5.448,5.448,0,0,0,18.264-4.236Zm5.59,0a7.86,7.86,0,0,1,.313-2.452A3.05,3.05,0,0,1,25.1-8.121a2.382,2.382,0,0,1,1.556-.5,2.538,2.538,0,0,1,1.213.278,2.319,2.319,0,0,1,.861.8,4.306,4.306,0,0,1,.533,1.277,8.487,8.487,0,0,1,.193,2.03,7.882,7.882,0,0,1-.311,2.44A3.051,3.051,0,0,1,28.216-.36a2.382,2.382,0,0,1-1.562.507A2.357,2.357,0,0,1,24.7-.744,5.661,5.661,0,0,1,23.854-4.236Zm1.084,0a5.386,5.386,0,0,0,.5,2.815,1.459,1.459,0,0,0,1.222.7,1.458,1.458,0,0,0,1.222-.7,5.388,5.388,0,0,0,.5-2.812,5.384,5.384,0,0,0-.5-2.818,1.47,1.47,0,0,0-1.233-.7,1.351,1.351,0,0,0-1.16.615A5.448,5.448,0,0,0,24.938-4.236Z" transform="translate(1475 1378)"/>
    <path id="路径_19537" data-name="路径 19537" d="M4.1-7.248v.84H5.652V-3.6H3.768v.828H11.5V-3.6H9.564V-6.408h1.6v-.84h-1.6V-9.756H8.688v2.508H6.54V-9.756H5.652v2.508ZM6.54-3.6V-6.408H8.688V-3.6ZM9.048-2.328,8.34-1.9A25.153,25.153,0,0,1,10.6,1.164l.768-.528A24.412,24.412,0,0,0,9.048-2.328Zm-3.036.084A11.349,11.349,0,0,1,3.84.648l.744.54A13.016,13.016,0,0,0,6.8-1.872ZM1.968-5.52V1.2h.888V-6.876A14.29,14.29,0,0,0,4.044-9.528L3.228-9.9a13.7,13.7,0,0,1-2.856,5l.288.912A15.557,15.557,0,0,0,1.968-5.52ZM14.676-.156v.84h8.472v-.84H20.616a35.937,35.937,0,0,0,1.86-6.1l-.852-.228A34.318,34.318,0,0,1,19.68-.156Zm1.308-5.736-.756.24a33.4,33.4,0,0,1,1.236,4.368l.816-.2A34.965,34.965,0,0,0,15.984-5.892ZM18.3-6.744l-.756.24A37.317,37.317,0,0,1,18.588-2l.828-.192A45.163,45.163,0,0,0,18.3-6.744ZM18.312-9.9l-.948.168a8.041,8.041,0,0,1,.648,1.08H13.56v3.516A13.433,13.433,0,0,1,12.5.564l.708.636a15.1,15.1,0,0,0,1.236-6.336V-7.812H23.34v-.84H18.948A9.318,9.318,0,0,0,18.312-9.9Zm9.456,6.684V-.264H32.22V-3.216Zm3.624,2.184H28.6v-1.4h2.8Zm-.228-4.524L30.576-5A15.02,15.02,0,0,1,33-2.856l.648-.636A18.258,18.258,0,0,0,31.164-5.556ZM30.072-9.924l-.948.156a10.053,10.053,0,0,1,.444.948H24.684v.84h2.5a10.611,10.611,0,0,1,.636,1.452H25.284V1.116h.828V-5.76h7.752V-.24c0,.408-.168.624-.5.624L32.2.348l.216.792h1.224c.7,0,1.056-.4,1.056-1.188v-6.48H32.028a12.641,12.641,0,0,0,.7-1.452h2.592v-.84H30.492C30.36-9.228,30.216-9.588,30.072-9.924Zm-1.356,3.4A14.084,14.084,0,0,0,28.14-7.98h3.636c-.2.492-.432.972-.684,1.452Zm.036.984a9.318,9.318,0,0,1-2.484,1.98l.552.72A9.982,9.982,0,0,0,29.364-5ZM40.471,0H39.416V-6.721a5.451,5.451,0,0,1-1,.727,7.082,7.082,0,0,1-1.11.545v-1.02a6.369,6.369,0,0,0,1.547-1.008,3.964,3.964,0,0,0,.938-1.148h.68Z" transform="translate(1524 1307)"/>
    <path id="路径_19536" data-name="路径 19536" d="M4.1-7.248v.84H5.652V-3.6H3.768v.828H11.5V-3.6H9.564V-6.408h1.6v-.84h-1.6V-9.756H8.688v2.508H6.54V-9.756H5.652v2.508ZM6.54-3.6V-6.408H8.688V-3.6ZM9.048-2.328,8.34-1.9A25.153,25.153,0,0,1,10.6,1.164l.768-.528A24.412,24.412,0,0,0,9.048-2.328Zm-3.036.084A11.349,11.349,0,0,1,3.84.648l.744.54A13.016,13.016,0,0,0,6.8-1.872ZM1.968-5.52V1.2h.888V-6.876A14.29,14.29,0,0,0,4.044-9.528L3.228-9.9a13.7,13.7,0,0,1-2.856,5l.288.912A15.557,15.557,0,0,0,1.968-5.52ZM14.676-.156v.84h8.472v-.84H20.616a35.937,35.937,0,0,0,1.86-6.1l-.852-.228A34.318,34.318,0,0,1,19.68-.156Zm1.308-5.736-.756.24a33.4,33.4,0,0,1,1.236,4.368l.816-.2A34.965,34.965,0,0,0,15.984-5.892ZM18.3-6.744l-.756.24A37.317,37.317,0,0,1,18.588-2l.828-.192A45.163,45.163,0,0,0,18.3-6.744ZM18.312-9.9l-.948.168a8.041,8.041,0,0,1,.648,1.08H13.56v3.516A13.433,13.433,0,0,1,12.5.564l.708.636a15.1,15.1,0,0,0,1.236-6.336V-7.812H23.34v-.84H18.948A9.318,9.318,0,0,0,18.312-9.9Zm9.456,6.684V-.264H32.22V-3.216Zm3.624,2.184H28.6v-1.4h2.8Zm-.228-4.524L30.576-5A15.02,15.02,0,0,1,33-2.856l.648-.636A18.258,18.258,0,0,0,31.164-5.556ZM30.072-9.924l-.948.156a10.053,10.053,0,0,1,.444.948H24.684v.84h2.5a10.611,10.611,0,0,1,.636,1.452H25.284V1.116h.828V-5.76h7.752V-.24c0,.408-.168.624-.5.624L32.2.348l.216.792h1.224c.7,0,1.056-.4,1.056-1.188v-6.48H32.028a12.641,12.641,0,0,0,.7-1.452h2.592v-.84H30.492C30.36-9.228,30.216-9.588,30.072-9.924Zm-1.356,3.4A14.084,14.084,0,0,0,28.14-7.98h3.636c-.2.492-.432.972-.684,1.452Zm.036.984a9.318,9.318,0,0,1-2.484,1.98l.552.72A9.982,9.982,0,0,0,29.364-5Zm13.289,4.53V0H36.363a1.866,1.866,0,0,1,.123-.732,3.875,3.875,0,0,1,.694-1.143,10.878,10.878,0,0,1,1.38-1.3A11.7,11.7,0,0,0,40.453-5a2.178,2.178,0,0,0,.492-1.269A1.409,1.409,0,0,0,40.5-7.321a1.617,1.617,0,0,0-1.169-.431,1.647,1.647,0,0,0-1.219.457,1.729,1.729,0,0,0-.463,1.266l-1.084-.111A2.668,2.668,0,0,1,37.4-7.989a2.858,2.858,0,0,1,1.951-.636,2.723,2.723,0,0,1,1.957.686,2.251,2.251,0,0,1,.721,1.7,2.577,2.577,0,0,1-.211,1.014,3.934,3.934,0,0,1-.7,1.049,17.058,17.058,0,0,1-1.626,1.512q-.949.8-1.219,1.081a3.468,3.468,0,0,0-.445.571Z" transform="translate(1602 1307)"/>
    <path id="路径_19535" data-name="路径 19535" d="M4.1-7.248v.84H5.652V-3.6H3.768v.828H11.5V-3.6H9.564V-6.408h1.6v-.84h-1.6V-9.756H8.688v2.508H6.54V-9.756H5.652v2.508ZM6.54-3.6V-6.408H8.688V-3.6ZM9.048-2.328,8.34-1.9A25.153,25.153,0,0,1,10.6,1.164l.768-.528A24.412,24.412,0,0,0,9.048-2.328Zm-3.036.084A11.349,11.349,0,0,1,3.84.648l.744.54A13.016,13.016,0,0,0,6.8-1.872ZM1.968-5.52V1.2h.888V-6.876A14.29,14.29,0,0,0,4.044-9.528L3.228-9.9a13.7,13.7,0,0,1-2.856,5l.288.912A15.557,15.557,0,0,0,1.968-5.52ZM14.676-.156v.84h8.472v-.84H20.616a35.937,35.937,0,0,0,1.86-6.1l-.852-.228A34.318,34.318,0,0,1,19.68-.156Zm1.308-5.736-.756.24a33.4,33.4,0,0,1,1.236,4.368l.816-.2A34.965,34.965,0,0,0,15.984-5.892ZM18.3-6.744l-.756.24A37.317,37.317,0,0,1,18.588-2l.828-.192A45.163,45.163,0,0,0,18.3-6.744ZM18.312-9.9l-.948.168a8.041,8.041,0,0,1,.648,1.08H13.56v3.516A13.433,13.433,0,0,1,12.5.564l.708.636a15.1,15.1,0,0,0,1.236-6.336V-7.812H23.34v-.84H18.948A9.318,9.318,0,0,0,18.312-9.9Zm9.456,6.684V-.264H32.22V-3.216Zm3.624,2.184H28.6v-1.4h2.8Zm-.228-4.524L30.576-5A15.02,15.02,0,0,1,33-2.856l.648-.636A18.258,18.258,0,0,0,31.164-5.556ZM30.072-9.924l-.948.156a10.053,10.053,0,0,1,.444.948H24.684v.84h2.5a10.611,10.611,0,0,1,.636,1.452H25.284V1.116h.828V-5.76h7.752V-.24c0,.408-.168.624-.5.624L32.2.348l.216.792h1.224c.7,0,1.056-.4,1.056-1.188v-6.48H32.028a12.641,12.641,0,0,0,.7-1.452h2.592v-.84H30.492C30.36-9.228,30.216-9.588,30.072-9.924Zm-1.356,3.4A14.084,14.084,0,0,0,28.14-7.98h3.636c-.2.492-.432.972-.684,1.452Zm.036.984a9.318,9.318,0,0,1-2.484,1.98l.552.72A9.982,9.982,0,0,0,29.364-5ZM36.5-2.268l1.055-.141a2.324,2.324,0,0,0,.618,1.292,1.527,1.527,0,0,0,1.063.4A1.7,1.7,0,0,0,40.5-1.236a1.74,1.74,0,0,0,.513-1.277,1.618,1.618,0,0,0-.475-1.2,1.641,1.641,0,0,0-1.207-.472,3.028,3.028,0,0,0-.744.117l.117-.926a1.612,1.612,0,0,0,.17.012,2.172,2.172,0,0,0,1.213-.352,1.2,1.2,0,0,0,.539-1.084,1.282,1.282,0,0,0-.393-.961,1.4,1.4,0,0,0-1.014-.381,1.436,1.436,0,0,0-1.025.387,1.941,1.941,0,0,0-.527,1.16L36.609-6.4a2.711,2.711,0,0,1,.879-1.644,2.541,2.541,0,0,1,1.705-.583,2.809,2.809,0,0,1,1.295.3,2.183,2.183,0,0,1,.905.823,2.115,2.115,0,0,1,.313,1.107,1.813,1.813,0,0,1-.3,1.014,2.04,2.04,0,0,1-.885.727,1.993,1.993,0,0,1,1.184.729,2.22,2.22,0,0,1,.422,1.386,2.535,2.535,0,0,1-.82,1.907,2.885,2.885,0,0,1-2.074.782,2.7,2.7,0,0,1-1.878-.674A2.606,2.606,0,0,1,36.5-2.268Z" transform="translate(1680 1307)"/>
    <path id="路径_19534" data-name="路径 19534" d="M2.426,0,.146-8.59H1.313L2.619-2.959q.211.885.363,1.758.328-1.377.387-1.588L5-8.59H6.375l1.23,4.348A23.036,23.036,0,0,1,8.273-1.2q.164-.814.428-1.869l1.348-5.52h1.143L8.836,0H7.74L5.93-6.545q-.229-.82-.27-1.008-.135.592-.252,1.008L3.586,0Zm9.779,0V-8.59h1.137v7.576h4.23V0Zm6.334-2.76,1.072-.094A2.368,2.368,0,0,0,19.966-1.8a1.935,1.935,0,0,0,.864.668,3.273,3.273,0,0,0,1.318.255A3.159,3.159,0,0,0,23.3-1.066a1.593,1.593,0,0,0,.741-.53,1.23,1.23,0,0,0,.243-.735,1.118,1.118,0,0,0-.234-.706,1.736,1.736,0,0,0-.773-.507,15.117,15.117,0,0,0-1.529-.419A7.814,7.814,0,0,1,20.086-4.5a2.325,2.325,0,0,1-.917-.8,1.96,1.96,0,0,1-.3-1.069,2.183,2.183,0,0,1,.369-1.216,2.286,2.286,0,0,1,1.078-.858,4.09,4.09,0,0,1,1.576-.293,4.306,4.306,0,0,1,1.685.308,2.43,2.43,0,0,1,1.122.905,2.6,2.6,0,0,1,.422,1.354l-1.09.082a1.758,1.758,0,0,0-.595-1.23,2.315,2.315,0,0,0-1.5-.416,2.4,2.4,0,0,0-1.5.378,1.133,1.133,0,0,0-.472.911.977.977,0,0,0,.334.762,4.526,4.526,0,0,0,1.714.612,11.336,11.336,0,0,1,1.9.548,2.6,2.6,0,0,1,1.107.876,2.134,2.134,0,0,1,.357,1.222,2.336,2.336,0,0,1-.393,1.292,2.585,2.585,0,0,1-1.128.943A3.93,3.93,0,0,1,22.2.146a4.942,4.942,0,0,1-1.954-.34,2.737,2.737,0,0,1-1.236-1.022A2.9,2.9,0,0,1,18.539-2.76Z" transform="translate(1758 1307)"/>
    <path id="路径_19533" data-name="路径 19533" d="M2.426,0,.146-8.59H1.313L2.619-2.959q.211.885.363,1.758.328-1.377.387-1.588L5-8.59H6.375l1.23,4.348A23.036,23.036,0,0,1,8.273-1.2q.164-.814.428-1.869l1.348-5.52h1.143L8.836,0H7.74L5.93-6.545q-.229-.82-.27-1.008-.135.592-.252,1.008L3.586,0ZM16.271-3.369V-4.377l3.639-.006V-1.2a6.425,6.425,0,0,1-1.729,1,5.127,5.127,0,0,1-1.828.337,4.878,4.878,0,0,1-2.3-.542,3.583,3.583,0,0,1-1.562-1.567,4.935,4.935,0,0,1-.527-2.291,5.316,5.316,0,0,1,.524-2.341A3.488,3.488,0,0,1,14-8.209a4.728,4.728,0,0,1,2.268-.527,4.493,4.493,0,0,1,1.685.3,2.793,2.793,0,0,1,1.181.841,3.73,3.73,0,0,1,.65,1.406l-1.025.281a3.174,3.174,0,0,0-.48-1.031,1.971,1.971,0,0,0-.82-.6,3.008,3.008,0,0,0-1.184-.226,3.485,3.485,0,0,0-1.348.237,2.515,2.515,0,0,0-.917.624,2.976,2.976,0,0,0-.542.85,4.5,4.5,0,0,0-.328,1.729,4.194,4.194,0,0,0,.4,1.922,2.531,2.531,0,0,0,1.151,1.148,3.565,3.565,0,0,0,1.605.375,3.814,3.814,0,0,0,1.441-.284A3.72,3.72,0,0,0,18.8-1.77v-1.6ZM21.645,0V-8.59h5.795v1.014H22.781v2.66h4.031V-3.9H22.781V0Z" transform="translate(1819 1307)"/>
    <path id="路径_19539" data-name="路径 19539" d="M.5-4.236A7.86,7.86,0,0,1,.812-6.688a3.05,3.05,0,0,1,.932-1.433,2.382,2.382,0,0,1,1.556-.5,2.538,2.538,0,0,1,1.213.278,2.319,2.319,0,0,1,.861.8,4.306,4.306,0,0,1,.533,1.277A8.487,8.487,0,0,1,6.1-4.236,7.882,7.882,0,0,1,5.789-1.8,3.051,3.051,0,0,1,4.86-.36,2.382,2.382,0,0,1,3.3.146,2.357,2.357,0,0,1,1.348-.744,5.661,5.661,0,0,1,.5-4.236Zm1.084,0a5.386,5.386,0,0,0,.5,2.815,1.459,1.459,0,0,0,1.222.7,1.458,1.458,0,0,0,1.222-.7,5.388,5.388,0,0,0,.5-2.812,5.384,5.384,0,0,0-.5-2.818,1.47,1.47,0,0,0-1.233-.7,1.351,1.351,0,0,0-1.16.615A5.448,5.448,0,0,0,1.582-4.236Zm5.59,0a7.86,7.86,0,0,1,.313-2.452,3.05,3.05,0,0,1,.932-1.433,2.382,2.382,0,0,1,1.556-.5,2.538,2.538,0,0,1,1.213.278,2.319,2.319,0,0,1,.861.8,4.306,4.306,0,0,1,.533,1.277,8.487,8.487,0,0,1,.193,2.03,7.882,7.882,0,0,1-.311,2.44A3.051,3.051,0,0,1,11.534-.36,2.382,2.382,0,0,1,9.973.146,2.357,2.357,0,0,1,8.021-.744,5.661,5.661,0,0,1,7.172-4.236Zm1.084,0a5.386,5.386,0,0,0,.5,2.815,1.459,1.459,0,0,0,1.222.7,1.458,1.458,0,0,0,1.222-.7,5.388,5.388,0,0,0,.5-2.812,5.384,5.384,0,0,0-.5-2.818,1.47,1.47,0,0,0-1.233-.7,1.351,1.351,0,0,0-1.16.615A5.448,5.448,0,0,0,8.256-4.236ZM14.438,0V-1.2h1.2V0ZM17.18-4.236a7.86,7.86,0,0,1,.313-2.452,3.05,3.05,0,0,1,.932-1.433,2.382,2.382,0,0,1,1.556-.5,2.538,2.538,0,0,1,1.213.278,2.319,2.319,0,0,1,.861.8,4.306,4.306,0,0,1,.533,1.277,8.487,8.487,0,0,1,.193,2.03,7.882,7.882,0,0,1-.311,2.44A3.051,3.051,0,0,1,21.542-.36,2.382,2.382,0,0,1,19.98.146a2.357,2.357,0,0,1-1.951-.891A5.661,5.661,0,0,1,17.18-4.236Zm1.084,0a5.386,5.386,0,0,0,.5,2.815,1.459,1.459,0,0,0,1.222.7,1.458,1.458,0,0,0,1.222-.7,5.388,5.388,0,0,0,.5-2.812,5.384,5.384,0,0,0-.5-2.818,1.47,1.47,0,0,0-1.233-.7,1.351,1.351,0,0,0-1.16.615A5.448,5.448,0,0,0,18.264-4.236Zm5.59,0a7.86,7.86,0,0,1,.313-2.452A3.05,3.05,0,0,1,25.1-8.121a2.382,2.382,0,0,1,1.556-.5,2.538,2.538,0,0,1,1.213.278,2.319,2.319,0,0,1,.861.8,4.306,4.306,0,0,1,.533,1.277,8.487,8.487,0,0,1,.193,2.03,7.882,7.882,0,0,1-.311,2.44A3.051,3.051,0,0,1,28.216-.36a2.382,2.382,0,0,1-1.562.507A2.357,2.357,0,0,1,24.7-.744,5.661,5.661,0,0,1,23.854-4.236Zm1.084,0a5.386,5.386,0,0,0,.5,2.815,1.459,1.459,0,0,0,1.222.7,1.458,1.458,0,0,0,1.222-.7,5.388,5.388,0,0,0,.5-2.812,5.384,5.384,0,0,0-.5-2.818,1.47,1.47,0,0,0-1.233-.7,1.351,1.351,0,0,0-1.16.615A5.448,5.448,0,0,0,24.938-4.236Z" transform="translate(1662 1400)"/>
    <path id="路径_19543" data-name="路径 19543" d="M.5-4.236A7.86,7.86,0,0,1,.812-6.688a3.05,3.05,0,0,1,.932-1.433,2.382,2.382,0,0,1,1.556-.5,2.538,2.538,0,0,1,1.213.278,2.319,2.319,0,0,1,.861.8,4.306,4.306,0,0,1,.533,1.277A8.487,8.487,0,0,1,6.1-4.236,7.882,7.882,0,0,1,5.789-1.8,3.051,3.051,0,0,1,4.86-.36,2.382,2.382,0,0,1,3.3.146,2.357,2.357,0,0,1,1.348-.744,5.661,5.661,0,0,1,.5-4.236Zm1.084,0a5.386,5.386,0,0,0,.5,2.815,1.459,1.459,0,0,0,1.222.7,1.458,1.458,0,0,0,1.222-.7,5.388,5.388,0,0,0,.5-2.812,5.384,5.384,0,0,0-.5-2.818,1.47,1.47,0,0,0-1.233-.7,1.351,1.351,0,0,0-1.16.615A5.448,5.448,0,0,0,1.582-4.236Zm5.59,0a7.86,7.86,0,0,1,.313-2.452,3.05,3.05,0,0,1,.932-1.433,2.382,2.382,0,0,1,1.556-.5,2.538,2.538,0,0,1,1.213.278,2.319,2.319,0,0,1,.861.8,4.306,4.306,0,0,1,.533,1.277,8.487,8.487,0,0,1,.193,2.03,7.882,7.882,0,0,1-.311,2.44A3.051,3.051,0,0,1,11.534-.36,2.382,2.382,0,0,1,9.973.146,2.357,2.357,0,0,1,8.021-.744,5.661,5.661,0,0,1,7.172-4.236Zm1.084,0a5.386,5.386,0,0,0,.5,2.815,1.459,1.459,0,0,0,1.222.7,1.458,1.458,0,0,0,1.222-.7,5.388,5.388,0,0,0,.5-2.812,5.384,5.384,0,0,0-.5-2.818,1.47,1.47,0,0,0-1.233-.7,1.351,1.351,0,0,0-1.16.615A5.448,5.448,0,0,0,8.256-4.236ZM14.438,0V-1.2h1.2V0ZM17.18-4.236a7.86,7.86,0,0,1,.313-2.452,3.05,3.05,0,0,1,.932-1.433,2.382,2.382,0,0,1,1.556-.5,2.538,2.538,0,0,1,1.213.278,2.319,2.319,0,0,1,.861.8,4.306,4.306,0,0,1,.533,1.277,8.487,8.487,0,0,1,.193,2.03,7.882,7.882,0,0,1-.311,2.44A3.051,3.051,0,0,1,21.542-.36,2.382,2.382,0,0,1,19.98.146a2.357,2.357,0,0,1-1.951-.891A5.661,5.661,0,0,1,17.18-4.236Zm1.084,0a5.386,5.386,0,0,0,.5,2.815,1.459,1.459,0,0,0,1.222.7,1.458,1.458,0,0,0,1.222-.7,5.388,5.388,0,0,0,.5-2.812,5.384,5.384,0,0,0-.5-2.818,1.47,1.47,0,0,0-1.233-.7,1.351,1.351,0,0,0-1.16.615A5.448,5.448,0,0,0,18.264-4.236Zm5.59,0a7.86,7.86,0,0,1,.313-2.452A3.05,3.05,0,0,1,25.1-8.121a2.382,2.382,0,0,1,1.556-.5,2.538,2.538,0,0,1,1.213.278,2.319,2.319,0,0,1,.861.8,4.306,4.306,0,0,1,.533,1.277,8.487,8.487,0,0,1,.193,2.03,7.882,7.882,0,0,1-.311,2.44A3.051,3.051,0,0,1,28.216-.36a2.382,2.382,0,0,1-1.562.507A2.357,2.357,0,0,1,24.7-.744,5.661,5.661,0,0,1,23.854-4.236Zm1.084,0a5.386,5.386,0,0,0,.5,2.815,1.459,1.459,0,0,0,1.222.7,1.458,1.458,0,0,0,1.222-.7,5.388,5.388,0,0,0,.5-2.812,5.384,5.384,0,0,0-.5-2.818,1.47,1.47,0,0,0-1.233-.7,1.351,1.351,0,0,0-1.16.615A5.448,5.448,0,0,0,24.938-4.236Z" transform="translate(1345 1390)"/>
    <path id="路径_19540" data-name="路径 19540" d="M.5-4.236A7.86,7.86,0,0,1,.812-6.688a3.05,3.05,0,0,1,.932-1.433,2.382,2.382,0,0,1,1.556-.5,2.538,2.538,0,0,1,1.213.278,2.319,2.319,0,0,1,.861.8,4.306,4.306,0,0,1,.533,1.277A8.487,8.487,0,0,1,6.1-4.236,7.882,7.882,0,0,1,5.789-1.8,3.051,3.051,0,0,1,4.86-.36,2.382,2.382,0,0,1,3.3.146,2.357,2.357,0,0,1,1.348-.744,5.661,5.661,0,0,1,.5-4.236Zm1.084,0a5.386,5.386,0,0,0,.5,2.815,1.459,1.459,0,0,0,1.222.7,1.458,1.458,0,0,0,1.222-.7,5.388,5.388,0,0,0,.5-2.812,5.384,5.384,0,0,0-.5-2.818,1.47,1.47,0,0,0-1.233-.7,1.351,1.351,0,0,0-1.16.615A5.448,5.448,0,0,0,1.582-4.236Zm5.59,0a7.86,7.86,0,0,1,.313-2.452,3.05,3.05,0,0,1,.932-1.433,2.382,2.382,0,0,1,1.556-.5,2.538,2.538,0,0,1,1.213.278,2.319,2.319,0,0,1,.861.8,4.306,4.306,0,0,1,.533,1.277,8.487,8.487,0,0,1,.193,2.03,7.882,7.882,0,0,1-.311,2.44A3.051,3.051,0,0,1,11.534-.36,2.382,2.382,0,0,1,9.973.146,2.357,2.357,0,0,1,8.021-.744,5.661,5.661,0,0,1,7.172-4.236Zm1.084,0a5.386,5.386,0,0,0,.5,2.815,1.459,1.459,0,0,0,1.222.7,1.458,1.458,0,0,0,1.222-.7,5.388,5.388,0,0,0,.5-2.812,5.384,5.384,0,0,0-.5-2.818,1.47,1.47,0,0,0-1.233-.7,1.351,1.351,0,0,0-1.16.615A5.448,5.448,0,0,0,8.256-4.236ZM14.438,0V-1.2h1.2V0ZM17.18-4.236a7.86,7.86,0,0,1,.313-2.452,3.05,3.05,0,0,1,.932-1.433,2.382,2.382,0,0,1,1.556-.5,2.538,2.538,0,0,1,1.213.278,2.319,2.319,0,0,1,.861.8,4.306,4.306,0,0,1,.533,1.277,8.487,8.487,0,0,1,.193,2.03,7.882,7.882,0,0,1-.311,2.44A3.051,3.051,0,0,1,21.542-.36,2.382,2.382,0,0,1,19.98.146a2.357,2.357,0,0,1-1.951-.891A5.661,5.661,0,0,1,17.18-4.236Zm1.084,0a5.386,5.386,0,0,0,.5,2.815,1.459,1.459,0,0,0,1.222.7,1.458,1.458,0,0,0,1.222-.7,5.388,5.388,0,0,0,.5-2.812,5.384,5.384,0,0,0-.5-2.818,1.47,1.47,0,0,0-1.233-.7,1.351,1.351,0,0,0-1.16.615A5.448,5.448,0,0,0,18.264-4.236Zm5.59,0a7.86,7.86,0,0,1,.313-2.452A3.05,3.05,0,0,1,25.1-8.121a2.382,2.382,0,0,1,1.556-.5,2.538,2.538,0,0,1,1.213.278,2.319,2.319,0,0,1,.861.8,4.306,4.306,0,0,1,.533,1.277,8.487,8.487,0,0,1,.193,2.03,7.882,7.882,0,0,1-.311,2.44A3.051,3.051,0,0,1,28.216-.36a2.382,2.382,0,0,1-1.562.507A2.357,2.357,0,0,1,24.7-.744,5.661,5.661,0,0,1,23.854-4.236Zm1.084,0a5.386,5.386,0,0,0,.5,2.815,1.459,1.459,0,0,0,1.222.7,1.458,1.458,0,0,0,1.222-.7,5.388,5.388,0,0,0,.5-2.812,5.384,5.384,0,0,0-.5-2.818,1.47,1.47,0,0,0-1.233-.7,1.351,1.351,0,0,0-1.16.615A5.448,5.448,0,0,0,24.938-4.236Z" transform="translate(1533 1390)"/>
    <path id="路径_19538" data-name="路径 19538" d="M.5-4.236A7.86,7.86,0,0,1,.812-6.688a3.05,3.05,0,0,1,.932-1.433,2.382,2.382,0,0,1,1.556-.5,2.538,2.538,0,0,1,1.213.278,2.319,2.319,0,0,1,.861.8,4.306,4.306,0,0,1,.533,1.277A8.487,8.487,0,0,1,6.1-4.236,7.882,7.882,0,0,1,5.789-1.8,3.051,3.051,0,0,1,4.86-.36,2.382,2.382,0,0,1,3.3.146,2.357,2.357,0,0,1,1.348-.744,5.661,5.661,0,0,1,.5-4.236Zm1.084,0a5.386,5.386,0,0,0,.5,2.815,1.459,1.459,0,0,0,1.222.7,1.458,1.458,0,0,0,1.222-.7,5.388,5.388,0,0,0,.5-2.812,5.384,5.384,0,0,0-.5-2.818,1.47,1.47,0,0,0-1.233-.7,1.351,1.351,0,0,0-1.16.615A5.448,5.448,0,0,0,1.582-4.236Zm5.59,0a7.86,7.86,0,0,1,.313-2.452,3.05,3.05,0,0,1,.932-1.433,2.382,2.382,0,0,1,1.556-.5,2.538,2.538,0,0,1,1.213.278,2.319,2.319,0,0,1,.861.8,4.306,4.306,0,0,1,.533,1.277,8.487,8.487,0,0,1,.193,2.03,7.882,7.882,0,0,1-.311,2.44A3.051,3.051,0,0,1,11.534-.36,2.382,2.382,0,0,1,9.973.146,2.357,2.357,0,0,1,8.021-.744,5.661,5.661,0,0,1,7.172-4.236Zm1.084,0a5.386,5.386,0,0,0,.5,2.815,1.459,1.459,0,0,0,1.222.7,1.458,1.458,0,0,0,1.222-.7,5.388,5.388,0,0,0,.5-2.812,5.384,5.384,0,0,0-.5-2.818,1.47,1.47,0,0,0-1.233-.7,1.351,1.351,0,0,0-1.16.615A5.448,5.448,0,0,0,8.256-4.236ZM14.438,0V-1.2h1.2V0ZM17.18-4.236a7.86,7.86,0,0,1,.313-2.452,3.05,3.05,0,0,1,.932-1.433,2.382,2.382,0,0,1,1.556-.5,2.538,2.538,0,0,1,1.213.278,2.319,2.319,0,0,1,.861.8,4.306,4.306,0,0,1,.533,1.277,8.487,8.487,0,0,1,.193,2.03,7.882,7.882,0,0,1-.311,2.44A3.051,3.051,0,0,1,21.542-.36,2.382,2.382,0,0,1,19.98.146a2.357,2.357,0,0,1-1.951-.891A5.661,5.661,0,0,1,17.18-4.236Zm1.084,0a5.386,5.386,0,0,0,.5,2.815,1.459,1.459,0,0,0,1.222.7,1.458,1.458,0,0,0,1.222-.7,5.388,5.388,0,0,0,.5-2.812,5.384,5.384,0,0,0-.5-2.818,1.47,1.47,0,0,0-1.233-.7,1.351,1.351,0,0,0-1.16.615A5.448,5.448,0,0,0,18.264-4.236Zm5.59,0a7.86,7.86,0,0,1,.313-2.452A3.05,3.05,0,0,1,25.1-8.121a2.382,2.382,0,0,1,1.556-.5,2.538,2.538,0,0,1,1.213.278,2.319,2.319,0,0,1,.861.8,4.306,4.306,0,0,1,.533,1.277,8.487,8.487,0,0,1,.193,2.03,7.882,7.882,0,0,1-.311,2.44A3.051,3.051,0,0,1,28.216-.36a2.382,2.382,0,0,1-1.562.507A2.357,2.357,0,0,1,24.7-.744,5.661,5.661,0,0,1,23.854-4.236Zm1.084,0a5.386,5.386,0,0,0,.5,2.815,1.459,1.459,0,0,0,1.222.7,1.458,1.458,0,0,0,1.222-.7,5.388,5.388,0,0,0,.5-2.812,5.384,5.384,0,0,0-.5-2.818,1.47,1.47,0,0,0-1.233-.7,1.351,1.351,0,0,0-1.16.615A5.448,5.448,0,0,0,24.938-4.236Z" transform="translate(1722 1421)"/>
    <path id="直线_764" data-name="直线 764" d="M777,.5H0v-1H777Z" transform="translate(1070 1408.5)" fill="#f67f16"/>
    <path id="路径_19495" data-name="路径 19495" d="M-20117.551-21865.848h-1v-52.256h-59.949v10.1h-1v-11.1h61.949Z" transform="translate(21352 23271)" fill="#acb8cf"/>
    <path id="路径_19496" data-name="路径 19496" d="M-20119.5-21893.5h-1v-24.6h-58v12.684h-1v-13.684h60Z" transform="translate(21481.002 23271)" fill="#acb8cf"/>
    <path id="路径_19497" data-name="路径 19497" d="M-20119.5-21893.5h-1v-24.6h-58v12.684h-1v-13.684h60Z" transform="translate(21669.002 23271)" fill="#acb8cf"/>
    <rect id="矩形_9297" data-name="矩形 9297" width="45" height="20" rx="10" transform="translate(1181 1342)" fill="#fff"/>
    <path id="矩形_9297_-_轮廓" data-name="矩形 9297 - 轮廓" d="M10,1a9,9,0,0,0,0,18H35A9,9,0,0,0,35,1H10m0-1H35a10,10,0,0,1,0,20H10A10,10,0,0,1,10,0Z" transform="translate(1181 1342)" fill="#acb8cf"/>
    <rect id="矩形_9298" data-name="矩形 9298" width="45" height="20" rx="10" transform="translate(1309 1342.398)" fill="#fff"/>
    <path id="矩形_9298_-_轮廓" data-name="矩形 9298 - 轮廓" d="M10,1a9,9,0,0,0,0,18H35A9,9,0,0,0,35,1H10m0-1H35a10,10,0,0,1,0,20H10A10,10,0,0,1,10,0Z" transform="translate(1309 1342.398)" fill="#acb8cf"/>
    <rect id="矩形_9299" data-name="矩形 9299" width="45" height="20" rx="10" transform="translate(1497 1342.398)" fill="#fff"/>
    <path id="矩形_9299_-_轮廓" data-name="矩形 9299 - 轮廓" d="M10,1a9,9,0,0,0,0,18H35A9,9,0,0,0,35,1H10m0-1H35a10,10,0,0,1,0,20H10A10,10,0,0,1,10,0Z" transform="translate(1497 1342.398)" fill="#acb8cf"/>
    <path id="路径_19547" data-name="路径 19547" d="M.674-2.291V-3.937H3.908v1.646ZM7.289-8.625a2.347,2.347,0,0,1,1.951.891,5.686,5.686,0,0,1,.838,3.5,5.7,5.7,0,0,1-.844,3.5A2.343,2.343,0,0,1,7.289.146,2.458,2.458,0,0,1,5.268-.817,5.7,5.7,0,0,1,4.5-4.254a5.675,5.675,0,0,1,.844-3.492A2.343,2.343,0,0,1,7.289-8.625Zm0,1.365a.823.823,0,0,0-.533.19,1.278,1.278,0,0,0-.363.683,9.415,9.415,0,0,0-.17,2.15,9.346,9.346,0,0,0,.152,2.077,1.46,1.46,0,0,0,.384.753.819.819,0,0,0,.53.188.823.823,0,0,0,.533-.19,1.278,1.278,0,0,0,.363-.683,9.332,9.332,0,0,0,.17-2.145A9.346,9.346,0,0,0,8.2-6.313a1.481,1.481,0,0,0-.384-.756A.811.811,0,0,0,7.289-7.26Zm6.674-1.365a2.347,2.347,0,0,1,1.951.891,5.686,5.686,0,0,1,.838,3.5,5.7,5.7,0,0,1-.844,3.5,2.343,2.343,0,0,1-1.945.879,2.458,2.458,0,0,1-2.021-.964,5.7,5.7,0,0,1-.768-3.437,5.675,5.675,0,0,1,.844-3.492A2.343,2.343,0,0,1,13.963-8.625Zm0,1.365a.823.823,0,0,0-.533.19,1.278,1.278,0,0,0-.363.683,9.415,9.415,0,0,0-.17,2.15,9.346,9.346,0,0,0,.152,2.077,1.46,1.46,0,0,0,.384.753.819.819,0,0,0,.53.188.823.823,0,0,0,.533-.19,1.278,1.278,0,0,0,.363-.683,9.332,9.332,0,0,0,.17-2.145,9.346,9.346,0,0,0-.152-2.077,1.481,1.481,0,0,0-.384-.756A.811.811,0,0,0,13.963-7.26Zm3.9.791a2.477,2.477,0,0,1,.507-1.711,1.766,1.766,0,0,1,1.374-.557,1.807,1.807,0,0,1,1.4.554,2.475,2.475,0,0,1,.507,1.714,2.477,2.477,0,0,1-.507,1.711,1.766,1.766,0,0,1-1.374.557,1.807,1.807,0,0,1-1.4-.554A2.475,2.475,0,0,1,17.865-6.469Zm1.283-.012a2.22,2.22,0,0,0,.193,1.125.466.466,0,0,0,.4.211.471.471,0,0,0,.41-.211,2.28,2.28,0,0,0,.188-1.125A2.242,2.242,0,0,0,20.156-7.6a.467.467,0,0,0-.41-.217.466.466,0,0,0-.4.211A2.22,2.22,0,0,0,19.148-6.48ZM21,.328H19.781l4.576-9.064h1.184Zm2.66-2.256a2.477,2.477,0,0,1,.507-1.711A1.78,1.78,0,0,1,25.553-4.2a1.788,1.788,0,0,1,1.392.557,2.477,2.477,0,0,1,.507,1.711,2.487,2.487,0,0,1-.507,1.717A1.766,1.766,0,0,1,25.57.346a1.8,1.8,0,0,1-1.4-.557A2.487,2.487,0,0,1,23.66-1.928Zm1.283-.006a2.183,2.183,0,0,0,.193,1.119.462.462,0,0,0,.4.217.457.457,0,0,0,.4-.211,2.22,2.22,0,0,0,.193-1.125,2.28,2.28,0,0,0-.187-1.125.471.471,0,0,0-.41-.211.457.457,0,0,0-.4.211A2.22,2.22,0,0,0,24.943-1.934Z" transform="translate(1190 1356)"/>
    <path id="路径_19544" data-name="路径 19544" d="M.674-2.291V-3.937H3.908v1.646ZM7.289-8.625a2.347,2.347,0,0,1,1.951.891,5.686,5.686,0,0,1,.838,3.5,5.7,5.7,0,0,1-.844,3.5A2.343,2.343,0,0,1,7.289.146,2.458,2.458,0,0,1,5.268-.817,5.7,5.7,0,0,1,4.5-4.254a5.675,5.675,0,0,1,.844-3.492A2.343,2.343,0,0,1,7.289-8.625Zm0,1.365a.823.823,0,0,0-.533.19,1.278,1.278,0,0,0-.363.683,9.415,9.415,0,0,0-.17,2.15,9.346,9.346,0,0,0,.152,2.077,1.46,1.46,0,0,0,.384.753.819.819,0,0,0,.53.188.823.823,0,0,0,.533-.19,1.278,1.278,0,0,0,.363-.683,9.332,9.332,0,0,0,.17-2.145A9.346,9.346,0,0,0,8.2-6.313a1.481,1.481,0,0,0-.384-.756A.811.811,0,0,0,7.289-7.26Zm6.674-1.365a2.347,2.347,0,0,1,1.951.891,5.686,5.686,0,0,1,.838,3.5,5.7,5.7,0,0,1-.844,3.5,2.343,2.343,0,0,1-1.945.879,2.458,2.458,0,0,1-2.021-.964,5.7,5.7,0,0,1-.768-3.437,5.675,5.675,0,0,1,.844-3.492A2.343,2.343,0,0,1,13.963-8.625Zm0,1.365a.823.823,0,0,0-.533.19,1.278,1.278,0,0,0-.363.683,9.415,9.415,0,0,0-.17,2.15,9.346,9.346,0,0,0,.152,2.077,1.46,1.46,0,0,0,.384.753.819.819,0,0,0,.53.188.823.823,0,0,0,.533-.19,1.278,1.278,0,0,0,.363-.683,9.332,9.332,0,0,0,.17-2.145,9.346,9.346,0,0,0-.152-2.077,1.481,1.481,0,0,0-.384-.756A.811.811,0,0,0,13.963-7.26Zm3.9.791a2.477,2.477,0,0,1,.507-1.711,1.766,1.766,0,0,1,1.374-.557,1.807,1.807,0,0,1,1.4.554,2.475,2.475,0,0,1,.507,1.714,2.477,2.477,0,0,1-.507,1.711,1.766,1.766,0,0,1-1.374.557,1.807,1.807,0,0,1-1.4-.554A2.475,2.475,0,0,1,17.865-6.469Zm1.283-.012a2.22,2.22,0,0,0,.193,1.125.466.466,0,0,0,.4.211.471.471,0,0,0,.41-.211,2.28,2.28,0,0,0,.188-1.125A2.242,2.242,0,0,0,20.156-7.6a.467.467,0,0,0-.41-.217.466.466,0,0,0-.4.211A2.22,2.22,0,0,0,19.148-6.48ZM21,.328H19.781l4.576-9.064h1.184Zm2.66-2.256a2.477,2.477,0,0,1,.507-1.711A1.78,1.78,0,0,1,25.553-4.2a1.788,1.788,0,0,1,1.392.557,2.477,2.477,0,0,1,.507,1.711,2.487,2.487,0,0,1-.507,1.717A1.766,1.766,0,0,1,25.57.346a1.8,1.8,0,0,1-1.4-.557A2.487,2.487,0,0,1,23.66-1.928Zm1.283-.006a2.183,2.183,0,0,0,.193,1.119.462.462,0,0,0,.4.217.457.457,0,0,0,.4-.211,2.22,2.22,0,0,0,.193-1.125,2.28,2.28,0,0,0-.187-1.125.471.471,0,0,0-.41-.211.457.457,0,0,0-.4.211A2.22,2.22,0,0,0,24.943-1.934Z" transform="translate(1318 1356.398)"/>
    <path id="路径_19541" data-name="路径 19541" d="M.674-2.291V-3.937H3.908v1.646ZM7.289-8.625a2.347,2.347,0,0,1,1.951.891,5.686,5.686,0,0,1,.838,3.5,5.7,5.7,0,0,1-.844,3.5A2.343,2.343,0,0,1,7.289.146,2.458,2.458,0,0,1,5.268-.817,5.7,5.7,0,0,1,4.5-4.254a5.675,5.675,0,0,1,.844-3.492A2.343,2.343,0,0,1,7.289-8.625Zm0,1.365a.823.823,0,0,0-.533.19,1.278,1.278,0,0,0-.363.683,9.415,9.415,0,0,0-.17,2.15,9.346,9.346,0,0,0,.152,2.077,1.46,1.46,0,0,0,.384.753.819.819,0,0,0,.53.188.823.823,0,0,0,.533-.19,1.278,1.278,0,0,0,.363-.683,9.332,9.332,0,0,0,.17-2.145A9.346,9.346,0,0,0,8.2-6.313a1.481,1.481,0,0,0-.384-.756A.811.811,0,0,0,7.289-7.26Zm6.674-1.365a2.347,2.347,0,0,1,1.951.891,5.686,5.686,0,0,1,.838,3.5,5.7,5.7,0,0,1-.844,3.5,2.343,2.343,0,0,1-1.945.879,2.458,2.458,0,0,1-2.021-.964,5.7,5.7,0,0,1-.768-3.437,5.675,5.675,0,0,1,.844-3.492A2.343,2.343,0,0,1,13.963-8.625Zm0,1.365a.823.823,0,0,0-.533.19,1.278,1.278,0,0,0-.363.683,9.415,9.415,0,0,0-.17,2.15,9.346,9.346,0,0,0,.152,2.077,1.46,1.46,0,0,0,.384.753.819.819,0,0,0,.53.188.823.823,0,0,0,.533-.19,1.278,1.278,0,0,0,.363-.683,9.332,9.332,0,0,0,.17-2.145,9.346,9.346,0,0,0-.152-2.077,1.481,1.481,0,0,0-.384-.756A.811.811,0,0,0,13.963-7.26Zm3.9.791a2.477,2.477,0,0,1,.507-1.711,1.766,1.766,0,0,1,1.374-.557,1.807,1.807,0,0,1,1.4.554,2.475,2.475,0,0,1,.507,1.714,2.477,2.477,0,0,1-.507,1.711,1.766,1.766,0,0,1-1.374.557,1.807,1.807,0,0,1-1.4-.554A2.475,2.475,0,0,1,17.865-6.469Zm1.283-.012a2.22,2.22,0,0,0,.193,1.125.466.466,0,0,0,.4.211.471.471,0,0,0,.41-.211,2.28,2.28,0,0,0,.188-1.125A2.242,2.242,0,0,0,20.156-7.6a.467.467,0,0,0-.41-.217.466.466,0,0,0-.4.211A2.22,2.22,0,0,0,19.148-6.48ZM21,.328H19.781l4.576-9.064h1.184Zm2.66-2.256a2.477,2.477,0,0,1,.507-1.711A1.78,1.78,0,0,1,25.553-4.2a1.788,1.788,0,0,1,1.392.557,2.477,2.477,0,0,1,.507,1.711,2.487,2.487,0,0,1-.507,1.717A1.766,1.766,0,0,1,25.57.346a1.8,1.8,0,0,1-1.4-.557A2.487,2.487,0,0,1,23.66-1.928Zm1.283-.006a2.183,2.183,0,0,0,.193,1.119.462.462,0,0,0,.4.217.457.457,0,0,0,.4-.211,2.22,2.22,0,0,0,.193-1.125,2.28,2.28,0,0,0-.187-1.125.471.471,0,0,0-.41-.211.457.457,0,0,0-.4.211A2.22,2.22,0,0,0,24.943-1.934Z" transform="translate(1506 1356.398)"/>
  </g>
</svg>
