<?xml version="1.0" standalone="no"?><!DOCTYPE svg PUBLIC "-//W3C//DTD SVG 1.1//EN" "http://www.w3.org/Graphics/SVG/1.1/DTD/svg11.dtd"><svg t="1627107707504" class="icon" viewBox="0 0 1024 1024" version="1.1" xmlns="http://www.w3.org/2000/svg" p-id="2013" xmlns:xlink="http://www.w3.org/1999/xlink" width="200" height="200"><defs><style type="text/css">@font-face { font-family: feedback-iconfont; src: url("//at.alicdn.com/t/font_1031158_1uhr8ri0pk5.eot?#iefix") format("embedded-opentype"), url("//at.alicdn.com/t/font_1031158_1uhr8ri0pk5.woff2") format("woff2"), url("//at.alicdn.com/t/font_1031158_1uhr8ri0pk5.woff") format("woff"), url("//at.alicdn.com/t/font_1031158_1uhr8ri0pk5.ttf") format("truetype"), url("//at.alicdn.com/t/font_1031158_1uhr8ri0pk5.svg#iconfont") format("svg"); }
</style></defs><path d="M774.656 774.656a371.2 371.2 0 1 0-524.8 0 371.2 371.2 0 0 0 524.8 0zM819.2 819.2a435.2 435.2 0 1 1 0-614.4 435.2 435.2 0 0 1 0 614.4zM516.608 296.96a120.32 120.32 0 0 0-93.696 37.376 129.024 129.024 0 0 0-32.768 92.672v10.24h60.928v-10.24a82.944 82.944 0 0 1 14.848-51.2 55.296 55.296 0 0 1 51.2-20.992 56.32 56.32 0 0 1 43.008 14.848 54.784 54.784 0 0 1 14.336 40.448 51.2 51.2 0 0 1-13.312 34.304 199.168 199.168 0 0 1-16.896 17.408 219.136 219.136 0 0 0-51.2 62.464 111.616 111.616 0 0 0-10.24 51.2v22.016h61.44v-22.016a61.44 61.44 0 0 1 8.192-32.256 95.744 95.744 0 0 1 22.016-25.6 512 512 0 0 0 39.936-44.544 107.008 107.008 0 0 0 22.016-66.56 102.4 102.4 0 0 0-31.744-79.872 120.832 120.832 0 0 0-88.064-29.696z m-7.68 331.776a39.424 39.424 0 0 0-29.184 11.776 37.376 37.376 0 0 0-11.776 28.672 39.424 39.424 0 0 0 11.776 29.184 42.496 42.496 0 0 0 58.368 0 38.4 38.4 0 0 0 12.288-29.696 39.424 39.424 0 0 0-11.776-28.672 40.448 40.448 0 0 0-29.696-11.264z" fill="#1660F1" p-id="2014"></path></svg>