<svg xmlns="http://www.w3.org/2000/svg" width="783.258" height="313.793" viewBox="0 0 783.258 313.793">
  <g id="组_13789" data-name="组 13789" transform="translate(19792.258 22155.55)">
    <path id="_200" data-name="200" d="M-29.874-4.236a7.86,7.86,0,0,1,.313-2.452,3.05,3.05,0,0,1,.932-1.433,2.382,2.382,0,0,1,1.556-.5,2.538,2.538,0,0,1,1.213.278,2.319,2.319,0,0,1,.861.8,4.306,4.306,0,0,1,.533,1.277,8.487,8.487,0,0,1,.193,2.03,7.882,7.882,0,0,1-.311,2.44A3.051,3.051,0,0,1-25.512-.36a2.382,2.382,0,0,1-1.562.507,2.357,2.357,0,0,1-1.951-.891A5.661,5.661,0,0,1-29.874-4.236Zm1.084,0a5.386,5.386,0,0,0,.5,2.815,1.459,1.459,0,0,0,1.222.7,1.458,1.458,0,0,0,1.222-.7,5.388,5.388,0,0,0,.5-2.812,5.384,5.384,0,0,0-.5-2.818,1.47,1.47,0,0,0-1.233-.7,1.351,1.351,0,0,0-1.16.615A5.448,5.448,0,0,0-28.79-4.236Zm5.676,0A7.86,7.86,0,0,1-22.8-6.688a3.05,3.05,0,0,1,.932-1.433,2.382,2.382,0,0,1,1.556-.5,2.538,2.538,0,0,1,1.213.278,2.319,2.319,0,0,1,.861.8,4.306,4.306,0,0,1,.533,1.277,8.487,8.487,0,0,1,.193,2.03,7.882,7.882,0,0,1-.311,2.44A3.051,3.051,0,0,1-18.752-.36a2.382,2.382,0,0,1-1.562.507,2.357,2.357,0,0,1-1.951-.891A5.661,5.661,0,0,1-23.115-4.236Zm1.084,0a5.386,5.386,0,0,0,.5,2.815,1.459,1.459,0,0,0,1.222.7,1.458,1.458,0,0,0,1.222-.7,5.388,5.388,0,0,0,.5-2.812,5.384,5.384,0,0,0-.5-2.818,1.47,1.47,0,0,0-1.233-.7,1.351,1.351,0,0,0-1.16.615A5.448,5.448,0,0,0-22.031-4.236ZM-15.787,0V-1.2h1.2V0a2.132,2.132,0,0,1-.234,1.069,1.528,1.528,0,0,1-.744.63l-.293-.451a1,1,0,0,0,.492-.431A1.835,1.835,0,0,0-15.189,0Zm2.851-4.236a7.86,7.86,0,0,1,.313-2.452,3.05,3.05,0,0,1,.932-1.433,2.382,2.382,0,0,1,1.556-.5,2.538,2.538,0,0,1,1.213.278,2.319,2.319,0,0,1,.861.8,4.306,4.306,0,0,1,.533,1.277,8.487,8.487,0,0,1,.193,2.03A7.882,7.882,0,0,1-7.644-1.8,3.051,3.051,0,0,1-8.573-.36a2.382,2.382,0,0,1-1.562.507,2.357,2.357,0,0,1-1.951-.891A5.661,5.661,0,0,1-12.935-4.236Zm1.084,0a5.386,5.386,0,0,0,.5,2.815,1.459,1.459,0,0,0,1.222.7,1.458,1.458,0,0,0,1.222-.7,5.388,5.388,0,0,0,.5-2.812,5.384,5.384,0,0,0-.5-2.818,1.47,1.47,0,0,0-1.233-.7,1.351,1.351,0,0,0-1.16.615A5.448,5.448,0,0,0-11.851-4.236Zm5.676,0a7.86,7.86,0,0,1,.313-2.452,3.05,3.05,0,0,1,.932-1.433,2.382,2.382,0,0,1,1.556-.5,2.538,2.538,0,0,1,1.213.278,2.319,2.319,0,0,1,.861.8A4.306,4.306,0,0,1-.768-6.267a8.487,8.487,0,0,1,.193,2.03A7.882,7.882,0,0,1-.885-1.8,3.051,3.051,0,0,1-1.813-.36,2.382,2.382,0,0,1-3.375.146,2.357,2.357,0,0,1-5.326-.744,5.661,5.661,0,0,1-6.176-4.236Zm1.084,0a5.386,5.386,0,0,0,.5,2.815,1.459,1.459,0,0,0,1.222.7,1.458,1.458,0,0,0,1.222-.7,5.388,5.388,0,0,0,.5-2.812,5.384,5.384,0,0,0-.5-2.818,1.47,1.47,0,0,0-1.233-.7,1.351,1.351,0,0,0-1.16.615A5.448,5.448,0,0,0-5.092-4.236Z" transform="translate(-19762 -21938.619)" fill="#7e84a3"/>
    <path id="_400" data-name="400" d="M-29.874-4.236a7.86,7.86,0,0,1,.313-2.452,3.05,3.05,0,0,1,.932-1.433,2.382,2.382,0,0,1,1.556-.5,2.538,2.538,0,0,1,1.213.278,2.319,2.319,0,0,1,.861.8,4.306,4.306,0,0,1,.533,1.277,8.487,8.487,0,0,1,.193,2.03,7.882,7.882,0,0,1-.311,2.44A3.051,3.051,0,0,1-25.512-.36a2.382,2.382,0,0,1-1.562.507,2.357,2.357,0,0,1-1.951-.891A5.661,5.661,0,0,1-29.874-4.236Zm1.084,0a5.386,5.386,0,0,0,.5,2.815,1.459,1.459,0,0,0,1.222.7,1.458,1.458,0,0,0,1.222-.7,5.388,5.388,0,0,0,.5-2.812,5.384,5.384,0,0,0-.5-2.818,1.47,1.47,0,0,0-1.233-.7,1.351,1.351,0,0,0-1.16.615A5.448,5.448,0,0,0-28.79-4.236Zm5.676,0A7.86,7.86,0,0,1-22.8-6.688a3.05,3.05,0,0,1,.932-1.433,2.382,2.382,0,0,1,1.556-.5,2.538,2.538,0,0,1,1.213.278,2.319,2.319,0,0,1,.861.8,4.306,4.306,0,0,1,.533,1.277,8.487,8.487,0,0,1,.193,2.03,7.882,7.882,0,0,1-.311,2.44A3.051,3.051,0,0,1-18.752-.36a2.382,2.382,0,0,1-1.562.507,2.357,2.357,0,0,1-1.951-.891A5.661,5.661,0,0,1-23.115-4.236Zm1.084,0a5.386,5.386,0,0,0,.5,2.815,1.459,1.459,0,0,0,1.222.7,1.458,1.458,0,0,0,1.222-.7,5.388,5.388,0,0,0,.5-2.812,5.384,5.384,0,0,0-.5-2.818,1.47,1.47,0,0,0-1.233-.7,1.351,1.351,0,0,0-1.16.615A5.448,5.448,0,0,0-22.031-4.236ZM-15.787,0V-1.2h1.2V0a2.132,2.132,0,0,1-.234,1.069,1.528,1.528,0,0,1-.744.63l-.293-.451a1,1,0,0,0,.492-.431A1.835,1.835,0,0,0-15.189,0Zm2.851-4.236a7.86,7.86,0,0,1,.313-2.452,3.05,3.05,0,0,1,.932-1.433,2.382,2.382,0,0,1,1.556-.5,2.538,2.538,0,0,1,1.213.278,2.319,2.319,0,0,1,.861.8,4.306,4.306,0,0,1,.533,1.277,8.487,8.487,0,0,1,.193,2.03A7.882,7.882,0,0,1-7.644-1.8,3.051,3.051,0,0,1-8.573-.36a2.382,2.382,0,0,1-1.562.507,2.357,2.357,0,0,1-1.951-.891A5.661,5.661,0,0,1-12.935-4.236Zm1.084,0a5.386,5.386,0,0,0,.5,2.815,1.459,1.459,0,0,0,1.222.7,1.458,1.458,0,0,0,1.222-.7,5.388,5.388,0,0,0,.5-2.812,5.384,5.384,0,0,0-.5-2.818,1.47,1.47,0,0,0-1.233-.7,1.351,1.351,0,0,0-1.16.615A5.448,5.448,0,0,0-11.851-4.236Zm5.676,0a7.86,7.86,0,0,1,.313-2.452,3.05,3.05,0,0,1,.932-1.433,2.382,2.382,0,0,1,1.556-.5,2.538,2.538,0,0,1,1.213.278,2.319,2.319,0,0,1,.861.8A4.306,4.306,0,0,1-.768-6.267a8.487,8.487,0,0,1,.193,2.03A7.882,7.882,0,0,1-.885-1.8,3.051,3.051,0,0,1-1.813-.36,2.382,2.382,0,0,1-3.375.146,2.357,2.357,0,0,1-5.326-.744,5.661,5.661,0,0,1-6.176-4.236Zm1.084,0a5.386,5.386,0,0,0,.5,2.815,1.459,1.459,0,0,0,1.222.7,1.458,1.458,0,0,0,1.222-.7,5.388,5.388,0,0,0,.5-2.812,5.384,5.384,0,0,0-.5-2.818,1.47,1.47,0,0,0-1.233-.7,1.351,1.351,0,0,0-1.16.615A5.448,5.448,0,0,0-5.092-4.236Z" transform="translate(-19762 -21980.6)" fill="#7e84a3"/>
    <path id="_400-2" data-name="400" d="M-29.874-4.236a7.86,7.86,0,0,1,.313-2.452,3.05,3.05,0,0,1,.932-1.433,2.382,2.382,0,0,1,1.556-.5,2.538,2.538,0,0,1,1.213.278,2.319,2.319,0,0,1,.861.8,4.306,4.306,0,0,1,.533,1.277,8.487,8.487,0,0,1,.193,2.03,7.882,7.882,0,0,1-.311,2.44A3.051,3.051,0,0,1-25.512-.36a2.382,2.382,0,0,1-1.562.507,2.357,2.357,0,0,1-1.951-.891A5.661,5.661,0,0,1-29.874-4.236Zm1.084,0a5.386,5.386,0,0,0,.5,2.815,1.459,1.459,0,0,0,1.222.7,1.458,1.458,0,0,0,1.222-.7,5.388,5.388,0,0,0,.5-2.812,5.384,5.384,0,0,0-.5-2.818,1.47,1.47,0,0,0-1.233-.7,1.351,1.351,0,0,0-1.16.615A5.448,5.448,0,0,0-28.79-4.236Zm5.676,0A7.86,7.86,0,0,1-22.8-6.688a3.05,3.05,0,0,1,.932-1.433,2.382,2.382,0,0,1,1.556-.5,2.538,2.538,0,0,1,1.213.278,2.319,2.319,0,0,1,.861.8,4.306,4.306,0,0,1,.533,1.277,8.487,8.487,0,0,1,.193,2.03,7.882,7.882,0,0,1-.311,2.44A3.051,3.051,0,0,1-18.752-.36a2.382,2.382,0,0,1-1.562.507,2.357,2.357,0,0,1-1.951-.891A5.661,5.661,0,0,1-23.115-4.236Zm1.084,0a5.386,5.386,0,0,0,.5,2.815,1.459,1.459,0,0,0,1.222.7,1.458,1.458,0,0,0,1.222-.7,5.388,5.388,0,0,0,.5-2.812,5.384,5.384,0,0,0-.5-2.818,1.47,1.47,0,0,0-1.233-.7,1.351,1.351,0,0,0-1.16.615A5.448,5.448,0,0,0-22.031-4.236ZM-15.787,0V-1.2h1.2V0a2.132,2.132,0,0,1-.234,1.069,1.528,1.528,0,0,1-.744.63l-.293-.451a1,1,0,0,0,.492-.431A1.835,1.835,0,0,0-15.189,0Zm2.851-4.236a7.86,7.86,0,0,1,.313-2.452,3.05,3.05,0,0,1,.932-1.433,2.382,2.382,0,0,1,1.556-.5,2.538,2.538,0,0,1,1.213.278,2.319,2.319,0,0,1,.861.8,4.306,4.306,0,0,1,.533,1.277,8.487,8.487,0,0,1,.193,2.03A7.882,7.882,0,0,1-7.644-1.8,3.051,3.051,0,0,1-8.573-.36a2.382,2.382,0,0,1-1.562.507,2.357,2.357,0,0,1-1.951-.891A5.661,5.661,0,0,1-12.935-4.236Zm1.084,0a5.386,5.386,0,0,0,.5,2.815,1.459,1.459,0,0,0,1.222.7,1.458,1.458,0,0,0,1.222-.7,5.388,5.388,0,0,0,.5-2.812,5.384,5.384,0,0,0-.5-2.818,1.47,1.47,0,0,0-1.233-.7,1.351,1.351,0,0,0-1.16.615A5.448,5.448,0,0,0-11.851-4.236Zm5.676,0a7.86,7.86,0,0,1,.313-2.452,3.05,3.05,0,0,1,.932-1.433,2.382,2.382,0,0,1,1.556-.5,2.538,2.538,0,0,1,1.213.278,2.319,2.319,0,0,1,.861.8A4.306,4.306,0,0,1-.768-6.267a8.487,8.487,0,0,1,.193,2.03A7.882,7.882,0,0,1-.885-1.8,3.051,3.051,0,0,1-1.813-.36,2.382,2.382,0,0,1-3.375.146,2.357,2.357,0,0,1-5.326-.744,5.661,5.661,0,0,1-6.176-4.236Zm1.084,0a5.386,5.386,0,0,0,.5,2.815,1.459,1.459,0,0,0,1.222.7,1.458,1.458,0,0,0,1.222-.7,5.388,5.388,0,0,0,.5-2.812,5.384,5.384,0,0,0-.5-2.818,1.47,1.47,0,0,0-1.233-.7,1.351,1.351,0,0,0-1.16.615A5.448,5.448,0,0,0-5.092-4.236Z" transform="translate(-19762 -22014.602)" fill="#7e84a3"/>
    <path id="Shape" d="M.011,200V0h1V200Z" transform="translate(-19751.98 -22072.602)" fill="#acb8cf"/>
    <path id="Shape-2" data-name="Shape" d="M.011,742.968V0H1.393V742.968Z" transform="translate(-19009 -21873.303) rotate(90)" fill="#acb8cf"/>
    <path id="_9_6" data-name="9/6" d="M-16.019-4.942A9.17,9.17,0,0,1-15.653-7.8a3.559,3.559,0,0,1,1.087-1.671,2.779,2.779,0,0,1,1.815-.588,2.961,2.961,0,0,1,1.415.325,2.7,2.7,0,0,1,1,.937,5.024,5.024,0,0,1,.622,1.49,9.9,9.9,0,0,1,.226,2.369A9.2,9.2,0,0,1-9.846-2.1,3.559,3.559,0,0,1-10.93-.42a2.779,2.779,0,0,1-1.822.591A2.75,2.75,0,0,1-15.028-.868,6.6,6.6,0,0,1-16.019-4.942Zm1.265,0a6.284,6.284,0,0,0,.578,3.285,1.7,1.7,0,0,0,1.425.817,1.7,1.7,0,0,0,1.425-.82,6.286,6.286,0,0,0,.578-3.281,6.282,6.282,0,0,0-.578-3.288,1.714,1.714,0,0,0-1.439-.813,1.577,1.577,0,0,0-1.354.718A6.356,6.356,0,0,0-14.754-4.942Zm6.689,0A9.17,9.17,0,0,1-7.7-7.8,3.559,3.559,0,0,1-6.612-9.475,2.779,2.779,0,0,1-4.8-10.062a2.961,2.961,0,0,1,1.415.325,2.7,2.7,0,0,1,1,.937,5.024,5.024,0,0,1,.622,1.49A9.9,9.9,0,0,1-1.53-4.942,9.2,9.2,0,0,1-1.892-2.1,3.559,3.559,0,0,1-2.976-.42,2.779,2.779,0,0,1-4.8.171,2.75,2.75,0,0,1-7.074-.868,6.6,6.6,0,0,1-8.065-4.942Zm1.265,0a6.284,6.284,0,0,0,.578,3.285A1.7,1.7,0,0,0-4.8-.841a1.7,1.7,0,0,0,1.425-.82,6.286,6.286,0,0,0,.578-3.281A6.282,6.282,0,0,0-3.372-8.23a1.714,1.714,0,0,0-1.439-.813,1.577,1.577,0,0,0-1.354.718A6.356,6.356,0,0,0-6.8-4.942Zm6.689,0A9.17,9.17,0,0,1,.255-7.8,3.559,3.559,0,0,1,1.342-9.475a2.779,2.779,0,0,1,1.815-.588,2.961,2.961,0,0,1,1.415.325,2.7,2.7,0,0,1,1,.937A5.024,5.024,0,0,1,6.2-7.311a9.9,9.9,0,0,1,.226,2.369A9.2,9.2,0,0,1,6.062-2.1,3.559,3.559,0,0,1,4.979-.42,2.779,2.779,0,0,1,3.157.171,2.75,2.75,0,0,1,.88-.868,6.6,6.6,0,0,1-.111-4.942Zm1.265,0a6.284,6.284,0,0,0,.578,3.285,1.7,1.7,0,0,0,1.425.817,1.7,1.7,0,0,0,1.425-.82A6.286,6.286,0,0,0,5.16-4.942,6.282,6.282,0,0,0,4.582-8.23a1.714,1.714,0,0,0-1.439-.813,1.577,1.577,0,0,0-1.354.718A6.356,6.356,0,0,0,1.154-4.942ZM8.288,0V-10.021H9.614v4.97l4.977-4.97h1.8l-4.2,4.061L16.573,0h-1.75L11.254-5.072l-1.641,1.6V0Z" transform="translate(-19556.527 -21841.928)" fill="#7e84a3"/>
    <path id="_9_6-2" data-name="9/6" d="M-16.019-4.942A9.17,9.17,0,0,1-15.653-7.8a3.559,3.559,0,0,1,1.087-1.671,2.779,2.779,0,0,1,1.815-.588,2.961,2.961,0,0,1,1.415.325,2.7,2.7,0,0,1,1,.937,5.024,5.024,0,0,1,.622,1.49,9.9,9.9,0,0,1,.226,2.369A9.2,9.2,0,0,1-9.846-2.1,3.559,3.559,0,0,1-10.93-.42a2.779,2.779,0,0,1-1.822.591A2.75,2.75,0,0,1-15.028-.868,6.6,6.6,0,0,1-16.019-4.942Zm1.265,0a6.284,6.284,0,0,0,.578,3.285,1.7,1.7,0,0,0,1.425.817,1.7,1.7,0,0,0,1.425-.82,6.286,6.286,0,0,0,.578-3.281,6.282,6.282,0,0,0-.578-3.288,1.714,1.714,0,0,0-1.439-.813,1.577,1.577,0,0,0-1.354.718A6.356,6.356,0,0,0-14.754-4.942Zm6.689,0A9.17,9.17,0,0,1-7.7-7.8,3.559,3.559,0,0,1-6.612-9.475,2.779,2.779,0,0,1-4.8-10.062a2.961,2.961,0,0,1,1.415.325,2.7,2.7,0,0,1,1,.937,5.024,5.024,0,0,1,.622,1.49A9.9,9.9,0,0,1-1.53-4.942,9.2,9.2,0,0,1-1.892-2.1,3.559,3.559,0,0,1-2.976-.42,2.779,2.779,0,0,1-4.8.171,2.75,2.75,0,0,1-7.074-.868,6.6,6.6,0,0,1-8.065-4.942Zm1.265,0a6.284,6.284,0,0,0,.578,3.285A1.7,1.7,0,0,0-4.8-.841a1.7,1.7,0,0,0,1.425-.82,6.286,6.286,0,0,0,.578-3.281A6.282,6.282,0,0,0-3.372-8.23a1.714,1.714,0,0,0-1.439-.813,1.577,1.577,0,0,0-1.354.718A6.356,6.356,0,0,0-6.8-4.942Zm6.689,0A9.17,9.17,0,0,1,.255-7.8,3.559,3.559,0,0,1,1.342-9.475a2.779,2.779,0,0,1,1.815-.588,2.961,2.961,0,0,1,1.415.325,2.7,2.7,0,0,1,1,.937A5.024,5.024,0,0,1,6.2-7.311a9.9,9.9,0,0,1,.226,2.369A9.2,9.2,0,0,1,6.062-2.1,3.559,3.559,0,0,1,4.979-.42,2.779,2.779,0,0,1,3.157.171,2.75,2.75,0,0,1,.88-.868,6.6,6.6,0,0,1-.111-4.942Zm1.265,0a6.284,6.284,0,0,0,.578,3.285,1.7,1.7,0,0,0,1.425.817,1.7,1.7,0,0,0,1.425-.82A6.286,6.286,0,0,0,5.16-4.942,6.282,6.282,0,0,0,4.582-8.23a1.714,1.714,0,0,0-1.439-.813,1.577,1.577,0,0,0-1.354.718A6.356,6.356,0,0,0,1.154-4.942ZM8.288,0V-10.021H9.614v4.97l4.977-4.97h1.8l-4.2,4.061L16.573,0h-1.75L11.254-5.072l-1.641,1.6V0Z" transform="translate(-19329.527 -21841.928)" fill="#7e84a3"/>
    <path id="路径_18940" data-name="路径 18940" d="M-3806.406,5288.264h-1.823v-1h1.823Zm-11.823,0h-10v-1h10Zm-20,0h-10v-1h10Zm-20,0h-10v-1h10Zm-20,0h-10v-1h10Zm-20,0h-10v-1h10Zm-20,0h-10v-1h10Zm-20,0h-10v-1h10Zm-20,0h-10v-1h10Zm-20,0h-10v-1h10Zm-20,0h-10v-1h10Zm-20,0h-10v-1h10Zm-20,0h-10v-1h10Zm-20,0h-10v-1h10Zm-20,0h-10v-1h10Zm-20,0h-10v-1h10Zm-20,0h-10v-1h10Zm-20,0h-10v-1h10Zm-20,0h-10v-1h10Zm-20,0h-10v-1h10Zm-20,0h-10v-1h10Zm-20,0h-10v-1h10Z" transform="translate(-15522.74 -27306.98)" fill="#acb8cf"/>
    <path id="路径_19134" data-name="路径 19134" d="M-3806.787,5288.264h-1.442v-1h1.442Zm-11.442,0h-10v-1h10Zm-20,0h-10v-1h10Zm-20,0h-10v-1h10Zm-20,0h-10v-1h10Zm-20,0h-10v-1h10Zm-20,0h-10v-1h10Zm-20,0h-10v-1h10Zm-20,0h-10v-1h10Zm-20,0h-10v-1h10Zm-20,0h-10v-1h10Zm-20,0h-10v-1h10Zm-20,0h-10v-1h10Zm-20,0h-10v-1h10Zm-20,0h-10v-1h10Zm-20,0h-10v-1h10Zm-20,0h-10v-1h10Zm-20,0h-10v-1h10Zm-20,0h-10v-1h10Zm-20,0h-10v-1h10Zm-20,0h-10v-1h10Zm-20,0h-10v-1h10Z" transform="translate(-15522.74 -27273.363)" fill="#acb8cf"/>
    <path id="路径_18942" data-name="路径 18942" d="M-3498.229,5288.264h-10v-1h10Zm-20,0h-10v-1h10Zm-20,0h-10v-1h10Zm-20,0h-10v-1h10Zm-20,0h-10v-1h10Zm-20,0h-10v-1h10Zm-20,0h-10v-1h10Zm-20,0h-10v-1h10Zm-20,0h-10v-1h10Zm-20,0h-10v-1h10Zm-20,0h-10v-1h10Zm-20,0h-10v-1h10Zm-20,0h-10v-1h10Zm-20,0h-10v-1h10Zm-20,0h-10v-1h10Zm-20,0h-10v-1h10Zm-20,0h-10v-1h10Zm-20,0h-10v-1h10Zm-20,0h-10v-1h10Zm-20,0h-10v-1h10Zm-20,0h-10v-1h10Zm-20,0h-10v-1h10Zm-20,0h-10v-1h10Zm-20,0h-10v-1h10Zm-20,0h-10v-1h10Zm-20,0h-10v-1h10Zm-20,0h-10v-1h10Zm-20,0h-10v-1h10Zm-20,0h-10v-1h10Zm-20,0h-10v-1h10Zm-20,0h-10v-1h10Zm-20,0h-10v-1h10Zm-20,0h-10v-1h10Zm-20,0h-10v-1h10Zm-20,0h-10v-1h10Zm-20,0h-10v-1h10Zm-20,0h-10v-1h10Z" transform="translate(-15522.74 -27230.998)" fill="#acb8cf"/>
    <path id="路径_18943" data-name="路径 18943" d="M147.3.5H140v-1h7.3ZM130,.5H120v-1h10Zm-20,0H100v-1h10ZM90,.5H80v-1H90ZM70,.5H60v-1H70ZM50,.5H40v-1H50ZM30,.5H20v-1H30ZM10,.5H0v-1H10Z" transform="translate(-19556.527 -21871.91) rotate(-90)" fill="#acb8cf"/>
    <path id="路径_18944" data-name="路径 18944" d="M110,.5H100v-1h10ZM90,.5H80v-1H90ZM70,.5H60v-1H70ZM50,.5H40v-1H50ZM30,.5H20v-1H30ZM10,.5H0v-1H10Z" transform="translate(-19329.527 -21871.91) rotate(-90)" fill="#acb8cf"/>
    <path id="路径_18939" data-name="路径 18939" d="M-3819.536,5453.686h-.04c-18.025-.7-47.226-3.386-89.271-8.2-36.654-4.2-78.294-9.467-115.032-14.116-37.336-4.726-72.6-9.189-95.093-11.567-16.261-1.736-38.315-4.633-65.553-8.61-21.815-3.186-46.964-7.066-74.748-11.531-46.728-7.51-85.815-14.256-87.156-14.505h0c-4.057-.787-8.838-1.651-14.373-2.652-40.765-7.372-116.644-21.094-164.306-51.913a1,1,0,0,1-.3-1.383,1,1,0,0,1,1.383-.3c47.326,30.6,122.949,44.277,163.576,51.625,5.542,1,10.329,1.868,14.4,2.657l.008,0c1.064.2,40.867,7.066,87.5,14.559,43.5,6.988,103.052,16.141,139.774,20.06,22.511,2.38,57.786,6.845,95.133,11.572,36.733,4.649,78.366,9.918,115.009,14.114,41.995,4.808,71.147,7.487,89.121,8.188a1,1,0,0,1,.96,1.038A1,1,0,0,1-3819.536,5453.686Z" transform="translate(-15210.527 -27403.602)" fill="#1763f7"/>
    <g id="组_6819" data-name="组 6819" transform="translate(-19562.527 -22025.602)">
      <circle id="椭圆_402" data-name="椭圆 402" cx="6" cy="6" r="6" fill="#fff"/>
      <path id="椭圆_402_-_轮廓" data-name="椭圆 402 - 轮廓" d="M6,1a5,5,0,1,0,5,5A5.006,5.006,0,0,0,6,1M6,0A6,6,0,1,1,0,6,6,6,0,0,1,6,0Z" fill="#0059ff"/>
      <circle id="椭圆_403" data-name="椭圆 403" cx="4" cy="4" r="4" transform="translate(2 2)" fill="#0059ff"/>
    </g>
    <g id="组_6819-2" data-name="组 6819" transform="translate(-19335.527 -21991.602)">
      <circle id="椭圆_402-2" data-name="椭圆 402" cx="6" cy="6" r="6" fill="#fff"/>
      <path id="椭圆_402_-_轮廓-2" data-name="椭圆 402 - 轮廓" d="M6,1a5,5,0,1,0,5,5A5.006,5.006,0,0,0,6,1M6,0A6,6,0,1,1,0,6,6,6,0,0,1,6,0Z" fill="#70ad47"/>
      <circle id="椭圆_403-2" data-name="椭圆 403" cx="4" cy="4" r="4" transform="translate(2 2)" fill="#70ad47"/>
    </g>
    <path id="February_2018" data-name="February 2018" d="M.72-5.124v.7H1.872V-.276L.756-.228.864.516C2.532.42,3.936.3,5.076.168V1.224h.84V.06c.24-.048.48-.084.7-.12V-.744c-.216.036-.456.072-.7.108V-4.428H11.3v-.7ZM2.652-.312V-1.344H5.076v.816C4.356-.444,3.54-.372,2.652-.312Zm0-1.668v-.9H5.076v.9Zm0-1.548v-.9H5.076v.9ZM2.244-9.372v3.456H9.828V-9.372ZM9-6.54H3.072v-.8H9ZM3.072-7.956v-.768H9v.768Zm3.852,5.04A5.379,5.379,0,0,0,8.28-.564,7.549,7.549,0,0,1,6.42.54l.444.672a7.638,7.638,0,0,0,2-1.224,9.539,9.539,0,0,0,2,1.224l.444-.72A8.807,8.807,0,0,1,9.42-.564a5.711,5.711,0,0,0,1.212-2.388v-.672H6.54v.708ZM8.808-1.08a4.374,4.374,0,0,1-1.14-1.836H9.852A5.2,5.2,0,0,1,8.808-1.08Zm13.92-8.6a10.215,10.215,0,0,1-3.924.8v5.136A7.969,7.969,0,0,1,17.652.54l.612.648a8.862,8.862,0,0,0,1.38-4.932V-5.172H21.42V1.236h.852V-5.172H23.52V-6H19.644V-8.184a11.435,11.435,0,0,0,3.516-.732Zm-10,.924v.792h5.412V-8.76H15.876c-.168-.432-.336-.828-.516-1.188l-.888.144a7.106,7.106,0,0,1,.552,1.044Zm-.12,2.724v.78h2.424v1.344H12.8v.792h2.232V.072q0,.432-.468.432a2.972,2.972,0,0,1-.54-.06l.18.8h.648q1.044,0,1.044-.972v-3.4h2.112v-.792H15.9V-5.256h2.316v-.78H16.86a10.067,10.067,0,0,0,.624-1.392l-.78-.264a14.3,14.3,0,0,1-.624,1.656H14.76a9.469,9.469,0,0,0-.636-1.632l-.768.276a9.383,9.383,0,0,1,.636,1.356Zm1.032,3.564A9.381,9.381,0,0,1,12.408.408l.72.456A11.529,11.529,0,0,0,14.436-2.3Zm3.444-.084-.72.192a16.531,16.531,0,0,1,.84,2.22l.72-.276A16.215,16.215,0,0,0,17.088-2.556Zm9.4-3.684v.816h3.144V-.192a2.945,2.945,0,0,1-.348-.1,3.877,3.877,0,0,1-2.16-1.956A14.948,14.948,0,0,0,27.672-4.3l-.84-.144A9.772,9.772,0,0,1,24.5.492l.552.684a8.892,8.892,0,0,0,1.728-2.592A4.536,4.536,0,0,0,28.716.312a14.544,14.544,0,0,0,5.208.672h1.344L35.424.12c-.648.048-1.272.072-1.884.072a23.45,23.45,0,0,1-3.048-.2V-2.5h3.576v-.816H30.492V-5.424H33.54V-6.24Zm8.424-2.34H30.552A11.752,11.752,0,0,0,30-9.912l-.924.144a9.146,9.146,0,0,1,.6,1.188H25.092v2.616h.84V-7.788h8.136v1.764h.84Zm6.468-1.2v3.5H38.112v3.852h7.944V-6.276H42.228V-7.8h4.656v-.816H42.228V-9.78Zm3.816,6.552H38.976V-5.46h6.216ZM38.088-1.9A10.34,10.34,0,0,1,36.54.648l.708.516A12.484,12.484,0,0,0,38.82-1.548Zm2.616.348-.8.168a21.79,21.79,0,0,1,.588,2.6l.864-.192C41.16.108,40.944-.756,40.7-1.548Zm2.508-.12L42.4-1.5a14.23,14.23,0,0,1,.9,2.7l.852-.192A19.4,19.4,0,0,0,43.212-1.668Zm2.46-.24-.7.444A19.763,19.763,0,0,1,46.7,1.224l.72-.5A21.534,21.534,0,0,0,45.672-1.908Zm4.14-6.024V-3h3.756v1.14h-4.9v.816h4.9v2.28h.864v-2.28h4.9V-1.86h-4.9V-3h3.756V-7.932h-2.3a10.021,10.021,0,0,0,.972-1.656l-.84-.3a13.709,13.709,0,0,1-1.032,1.956Zm7.536,4.164H54.432V-5.112h2.916Zm-3.78,0H50.652V-5.112h2.916ZM50.652-5.856v-1.32h2.916v1.32Zm3.78-1.32h2.916v1.32H54.432Zm-2.5-2.652L51.2-9.48a11.094,11.094,0,0,1,1.14,1.536l.72-.36A13.936,13.936,0,0,0,51.936-9.828ZM62-5.64v6.8h.888V-7.128a14.934,14.934,0,0,0,.936-2.3L63.012-9.8a13.333,13.333,0,0,1-2.568,4.86l.288.912A14.973,14.973,0,0,0,62-5.64ZM68.5-5.6v6.7h.84V-5.6Zm-3.084.036v1.812A5.718,5.718,0,0,1,63.828.66l.648.564c1.152-1.056,1.74-2.712,1.764-4.98V-5.568Zm1.524-4.176a11.073,11.073,0,0,1-3.708,4.356l.48.732a11.568,11.568,0,0,0,3.612-4.26,10.833,10.833,0,0,0,3.768,4.128l.492-.732a10.433,10.433,0,0,1-3.864-4.224Z" transform="translate(-19164 -22145.602)" fill="#41434a"/>
    <rect id="矩形_6488" data-name="矩形 6488" width="10" height="10" rx="5" transform="translate(-19179 -22154.602)" fill="#0059ff"/>
    <path id="February_2018-2" data-name="February 2018" d="M10.032-9.216H1.98V1.212h.876v-.8H9.168v.78h.864ZM2.856-.432V-2.688H9.168V-.432Zm0-3.048V-5.592H9.168V-3.48Zm0-2.9V-8.376H9.168v1.992ZM14.292-9.768V-7.5H12.828v.828h1.464a11.33,11.33,0,0,1-1.848,4.044l.372.936a14.173,14.173,0,0,0,1.476-3.1V1.188h.852V-4.824c.36.456.78,1.056,1.272,1.812l.492-.732c-.588-.732-1.176-1.4-1.764-2v-.924h1.392V-7.5H15.144V-9.768Zm3.54,5.424A13.228,13.228,0,0,1,16.212-.3l.744.48a15.18,15.18,0,0,0,1.668-4.344Zm4.344-.06-.78.252a41.047,41.047,0,0,1,1.3,4.44l.78-.348A36.176,36.176,0,0,0,22.176-4.4ZM19.488,1.068A.944.944,0,0,0,20.544,0V-5.34h2.94v-.828H16.752v.828H19.68V-.216c0,.348-.168.528-.492.528C18.84.312,18.48.288,18.1.264l.168.8Zm-2.1-10.152v.816H22.86v-.816Zm8.424,1.152V-3h3.756v1.14h-4.9v.816h4.9v2.28h.864v-2.28h4.9V-1.86h-4.9V-3h3.756V-7.932h-2.3a10.021,10.021,0,0,0,.972-1.656l-.84-.3a13.709,13.709,0,0,1-1.032,1.956Zm7.536,4.164H30.432V-5.112h2.916Zm-3.78,0H26.652V-5.112h2.916ZM26.652-5.856v-1.32h2.916v1.32Zm3.78-1.32h2.916v1.32H30.432Zm-2.5-2.652L27.2-9.48a11.094,11.094,0,0,1,1.14,1.536l.72-.36A13.935,13.935,0,0,0,27.936-9.828ZM38-5.64v6.8h.888V-7.128a14.934,14.934,0,0,0,.936-2.3L39.012-9.8a13.333,13.333,0,0,1-2.568,4.86l.288.912A14.973,14.973,0,0,0,38-5.64ZM44.5-5.6v6.7h.84V-5.6Zm-3.084.036v1.812A5.718,5.718,0,0,1,39.828.66l.648.564c1.152-1.056,1.74-2.712,1.764-4.98V-5.568Zm1.524-4.176a11.073,11.073,0,0,1-3.708,4.356l.48.732a11.568,11.568,0,0,0,3.612-4.26,10.833,10.833,0,0,0,3.768,4.128l.492-.732a10.433,10.433,0,0,1-3.864-4.224Z" transform="translate(-19057 -22145.602)" fill="#41434a"/>
    <rect id="矩形_6488-2" data-name="矩形 6488" width="10" height="10" rx="5" transform="translate(-19072 -22154.602)" fill="#70ad47"/>
    <path id="路径_19129" data-name="路径 19129" d="M17753.5,5965.941h-1v-37.393h-226v25.729h-1v-26.729h228Z" transform="translate(-37082.527 -27989.648)" fill="#acb8cf"/>
    <path id="路径_19135" data-name="路径 19135" d="M17560.5,5945.048h-1v-16.5h-33v16.5h-1v-17.5h35Z" transform="translate(-13378.479 -39545.602) rotate(90)" fill="#acb8cf"/>
    <path id="Top_Retail_Sales_Loc" data-name="Top Retail Sales Loc" d="M-57.375,0l-3.883-10.021h1.436l2.6,7.28q.314.875.526,1.641.232-.82.54-1.641l2.707-7.28h1.354L-56.015,0Zm5.17-3.63a3.742,3.742,0,0,1,1.121-2.987A3.378,3.378,0,0,1-48.8-7.424a3.257,3.257,0,0,1,2.447.981,3.732,3.732,0,0,1,.95,2.71,4.8,4.8,0,0,1-.42,2.2A2.976,2.976,0,0,1-47.047-.28,3.562,3.562,0,0,1-48.8.164a3.263,3.263,0,0,1-2.464-.978A3.9,3.9,0,0,1-52.205-3.63Zm1.265,0a3.092,3.092,0,0,0,.608,2.088A1.95,1.95,0,0,0-48.8-.848a1.939,1.939,0,0,0,1.524-.7,3.165,3.165,0,0,0,.608-2.126,3,3,0,0,0-.612-2.041A1.946,1.946,0,0,0-48.8-6.405a1.954,1.954,0,0,0-1.531.69A3.078,3.078,0,0,0-50.941-3.63ZM-43.9,0V-10.021h1.23V0Zm7.98,0V-1.066a2.657,2.657,0,0,1-2.3,1.23,2.936,2.936,0,0,1-1.2-.246A1.976,1.976,0,0,1-40.255-.7a2.319,2.319,0,0,1-.379-.913,6.248,6.248,0,0,1-.075-1.148v-4.5h1.23v4.026a7.175,7.175,0,0,0,.075,1.3,1.283,1.283,0,0,0,.492.762,1.525,1.525,0,0,0,.93.277,2.025,2.025,0,0,0,1.039-.284,1.577,1.577,0,0,0,.687-.772,3.876,3.876,0,0,0,.2-1.418V-7.26h1.23V0Zm3.112,0V-7.26h1.1v1.019A2.588,2.588,0,0,1-30.8-7.1a2.554,2.554,0,0,1,1.292-.325,2.388,2.388,0,0,1,1.323.335,1.793,1.793,0,0,1,.728.937,2.606,2.606,0,0,1,2.242-1.271,2.21,2.21,0,0,1,1.661.6,2.556,2.556,0,0,1,.581,1.842V0H-24.2V-4.573a3.367,3.367,0,0,0-.12-1.063,1.03,1.03,0,0,0-.434-.523,1.355,1.355,0,0,0-.738-.2,1.718,1.718,0,0,0-1.271.509,2.243,2.243,0,0,0-.506,1.63V0H-28.5V-4.717a2.075,2.075,0,0,0-.3-1.23,1.139,1.139,0,0,0-.984-.41,1.788,1.788,0,0,0-.96.273,1.551,1.551,0,0,0-.639.8,4.5,4.5,0,0,0-.2,1.518V0ZM-16.1-2.338l1.271.157A3.1,3.1,0,0,1-15.939-.451a3.35,3.35,0,0,1-2.078.615,3.321,3.321,0,0,1-2.526-.981,3.833,3.833,0,0,1-.933-2.751,4.011,4.011,0,0,1,.943-2.844,3.193,3.193,0,0,1,2.447-1.012,3.1,3.1,0,0,1,2.379.991,3.938,3.938,0,0,1,.923,2.789q0,.109-.007.328h-5.414a2.79,2.79,0,0,0,.677,1.832,2.014,2.014,0,0,0,1.518.636A1.883,1.883,0,0,0-16.856-1.2,2.36,2.36,0,0,0-16.1-2.338Zm-4.04-1.989h4.054A2.459,2.459,0,0,0-16.548-5.7a1.886,1.886,0,0,0-1.524-.711,1.955,1.955,0,0,0-1.425.567A2.246,2.246,0,0,0-20.137-4.327ZM-9.065,0V-10.021h3.78a9.127,9.127,0,0,1,1.524.1,3.02,3.02,0,0,1,1.237.468,2.457,2.457,0,0,1,.8.967,3.07,3.07,0,0,1,.3,1.367,3.081,3.081,0,0,1-.813,2.164,3.9,3.9,0,0,1-2.939.885h-2.57V0Zm1.326-5.257h2.591a2.748,2.748,0,0,0,1.825-.479,1.7,1.7,0,0,0,.54-1.347A1.811,1.811,0,0,0-3.1-8.159a1.486,1.486,0,0,0-.837-.591,5.666,5.666,0,0,0-1.237-.089H-7.739ZM.186,0V-7.26H1.293v1.1a3,3,0,0,1,.783-1.019,1.366,1.366,0,0,1,.79-.246,2.4,2.4,0,0,1,1.265.4L3.706-5.886a1.761,1.761,0,0,0-.9-.267,1.172,1.172,0,0,0-.725.243,1.315,1.315,0,0,0-.458.673A4.793,4.793,0,0,0,1.416-3.8V0ZM4.952-8.606v-1.415h1.23v1.415ZM4.952,0V-7.26h1.23V0Zm7.925-2.659,1.21.157A3.138,3.138,0,0,1,13.072-.543a2.957,2.957,0,0,1-2.006.708,3.117,3.117,0,0,1-2.4-.974A3.952,3.952,0,0,1,7.764-3.6a5.053,5.053,0,0,1,.39-2.058A2.717,2.717,0,0,1,9.339-6.983a3.519,3.519,0,0,1,1.733-.441,3.012,3.012,0,0,1,1.935.6,2.743,2.743,0,0,1,.964,1.7l-1.2.185a1.986,1.986,0,0,0-.6-1.1,1.565,1.565,0,0,0-1.049-.369,1.91,1.91,0,0,0-1.511.667,3.164,3.164,0,0,0-.581,2.109,3.271,3.271,0,0,0,.561,2.126,1.824,1.824,0,0,0,1.463.663,1.724,1.724,0,0,0,1.21-.444A2.205,2.205,0,0,0,12.877-2.659Zm2.354-5.947v-1.415h1.23v1.415Zm0,8.606V-7.26h1.23V0Zm3.188,0V-7.26h1.107v1.032a2.61,2.61,0,0,1,2.311-1.2,3.031,3.031,0,0,1,1.207.236,1.9,1.9,0,0,1,.824.619,2.375,2.375,0,0,1,.383.909,7.046,7.046,0,0,1,.068,1.2V0h-1.23V-4.416a3.315,3.315,0,0,0-.144-1.125,1.183,1.183,0,0,0-.509-.595,1.62,1.62,0,0,0-.858-.222,1.994,1.994,0,0,0-1.357.5,2.462,2.462,0,0,0-.571,1.894V0Zm7.645.6,1.2.178a1.14,1.14,0,0,0,.417.807,2.049,2.049,0,0,0,1.251.342,2.2,2.2,0,0,0,1.319-.342,1.682,1.682,0,0,0,.629-.957A7.859,7.859,0,0,0,30.964-.95a2.531,2.531,0,0,1-2.01.95,2.74,2.74,0,0,1-2.317-1.08,4.159,4.159,0,0,1-.82-2.591,4.822,4.822,0,0,1,.376-1.917,3.008,3.008,0,0,1,1.09-1.357,2.944,2.944,0,0,1,1.678-.479A2.6,2.6,0,0,1,31.08-6.385V-7.26h1.135V-.984a5.952,5.952,0,0,1-.345,2.4,2.525,2.525,0,0,1-1.094,1.118,3.791,3.791,0,0,1-1.842.41,3.474,3.474,0,0,1-2.1-.584A1.976,1.976,0,0,1,26.063.6ZM27.081-3.76a3.149,3.149,0,0,0,.567,2.085,1.8,1.8,0,0,0,1.422.656,1.819,1.819,0,0,0,1.422-.653,3.047,3.047,0,0,0,.574-2.047,2.977,2.977,0,0,0-.591-2.01,1.828,1.828,0,0,0-1.425-.677,1.776,1.776,0,0,0-1.395.667A2.96,2.96,0,0,0,27.081-3.76ZM45.639-9.03H42.307v-2.436H41.3V-9.03h-2.17v-2.436H38.121V-9.03h-3.29v10.4H35.8V.658h8.876v.714h.966ZM35.8-.308v-3.57h2.324v3.57Zm3.332-3.57H41.3v3.57h-2.17Zm3.178,0h2.366v3.57H42.307ZM35.8-4.83V-8.05h2.324v3.22Zm3.332-3.22H41.3v3.22h-2.17Zm3.178,0h2.366v3.22H42.307ZM52.891-1.386a24.582,24.582,0,0,1-4.83,1.274l.126.98a25.9,25.9,0,0,0,4.7-1.288ZM50.4-11.508A23.66,23.66,0,0,1,48.425-7.07a.922.922,0,0,1-.42.364l.238.924c.784-.1,1.568-.2,2.338-.308a13.935,13.935,0,0,1-1.876,2.758,1.868,1.868,0,0,1-.462.294l.28.924a24.315,24.315,0,0,0,4.214-.994v-.91a24.11,24.11,0,0,1-3.024.8,31.627,31.627,0,0,0,3.08-5.04L51.9-8.6c-.28.56-.56,1.092-.812,1.6-.63.1-1.26.182-1.89.238a23.4,23.4,0,0,0,2.17-4.368ZM59.681-8.96,56.2-8.47v-2.968H55.187V-8.33l-2.142.308L53.2-7.1l2.016-.294c.014.672.056,1.316.126,1.918l-2.534.406.14.952,2.52-.406c.056.364.112.714.2,1.078A11.305,11.305,0,0,0,56.307-1.4,12.052,12.052,0,0,1,52.821.378l.588.812A10.979,10.979,0,0,0,56.755-.518,2.887,2.887,0,0,0,57.077,0a2.571,2.571,0,0,0,1.9,1.288c.728,0,1.288-.938,1.68-2.786l-.854-.56C59.555-.56,59.233.2,58.869.2S58.1-.154,57.637-.84c-.056-.084-.1-.182-.154-.266a14.612,14.612,0,0,0,2.408-2.758l-.8-.546a12.77,12.77,0,0,1-2.016,2.38,13.51,13.51,0,0,1-.5-1.918c-.042-.224-.084-.476-.112-.728l3.752-.588-.154-.952-3.71.588c-.056-.6-.1-1.232-.126-1.9l3.6-.5Zm-1.918-2.52-.784.49A12.311,12.311,0,0,1,58.631-9.2l.784-.546A17.561,17.561,0,0,0,57.763-11.48Z" transform="translate(-19731 -22135.602)" fill="#727272"/>
    <path id="Top_Retail_Sales_Loc-2" data-name="Top Retail Sales Loc" d="M-41.65,0V-3.639L-44.961-8.59h1.383L-41.885-6q.469.727.873,1.453.387-.674.938-1.518L-38.41-8.59h1.324l-3.428,4.951V0ZM-36.5-5.021v-1.2h1.2v1.2ZM-36.5,0V-1.2h1.2V0Zm7.54-7.932V-3H-25.2v1.14h-4.9v.816h4.9v2.28h.864v-2.28h4.9V-1.86h-4.9V-3h3.756V-7.932h-2.3a10.021,10.021,0,0,0,.972-1.656l-.84-.3a13.709,13.709,0,0,1-1.032,1.956Zm7.536,4.164h-2.916V-5.112h2.916Zm-3.78,0h-2.916V-5.112H-25.2Zm-2.916-2.088v-1.32H-25.2v1.32Zm3.78-1.32h2.916v1.32h-2.916Zm-2.5-2.652-.732.348a11.094,11.094,0,0,1,1.14,1.536l.72-.36A13.935,13.935,0,0,0-26.834-9.828Zm10.14,4.188v6.8h.888V-7.128a14.934,14.934,0,0,0,.936-2.3l-.816-.372a13.333,13.333,0,0,1-2.568,4.86l.288.912A14.973,14.973,0,0,0-16.694-5.64ZM-10.2-5.6v6.7h.84V-5.6Zm-3.084.036v1.812A5.718,5.718,0,0,1-14.87.66l.648.564c1.152-1.056,1.74-2.712,1.764-4.98V-5.568Zm1.524-4.176A11.073,11.073,0,0,1-15.47-5.388l.48.732a11.568,11.568,0,0,0,3.612-4.26A10.833,10.833,0,0,0-7.61-4.788l.492-.732a10.433,10.433,0,0,1-3.864-4.224Zm15.336-.18A10.142,10.142,0,0,0,2.338-7.452,9.452,9.452,0,0,0,1.81-4.308a9.416,9.416,0,0,0,.528,3.12A10.588,10.588,0,0,0,3.574,1.284h.84A12.158,12.158,0,0,1,3.274-1.2a9.626,9.626,0,0,1-.528-3.12,9.573,9.573,0,0,1,.528-3.12,11.6,11.6,0,0,1,1.14-2.484Zm3.672.792v.84h8.292v-.84ZM6.322-5.6v.84H9.43v.18a6.494,6.494,0,0,1-.768,3.192A5.273,5.273,0,0,1,5.95.5l.468.732A5.793,5.793,0,0,0,9.31-.816a7.3,7.3,0,0,0,.96-3.768v-.18h2.16V-.108a.99.99,0,0,0,1.128,1.116H15.3a1.2,1.2,0,0,0,.96-.372,5.058,5.058,0,0,0,.48-2.376l-.792-.252A5.372,5.372,0,0,1,15.67-.048a.559.559,0,0,1-.54.276H13.8a.461.461,0,0,1-.528-.516V-4.764h3.312V-5.6Zm11.2,5.75,2.49-8.883h.844L18.368.146Zm6.55-10.022a13.361,13.361,0,0,1-2.76,4.98l.276.924a15.023,15.023,0,0,0,1.26-1.512v6.7H23.7V-6.8a15.108,15.108,0,0,0,1.188-2.7Zm2.016.792A10.306,10.306,0,0,1,24.6-5.028l.552.72a9.365,9.365,0,0,0,1.116-2.124H28.3V-3.54H24.776v.828H28.3V1.152h.864V-2.712h3.2V-3.54h-3.2V-6.432h2.76v-.84h-2.76v-2.5H28.3v2.5H26.54a11.813,11.813,0,0,0,.4-1.7Zm7.872-.84A12.212,12.212,0,0,1,35.1-7.44a9.9,9.9,0,0,1,.528,3.12A9.959,9.959,0,0,1,35.1-1.2a12.835,12.835,0,0,1-1.14,2.484h.84a11.613,11.613,0,0,0,1.236-2.472,9.735,9.735,0,0,0,.528-3.12,9.768,9.768,0,0,0-.528-3.144A11.077,11.077,0,0,0,34.8-9.924Z" transform="translate(-19747 -22107.162)" fill="#727272"/>
    <path id="Top_Retail_Sales_Loc-3" data-name="Top Retail Sales Loc" d="M-37.535,0l3.322-4.477-2.93-4.113h1.354l1.559,2.2a12.532,12.532,0,0,1,.691,1.055,11.216,11.216,0,0,1,.68-.979l1.729-2.279h1.236l-3.018,4.049L-29.66,0h-1.406l-2.162-3.064q-.182-.264-.375-.574-.287.469-.41.645L-36.17,0Zm9.107-5.021v-1.2h1.2v1.2Zm0,5.021V-1.2h1.2V0Zm11.752-9.96-.9.156a7.87,7.87,0,0,1,.588,1.236H-21.38v.828h2.2l.5,1.824h-2.46v2.6A6.615,6.615,0,0,1-22.232.6l.66.588a7.785,7.785,0,0,0,1.308-4.5V-5.088h8.616v-.828h-2.928a10.123,10.123,0,0,0,.588-1.824H-11.9v-.828h-4.212A14.527,14.527,0,0,0-16.676-9.96Zm-1.152,4.044-.5-1.824h3.516A7.9,7.9,0,0,1-15.4-5.916Zm9.036,1.14v3.06h3.72v.672h-4.02v.576h4.02V.24h-4.92V.912H.736V.24H-4.208V-.468H-.14v-.576H-4.208v-.672H-.44v-3.06Zm7.524,2.52h-2.94v-.732h2.94Zm-3.8,0H-7.964v-.732h2.892ZM-7.964-3.492v-.744h2.892v.744Zm3.756-.744h2.94v.744h-2.94Zm-4.32-5.376v2.964H-.692V-9.612Zm7,2.448H-7.688v-.708h6.156ZM-7.688-8.388v-.7h6.156v.7ZM-10-6.024v.648H.748v-.648Zm21.648-3.9a10.142,10.142,0,0,0-1.236,2.472A9.452,9.452,0,0,0,9.88-4.308a9.416,9.416,0,0,0,.528,3.12,10.588,10.588,0,0,0,1.236,2.472h.84A12.158,12.158,0,0,1,11.344-1.2a9.626,9.626,0,0,1-.528-3.12,9.573,9.573,0,0,1,.528-3.12,11.6,11.6,0,0,1,1.14-2.484Zm6.9.744v.816h1.992L20.5-6.492H18.772v7.68h.756v-6.9h.948c0,.06-.012.132-.012.216a10.854,10.854,0,0,1-.84,4.068l.468.6a9.582,9.582,0,0,0,.792-2.424c.144.288.3.66.492,1.1l.36-.564c-.24-.48-.492-.912-.732-1.3.048-.36.084-.744.108-1.14a4.594,4.594,0,0,1,.036-.564H22.2l-.024.468a11.748,11.748,0,0,1-.924,4.38l.468.6a10.419,10.419,0,0,0,.936-3.024c.192.48.432,1.116.7,1.884l.408-.612c-.336-.768-.66-1.452-1-2.076l.072-.8c.012-.252.024-.528.048-.816h.9V-.264c0,.4-.168.6-.492.6L22.168.3l.2.78h1.176c.66,0,1-.4,1-1.164V-6.492H22.912q.036-.828.036-1.872h1.9V-9.18Zm2.628,2.688.036-1.872h1.044l-.024,1.872Zm-4.872,0V-4.68H15.088A22.163,22.163,0,0,0,15.964-7.4H18.3V-8.22H16.168c.1-.456.2-.948.312-1.476l-.828-.132c-.108.552-.216,1.092-.324,1.608H14.212V-7.4h.924a17.7,17.7,0,0,1-.912,2.736l.18.744h1.9V-2.1c-.72.144-1.476.264-2.292.384l.108.816c.756-.12,1.488-.252,2.184-.4v2.52h.792v-2.7c.432-.108.852-.228,1.272-.36v-.792c-.4.12-.816.228-1.272.348V-3.924h1.164V-4.68H17.092V-6.492ZM26.548-9.924a12.212,12.212,0,0,1,1.14,2.484,9.9,9.9,0,0,1,.528,3.12,9.959,9.959,0,0,1-.528,3.12,12.836,12.836,0,0,1-1.14,2.484h.84a11.613,11.613,0,0,0,1.236-2.472,9.735,9.735,0,0,0,.528-3.12,9.768,9.768,0,0,0-.528-3.144,11.077,11.077,0,0,0-1.236-2.472Z" transform="translate(-19644.273 -22107.162)" fill="#727272"/>
    <path id="矩形_9275_-_轮廓" data-name="矩形 9275 - 轮廓" d="M14,1A13,13,0,0,0,4.808,23.192,12.915,12.915,0,0,0,14,27H48A13,13,0,0,0,57.192,4.808,12.915,12.915,0,0,0,48,1H14m0-1H48a14,14,0,0,1,0,28H14A14,14,0,0,1,14,0Z" transform="translate(-19474 -22076)" fill="#acb8cf"/>
    <rect id="矩形_9301" data-name="矩形 9301" width="62" height="28" rx="14" transform="translate(-19474 -22076)" fill="#c00000"/>
    <rect id="矩形_9302" data-name="矩形 9302" width="62" height="28" rx="14" transform="translate(-19296 -22017)" fill="#70ad47"/>
    <path id="_9_6-3" data-name="9/6" d="M-12.981-1.236V-3.469h-2.25V-5.01h2.25V-7.242h1.5V-5.01h2.256v1.541h-2.256v2.232Zm7.7-7.389a2.347,2.347,0,0,1,1.951.891,5.686,5.686,0,0,1,.838,3.5,5.7,5.7,0,0,1-.844,3.5A2.343,2.343,0,0,1-5.284.146,2.458,2.458,0,0,1-7.305-.817a5.7,5.7,0,0,1-.768-3.437,5.675,5.675,0,0,1,.844-3.492A2.343,2.343,0,0,1-5.284-8.625Zm0,1.365a.823.823,0,0,0-.533.19,1.278,1.278,0,0,0-.363.683,9.415,9.415,0,0,0-.17,2.15A9.346,9.346,0,0,0-6.2-2.159a1.46,1.46,0,0,0,.384.753.819.819,0,0,0,.53.188.823.823,0,0,0,.533-.19,1.278,1.278,0,0,0,.363-.683,9.332,9.332,0,0,0,.17-2.145A9.346,9.346,0,0,0-4.37-6.313a1.481,1.481,0,0,0-.384-.756A.811.811,0,0,0-5.284-7.26ZM1.534-8.625a2.347,2.347,0,0,1,1.951.891,5.686,5.686,0,0,1,.838,3.5,5.7,5.7,0,0,1-.844,3.5A2.343,2.343,0,0,1,1.534.146,2.458,2.458,0,0,1-.488-.817a5.7,5.7,0,0,1-.768-3.437A5.675,5.675,0,0,1-.411-7.746,2.343,2.343,0,0,1,1.534-8.625Zm0,1.365A.823.823,0,0,0,1-7.069a1.278,1.278,0,0,0-.363.683,9.415,9.415,0,0,0-.17,2.15A9.346,9.346,0,0,0,.62-2.159,1.46,1.46,0,0,0,1-1.406a.819.819,0,0,0,.53.188.823.823,0,0,0,.533-.19,1.278,1.278,0,0,0,.363-.683A9.332,9.332,0,0,0,2.6-4.236a9.346,9.346,0,0,0-.152-2.077,1.481,1.481,0,0,0-.384-.756A.811.811,0,0,0,1.534-7.26Zm4.046.791A2.477,2.477,0,0,1,6.087-8.18a1.766,1.766,0,0,1,1.374-.557,1.807,1.807,0,0,1,1.4.554,2.475,2.475,0,0,1,.507,1.714,2.477,2.477,0,0,1-.507,1.711A1.766,1.766,0,0,1,7.49-4.2a1.807,1.807,0,0,1-1.4-.554A2.475,2.475,0,0,1,5.58-6.469ZM6.863-6.48a2.22,2.22,0,0,0,.193,1.125.466.466,0,0,0,.4.211.471.471,0,0,0,.41-.211A2.28,2.28,0,0,0,8.059-6.48,2.242,2.242,0,0,0,7.871-7.6a.467.467,0,0,0-.41-.217.466.466,0,0,0-.4.211A2.22,2.22,0,0,0,6.863-6.48ZM8.715.328H7.5l4.576-9.064h1.184Zm2.66-2.256a2.477,2.477,0,0,1,.507-1.711A1.78,1.78,0,0,1,13.268-4.2a1.788,1.788,0,0,1,1.392.557,2.477,2.477,0,0,1,.507,1.711,2.487,2.487,0,0,1-.507,1.717,1.766,1.766,0,0,1-1.374.557,1.8,1.8,0,0,1-1.4-.557A2.487,2.487,0,0,1,11.375-1.928Zm1.283-.006a2.183,2.183,0,0,0,.193,1.119.462.462,0,0,0,.4.217.457.457,0,0,0,.4-.211,2.22,2.22,0,0,0,.193-1.125,2.28,2.28,0,0,0-.187-1.125.471.471,0,0,0-.41-.211.457.457,0,0,0-.4.211A2.22,2.22,0,0,0,12.658-1.934Z" transform="translate(-19443.027 -22057.6)" fill="#fff"/>
    <path id="_9_6-4" data-name="9/6" d="M-13.549-2.291V-3.937h3.234v1.646ZM-6.79-8.625a2.347,2.347,0,0,1,1.951.891A5.686,5.686,0,0,1-4-4.236a5.7,5.7,0,0,1-.844,3.5A2.343,2.343,0,0,1-6.79.146,2.458,2.458,0,0,1-8.811-.817a5.7,5.7,0,0,1-.768-3.437,5.675,5.675,0,0,1,.844-3.492A2.343,2.343,0,0,1-6.79-8.625Zm0,1.365a.823.823,0,0,0-.533.19,1.278,1.278,0,0,0-.363.683,9.415,9.415,0,0,0-.17,2.15A9.346,9.346,0,0,0-7.7-2.159a1.46,1.46,0,0,0,.384.753.819.819,0,0,0,.53.188.823.823,0,0,0,.533-.19,1.278,1.278,0,0,0,.363-.683,9.332,9.332,0,0,0,.17-2.145,9.346,9.346,0,0,0-.152-2.077,1.481,1.481,0,0,0-.384-.756A.811.811,0,0,0-6.79-7.26ZM.028-8.625a2.347,2.347,0,0,1,1.951.891,5.686,5.686,0,0,1,.838,3.5,5.7,5.7,0,0,1-.844,3.5A2.343,2.343,0,0,1,.028.146,2.458,2.458,0,0,1-1.993-.817a5.7,5.7,0,0,1-.768-3.437,5.675,5.675,0,0,1,.844-3.492A2.343,2.343,0,0,1,.028-8.625Zm0,1.365a.823.823,0,0,0-.533.19,1.278,1.278,0,0,0-.363.683,9.415,9.415,0,0,0-.17,2.15A9.346,9.346,0,0,0-.886-2.159,1.46,1.46,0,0,0-.5-1.406a.819.819,0,0,0,.53.188.823.823,0,0,0,.533-.19,1.278,1.278,0,0,0,.363-.683,9.332,9.332,0,0,0,.17-2.145A9.346,9.346,0,0,0,.942-6.313a1.481,1.481,0,0,0-.384-.756A.811.811,0,0,0,.028-7.26Zm4.046.791A2.477,2.477,0,0,1,4.581-8.18a1.766,1.766,0,0,1,1.374-.557,1.807,1.807,0,0,1,1.4.554,2.475,2.475,0,0,1,.507,1.714,2.477,2.477,0,0,1-.507,1.711A1.766,1.766,0,0,1,5.985-4.2a1.807,1.807,0,0,1-1.4-.554A2.475,2.475,0,0,1,4.074-6.469ZM5.358-6.48a2.22,2.22,0,0,0,.193,1.125.466.466,0,0,0,.4.211.471.471,0,0,0,.41-.211A2.28,2.28,0,0,0,6.553-6.48,2.242,2.242,0,0,0,6.365-7.6a.467.467,0,0,0-.41-.217.466.466,0,0,0-.4.211A2.22,2.22,0,0,0,5.358-6.48ZM7.209.328H5.99l4.576-9.064H11.75Zm2.66-2.256a2.477,2.477,0,0,1,.507-1.711A1.78,1.78,0,0,1,11.762-4.2a1.788,1.788,0,0,1,1.392.557,2.477,2.477,0,0,1,.507,1.711,2.487,2.487,0,0,1-.507,1.717,1.766,1.766,0,0,1-1.374.557,1.8,1.8,0,0,1-1.4-.557A2.487,2.487,0,0,1,9.869-1.928Zm1.283-.006a2.183,2.183,0,0,0,.193,1.119.462.462,0,0,0,.4.217.457.457,0,0,0,.4-.211,2.22,2.22,0,0,0,.193-1.125,2.28,2.28,0,0,0-.187-1.125.471.471,0,0,0-.41-.211.457.457,0,0,0-.4.211A2.22,2.22,0,0,0,11.153-1.934Z" transform="translate(-19265.027 -21998.6)" fill="#fff"/>
  </g>
</svg>
