<svg xmlns="http://www.w3.org/2000/svg" xmlns:xlink="http://www.w3.org/1999/xlink" width="54" height="54" viewBox="0 0 54 54">
  <defs>
    <filter id="矩形_2" x="0" y="0" width="54" height="54" filterUnits="userSpaceOnUse">
      <feOffset dy="3" input="SourceAlpha"/>
      <feGaussianBlur stdDeviation="4" result="blur"/>
      <feFlood flood-opacity="0.161"/>
      <feComposite operator="in" in2="blur"/>
      <feComposite in="SourceGraphic"/>
    </filter>
  </defs>
  <g id="组_19" data-name="组 19" transform="translate(377 -241) rotate(90)">
    <g id="组_6" data-name="组 6" transform="translate(0 36)">
      <g transform="matrix(0, -1, 1, 0, 241, 341)" filter="url(#矩形_2)">
        <rect id="矩形_2-2" data-name="矩形 2" width="30" height="30" rx="4" transform="translate(42 9) rotate(90)" fill="#1cb0f0"/>
      </g>
    </g>
    <path id="Icon_awesome-chevron-up" data-name="Icon awesome-chevron-up" d="M10.4,19.653l8.264-8.264a1.02,1.02,0,0,0,0-1.443L17.7,8.982a1.02,1.02,0,0,0-1.441,0L9.682,15.53,3.1,8.98a1.02,1.02,0,0,0-1.441,0L.7,9.946a1.02,1.02,0,0,0,0,1.443L8.96,19.653A1.02,1.02,0,0,0,10.4,19.653Z" transform="translate(255.602 336.317)" fill="#fff"/>
  </g>
</svg>
