<svg xmlns="http://www.w3.org/2000/svg" width="30" height="30" viewBox="0 0 30 30">
  <g id="组_5" data-name="组 5" transform="translate(-250 -299)">
    <rect id="矩形_2" data-name="矩形 2" width="30" height="30" rx="4" transform="translate(250 299)" fill="#364d6e"/>
    <g id="Iconly_Light-Outline_Arrow---Left-2" data-name="Iconly/Light-Outline/Arrow---Left-2" transform="translate(252.25 301.75)">
      <g id="Arrow---Left-2" transform="translate(16.5 4) rotate(90)">
        <path id="Stroke-1" d="M.47.47A.75.75,0,0,1,1.446.4L1.53.47,8,6.939,14.47.47A.75.75,0,0,1,15.446.4L15.53.47a.75.75,0,0,1,.073.977l-.073.084-7,7a.75.75,0,0,1-.977.073L7.47,8.53l-7-7A.75.75,0,0,1,.47.47Z" fill="#fff"/>
      </g>
    </g>
  </g>
</svg>
