<svg xmlns="http://www.w3.org/2000/svg" width="30" height="30" viewBox="0 0 30 30">
  <g id="组_4" data-name="组 4" transform="translate(-292 -299)">
    <rect id="矩形_3" data-name="矩形 3" width="30" height="30" rx="4" transform="translate(292 299)" fill="#364d6e"/>
    <g id="Iconly_Light-Outline_Arrow---Left-2" data-name="Iconly/Light-Outline/Arrow---Left-2" transform="translate(304 306)">
      <g id="Arrow---Left-2" transform="translate(8.5 0) rotate(90)">
        <path id="Stroke-1" d="M.22,8.28a.75.75,0,0,0,.977.073L1.28,8.28,7.75,1.811,14.22,8.28a.75.75,0,0,0,.977.073l.084-.073a.75.75,0,0,0,.073-.977L15.28,7.22l-7-7A.75.75,0,0,0,7.3.147L7.22.22l-7,7A.75.75,0,0,0,.22,8.28Z" fill="#fff"/>
      </g>
    </g>
  </g>
</svg>
